<?xml version="1.0" encoding="UTF-8"?>
<svg xmlns="http://www.w3.org/2000/svg" xmlns:xlink="http://www.w3.org/1999/xlink" width="29pt" height="29pt" viewBox="0 0 32 32" version="1.1">
    <g id="surface1">
        <path style=" stroke:none;fill-rule:nonzero;fill:rgb(0%,84.705882%,100%);fill-opacity:1;" d="M 18.648438 15.980469 C 18.648438 17.457031 17.453125 18.65625 15.972656 18.65625 C 14.496094 18.65625 13.296875 17.457031 13.296875 15.980469 C 13.296875 14.5 14.496094 13.304688 15.972656 13.304688 C 17.453125 13.304688 18.648438 14.5 18.648438 15.980469 Z M 18.648438 15.980469 "/>
        <path style="fill:none;stroke-width:144.7456;stroke-linecap:butt;stroke-linejoin:miter;stroke:rgb(0%,84.705882%,100%);stroke-opacity:1;stroke-miterlimit:10;" d="M 1806.407593 1191.9021 C 2212.838257 1191.9021 2590.111938 1250.216064 2874.613403 1348.289551 C 3217.428833 1466.242798 3428.154297 1645.160645 3428.154297 1806.849365 C 3428.154297 1975.606445 3204.617432 2166.010376 2836.620972 2287.939575 C 2558.304321 2379.828247 2192.074951 2427.981445 1806.407593 2427.981445 C 1411.02124 2427.981445 1036.839966 2382.920654 755.430908 2286.614258 C 399.362305 2165.126831 184.660889 1972.514038 184.660889 1806.849365 C 184.660889 1646.485962 386.109131 1468.893433 724.065063 1350.940186 C 1009.450073 1251.541382 1396.442749 1191.9021 1806.407593 1191.9021 Z M 1806.407593 1191.9021 " transform="matrix(0.00884222,0,0,0.00884222,0,0)"/>
        <path style="fill:none;stroke-width:144.7456;stroke-linecap:butt;stroke-linejoin:miter;stroke:rgb(0%,84.705882%,100%);stroke-opacity:1;stroke-miterlimit:10;" d="M 1270.97937 1501.142822 C 1473.75293 1149.491943 1713.193604 851.737305 1939.822876 654.265015 C 2213.280029 416.149658 2473.925781 322.935669 2613.967651 403.780029 C 2760.194336 488.158569 2813.207031 776.635986 2735.013306 1156.560303 C 2675.815796 1443.712402 2534.890381 1785.202515 2341.835815 2119.182495 C 2144.363525 2461.556152 1918.176025 2763.286743 1694.197388 2958.991943 C 1411.02124 3206.826294 1137.122314 3296.506104 993.546265 3213.894653 C 854.387939 3133.492065 801.375244 2870.195679 868.082886 2518.5448 C 924.187988 2221.231934 1065.996948 1856.769653 1270.97937 1501.142822 Z M 1270.97937 1501.142822 " transform="matrix(0.00884222,0,0,0.00884222,0,0)"/>
        <path style="fill:none;stroke-width:144.7456;stroke-linecap:butt;stroke-linejoin:miter;stroke:rgb(0%,84.705882%,100%);stroke-opacity:1;stroke-miterlimit:10;" d="M 1271.421143 2119.624268 C 1068.205811 1768.415161 929.489258 1412.346558 871.617065 1117.242554 C 801.817017 761.17395 851.295532 489.042114 991.337402 408.197754 C 1137.564087 323.377441 1414.113647 421.450928 1703.916382 679.004272 C 1923.035522 873.825928 2148.339478 1166.721069 2341.394043 1500.259277 C 2539.749878 1842.632935 2688.185425 2188.982544 2745.615845 2480.994141 C 2818.950073 2850.315918 2759.752563 3132.166748 2616.618286 3215.219971 C 2477.459961 3295.622559 2222.999023 3210.360474 1951.30896 2977.104614 C 1722.470825 2779.632324 1476.845337 2474.809326 1271.421143 2119.624268 Z M 1271.421143 2119.624268 " transform="matrix(0.00884222,0,0,0.00884222,0,0)"/>
    </g>
</svg>
