<?xml version="1.0" encoding="utf-8"?>
<!-- Generator: Adobe Illustrator 24.2.1, SVG Export Plug-In . SVG Version: 6.00 Build 0)  -->
<svg version="1.1" id="Layer_1" xmlns="http://www.w3.org/2000/svg" xmlns:xlink="http://www.w3.org/1999/xlink" x="0px" y="0px"
	 viewBox="0 0 48 48" style="enable-background:new 0 0 48 48;" xml:space="preserve">
<g id="Layer_1_1_">
</g>
<g id="Pictograms_x5F_positive">
	<g>
		<g>
			<path d="M23.4,15.4H20c-1.9,0-3.4-1.5-3.4-3.4s1.5-3.4,3.4-3.4s3.4,1.5,3.4,3.4V15.4z M20,9.4c-1.5,0-2.6,1.2-2.6,2.6
				s1.2,2.6,2.6,2.6h2.6V12C22.6,10.5,21.5,9.4,20,9.4z"/>
			<path d="M20,23.4h-8c-1.9,0-3.4-1.5-3.4-3.4s1.5-3.4,3.4-3.4h8c1.9,0,3.4,1.5,3.4,3.4S21.9,23.4,20,23.4z M12,17.4
				c-1.5,0-2.6,1.2-2.6,2.6c0,1.4,1.2,2.6,2.6,2.6h8c1.5,0,2.6-1.2,2.6-2.6c0-1.4-1.1-2.6-2.6-2.6H12z"/>
		</g>
		<g>
			<path d="M36,23.4h-3.4V20c0-1.9,1.5-3.4,3.4-3.4c1.9,0,3.4,1.5,3.4,3.4S37.9,23.4,36,23.4z M33.4,22.6H36c1.5,0,2.6-1.2,2.6-2.6
				c0-1.4-1.1-2.6-2.6-2.6s-2.6,1.2-2.6,2.6V22.6z"/>
			<path d="M28,23.4c-1.9,0-3.4-1.5-3.4-3.4v-8c0-1.9,1.5-3.4,3.4-3.4s3.4,1.5,3.4,3.4v8C31.4,21.9,29.9,23.4,28,23.4z M28,9.4
				c-1.5,0-2.6,1.2-2.6,2.6v8c0,1.5,1.2,2.6,2.6,2.6s2.6-1.2,2.6-2.6v-8C30.6,10.5,29.5,9.4,28,9.4z"/>
		</g>
		<g>
			<path d="M28,39.4c-1.9,0-3.4-1.5-3.4-3.4v-3.4H28c1.9,0,3.4,1.5,3.4,3.4C31.4,37.9,29.9,39.4,28,39.4z M25.4,33.4V36
				c0,1.5,1.2,2.6,2.6,2.6s2.6-1.2,2.6-2.6c0-1.4-1.2-2.6-2.6-2.6H25.4z"/>
			<path d="M36,31.4h-8c-1.9,0-3.4-1.5-3.4-3.4s1.5-3.4,3.4-3.4h8c1.9,0,3.4,1.5,3.4,3.4S37.9,31.4,36,31.4z M28,25.4
				c-1.5,0-2.6,1.2-2.6,2.6s1.2,2.6,2.6,2.6h8c1.5,0,2.6-1.2,2.6-2.6s-1.2-2.6-2.6-2.6H28z"/>
		</g>
		<g>
			<path d="M12,31.4c-1.9,0-3.4-1.5-3.4-3.4s1.5-3.4,3.4-3.4h3.4V28C15.4,29.9,13.9,31.4,12,31.4z M12,25.4c-1.5,0-2.6,1.2-2.6,2.6
				s1.2,2.6,2.6,2.6s2.6-1.2,2.6-2.6v-2.6H12z"/>
			<path d="M20,39.4c-1.9,0-3.4-1.5-3.4-3.4v-8c0-1.9,1.5-3.4,3.4-3.4s3.4,1.5,3.4,3.4v8C23.4,37.9,21.9,39.4,20,39.4z M20,25.4
				c-1.5,0-2.6,1.2-2.6,2.6v8c0,1.5,1.2,2.6,2.6,2.6c1.4,0,2.6-1.2,2.6-2.6v-8C22.6,26.5,21.5,25.4,20,25.4z"/>
		</g>
	</g>
</g>
</svg>
