<?xml version="1.0" encoding="UTF-8"?>
<svg width="116px" height="116px" viewBox="0 0 116 116" version="1.1" xmlns="http://www.w3.org/2000/svg" xmlns:xlink="http://www.w3.org/1999/xlink">
    <title>slack_pictogram copy</title>
    <g id="slack_pictogram-copy" stroke="none" stroke-width="1" fill="none" fill-rule="evenodd">
        <path d="M40,67.5 C40,71.0775194 37.0775194,74 33.5,74 C29.9224806,74 27,71.0775194 27,67.5 C27,63.9224806 29.9224806,61 33.5,61 L40,61 L40,67.5 Z" id="Path" stroke="#000000" stroke-width="2.5" fill-rule="nonzero"></path>
        <path d="M42,67.2168675 C42,63.7951807 44.9224806,61 48.5,61 C52.0775194,61 55,63.7951807 55,67.2168675 L55,82.7831325 C55,86.2048193 52.0775194,89 48.5,89 C44.9224806,89 42,86.2048193 42,82.7831325 C42,82.7831325 42,67.2168675 42,67.2168675 Z" id="Path" stroke="#000000" stroke-width="2.5" fill-rule="nonzero"></path>
        <path d="M48.5,40 C44.9224806,40 42,37.0775194 42,33.5 C42,29.9224806 44.9224806,27 48.5,27 C52.0775194,27 55,29.9224806 55,33.5 L55,40 L48.5,40 Z" id="Path" stroke="#000000" stroke-width="2.5" fill-rule="nonzero"></path>
        <path d="M48.7831325,42 C52.2048193,42 55,44.9224806 55,48.5 C55,52.0775194 52.2048193,55 48.7831325,55 L33.2168675,55 C29.7951807,55 27,52.0775194 27,48.5 C27,44.9224806 29.7951807,42 33.2168675,42 C33.2168675,42 48.7831325,42 48.7831325,42 Z" id="Path" stroke="#000000" stroke-width="2.5" fill-rule="nonzero"></path>
        <path d="M76,48.5 C76,44.9224806 78.9224806,42 82.5,42 C86.0775194,42 89,44.9224806 89,48.5 C89,52.0775194 86.0775194,55 82.5,55 L76,55 L76,48.5 Z" id="Path" stroke="#000000" stroke-width="2.5" fill-rule="nonzero"></path>
        <path d="M74,48.7831325 C74,52.2048193 71.0775194,55 67.5,55 C63.9224806,55 61,52.2048193 61,48.7831325 L61,33.2168675 C61,29.7951807 63.9224806,27 67.5,27 C71.0775194,27 74,29.7951807 74,33.2168675 L74,48.7831325 Z" id="Path" stroke="#000000" stroke-width="2.5" fill-rule="nonzero"></path>
        <path d="M67.5,76 C71.0775194,76 74,78.9224806 74,82.5 C74,86.0775194 71.0775194,89 67.5,89 C63.9224806,89 61,86.0775194 61,82.5 L61,76 L67.5,76 Z" id="Path" stroke="#000000" stroke-width="2.5" fill-rule="nonzero"></path>
        <path d="M67.2168675,74 C63.7951807,74 61,71.0775194 61,67.5 C61,63.9224806 63.7951807,61 67.2168675,61 L82.7831325,61 C86.2048193,61 89,63.9224806 89,67.5 C89,71.0775194 86.2048193,74 82.7831325,74 L67.2168675,74 Z" id="Path" stroke="#000000" stroke-width="2.5" fill-rule="nonzero"></path>
    </g>
</svg>