<?xml version="1.0" encoding="UTF-8"?>
<svg width="116px" height="116px" viewBox="0 0 116 116" version="1.1" xmlns="http://www.w3.org/2000/svg" xmlns:xlink="http://www.w3.org/1999/xlink">
    <title>06/02</title>
    <g id="06/02" stroke="none" stroke-width="1" fill="none" fill-rule="evenodd">
        <path d="M39,67.5 C39,71.0775194 36.0775194,74 32.5,74 C28.9224806,74 26,71.0775194 26,67.5 C26,63.9224806 28.9224806,61 32.5,61 L39,61 L39,67.5 Z" id="Path" stroke="#000000" stroke-width="1.5" fill-rule="nonzero"></path>
        <path d="M42,67.2168675 C42,63.7951807 44.9224806,61 48.5,61 C52.0775194,61 55,63.7951807 55,67.2168675 L55,82.7831325 C55,86.2048193 52.0775194,89 48.5,89 C44.9224806,89 42,86.2048193 42,82.7831325 C42,82.7831325 42,67.2168675 42,67.2168675 Z" id="Path" stroke="#000000" stroke-width="1.5" fill-rule="nonzero"></path>
        <path d="M48.5,39 C44.9224806,39 42,36.0775194 42,32.5 C42,28.9224806 44.9224806,26 48.5,26 C52.0775194,26 55,28.9224806 55,32.5 L55,39 L48.5,39 Z" id="Path" stroke="#000000" stroke-width="1.5" fill-rule="nonzero"></path>
        <path d="M48.7831325,42 C52.2048193,42 55,44.9224806 55,48.5 C55,52.0775194 52.2048193,55 48.7831325,55 L33.2168675,55 C29.7951807,55 27,52.0775194 27,48.5 C27,44.9224806 29.7951807,42 33.2168675,42 C33.2168675,42 48.7831325,42 48.7831325,42 Z" id="Path" stroke="#000000" stroke-width="1.5" fill-rule="nonzero"></path>
        <path d="M77,48.5 C77,44.9224806 79.9224806,42 83.5,42 C87.0775194,42 90,44.9224806 90,48.5 C90,52.0775194 87.0775194,55 83.5,55 L77,55 L77,48.5 Z" id="Path" stroke="#000000" stroke-width="1.5" fill-rule="nonzero"></path>
        <path d="M74,48.7831325 C74,52.2048193 71.0775194,55 67.5,55 C63.9224806,55 61,52.2048193 61,48.7831325 L61,33.2168675 C61,29.7951807 63.9224806,27 67.5,27 C71.0775194,27 74,29.7951807 74,33.2168675 L74,48.7831325 Z" id="Path" stroke="#000000" stroke-width="1.5" fill-rule="nonzero"></path>
        <path d="M67.5,77 C71.0775194,77 74,79.9224806 74,83.5 C74,87.0775194 71.0775194,90 67.5,90 C63.9224806,90 61,87.0775194 61,83.5 L61,77 L67.5,77 Z" id="Path" stroke="#000000" stroke-width="1.5" fill-rule="nonzero"></path>
        <path d="M67.2168675,74 C63.7951807,74 61,71.0775194 61,67.5 C61,63.9224806 63.7951807,61 67.2168675,61 L82.7831325,61 C86.2048193,61 89,63.9224806 89,67.5 C89,71.0775194 86.2048193,74 82.7831325,74 L67.2168675,74 Z" id="Path" stroke="#000000" stroke-width="1.5" fill-rule="nonzero"></path>
    </g>
</svg>