<?xml version="1.0" encoding="UTF-8"?>
<svg width="32px" height="32px" viewBox="0 0 32 32" version="1.1" xmlns="http://www.w3.org/2000/svg" xmlns:xlink="http://www.w3.org/1999/xlink">
    <!-- Generator: Sketch 58 (84663) - https://sketch.com -->
    <title>Slack_Mark Copy</title>
    <desc>Created with Sketch.</desc>
    <g id="Resources" stroke="none" stroke-width="1" fill="none" fill-rule="evenodd">
        <g id="Resources---v2" transform="translate(-352.000000, -3268.000000)" fill-rule="nonzero">
            <g id="Slack_Mark-Copy" transform="translate(352.000000, 3268.000000)">
                <g id="Group" transform="translate(0.000000, 16.774194)" fill="#E01E5A">
                    <path d="M6.81290323,3.40645161 C6.81290323,5.23870968 5.31612903,6.73548387 3.48387097,6.73548387 C1.6516129,6.73548387 0.15483871,5.23870968 0.15483871,3.40645161 C0.15483871,1.57419355 1.6516129,0.0774193548 3.48387097,0.0774193548 L6.81290323,0.0774193548 L6.81290323,3.40645161 Z" id="Path"></path>
                    <path d="M8.49032258,3.40645161 C8.49032258,1.57419355 9.98709677,0.0774193548 11.8193548,0.0774193548 C13.6516129,0.0774193548 15.1483871,1.57419355 15.1483871,3.40645161 L15.1483871,11.7419355 C15.1483871,13.5741935 13.6516129,15.0709677 11.8193548,15.0709677 C9.98709677,15.0709677 8.49032258,13.5741935 8.49032258,11.7419355 L8.49032258,3.40645161 Z" id="Path"></path>
                </g>
                <g id="Group" fill="#36C5F0">
                    <path d="M11.8193548,6.81290323 C9.98709677,6.81290323 8.49032258,5.31612903 8.49032258,3.48387097 C8.49032258,1.6516129 9.98709677,0.15483871 11.8193548,0.15483871 C13.6516129,0.15483871 15.1483871,1.6516129 15.1483871,3.48387097 L15.1483871,6.81290323 L11.8193548,6.81290323 Z" id="Path"></path>
                    <path d="M11.8193548,8.49032258 C13.6516129,8.49032258 15.1483871,9.98709677 15.1483871,11.8193548 C15.1483871,13.6516129 13.6516129,15.1483871 11.8193548,15.1483871 L3.48387097,15.1483871 C1.6516129,15.1483871 0.15483871,13.6516129 0.15483871,11.8193548 C0.15483871,9.98709677 1.6516129,8.49032258 3.48387097,8.49032258 L11.8193548,8.49032258 Z" id="Path"></path>
                </g>
                <g id="Group" transform="translate(16.774194, 0.000000)" fill="#2EB67D">
                    <path d="M8.41290323,11.8193548 C8.41290323,9.98709677 9.90967742,8.49032258 11.7419355,8.49032258 C13.5741935,8.49032258 15.0709677,9.98709677 15.0709677,11.8193548 C15.0709677,13.6516129 13.5741935,15.1483871 11.7419355,15.1483871 L8.41290323,15.1483871 L8.41290323,11.8193548 Z" id="Path"></path>
                    <path d="M6.73548387,11.8193548 C6.73548387,13.6516129 5.23870968,15.1483871 3.40645161,15.1483871 C1.57419355,15.1483871 0.0774193548,13.6516129 0.0774193548,11.8193548 L0.0774193548,3.48387097 C0.0774193548,1.6516129 1.57419355,0.15483871 3.40645161,0.15483871 C5.23870968,0.15483871 6.73548387,1.6516129 6.73548387,3.48387097 L6.73548387,11.8193548 Z" id="Path"></path>
                </g>
                <g id="Group" transform="translate(16.774194, 16.774194)" fill="#ECB22E">
                    <path d="M3.40645161,8.41290323 C5.23870968,8.41290323 6.73548387,9.90967742 6.73548387,11.7419355 C6.73548387,13.5741935 5.23870968,15.0709677 3.40645161,15.0709677 C1.57419355,15.0709677 0.0774193548,13.5741935 0.0774193548,11.7419355 L0.0774193548,8.41290323 L3.40645161,8.41290323 Z" id="Path"></path>
                    <path d="M3.40645161,6.73548387 C1.57419355,6.73548387 0.0774193548,5.23870968 0.0774193548,3.40645161 C0.0774193548,1.57419355 1.57419355,0.0774193548 3.40645161,0.0774193548 L11.7419355,0.0774193548 C13.5741935,0.0774193548 15.0709677,1.57419355 15.0709677,3.40645161 C15.0709677,5.23870968 13.5741935,6.73548387 11.7419355,6.73548387 L3.40645161,6.73548387 Z" id="Path"></path>
                </g>
            </g>
        </g>
    </g>
</svg>