<?xml version="1.0" encoding="UTF-8"?>
<svg width="116px" height="116px" viewBox="0 0 116 116" version="1.1" xmlns="http://www.w3.org/2000/svg" xmlns:xlink="http://www.w3.org/1999/xlink">
    <title>slack_pictogram (Latest)</title>
    <g id="slack_pictogram-(Latest)" stroke="none" stroke-width="1" fill="none" fill-rule="evenodd">
        <path d="M39,72.5 C39,76.0775194 36.0775194,79 32.5,79 C28.9224806,79 26,76.0775194 26,72.5 C26,68.9224806 28.9224806,66 32.5,66 L39,66 L39,72.5 Z" id="Path-Copy" stroke="#000000" stroke-width="1.5" fill-rule="nonzero"></path>
        <path d="M42,72.2168675 C42,68.7951807 44.9224806,66 48.5,66 C52.0775194,66 55,68.7951807 55,72.2168675 L55,87.7831325 C55,91.2048193 52.0775194,94 48.5,94 C44.9224806,94 42,91.2048193 42,87.7831325 C42,87.7831325 42,72.2168675 42,72.2168675 Z" id="Path-Copy-2" stroke="#000000" stroke-width="1.5" fill-rule="nonzero"></path>
        <path d="M48.5,44 C44.9224806,44 42,41.0775194 42,37.5 C42,33.9224806 44.9224806,31 48.5,31 C52.0775194,31 55,33.9224806 55,37.5 L55,44 L48.5,44 Z" id="Path-Copy-3" stroke="#000000" stroke-width="1.5" fill-rule="nonzero"></path>
        <path d="M48.7831325,47 C52.2048193,47 55,49.9224806 55,53.5 C55,57.0775194 52.2048193,60 48.7831325,60 L33.2168675,60 C29.7951807,60 27,57.0775194 27,53.5 C27,49.9224806 29.7951807,47 33.2168675,47 C33.2168675,47 48.7831325,47 48.7831325,47 Z" id="Path-Copy-4" stroke="#000000" stroke-width="1.5" fill-rule="nonzero"></path>
        <path d="M77,53.5 C77,49.9224806 79.9224806,47 83.5,47 C87.0775194,47 90,49.9224806 90,53.5 C90,57.0775194 87.0775194,60 83.5,60 L77,60 L77,53.5 Z" id="Path-Copy-5" stroke="#000000" stroke-width="1.5" fill-rule="nonzero"></path>
        <path d="M74,53.7831325 C74,57.2048193 71.0775194,60 67.5,60 C63.9224806,60 61,57.2048193 61,53.7831325 L61,38.2168675 C61,34.7951807 63.9224806,32 67.5,32 C71.0775194,32 74,34.7951807 74,38.2168675 L74,53.7831325 Z" id="Path-Copy-6" stroke="#000000" stroke-width="1.5" fill-rule="nonzero"></path>
        <path d="M67.5,82 C71.0775194,82 74,84.9224806 74,88.5 C74,92.0775194 71.0775194,95 67.5,95 C63.9224806,95 61,92.0775194 61,88.5 L61,82 L67.5,82 Z" id="Path-Copy-7" stroke="#000000" stroke-width="1.5" fill-rule="nonzero"></path>
        <path d="M67.2168675,79 C63.7951807,79 61,76.0775194 61,72.5 C61,68.9224806 63.7951807,66 67.2168675,66 L82.7831325,66 C86.2048193,66 89,68.9224806 89,72.5 C89,76.0775194 86.2048193,79 82.7831325,79 L67.2168675,79 Z" id="Path-Copy-8" stroke="#000000" stroke-width="1.5" fill-rule="nonzero"></path>
    </g>
</svg>