<svg version="1.1" id="Layer_1" xmlns="http://www.w3.org/2000/svg" x="0" y="0" viewBox="0 0 32 32" style="enable-background:new 0 0 32 32" xml:space="preserve">
	<style>
		.st2 {
			fill-rule: evenodd;
			clip-rule: evenodd;
			fill: #fff;
		}
	</style>
	<g id="storybook-logo_x2F_default">
		<g id="storybook-icon_x2F_default">
			<g id="path1_fill-path"><path id="path-1_00000026846082605550533960000010546482974022858384_" d="M5.3 28.2 4.4 4.3c0-.8.6-1.5 1.4-1.5l20.3-1.3c.8-.1 1.5.6 1.5 1.4V29c0 .8-.7 1.5-1.5 1.5H26l-19.3-.9c-.8 0-1.4-.6-1.4-1.4z" style="fill:#ff4785"/></g>
			<defs>
				<filter id="Adobe_OpacityMaskFilter" filterUnits="userSpaceOnUse" x="21.5" y="1.5" width="3.1" height="3.8"><feColorMatrix values="1 0 0 0 0 0 1 0 0 0 0 0 1 0 0 0 0 0 1 0"/></filter>
			</defs>
			<mask maskUnits="userSpaceOnUse" x="21.5" y="1.5" width="3.1" height="3.8" id="mask-2_00000096024855191728202890000017160667279543513000_">
				<g style="filter:url(#Adobe_OpacityMaskFilter)"><path id="path-1_00000108294810955569282870000013308911588504458149_" class="st2" d="M5.3 28.2 4.4 4.3c0-.8.6-1.5 1.4-1.5l20.3-1.3c.8-.1 1.5.6 1.5 1.4V29c0 .8-.7 1.5-1.5 1.5H26l-19.3-.9c-.8 0-1.4-.6-1.4-1.4z"/></g>
			</mask><path id="path2_fill-path" d="m21.5 5.1.1-3.3 2.8-.2.2 3.4c0 .1-.1.2-.2.2h-.1l-1.1-.8-1.3 1c-.1.1-.2.1-.3 0 0-.2-.1-.3-.1-.3z" style="mask:url(#mask-2_00000096024855191728202890000017160667279543513000_);fill:#fff"/>
			<defs>
				<filter id="Adobe_OpacityMaskFilter_00000080187919180160723050000009778338961413129141_" filterUnits="userSpaceOnUse" x="10.4" y="6.5" width="12.2" height="18.5"><feColorMatrix values="1 0 0 0 0 0 1 0 0 0 0 0 1 0 0 0 0 0 1 0"/></filter>
			</defs>
			<mask maskUnits="userSpaceOnUse" x="10.4" y="6.5" width="12.2" height="18.5" id="mask-2_00000018922653472758032220000003322681503809433526_">
				<g style="filter:url(#Adobe_OpacityMaskFilter_00000080187919180160723050000009778338961413129141_)"><path id="path-1_00000036216972092857659350000002862350065921564087_" class="st2" d="M5.3 28.2 4.4 4.3c0-.8.6-1.5 1.4-1.5l20.3-1.3c.8-.1 1.5.6 1.5 1.4V29c0 .8-.7 1.5-1.5 1.5H26l-19.3-.9c-.8 0-1.4-.6-1.4-1.4z"/></g>
			</mask><path
				id="path9_fill-path"
				d="M18 12.4c0 .6 3.8.3 4.3-.1 0-3.9-2.1-5.9-5.9-5.9s-5.9 2.1-5.9 5.1c0 5.4 7.3 5.5 7.3 8.4 0 .8-.4 1.3-1.3 1.3-1.2 0-1.6-.6-1.6-2.6 0-.4-4.4-.6-4.5 0-.4 5 2.7 6.4 6.1 6.4 3.4 0 6-1.8 6-5 0-5.8-7.4-5.6-7.4-8.5 0-1.2.9-1.3 1.4-1.3.6 0 1.6.1 1.5 2.2z"
				style="mask:url(#mask-2_00000018922653472758032220000003322681503809433526_);fill:#fff"/></g>
	</g>
</svg>
