<svg width="32" height="32" viewBox="0 0 500 500" xmlns="http://www.w3.org/2000/svg" fill-rule="evenodd" clip-rule="evenodd" stroke-linejoin="round" stroke-miterlimit="2"><g fill-rule="nonzero"><path d="M497.605 249.693l-53.793 90.97-75.426-92.215 75.426-89.726 53.793 90.97z" fill="#166da5"/><path d="M437.943 356.194l-81.925-98.436-49.137 82.598 76.348 112.078 54.714-96.24z" fill="#8fdb69"/><path d="M437.006 142.577l-80.988 98.728-49.137-82.583 76.348-110.848 53.777 94.703z" fill="#166da5"/><path d="M12.903 6.661h16.873L26.06.148h-9.44l-3.717 6.513zm11.34 6.766h9.335L30.22 7.742h-9.355l3.378 5.685z" fill="url(#_Linear1)" transform="translate(1.166 45.078) scale(14.6373)"/><path d="M29.84 21.276H12.882l3.717 6.469h9.503l3.738-6.469zm-5.597-6.767h9.335l-3.358 5.685h-9.355l3.378-5.685z" fill="url(#_Linear2)" transform="translate(1.166 45.078) scale(14.6373)"/><path d="M244.13 451.19L127.896 249.385 245.667 47.566H118.323L2.395 249.386 118.323 451.19H244.13z" fill="#010101"/></g><defs><linearGradient id="_Linear1" x1="0" y1="0" x2="1" y2="0" gradientUnits="userSpaceOnUse" gradientTransform="translate(12.903 6.788) scale(20.6745)"><stop offset="0" stop-color="#2a3b8f" stop-opacity=".95"/><stop offset="1" stop-color="#29abe2" stop-opacity=".95"/></linearGradient><linearGradient id="_Linear2" x1="0" y1="0" x2="1" y2="0" gradientUnits="userSpaceOnUse" gradientTransform="rotate(180 16.789 10.564) scale(20.6957)"><stop offset="0" stop-color="#b4d44e" stop-opacity=".95"/><stop offset="1" stop-color="#e7f716" stop-opacity=".95"/></linearGradient></defs></svg>