<?xml version="1.0" encoding="UTF-8"?>
<!DOCTYPE svg PUBLIC "-//W3C//DTD SVG 1.1//EN" "http://www.w3.org/Graphics/SVG/1.1/DTD/svg11.dtd">
<svg xmlns="http://www.w3.org/2000/svg" version="1.1" width="640px" height="360px" style="shape-rendering:geometricPrecision; text-rendering:geometricPrecision; image-rendering:optimizeQuality; fill-rule:evenodd; clip-rule:evenodd" xmlns:xlink="http://www.w3.org/1999/xlink">
<g><path style="opacity:1" fill="#0f61fe" d="M 110.5,146.5 C 177.833,146.5 245.167,146.5 312.5,146.5C 312.5,168.5 312.5,190.5 312.5,212.5C 245.167,212.5 177.833,212.5 110.5,212.5C 110.5,190.5 110.5,168.5 110.5,146.5 Z M 112.5,148.5 C 178.5,148.5 244.5,148.5 310.5,148.5C 310.5,169.167 310.5,189.833 310.5,210.5C 244.5,210.5 178.5,210.5 112.5,210.5C 112.5,189.833 112.5,169.167 112.5,148.5 Z M 155.5,176.5 C 156.643,176.908 157.643,177.575 158.5,178.5C 156.833,179.833 155.167,179.833 153.5,178.5C 154.243,177.818 154.909,177.151 155.5,176.5 Z M 179.5,177.5 C 181.144,177.286 182.644,177.62 184,178.5C 184.758,180.769 184.591,182.936 183.5,185C 181.888,185.72 180.388,185.554 179,184.5C 178.297,182.071 178.463,179.738 179.5,177.5 Z M 206.5,177.5 C 208.144,177.286 209.644,177.62 211,178.5C 211.758,180.769 211.591,182.936 210.5,185C 208.888,185.72 207.388,185.554 206,184.5C 205.297,182.071 205.463,179.738 206.5,177.5 Z M 219.5,182.5 C 221.288,182.215 222.955,182.548 224.5,183.5C 223.332,185.217 221.665,185.884 219.5,185.5C 219.5,184.5 219.5,183.5 219.5,182.5 Z"/></g>
<g><path style="opacity:1" fill="#0f62fe" d="M 327.5,147.5 C 394.167,147.5 460.833,147.5 527.5,147.5C 527.5,168.833 527.5,190.167 527.5,211.5C 460.833,211.5 394.167,211.5 327.5,211.5C 327.5,190.167 327.5,168.833 327.5,147.5 Z"/></g>
<g><path style="opacity:0.668" fill="#0f62fe" d="M 211.5,169.5 C 212.5,169.5 213.5,169.5 214.5,169.5C 214.5,175.5 214.5,181.5 214.5,187.5C 204.3,190.135 200.8,186.468 204,176.5C 206.075,174.352 208.408,174.018 211,175.5C 211.495,173.527 211.662,171.527 211.5,169.5 Z M 206.5,177.5 C 205.463,179.738 205.297,182.071 206,184.5C 207.388,185.554 208.888,185.72 210.5,185C 211.591,182.936 211.758,180.769 211,178.5C 209.644,177.62 208.144,177.286 206.5,177.5 Z"/></g>
<g><path style="opacity:1" fill="#b5ccff" d="M 376.5,169.5 C 379.674,169.952 380.007,170.952 377.5,172.5C 376.614,171.675 376.281,170.675 376.5,169.5 Z"/></g>
<g><path style="opacity:0.736" fill="#0f62fe" d="M 138.5,170.5 C 142.302,169.88 145.635,170.714 148.5,173C 147.975,173.692 147.308,174.192 146.5,174.5C 143.763,171.697 141.429,171.864 139.5,175C 141.39,176.904 143.724,178.07 146.5,178.5C 149.986,183.723 148.652,187.057 142.5,188.5C 140.803,188.101 139.137,187.601 137.5,187C 136.663,185.989 136.33,184.822 136.5,183.5C 138.675,183.682 140.675,184.349 142.5,185.5C 145.396,184.976 146.063,183.476 144.5,181C 136.915,180.308 134.915,176.808 138.5,170.5 Z"/></g>
<g><path style="opacity:1" fill="#dee7ff" d="M 353.5,170.5 C 356.518,170.335 359.518,170.502 362.5,171C 366.002,173.496 366.335,176.329 363.5,179.5C 360.916,180.393 358.249,180.726 355.5,180.5C 355.808,182.924 355.474,185.257 354.5,187.5C 353.505,181.872 353.171,176.206 353.5,170.5 Z"/></g>
<g><path style="opacity:1" fill="#2268fe" d="M 355.5,172.5 C 360.931,171.094 363.265,173.094 362.5,178.5C 360.167,178.5 357.833,178.5 355.5,178.5C 355.5,176.5 355.5,174.5 355.5,172.5 Z"/></g>
<g><path style="opacity:0.742" fill="#0f62fe" d="M 153.5,174.5 C 159.814,173.641 162.481,176.308 161.5,182.5C 158.753,182.187 156.086,182.52 153.5,183.5C 155.577,186.119 157.743,186.119 160,183.5C 161.617,184.536 161.784,185.703 160.5,187C 152.177,189.345 149.01,186.179 151,177.5C 151.698,176.309 152.531,175.309 153.5,174.5 Z M 155.5,176.5 C 154.909,177.151 154.243,177.818 153.5,178.5C 155.167,179.833 156.833,179.833 158.5,178.5C 157.643,177.575 156.643,176.908 155.5,176.5 Z"/></g>
<g><path style="opacity:0.671" fill="#0f62fe" d="M 166.5,174.5 C 169.908,173.828 172.575,174.828 174.5,177.5C 172.018,177.606 169.518,177.939 167,178.5C 165.33,185.18 167.33,186.846 173,183.5C 174.538,185.329 174.038,186.829 171.5,188C 164.129,188.27 161.629,184.77 164,177.5C 165.045,176.627 165.878,175.627 166.5,174.5 Z"/></g>
<g><path style="opacity:0.673" fill="#0f62fd" d="M 178.5,174.5 C 185.745,173.963 188.578,177.296 187,184.5C 183.333,189.833 179.667,189.833 176,184.5C 174.861,180.579 175.695,177.246 178.5,174.5 Z M 179.5,177.5 C 178.463,179.738 178.297,182.071 179,184.5C 180.388,185.554 181.888,185.72 183.5,185C 184.591,182.936 184.758,180.769 184,178.5C 182.644,177.62 181.144,177.286 179.5,177.5 Z"/></g>
<g><path style="opacity:0.672" fill="#0f62fd" d="M 189.5,174.5 C 192.603,174.67 195.77,175.004 199,175.5C 200.354,179.363 200.854,183.363 200.5,187.5C 199.5,187.5 198.5,187.5 197.5,187.5C 197.665,184.482 197.498,181.482 197,178.5C 195.644,177.62 194.144,177.286 192.5,177.5C 192.5,180.833 192.5,184.167 192.5,187.5C 191.5,187.5 190.5,187.5 189.5,187.5C 189.5,183.167 189.5,178.833 189.5,174.5 Z"/></g>
<g><path style="opacity:0.757" fill="#0f62fe" d="M 218.5,174.5 C 221.365,174.055 223.865,174.722 226,176.5C 226.037,180.089 226.87,183.422 228.5,186.5C 224.524,188.49 220.69,188.49 217,186.5C 216.333,184.833 216.333,183.167 217,181.5C 219.351,180.286 221.851,179.452 224.5,179C 223.667,178.167 222.833,177.333 222,176.5C 220.181,178.536 218.347,178.703 216.5,177C 217.381,176.292 218.047,175.458 218.5,174.5 Z M 219.5,182.5 C 219.5,183.5 219.5,184.5 219.5,185.5C 221.665,185.884 223.332,185.217 224.5,183.5C 222.955,182.548 221.288,182.215 219.5,182.5 Z"/></g>
<g><path style="opacity:0.756" fill="#0f62fe" d="M 230.5,174.5 C 233.721,174.982 237.054,174.982 240.5,174.5C 241.656,185.812 243.656,186.145 246.5,175.5C 247.5,174.167 248.5,174.167 249.5,175.5C 247.095,181.051 245.095,186.717 243.5,192.5C 238.913,192.711 238.246,191.211 241.5,188C 240.591,184.444 239.591,180.944 238.5,177.5C 236.533,177.261 234.699,177.594 233,178.5C 232.821,181.553 232.321,184.553 231.5,187.5C 230.508,183.217 230.174,178.884 230.5,174.5 Z"/></g>
<g><path style="opacity:1" fill="#6598fe" d="M 420.5,175.5 C 422.167,174.167 423.833,174.167 425.5,175.5C 424.833,175.5 424.5,175.833 424.5,176.5C 423.292,177.234 421.959,177.567 420.5,177.5C 420.918,176.778 421.584,176.278 422.5,176C 421.906,175.536 421.239,175.369 420.5,175.5 Z"/></g>
<g><path style="opacity:1" fill="#bed2fe" d="M 376.5,174.5 C 377.8,176.223 378.467,178.39 378.5,181C 378.167,183.167 377.833,185.333 377.5,187.5C 376.508,183.217 376.174,178.884 376.5,174.5 Z"/></g>
<g><path style="opacity:1" fill="#eef3ff" d="M 420.5,175.5 C 421.239,175.369 421.906,175.536 422.5,176C 421.584,176.278 420.918,176.778 420.5,177.5C 419.883,177.611 419.383,177.944 419,178.5C 418.821,181.553 418.321,184.553 417.5,187.5C 416.167,183.5 416.167,179.5 417.5,175.5C 418.527,176.791 419.527,176.791 420.5,175.5 Z"/></g>
<g><path style="opacity:1" fill="#afc5ff" d="M 368.5,174.5 C 370.589,174.857 372.589,175.523 374.5,176.5C 373.311,177.429 371.978,177.762 370.5,177.5C 370.5,180.833 370.5,184.167 370.5,187.5C 369.5,187.5 368.5,187.5 367.5,187.5C 367.231,183.069 367.564,178.735 368.5,174.5 Z"/></g>
<g><path style="opacity:1" fill="#d7e3ff" d="M 386.5,174.5 C 388.722,174.178 390.556,174.845 392,176.5C 394.423,174.006 396.756,174.006 399,176.5C 399.825,180.211 399.659,183.878 398.5,187.5C 397.676,184.215 397.176,180.882 397,177.5C 395.667,176.167 394.333,176.167 393,177.5C 392,190.833 391,190.833 390,177.5C 388.062,176.14 386.396,176.473 385,178.5C 384.821,181.553 384.321,184.553 383.5,187.5C 382.167,183.5 382.167,179.5 383.5,175.5C 384.922,176.777 385.922,176.443 386.5,174.5 Z"/></g>
<g><path style="opacity:1" fill="#dae4ff" d="M 405.5,174.5 C 408.044,174.104 410.211,174.771 412,176.5C 412.246,179.89 412.746,183.223 413.5,186.5C 411.453,186.202 409.286,186.535 407,187.5C 402.388,186.658 401.554,184.491 404.5,181C 406.473,180.505 408.473,180.338 410.5,180.5C 410.67,179.178 410.337,178.011 409.5,177C 407.443,176.695 405.443,176.695 403.5,177C 404.381,176.292 405.047,175.458 405.5,174.5 Z"/></g>
<g><path style="opacity:1" fill="#0e61fe" d="M 405.5,182.5 C 407.288,182.215 408.955,182.548 410.5,183.5C 409.332,185.217 407.665,185.884 405.5,185.5C 405.5,184.5 405.5,183.5 405.5,182.5 Z"/></g>
<g><path style="opacity:1" fill="#e1eaff" d="M 425.5,175.5 C 426.628,178.185 427.962,180.852 429.5,183.5C 430.692,181.258 431.692,178.925 432.5,176.5C 433.167,175.167 433.833,175.167 434.5,176.5C 432.765,181.538 430.932,186.538 429,191.5C 427.817,192.731 426.651,192.731 425.5,191.5C 427.012,190.751 428.012,189.584 428.5,188C 427.087,184.172 425.753,180.339 424.5,176.5C 424.5,175.833 424.833,175.5 425.5,175.5 Z"/></g>
</svg>
