<svg width="320" height="320" viewBox="0 0 320 320" fill="none" xmlns="http://www.w3.org/2000/svg">
  <rect x="56" y="144" width="100" height="32" stroke="#0F62FE" />
  <rect x="164" y="144" width="100" height="32" fill="#0E62FE" />
  <path
    d="M71.4679 164.144C70.7879 164.144 70.2079 164.014 69.7279 163.754C69.2479 163.494 68.8399 163.136 68.5039 162.68L69.2479 162.056C69.5439 162.448 69.8719 162.746 70.2319 162.95C70.5919 163.154 71.0159 163.256 71.5039 163.256C72.1039 163.256 72.5619 163.112 72.8779 162.824C73.1939 162.536 73.3519 162.152 73.3519 161.672C73.3519 161.272 73.2319 160.964 72.9919 160.748C72.7519 160.532 72.3559 160.36 71.8039 160.232L71.1199 160.076C70.3519 159.9 69.7659 159.634 69.3619 159.278C68.9579 158.922 68.7559 158.42 68.7559 157.772C68.7559 157.404 68.8239 157.076 68.9599 156.788C69.0959 156.5 69.2859 156.26 69.5299 156.068C69.7739 155.876 70.0659 155.73 70.4059 155.63C70.7459 155.53 71.1199 155.48 71.5279 155.48C72.1599 155.48 72.7019 155.596 73.1539 155.828C73.6059 156.06 73.9879 156.4 74.2999 156.848L73.5439 157.4C73.3119 157.08 73.0319 156.828 72.7039 156.644C72.3759 156.46 71.9679 156.368 71.4799 156.368C70.9439 156.368 70.5219 156.482 70.2139 156.71C69.9059 156.938 69.7519 157.28 69.7519 157.736C69.7519 158.136 69.8819 158.438 70.1419 158.642C70.4019 158.846 70.7959 159.008 71.3239 159.128L72.0079 159.284C72.8319 159.468 73.4279 159.748 73.7959 160.124C74.1639 160.5 74.3479 161 74.3479 161.624C74.3479 162.008 74.2819 162.356 74.1499 162.668C74.0179 162.98 73.8279 163.244 73.5799 163.46C73.3319 163.676 73.0299 163.844 72.6739 163.964C72.3179 164.084 71.9159 164.144 71.4679 164.144Z"
    fill="#0F62FE" />
  <path fill-rule="evenodd" clip-rule="evenodd"
    d="M77.1741 163.916C77.5141 164.068 77.8961 164.144 78.3201 164.144C78.9041 164.144 79.4081 164.014 79.8321 163.754C80.2561 163.494 80.5681 163.152 80.7681 162.728L80.0841 162.236C79.9241 162.58 79.6981 162.844 79.4061 163.028C79.1141 163.212 78.7721 163.304 78.3801 163.304C78.0921 163.304 77.8341 163.256 77.6061 163.16C77.3781 163.064 77.1861 162.932 77.0301 162.764C76.8741 162.596 76.7541 162.398 76.6701 162.17C76.5861 161.942 76.5441 161.696 76.5441 161.432V161.144H80.9961V160.688C80.9961 160.248 80.9341 159.844 80.8101 159.476C80.6861 159.108 80.5081 158.79 80.2761 158.522C80.0441 158.254 79.7641 158.044 79.4361 157.892C79.1081 157.74 78.7361 157.664 78.3201 157.664C77.8961 157.664 77.5141 157.74 77.1741 157.892C76.8341 158.044 76.5421 158.262 76.2981 158.546C76.0541 158.83 75.8661 159.172 75.7341 159.572C75.6021 159.972 75.5361 160.416 75.5361 160.904C75.5361 161.4 75.6021 161.846 75.7341 162.242C75.8661 162.638 76.0541 162.978 76.2981 163.262C76.5421 163.546 76.8341 163.764 77.1741 163.916ZM77.6001 158.606C77.8161 158.514 78.0561 158.468 78.3201 158.468C78.8161 158.468 79.2141 158.634 79.5141 158.966C79.8141 159.298 79.9641 159.74 79.9641 160.292V160.424H76.5441V160.34C76.5441 160.068 76.5881 159.818 76.6761 159.59C76.7641 159.362 76.8861 159.164 77.0421 158.996C77.1981 158.828 77.3841 158.698 77.6001 158.606Z"
    fill="#0F62FE" />
  <path
    d="M84.884 164.144C84.452 164.144 84.064 164.068 83.72 163.916C83.376 163.764 83.086 163.548 82.85 163.268C82.614 162.988 82.434 162.648 82.31 162.248C82.186 161.848 82.124 161.4 82.124 160.904C82.124 160.408 82.186 159.96 82.31 159.56C82.434 159.16 82.614 158.82 82.85 158.54C83.086 158.26 83.376 158.044 83.72 157.892C84.064 157.74 84.452 157.664 84.884 157.664C85.5 157.664 85.994 157.798 86.366 158.066C86.738 158.334 87.016 158.684 87.2 159.116L86.396 159.524C86.284 159.204 86.1 158.956 85.844 158.78C85.588 158.604 85.268 158.516 84.884 158.516C84.596 158.516 84.344 158.562 84.128 158.654C83.912 158.746 83.732 158.874 83.588 159.038C83.444 159.202 83.336 159.398 83.264 159.626C83.192 159.854 83.156 160.104 83.156 160.376V161.432C83.156 161.976 83.302 162.422 83.594 162.77C83.886 163.118 84.316 163.292 84.884 163.292C85.66 163.292 86.22 162.932 86.564 162.212L87.26 162.68C87.06 163.128 86.762 163.484 86.366 163.748C85.97 164.012 85.476 164.144 84.884 164.144Z"
    fill="#0F62FE" />
  <path fill-rule="evenodd" clip-rule="evenodd"
    d="M89.8157 163.916C90.1597 164.068 90.5397 164.144 90.9557 164.144C91.3717 164.144 91.7497 164.068 92.0897 163.916C92.4297 163.764 92.7237 163.546 92.9717 163.262C93.2197 162.978 93.4117 162.638 93.5477 162.242C93.6837 161.846 93.7517 161.4 93.7517 160.904C93.7517 160.416 93.6837 159.972 93.5477 159.572C93.4117 159.172 93.2197 158.83 92.9717 158.546C92.7237 158.262 92.4297 158.044 92.0897 157.892C91.7497 157.74 91.3717 157.664 90.9557 157.664C90.5397 157.664 90.1597 157.74 89.8157 157.892C89.4717 158.044 89.1777 158.262 88.9337 158.546C88.6897 158.83 88.4997 159.172 88.3637 159.572C88.2277 159.972 88.1597 160.416 88.1597 160.904C88.1597 161.4 88.2277 161.846 88.3637 162.242C88.4997 162.638 88.6897 162.978 88.9337 163.262C89.1777 163.546 89.4717 163.764 89.8157 163.916ZM92.2277 162.812C91.8997 163.132 91.4757 163.292 90.9557 163.292C90.4357 163.292 90.0117 163.132 89.6837 162.812C89.3557 162.492 89.1917 162.004 89.1917 161.348V160.46C89.1917 159.804 89.3557 159.316 89.6837 158.996C90.0117 158.676 90.4357 158.516 90.9557 158.516C91.4757 158.516 91.8997 158.676 92.2277 158.996C92.5557 159.316 92.7197 159.804 92.7197 160.46V161.348C92.7197 162.004 92.5557 162.492 92.2277 162.812Z"
    fill="#0F62FE" />
  <path
    d="M95.3359 164V157.808H96.2959V158.816H96.3439C96.4959 158.464 96.7099 158.184 96.9859 157.976C97.2619 157.768 97.6319 157.664 98.0959 157.664C98.7359 157.664 99.2419 157.87 99.6139 158.282C99.9859 158.694 100.172 159.276 100.172 160.028V164H99.2119V160.196C99.2119 159.084 98.7439 158.528 97.8079 158.528C97.6159 158.528 97.4299 158.552 97.2499 158.6C97.0699 158.648 96.9079 158.72 96.7639 158.816C96.6199 158.912 96.5059 159.034 96.4219 159.182C96.3379 159.33 96.2959 159.504 96.2959 159.704V164H95.3359Z"
    fill="#0F62FE" />
  <path fill-rule="evenodd" clip-rule="evenodd"
    d="M106.064 162.992H106.112V164H107.072V155.12H106.112V158.816H106.064C105.904 158.424 105.67 158.134 105.362 157.946C105.054 157.758 104.684 157.664 104.252 157.664C103.868 157.664 103.52 157.74 103.208 157.892C102.896 158.044 102.63 158.26 102.41 158.54C102.19 158.82 102.022 159.16 101.906 159.56C101.79 159.96 101.732 160.408 101.732 160.904C101.732 161.4 101.79 161.848 101.906 162.248C102.022 162.648 102.19 162.988 102.41 163.268C102.63 163.548 102.896 163.764 103.208 163.916C103.52 164.068 103.868 164.144 104.252 164.144C105.084 164.144 105.688 163.76 106.064 162.992ZM105.134 163.196C104.938 163.252 104.732 163.28 104.516 163.28C103.972 163.28 103.544 163.11 103.232 162.77C102.92 162.43 102.764 161.984 102.764 161.432V160.376C102.764 159.824 102.92 159.378 103.232 159.038C103.544 158.698 103.972 158.528 104.516 158.528C104.732 158.528 104.938 158.558 105.134 158.618C105.33 158.678 105.5 158.76 105.644 158.864C105.788 158.968 105.902 159.094 105.986 159.242C106.07 159.39 106.112 159.548 106.112 159.716V162.02C106.112 162.22 106.07 162.398 105.986 162.554C105.902 162.71 105.788 162.842 105.644 162.95C105.5 163.058 105.33 163.14 105.134 163.196Z"
    fill="#0F62FE" />
  <path fill-rule="evenodd" clip-rule="evenodd"
    d="M112.838 163.712C112.994 163.904 113.252 164 113.612 164H114.152V163.16H113.444V159.752C113.444 159.096 113.236 158.584 112.82 158.216C112.404 157.848 111.82 157.664 111.068 157.664C110.508 157.664 110.044 157.782 109.676 158.018C109.308 158.254 109.04 158.54 108.872 158.876L109.448 159.416C109.616 159.136 109.826 158.912 110.078 158.744C110.33 158.576 110.644 158.492 111.02 158.492C111.516 158.492 111.884 158.608 112.124 158.84C112.364 159.072 112.484 159.408 112.484 159.848V160.46H111.26C110.356 160.46 109.69 160.616 109.262 160.928C108.834 161.24 108.62 161.688 108.62 162.272C108.62 162.848 108.802 163.304 109.166 163.64C109.53 163.976 110.04 164.144 110.696 164.144C111.128 164.144 111.5 164.048 111.812 163.856C112.124 163.664 112.348 163.376 112.484 162.992H112.544C112.584 163.28 112.682 163.52 112.838 163.712ZM111.512 163.244C111.312 163.3 111.092 163.328 110.852 163.328C110.476 163.328 110.178 163.244 109.958 163.076C109.738 162.908 109.628 162.672 109.628 162.368V162.116C109.628 161.812 109.754 161.58 110.006 161.42C110.258 161.26 110.66 161.18 111.212 161.18H112.484V162.2C112.484 162.36 112.444 162.508 112.364 162.644C112.284 162.78 112.172 162.9 112.028 163.004C111.884 163.108 111.712 163.188 111.512 163.244Z"
    fill="#0F62FE" />
  <path
    d="M115.52 164V157.808H116.48V158.948H116.54C116.652 158.652 116.852 158.388 117.14 158.156C117.428 157.924 117.824 157.808 118.328 157.808H118.7V158.768H118.136C117.616 158.768 117.21 158.866 116.918 159.062C116.626 159.258 116.48 159.504 116.48 159.8V164H115.52Z"
    fill="#0F62FE" />
  <path
    d="M123.74 157.808H124.688L121.916 165.44C121.844 165.624 121.772 165.778 121.7 165.902C121.628 166.026 121.54 166.124 121.436 166.196C121.332 166.268 121.202 166.32 121.046 166.352C120.89 166.384 120.7 166.4 120.476 166.4H119.984V165.56H120.956L121.424 164.24L119.108 157.808H120.068L121.556 162.02L121.844 163.028H121.904L122.24 162.02L123.74 157.808Z"
    fill="#0F62FE" />
  <path fill-rule="evenodd" clip-rule="evenodd"
    d="M177.116 155.624V164H178.124V160.424H180.452C181.204 160.424 181.782 160.21 182.186 159.782C182.59 159.354 182.792 158.768 182.792 158.024C182.792 157.28 182.59 156.694 182.186 156.266C181.782 155.838 181.204 155.624 180.452 155.624H177.116ZM180.452 159.536H178.124V156.512H180.452C180.852 156.512 181.162 156.616 181.382 156.824C181.602 157.032 181.712 157.328 181.712 157.712V158.336C181.712 158.72 181.602 159.016 181.382 159.224C181.162 159.432 180.852 159.536 180.452 159.536Z"
    fill="white" />
  <path
    d="M184.292 164V157.808H185.252V158.948H185.312C185.424 158.652 185.624 158.388 185.912 158.156C186.2 157.924 186.596 157.808 187.1 157.808H187.472V158.768H186.908C186.388 158.768 185.982 158.866 185.69 159.062C185.398 159.258 185.252 159.504 185.252 159.8V164H184.292Z"
    fill="white" />
  <path fill-rule="evenodd" clip-rule="evenodd"
    d="M188.726 156.206C188.818 156.306 188.968 156.356 189.176 156.356C189.384 156.356 189.534 156.306 189.626 156.206C189.718 156.106 189.764 155.976 189.764 155.816V155.66C189.764 155.5 189.718 155.37 189.626 155.27C189.534 155.17 189.384 155.12 189.176 155.12C188.968 155.12 188.818 155.17 188.726 155.27C188.634 155.37 188.588 155.5 188.588 155.66V155.816C188.588 155.976 188.634 156.106 188.726 156.206ZM189.656 164V157.808H188.696V164H189.656Z"
    fill="white" />
  <path
    d="M191.696 164V157.808H192.656V158.816H192.704C192.776 158.656 192.858 158.506 192.95 158.366C193.042 158.226 193.154 158.104 193.286 158C193.418 157.896 193.572 157.814 193.748 157.754C193.924 157.694 194.132 157.664 194.372 157.664C194.78 157.664 195.156 157.762 195.5 157.958C195.844 158.154 196.1 158.476 196.268 158.924H196.292C196.404 158.588 196.614 158.294 196.922 158.042C197.23 157.79 197.648 157.664 198.176 157.664C198.808 157.664 199.302 157.87 199.658 158.282C200.014 158.694 200.192 159.276 200.192 160.028V164H199.232V160.196C199.232 159.644 199.124 159.228 198.908 158.948C198.692 158.668 198.348 158.528 197.876 158.528C197.684 158.528 197.502 158.552 197.33 158.6C197.158 158.648 197.004 158.72 196.868 158.816C196.732 158.912 196.624 159.034 196.544 159.182C196.464 159.33 196.424 159.504 196.424 159.704V164H195.464V160.196C195.464 159.644 195.356 159.228 195.14 158.948C194.924 158.668 194.588 158.528 194.132 158.528C193.94 158.528 193.756 158.552 193.58 158.6C193.404 158.648 193.248 158.72 193.112 158.816C192.976 158.912 192.866 159.034 192.782 159.182C192.698 159.33 192.656 159.504 192.656 159.704V164H191.696Z"
    fill="white" />
  <path fill-rule="evenodd" clip-rule="evenodd"
    d="M205.898 163.712C206.054 163.904 206.312 164 206.672 164H207.212V163.16H206.504V159.752C206.504 159.096 206.296 158.584 205.88 158.216C205.464 157.848 204.88 157.664 204.128 157.664C203.568 157.664 203.104 157.782 202.736 158.018C202.368 158.254 202.1 158.54 201.932 158.876L202.508 159.416C202.676 159.136 202.886 158.912 203.138 158.744C203.39 158.576 203.704 158.492 204.08 158.492C204.576 158.492 204.944 158.608 205.184 158.84C205.424 159.072 205.544 159.408 205.544 159.848V160.46H204.32C203.416 160.46 202.75 160.616 202.322 160.928C201.894 161.24 201.68 161.688 201.68 162.272C201.68 162.848 201.862 163.304 202.226 163.64C202.59 163.976 203.1 164.144 203.756 164.144C204.188 164.144 204.56 164.048 204.872 163.856C205.184 163.664 205.408 163.376 205.544 162.992H205.604C205.644 163.28 205.742 163.52 205.898 163.712ZM204.572 163.244C204.372 163.3 204.152 163.328 203.912 163.328C203.536 163.328 203.238 163.244 203.018 163.076C202.798 162.908 202.688 162.672 202.688 162.368V162.116C202.688 161.812 202.814 161.58 203.066 161.42C203.318 161.26 203.72 161.18 204.272 161.18H205.544V162.2C205.544 162.36 205.504 162.508 205.424 162.644C205.344 162.78 205.232 162.9 205.088 163.004C204.944 163.108 204.772 163.188 204.572 163.244Z"
    fill="white" />
  <path
    d="M208.58 164V157.808H209.54V158.948H209.6C209.712 158.652 209.912 158.388 210.2 158.156C210.488 157.924 210.884 157.808 211.388 157.808H211.76V158.768H211.196C210.676 158.768 210.27 158.866 209.978 159.062C209.686 159.258 209.54 159.504 209.54 159.8V164H208.58Z"
    fill="white" />
  <path
    d="M216.8 157.808H217.748L214.976 165.44C214.904 165.624 214.832 165.778 214.76 165.902C214.688 166.026 214.6 166.124 214.496 166.196C214.392 166.268 214.262 166.32 214.106 166.352C213.95 166.384 213.76 166.4 213.536 166.4H213.044V165.56H214.016L214.484 164.24L212.168 157.808H213.128L214.616 162.02L214.904 163.028H214.964L215.3 162.02L216.8 157.808Z"
    fill="white" />
</svg>