<?xml version="1.0" encoding="UTF-8"?>
<!DOCTYPE svg PUBLIC "-//W3C//DTD SVG 1.1//EN" "http://www.w3.org/Graphics/SVG/1.1/DTD/svg11.dtd">
<svg xmlns="http://www.w3.org/2000/svg" version="1.1" width="640px" height="360px" style="shape-rendering:geometricPrecision; text-rendering:geometricPrecision; image-rendering:optimizeQuality; fill-rule:evenodd; clip-rule:evenodd" xmlns:xlink="http://www.w3.org/1999/xlink">
<g><path style="opacity:1" fill="#1162fe" d="M 143.5,147.5 C 260.833,147.5 378.167,147.5 495.5,147.5C 495.5,168.833 495.5,190.167 495.5,211.5C 378.167,211.5 260.833,211.5 143.5,211.5C 143.5,190.167 143.5,168.833 143.5,147.5 Z"/></g>
<g><path style="opacity:1" fill="#bacfff" d="M 201.5,169.5 C 203.465,169.948 203.798,170.948 202.5,172.5C 201.614,171.675 201.281,170.675 201.5,169.5 Z"/></g>
<g><path style="opacity:1" fill="#d6e1ff" d="M 298.5,171.5 C 300.057,172.466 301.39,173.8 302.5,175.5C 299.833,179.167 299.833,182.833 302.5,186.5C 301.042,187.782 299.708,187.782 298.5,186.5C 299.029,182.649 298.362,179.149 296.5,176C 298.107,174.951 298.773,173.451 298.5,171.5 Z"/></g>
<g><path style="opacity:1" fill="#e7eeff" d="M 306.5,171.5 C 308.176,172.183 308.843,173.517 308.5,175.5C 312.5,175.833 312.5,176.167 308.5,176.5C 308.5,179.5 308.5,182.5 308.5,185.5C 309.675,185.281 310.675,185.614 311.5,186.5C 309.994,187.747 308.494,187.747 307,186.5C 307.038,182.668 306.205,179.168 304.5,176C 306.107,174.951 306.773,173.451 306.5,171.5 Z"/></g>
<g><path style="opacity:1" fill="#dee7ff" d="M 177.5,170.5 C 180.518,170.335 183.518,170.502 186.5,171C 190.002,173.496 190.335,176.329 187.5,179.5C 184.916,180.393 182.249,180.726 179.5,180.5C 179.808,182.924 179.474,185.257 178.5,187.5C 177.505,181.872 177.171,176.206 177.5,170.5 Z"/></g>
<g><path style="opacity:1" fill="#2368fe" d="M 179.5,172.5 C 184.931,171.094 187.265,173.094 186.5,178.5C 184.167,178.5 181.833,178.5 179.5,178.5C 179.5,176.5 179.5,174.5 179.5,172.5 Z"/></g>
<g><path style="opacity:1" fill="#4a88fe" d="M 203.5,175.5 C 201.577,179.029 200.911,183.029 201.5,187.5C 200.515,183.366 200.182,179.032 200.5,174.5C 201.791,174.263 202.791,174.596 203.5,175.5 Z"/></g>
<g><path style="opacity:1" fill="#c4d7fe" d="M 203.5,175.5 C 204.089,179.971 203.423,183.971 201.5,187.5C 200.911,183.029 201.577,179.029 203.5,175.5 Z"/></g>
<g><path style="opacity:1" fill="#f3f7ff" d="M 210.5,176.5 C 209.9,180.129 209.233,183.796 208.5,187.5C 207.167,183.5 207.167,179.5 208.5,175.5C 209.183,175.863 209.85,176.196 210.5,176.5 Z"/></g>
<g><path style="opacity:1" fill="#e7efff" d="M 241.5,175.5 C 243.39,176.18 245.39,176.347 247.5,176C 246.069,176.465 244.903,177.299 244,178.5C 243.821,181.553 243.321,184.553 242.5,187.5C 241.509,183.555 241.176,179.555 241.5,175.5 Z"/></g>
<g><path style="opacity:1" fill="#81aafe" d="M 291.5,175.5 C 291.56,174.957 291.893,174.624 292.5,174.5C 293.811,178.984 293.811,183.317 292.5,187.5C 292.817,183.298 292.483,179.298 291.5,175.5 Z"/></g>
<g><path style="opacity:1" fill="#e0e9ff" d="M 317.5,174.5 C 323.795,174.984 325.961,178.317 324,184.5C 320.841,188.436 317.508,188.436 314,184.5C 312.756,180.191 313.923,176.858 317.5,174.5 Z"/></g>
<g><path style="opacity:1" fill="#4a88fe" d="M 330.5,175.5 C 328.577,179.029 327.911,183.029 328.5,187.5C 327.515,183.366 327.182,179.032 327.5,174.5C 328.791,174.263 329.791,174.596 330.5,175.5 Z"/></g>
<g><path style="opacity:1" fill="#d4e0ff" d="M 328.5,187.5 C 327.911,183.029 328.577,179.029 330.5,175.5C 336.015,173.84 338.349,176.006 337.5,182C 337.167,183.833 336.833,185.667 336.5,187.5C 335.676,184.215 335.176,180.882 335,177.5C 333.951,176.483 332.784,176.316 331.5,177C 331.171,180.892 330.171,184.392 328.5,187.5 Z"/></g>
<g><path style="opacity:1" fill="#b5caff" d="M 191.5,175.5 C 193.924,175.192 196.257,175.526 198.5,176.5C 197.311,177.429 195.978,177.762 194.5,177.5C 194.5,180.833 194.5,184.167 194.5,187.5C 193.5,187.5 192.5,187.5 191.5,187.5C 191.5,183.5 191.5,179.5 191.5,175.5 Z"/></g>
<g><path style="opacity:1" fill="#f1f5ff" d="M 218.5,176.5 C 218.167,176.5 217.833,176.5 217.5,176.5C 219.54,173.866 221.707,173.866 224,176.5C 224.825,180.211 224.659,183.878 223.5,187.5C 222.676,184.215 222.176,180.882 222,177.5C 220.989,176.663 219.822,176.33 218.5,176.5 Z"/></g>
<g><path style="opacity:1" fill="#2268fe" d="M 317.5,176.5 C 318.93,176.421 320.264,176.754 321.5,177.5C 324.157,183.948 322.324,186.282 316,184.5C 315.109,181.502 315.609,178.836 317.5,176.5 Z"/></g>
<g><path style="opacity:1" fill="#dfe7ff" d="M 216.5,176.5 C 216.5,180.167 216.5,183.833 216.5,187.5C 214.586,184.316 213.92,180.649 214.5,176.5C 213.167,176.5 211.833,176.5 210.5,176.5C 212.359,173.981 214.359,173.981 216.5,176.5 Z"/></g>
<g><path style="opacity:1" fill="#dee8ff" d="M 234.5,186.5 C 233.341,188.377 231.674,188.877 229.5,188C 227.398,186.267 227.065,184.267 228.5,182C 230.81,181.503 233.143,181.337 235.5,181.5C 235.67,180.178 235.337,179.011 234.5,178C 232.343,177.922 230.343,177.755 228.5,177.5C 231.252,174.866 234.085,174.866 237,177.5C 237.246,180.89 237.746,184.223 238.5,187.5C 238.167,187.833 237.833,188.167 237.5,188.5C 236.482,187.807 235.482,187.141 234.5,186.5 Z"/></g>
<g><path style="opacity:1" fill="#699bfe" d="M 298.5,171.5 C 298.773,173.451 298.107,174.951 296.5,176C 298.362,179.149 299.029,182.649 298.5,186.5C 297.936,182.992 296.936,179.492 295.5,176C 296.551,174.423 297.551,172.923 298.5,171.5 Z"/></g>
<g><path style="opacity:1" fill="#78a4fe" d="M 216.5,176.5 C 216.833,176.5 217.167,176.5 217.5,176.5C 217.833,176.5 218.167,176.5 218.5,176.5C 217.897,180.273 217.23,183.939 216.5,187.5C 216.5,183.833 216.5,180.167 216.5,176.5 Z"/></g>
<g><path style="opacity:1" fill="#2d6dfe" d="M 234.5,186.5 C 232.833,186.5 231.167,186.5 229.5,186.5C 229.759,182.932 231.759,181.599 235.5,182.5C 235.567,183.959 235.234,185.292 234.5,186.5 Z"/></g>
<g><path style="opacity:1" fill="#dde7ff" d="M 454.5,171.5 C 458.08,173.408 461.08,176.074 463.5,179.5C 461.167,182.5 458.5,185.167 455.5,187.5C 454.479,186.998 454.312,186.332 455,185.5C 456.5,184 458,182.5 459.5,181C 436.833,180 436.833,179 459.5,178C 457.21,176.223 455.543,174.056 454.5,171.5 Z"/></g>
<g><path style="opacity:1" fill="#dee7ff" d="M 249.5,176.5 C 250.189,175.226 251.023,175.226 252,176.5C 252.803,179.244 253.803,181.911 255,184.5C 256.197,181.911 257.197,179.244 258,176.5C 258.718,175.549 259.551,175.383 260.5,176C 258.757,181.919 256.257,187.419 253,192.5C 252.5,192.167 252,191.833 251.5,191.5C 253.279,189.807 253.779,187.807 253,185.5C 252.339,182.198 251.172,179.198 249.5,176.5 Z"/></g>
<g><path style="opacity:1" fill="#e4ecff" d="M 291.5,175.5 C 292.483,179.298 292.817,183.298 292.5,187.5C 289.753,187.813 287.086,187.48 284.5,186.5C 283.236,182.847 283.236,179.18 284.5,175.5C 285.487,178.768 285.82,182.102 285.5,185.5C 287.467,185.739 289.301,185.406 291,184.5C 291.498,181.518 291.665,178.518 291.5,175.5 Z"/></g>
<g><path style="opacity:1" fill="#e4ecff" d="M 269.5,169.5 C 271.036,171.025 272.036,173.025 272.5,175.5C 275.288,174.04 277.455,174.707 279,177.5C 280.004,180.993 279.504,184.159 277.5,187C 275.005,187.157 272.672,187.324 270.5,187.5C 269.504,181.537 269.171,175.537 269.5,169.5 Z"/></g>
<g><path style="opacity:1" fill="#1b65fe" d="M 272.5,176.5 C 276.24,175.741 277.907,177.241 277.5,181C 277.57,184.992 275.57,186.492 271.5,185.5C 271.264,182.391 271.597,179.391 272.5,176.5 Z"/></g>
</svg>
