<?xml version="1.0" encoding="UTF-8"?>
<!DOCTYPE svg PUBLIC "-//W3C//DTD SVG 1.1//EN" "http://www.w3.org/Graphics/SVG/1.1/DTD/svg11.dtd">
<svg xmlns="http://www.w3.org/2000/svg" version="1.1" width="640px" height="360px" style="shape-rendering:geometricPrecision; text-rendering:geometricPrecision; image-rendering:optimizeQuality; fill-rule:evenodd; clip-rule:evenodd" xmlns:xlink="http://www.w3.org/1999/xlink">
<g><path style="opacity:1" fill="#a7a8a7" d="M 142.5,46.5 C 260.5,46.5 378.5,46.5 496.5,46.5C 496.5,135.167 496.5,223.833 496.5,312.5C 378.5,312.5 260.5,312.5 142.5,312.5C 142.5,223.833 142.5,135.167 142.5,46.5 Z"/></g>
<g><path style="opacity:1" fill="#fefffe" d="M 144.5,48.5 C 261.167,48.5 377.833,48.5 494.5,48.5C 494.5,135.833 494.5,223.167 494.5,310.5C 377.833,310.5 261.167,310.5 144.5,310.5C 144.5,223.167 144.5,135.833 144.5,48.5 Z"/></g>
<g><path style="opacity:1" fill="#8c8d8c" d="M 233.5,65.5 C 286.833,65.5 340.167,65.5 393.5,65.5C 393.5,67.5 393.5,69.5 393.5,71.5C 340.167,71.5 286.833,71.5 233.5,71.5C 233.5,69.5 233.5,67.5 233.5,65.5 Z"/></g>
<g><path style="opacity:1" fill="#8c8d8c" d="M 233.5,79.5 C 276.167,79.5 318.833,79.5 361.5,79.5C 361.5,81.5 361.5,83.5 361.5,85.5C 318.833,85.5 276.167,85.5 233.5,85.5C 233.5,83.5 233.5,81.5 233.5,79.5 Z"/></g>
<g><path style="opacity:1" fill="#a7a8a7" d="M 233.5,109.5 C 286.833,109.5 340.167,109.5 393.5,109.5C 393.5,110.5 393.5,111.5 393.5,112.5C 340.167,112.5 286.833,112.5 233.5,112.5C 233.5,111.5 233.5,110.5 233.5,109.5 Z"/></g>
<g><path style="opacity:1" fill="#a7a8a7" d="M 233.5,116.5 C 286.833,116.5 340.167,116.5 393.5,116.5C 393.5,117.5 393.5,118.5 393.5,119.5C 340.167,119.5 286.833,119.5 233.5,119.5C 233.5,118.5 233.5,117.5 233.5,116.5 Z"/></g>
<g><path style="opacity:1" fill="#a7a8a7" d="M 233.5,123.5 C 286.833,123.5 340.167,123.5 393.5,123.5C 393.5,124.5 393.5,125.5 393.5,126.5C 340.167,126.5 286.833,126.5 233.5,126.5C 233.5,125.5 233.5,124.5 233.5,123.5 Z"/></g>
<g><path style="opacity:1" fill="#a7a8a7" d="M 233.5,130.5 C 267.5,130.5 301.5,130.5 335.5,130.5C 335.5,131.5 335.5,132.5 335.5,133.5C 301.5,133.5 267.5,133.5 233.5,133.5C 233.5,132.5 233.5,131.5 233.5,130.5 Z"/></g>
<g><path style="opacity:1" fill="#c5c5c5" d="M 233.5,157.5 C 291.5,157.5 349.5,157.5 407.5,157.5C 407.5,190.167 407.5,222.833 407.5,255.5C 349.5,255.5 291.5,255.5 233.5,255.5C 233.5,222.833 233.5,190.167 233.5,157.5 Z"/></g>
<g><path style="opacity:1" fill="#545454" d="M 308.5,193.5 C 316.087,193.186 323.587,193.519 331,194.5C 331.813,202.08 331.647,209.58 330.5,217C 322.92,217.813 315.42,217.647 308,216.5C 307.202,208.754 307.369,201.087 308.5,193.5 Z"/></g>
<g><path style="opacity:1" fill="#c3c3c3" d="M 309.5,195.5 C 316.167,195.5 322.833,195.5 329.5,195.5C 329.666,200.511 329.499,205.511 329,210.5C 327.649,208.981 326.149,207.648 324.5,206.5C 322.902,207.485 321.235,207.651 319.5,207C 317.978,205.478 316.478,203.978 315,202.5C 313.056,203.439 311.389,204.773 310,206.5C 309.501,202.848 309.335,199.182 309.5,195.5 Z"/></g>
<g><path style="opacity:1" fill="#5e5e5e" d="M 320.5,197.5 C 325.159,197.015 326.492,198.848 324.5,203C 319.728,203.81 318.395,201.977 320.5,197.5 Z"/></g>
<g><path style="opacity:1" fill="#b6b7b6" d="M 321.5,199.5 C 323.337,199.639 323.67,200.306 322.5,201.5C 321.702,201.043 321.369,200.376 321.5,199.5 Z"/></g>
<g><path style="opacity:1" fill="#c0c0c0" d="M 313.5,204.5 C 316.412,206.066 319.079,208.066 321.5,210.5C 325.145,209.409 327.812,210.742 329.5,214.5C 322.866,215.497 316.2,215.83 309.5,215.5C 308.658,210.949 309.992,207.283 313.5,204.5 Z"/></g>
<g><path style="opacity:1" fill="#a7a8a7" d="M 233.5,261.5 C 254.833,261.5 276.167,261.5 297.5,261.5C 297.5,262.5 297.5,263.5 297.5,264.5C 276.167,264.5 254.833,264.5 233.5,264.5C 233.5,263.5 233.5,262.5 233.5,261.5 Z"/></g>
</svg>
