<svg width="320" height="320" viewBox="0 0 320 320" fill="none" xmlns="http://www.w3.org/2000/svg">
  <rect x="72" y="94" width="176" height="132" fill="white" stroke="#A8A8A8" />
  <rect x="117" y="149" width="87" height="49" fill="#C6C6C6" />
  <rect x="152" y="165" width="16" height="16" stroke="#A8A8A8" />
  <path fill-rule="evenodd" clip-rule="evenodd"
    d="M161.5 172C160.672 172 160 171.328 160 170.5C160 169.672 160.672 169 161.5 169C162.328 169 163 169.672 163 170.5C163 170.898 162.842 171.279 162.561 171.561C162.279 171.842 161.898 172 161.5 172ZM161.5 170C161.224 170 161 170.224 161 170.5C161 170.776 161.224 171 161.5 171C161.776 171 162 170.776 162 170.5C162 170.224 161.776 170 161.5 170ZM165.075 167H154.925C154.414 167 154 167.414 154 167.925V178.075C154 178.32 154.097 178.556 154.271 178.729C154.444 178.903 154.68 179 154.925 179H165.075C165.32 179 165.556 178.903 165.729 178.729C165.903 178.556 166 178.32 166 178.075V167.925C166 167.414 165.586 167 165.075 167ZM165 168V175.665L163.13 173.795C162.942 173.607 162.688 173.502 162.423 173.502C162.157 173.502 161.903 173.607 161.715 173.795L161 174.525L158.25 171.795C158.062 171.607 157.808 171.502 157.543 171.502C157.277 171.502 157.023 171.607 156.835 171.795L155 173.63V168H165ZM155 178V175.04L157.54 172.5L160.275 175.235C160.463 175.423 160.717 175.528 160.983 175.528C161.248 175.528 161.502 175.423 161.69 175.235L162.42 174.5L165 177.08V178H155Z"
    fill="#525252" />
  <mask id="mask0_1302_3583" style="mask-type:luminance" maskUnits="userSpaceOnUse" x="154" y="167"
    width="12" height="12">
    <path fill-rule="evenodd" clip-rule="evenodd"
      d="M161.5 172C160.672 172 160 171.328 160 170.5C160 169.672 160.672 169 161.5 169C162.328 169 163 169.672 163 170.5C163 170.898 162.842 171.279 162.561 171.561C162.279 171.842 161.898 172 161.5 172ZM161.5 170C161.224 170 161 170.224 161 170.5C161 170.776 161.224 171 161.5 171C161.776 171 162 170.776 162 170.5C162 170.224 161.776 170 161.5 170ZM165.075 167H154.925C154.414 167 154 167.414 154 167.925V178.075C154 178.32 154.097 178.556 154.271 178.729C154.444 178.903 154.68 179 154.925 179H165.075C165.32 179 165.556 178.903 165.729 178.729C165.903 178.556 166 178.32 166 178.075V167.925C166 167.414 165.586 167 165.075 167ZM165 168V175.665L163.13 173.795C162.942 173.607 162.688 173.502 162.423 173.502C162.157 173.502 161.903 173.607 161.715 173.795L161 174.525L158.25 171.795C158.062 171.607 157.808 171.502 157.543 171.502C157.277 171.502 157.023 171.607 156.835 171.795L155 173.63V168H165ZM155 178V175.04L157.54 172.5L160.275 175.235C160.463 175.423 160.717 175.528 160.983 175.528C161.248 175.528 161.502 175.423 161.69 175.235L162.42 174.5L165 177.08V178H155Z"
      fill="white" />
  </mask>
  <g mask="url(#mask0_1302_3583)">
</g>
  <rect x="117" y="125" width="80" height="1.5" fill="#A8A8A8" />
  <rect x="117" y="132" width="80" height="1.5" fill="#A8A8A8" />
  <rect x="117" y="128.5" width="80" height="1.5" fill="#A8A8A8" />
  <rect x="117" y="135.5" width="51" height="1.5" fill="#A8A8A8" />
  <rect x="117" y="201" width="32" height="1.5" fill="#A8A8A8" />
  <rect x="117" y="103" width="80" height="3" fill="#8D8D8D" />
  <rect x="117" y="110" width="64" height="3" fill="#8D8D8D" />
</svg>