<?xml version="1.0" encoding="UTF-8"?>
<!DOCTYPE svg PUBLIC "-//W3C//DTD SVG 1.1//EN" "http://www.w3.org/Graphics/SVG/1.1/DTD/svg11.dtd">
<svg xmlns="http://www.w3.org/2000/svg" version="1.1" width="640px" height="360px" style="shape-rendering:geometricPrecision; text-rendering:geometricPrecision; image-rendering:optimizeQuality; fill-rule:evenodd; clip-rule:evenodd" xmlns:xlink="http://www.w3.org/1999/xlink">
<g><path style="opacity:1" fill="#a7a8a7" d="M 142.5,66.5 C 260.5,66.5 378.5,66.5 496.5,66.5C 496.5,141.833 496.5,217.167 496.5,292.5C 378.5,292.5 260.5,292.5 142.5,292.5C 142.5,217.167 142.5,141.833 142.5,66.5 Z"/></g>
<g><path style="opacity:1" fill="#fefffe" d="M 494.5,83.5 C 404.833,83.5 315.167,83.5 225.5,83.5C 225.5,142.167 225.5,200.833 225.5,259.5C 315.167,259.5 404.833,259.5 494.5,259.5C 494.5,269.833 494.5,280.167 494.5,290.5C 377.833,290.5 261.167,290.5 144.5,290.5C 144.5,216.5 144.5,142.5 144.5,68.5C 261.167,68.5 377.833,68.5 494.5,68.5C 494.5,73.5 494.5,78.5 494.5,83.5 Z"/></g>
<g><path style="opacity:1" fill="#ecf4fe" d="M 494.5,83.5 C 495.833,142.167 495.833,200.833 494.5,259.5C 404.833,259.5 315.167,259.5 225.5,259.5C 225.5,200.833 225.5,142.167 225.5,83.5C 315.167,83.5 404.833,83.5 494.5,83.5 Z"/></g>
<g><path style="opacity:1" fill="#202022" d="M 239.5,105.5 C 240.239,105.369 240.906,105.536 241.5,106C 240.257,107.154 239.257,108.488 238.5,110C 240.037,111.11 240.703,112.61 240.5,114.5C 238.052,114.915 236.719,113.915 236.5,111.5C 237.489,109.506 238.489,107.506 239.5,105.5 Z"/></g>
<g><path style="opacity:1" fill="#232425" d="M 246.5,105.5 C 247.239,105.369 247.906,105.536 248.5,106C 246.493,108.562 246.159,111.396 247.5,114.5C 245.365,114.853 244.032,114.02 243.5,112C 244.391,109.721 245.391,107.554 246.5,105.5 Z"/></g>
<g><path style="opacity:1" fill="#8c8d8c" d="M 255.5,113.5 C 308.833,113.5 362.167,113.5 415.5,113.5C 415.5,115.5 415.5,117.5 415.5,119.5C 362.167,119.5 308.833,119.5 255.5,119.5C 255.5,117.5 255.5,115.5 255.5,113.5 Z"/></g>
<g><path style="opacity:1" fill="#8c8d8c" d="M 255.5,127.5 C 308.833,127.5 362.167,127.5 415.5,127.5C 415.5,129.5 415.5,131.5 415.5,133.5C 362.167,133.5 308.833,133.5 255.5,133.5C 255.5,131.5 255.5,129.5 255.5,127.5 Z"/></g>
<g><path style="opacity:1" fill="#8c8d8c" d="M 255.5,141.5 C 308.833,141.5 362.167,141.5 415.5,141.5C 415.5,143.5 415.5,145.5 415.5,147.5C 362.167,147.5 308.833,147.5 255.5,147.5C 255.5,145.5 255.5,143.5 255.5,141.5 Z"/></g>
<g><path style="opacity:1" fill="#8c8d8c" d="M 255.5,155.5 C 292.833,155.5 330.167,155.5 367.5,155.5C 367.5,157.5 367.5,159.5 367.5,161.5C 330.167,161.5 292.833,161.5 255.5,161.5C 255.5,159.5 255.5,157.5 255.5,155.5 Z"/></g>
<g><path style="opacity:1" fill="#161617" d="M 377.5,155.5 C 379.252,155.418 380.252,156.251 380.5,158C 380.082,160.6 378.916,162.767 377,164.5C 376.667,162.953 377.167,161.62 378.5,160.5C 376.576,159.035 376.243,157.368 377.5,155.5 Z"/></g>
<g><path style="opacity:1" fill="#242526" d="M 384.5,155.5 C 385.5,155.5 386.5,155.5 387.5,155.5C 387.874,158.972 386.874,161.972 384.5,164.5C 385.596,161.599 385.596,158.599 384.5,155.5 Z"/></g>
<g><path style="opacity:1" fill="#8c8d8c" d="M 255.5,187.5 C 271.5,187.5 287.5,187.5 303.5,187.5C 303.5,188.5 303.5,189.5 303.5,190.5C 287.5,190.5 271.5,190.5 255.5,190.5C 255.5,189.5 255.5,188.5 255.5,187.5 Z"/></g>
<g><path style="opacity:1" fill="#a7a8a7" d="M 255.5,194.5 C 271.5,194.5 287.5,194.5 303.5,194.5C 303.5,195.5 303.5,196.5 303.5,197.5C 287.5,197.5 271.5,197.5 255.5,197.5C 255.5,196.5 255.5,195.5 255.5,194.5 Z"/></g>
<g><path style="opacity:1" fill="#a7a8a7" d="M 255.5,201.5 C 266.167,201.5 276.833,201.5 287.5,201.5C 287.5,202.5 287.5,203.5 287.5,204.5C 276.833,204.5 266.167,204.5 255.5,204.5C 255.5,203.5 255.5,202.5 255.5,201.5 Z"/></g>
<g><path style="opacity:1" fill="#bcc1c5" d="M 255.5,225.5 C 306.171,225.167 356.838,225.5 407.5,226.5C 382.167,226.833 356.833,227.167 331.5,227.5C 305.824,227.5 280.491,226.833 255.5,225.5 Z"/></g>
<g><path style="opacity:1" fill="#78a9ff" d="M 255.5,235.5 C 271.5,235.5 287.5,235.5 303.5,235.5C 303.5,236.5 303.5,237.5 303.5,238.5C 287.5,238.5 271.5,238.5 255.5,238.5C 255.5,237.5 255.5,236.5 255.5,235.5 Z"/></g>
</svg>
