<svg width="320" height="320" viewBox="0 0 320 320" fill="none" xmlns="http://www.w3.org/2000/svg">
  <rect x="71.5" y="103.5" width="177" height="113" fill="white" stroke="#A8A8A8" />
  <rect x="113" y="112" width="135" height="88" fill="#EDF5FF" />
  <path d="M128 183.5H204" stroke="#8D8D8D" stroke-width="0.5" />
  <path
    d="M119.54 127.64C118.94 127.64 118.56 127.2 118.56 126.64V126.5C118.56 125.32 119.36 123.88 120.42 123.04H121.16C120.22 123.92 119.68 124.82 119.54 125.66H119.6C120.18 125.66 120.52 126.08 120.52 126.6V126.68C120.52 127.22 120.12 127.64 119.54 127.64ZM123.16 127.64C122.56 127.64 122.18 127.2 122.18 126.64V126.5C122.18 125.32 122.98 123.88 124.04 123.04H124.78C123.84 123.92 123.3 124.82 123.16 125.66H123.22C123.8 125.66 124.14 126.08 124.14 126.6V126.68C124.14 127.22 123.74 127.64 123.16 127.64Z"
    fill="black" />
  <path
    d="M187.92 152.64C188.86 151.76 189.4 150.86 189.54 150.02H189.48C188.9 150.02 188.56 149.6 188.56 149.08V149C188.56 148.46 188.96 148.04 189.54 148.04C190.14 148.04 190.52 148.48 190.52 149.04V149.18C190.52 150.36 189.72 151.8 188.66 152.64H187.92ZM191.54 152.64C192.48 151.76 193.02 150.86 193.16 150.02H193.1C192.52 150.02 192.18 149.6 192.18 149.08V149C192.18 148.46 192.58 148.04 193.16 148.04C193.76 148.04 194.14 148.48 194.14 149.04V149.18C194.14 150.36 193.34 151.8 192.28 152.64H191.54Z"
    fill="black" />
  <rect x="128" y="127" width="80" height="3" fill="#8D8D8D" />
  <rect x="128" y="141" width="80" height="3" fill="#8D8D8D" />
  <rect x="128" y="134" width="80" height="3" fill="#8D8D8D" />
  <rect x="128" y="148" width="56" height="3" fill="#8D8D8D" />
  <rect x="128" y="164" width="24" height="1.5" fill="#8D8D8D" />
  <rect x="128" y="188" width="24" height="1.5" fill="#78A9FF" />
  <rect x="128" y="171" width="16" height="1.5" fill="#A8A8A8" />
  <rect x="128" y="167.5" width="24" height="1.5" fill="#A8A8A8" />
</svg>