<svg width="320" height="320" viewBox="0 0 320 320" fill="none" xmlns="http://www.w3.org/2000/svg">
<path fill-rule="evenodd" clip-rule="evenodd" d="M115.924 156.624H113.116V165H115.924C116.444 165 116.916 164.912 117.34 164.736C117.764 164.56 118.126 164.298 118.426 163.95C118.726 163.602 118.956 163.166 119.116 162.642C119.276 162.118 119.356 161.508 119.356 160.812C119.356 160.116 119.276 159.506 119.116 158.982C118.956 158.458 118.726 158.022 118.426 157.674C118.126 157.326 117.764 157.064 117.34 156.888C116.916 156.712 116.444 156.624 115.924 156.624ZM116.872 163.938C116.584 164.054 116.268 164.112 115.924 164.112H114.124V157.512H115.924C116.268 157.512 116.584 157.57 116.872 157.686C117.16 157.802 117.408 157.972 117.616 158.196C117.824 158.42 117.986 158.694 118.102 159.018C118.218 159.342 118.276 159.712 118.276 160.128V161.496C118.276 161.912 118.218 162.282 118.102 162.606C117.986 162.93 117.824 163.204 117.616 163.428C117.408 163.652 117.16 163.822 116.872 163.938Z" fill="#0F62FE"/>
<path fill-rule="evenodd" clip-rule="evenodd" d="M122.272 164.916C122.616 165.068 122.996 165.144 123.412 165.144C123.828 165.144 124.206 165.068 124.546 164.916C124.886 164.764 125.18 164.546 125.428 164.262C125.676 163.978 125.868 163.638 126.004 163.242C126.14 162.846 126.208 162.4 126.208 161.904C126.208 161.416 126.14 160.972 126.004 160.572C125.868 160.172 125.676 159.83 125.428 159.546C125.18 159.262 124.886 159.044 124.546 158.892C124.206 158.74 123.828 158.664 123.412 158.664C122.996 158.664 122.616 158.74 122.272 158.892C121.928 159.044 121.634 159.262 121.39 159.546C121.146 159.83 120.956 160.172 120.82 160.572C120.684 160.972 120.616 161.416 120.616 161.904C120.616 162.4 120.684 162.846 120.82 163.242C120.956 163.638 121.146 163.978 121.39 164.262C121.634 164.546 121.928 164.764 122.272 164.916ZM124.684 163.812C124.356 164.132 123.932 164.292 123.412 164.292C122.892 164.292 122.468 164.132 122.14 163.812C121.812 163.492 121.648 163.004 121.648 162.348V161.46C121.648 160.804 121.812 160.316 122.14 159.996C122.468 159.676 122.892 159.516 123.412 159.516C123.932 159.516 124.356 159.676 124.684 159.996C125.012 160.316 125.176 160.804 125.176 161.46V162.348C125.176 163.004 125.012 163.492 124.684 163.812Z" fill="#0F62FE"/>
<path d="M127.144 158.808H128.08L128.74 161.484L129.4 164.196H129.424L130.18 161.484L130.96 158.808H131.812L132.616 161.484L133.384 164.196H133.408L134.044 161.484L134.716 158.808H135.616L133.972 165H132.784L131.92 162.024L131.38 160.14H131.356L130.828 162.024L129.964 165H128.8L127.144 158.808Z" fill="#0F62FE"/>
<path d="M137.008 165V158.808H137.968V159.816H138.016C138.168 159.464 138.382 159.184 138.658 158.976C138.934 158.768 139.304 158.664 139.768 158.664C140.408 158.664 140.914 158.87 141.286 159.282C141.658 159.694 141.844 160.276 141.844 161.028V165H140.884V161.196C140.884 160.084 140.416 159.528 139.48 159.528C139.288 159.528 139.102 159.552 138.922 159.6C138.742 159.648 138.58 159.72 138.436 159.816C138.292 159.912 138.178 160.034 138.094 160.182C138.01 160.33 137.968 160.504 137.968 160.704V165H137.008Z" fill="#0F62FE"/>
<path d="M144.844 165C144.508 165 144.254 164.906 144.082 164.718C143.91 164.53 143.824 164.292 143.824 164.004V156.12H144.784V164.16H145.696V165H144.844Z" fill="#0F62FE"/>
<path fill-rule="evenodd" clip-rule="evenodd" d="M148.288 164.916C148.632 165.068 149.012 165.144 149.428 165.144C149.844 165.144 150.222 165.068 150.562 164.916C150.902 164.764 151.196 164.546 151.444 164.262C151.692 163.978 151.884 163.638 152.02 163.242C152.156 162.846 152.224 162.4 152.224 161.904C152.224 161.416 152.156 160.972 152.02 160.572C151.884 160.172 151.692 159.83 151.444 159.546C151.196 159.262 150.902 159.044 150.562 158.892C150.222 158.74 149.844 158.664 149.428 158.664C149.012 158.664 148.632 158.74 148.288 158.892C147.944 159.044 147.65 159.262 147.406 159.546C147.162 159.83 146.972 160.172 146.836 160.572C146.7 160.972 146.632 161.416 146.632 161.904C146.632 162.4 146.7 162.846 146.836 163.242C146.972 163.638 147.162 163.978 147.406 164.262C147.65 164.546 147.944 164.764 148.288 164.916ZM150.7 163.812C150.372 164.132 149.948 164.292 149.428 164.292C148.908 164.292 148.484 164.132 148.156 163.812C147.828 163.492 147.664 163.004 147.664 162.348V161.46C147.664 160.804 147.828 160.316 148.156 159.996C148.484 159.676 148.908 159.516 149.428 159.516C149.948 159.516 150.372 159.676 150.7 159.996C151.028 160.316 151.192 160.804 151.192 161.46V162.348C151.192 163.004 151.028 163.492 150.7 163.812Z" fill="#0F62FE"/>
<path fill-rule="evenodd" clip-rule="evenodd" d="M157.534 164.712C157.69 164.904 157.948 165 158.308 165H158.848V164.16H158.14V160.752C158.14 160.096 157.932 159.584 157.516 159.216C157.1 158.848 156.516 158.664 155.764 158.664C155.204 158.664 154.74 158.782 154.372 159.018C154.004 159.254 153.736 159.54 153.568 159.876L154.144 160.416C154.312 160.136 154.522 159.912 154.774 159.744C155.026 159.576 155.34 159.492 155.716 159.492C156.212 159.492 156.58 159.608 156.82 159.84C157.06 160.072 157.18 160.408 157.18 160.848V161.46H155.956C155.052 161.46 154.386 161.616 153.958 161.928C153.53 162.24 153.316 162.688 153.316 163.272C153.316 163.848 153.498 164.304 153.862 164.64C154.226 164.976 154.736 165.144 155.392 165.144C155.824 165.144 156.196 165.048 156.508 164.856C156.82 164.664 157.044 164.376 157.18 163.992H157.24C157.28 164.28 157.378 164.52 157.534 164.712ZM156.208 164.244C156.008 164.3 155.788 164.328 155.548 164.328C155.172 164.328 154.874 164.244 154.654 164.076C154.434 163.908 154.324 163.672 154.324 163.368V163.116C154.324 162.812 154.45 162.58 154.702 162.42C154.954 162.26 155.356 162.18 155.908 162.18H157.18V163.2C157.18 163.36 157.14 163.508 157.06 163.644C156.98 163.78 156.868 163.9 156.724 164.004C156.58 164.108 156.408 164.188 156.208 164.244Z" fill="#0F62FE"/>
<path fill-rule="evenodd" clip-rule="evenodd" d="M164.128 163.992H164.176V165H165.136V156.12H164.176V159.816H164.128C163.968 159.424 163.734 159.134 163.426 158.946C163.118 158.758 162.748 158.664 162.316 158.664C161.932 158.664 161.584 158.74 161.272 158.892C160.96 159.044 160.694 159.26 160.474 159.54C160.254 159.82 160.086 160.16 159.97 160.56C159.854 160.96 159.796 161.408 159.796 161.904C159.796 162.4 159.854 162.848 159.97 163.248C160.086 163.648 160.254 163.988 160.474 164.268C160.694 164.548 160.96 164.764 161.272 164.916C161.584 165.068 161.932 165.144 162.316 165.144C163.148 165.144 163.752 164.76 164.128 163.992ZM163.198 164.196C163.002 164.252 162.796 164.28 162.58 164.28C162.036 164.28 161.608 164.11 161.296 163.77C160.984 163.43 160.828 162.984 160.828 162.432V161.376C160.828 160.824 160.984 160.378 161.296 160.038C161.608 159.698 162.036 159.528 162.58 159.528C162.796 159.528 163.002 159.558 163.198 159.618C163.394 159.678 163.564 159.76 163.708 159.864C163.852 159.968 163.966 160.094 164.05 160.242C164.134 160.39 164.176 160.548 164.176 160.716V163.02C164.176 163.22 164.134 163.398 164.05 163.554C163.966 163.71 163.852 163.842 163.708 163.95C163.564 164.058 163.394 164.14 163.198 164.196Z" fill="#0F62FE"/>
<path fill-rule="evenodd" clip-rule="evenodd" d="M169.336 159.648H170.344V165H171.304V159.648H173.812V165H174.772V158.808H171.304V156.96H172.636V156.12H171.7C171.244 156.12 170.904 156.252 170.68 156.516C170.456 156.78 170.344 157.128 170.344 157.56V158.808H169.336V159.648ZM173.842 157.206C173.934 157.306 174.084 157.356 174.292 157.356C174.5 157.356 174.65 157.306 174.742 157.206C174.834 157.106 174.88 156.976 174.88 156.816V156.66C174.88 156.5 174.834 156.37 174.742 156.27C174.65 156.17 174.5 156.12 174.292 156.12C174.084 156.12 173.934 156.17 173.842 156.27C173.75 156.37 173.704 156.5 173.704 156.66V156.816C173.704 156.976 173.75 157.106 173.842 157.206Z" fill="#0F62FE"/>
<path d="M177.832 165C177.496 165 177.242 164.906 177.07 164.718C176.898 164.53 176.812 164.292 176.812 164.004V156.12H177.772V164.16H178.684V165H177.832Z" fill="#0F62FE"/>
<path fill-rule="evenodd" clip-rule="evenodd" d="M181.258 164.916C181.598 165.068 181.98 165.144 182.404 165.144C182.988 165.144 183.492 165.014 183.916 164.754C184.34 164.494 184.652 164.152 184.852 163.728L184.168 163.236C184.008 163.58 183.782 163.844 183.49 164.028C183.198 164.212 182.856 164.304 182.464 164.304C182.176 164.304 181.918 164.256 181.69 164.16C181.462 164.064 181.27 163.932 181.114 163.764C180.958 163.596 180.838 163.398 180.754 163.17C180.67 162.942 180.628 162.696 180.628 162.432V162.144H185.08V161.688C185.08 161.248 185.018 160.844 184.894 160.476C184.77 160.108 184.592 159.79 184.36 159.522C184.128 159.254 183.848 159.044 183.52 158.892C183.192 158.74 182.82 158.664 182.404 158.664C181.98 158.664 181.598 158.74 181.258 158.892C180.918 159.044 180.626 159.262 180.382 159.546C180.138 159.83 179.95 160.172 179.818 160.572C179.686 160.972 179.62 161.416 179.62 161.904C179.62 162.4 179.686 162.846 179.818 163.242C179.95 163.638 180.138 163.978 180.382 164.262C180.626 164.546 180.918 164.764 181.258 164.916ZM181.684 159.606C181.9 159.514 182.14 159.468 182.404 159.468C182.9 159.468 183.298 159.634 183.598 159.966C183.898 160.298 184.048 160.74 184.048 161.292V161.424H180.628V161.34C180.628 161.068 180.672 160.818 180.76 160.59C180.848 160.362 180.97 160.164 181.126 159.996C181.282 159.828 181.468 159.698 181.684 159.606Z" fill="#0F62FE"/>
<path fill-rule="evenodd" clip-rule="evenodd" d="M204.375 159.562L203.758 158.946L200.438 162.262V153.875H199.562V162.262L196.242 158.946L195.625 159.562L200 163.938L204.375 159.562V159.562ZM204.375 163.5V165.25H195.625V163.5H194.75V165.25V165.25C194.75 165.733 195.142 166.125 195.625 166.125H204.375C204.858 166.125 205.25 165.733 205.25 165.25V165.25V163.5H204.375Z" fill="#0F62FE"/>
<mask id="mask0_1302_3492" style="mask-type:luminance" maskUnits="userSpaceOnUse" x="194" y="153" width="12" height="14">
<path fill-rule="evenodd" clip-rule="evenodd" d="M204.375 159.562L203.758 158.946L200.438 162.262V153.875H199.562V162.262L196.242 158.946L195.625 159.562L200 163.938L204.375 159.562V159.562ZM204.375 163.5V165.25H195.625V163.5H194.75V165.25V165.25C194.75 165.733 195.142 166.125 195.625 166.125H204.375C204.858 166.125 205.25 165.733 205.25 165.25V165.25V163.5H204.375Z" fill="white"/>
</mask>
<g mask="url(#mask0_1302_3492)">
</g>
</svg>
