<svg width="320" height="320" viewBox="0 0 320 320" fill="none" xmlns="http://www.w3.org/2000/svg">
  <rect x="60" y="110" width="200" height="100" fill="#F3F3F3" />
  <rect x="60" y="110" width="200" height="100" fill="#C6C6C6" />
  <rect x="194" y="173" width="66" height="37" fill="white" />
  <path fill-rule="evenodd" clip-rule="evenodd"
    d="M162.812 158.125C161.259 158.125 160 156.866 160 155.312C160 153.759 161.259 152.5 162.812 152.5C164.366 152.5 165.625 153.759 165.625 155.312C165.625 156.058 165.329 156.774 164.801 157.301C164.274 157.829 163.558 158.125 162.812 158.125V158.125ZM162.812 154.375C162.295 154.375 161.875 154.795 161.875 155.312C161.875 155.83 162.295 156.25 162.812 156.25C163.33 156.25 163.75 155.83 163.75 155.312C163.75 154.795 163.33 154.375 162.812 154.375ZM169.516 148.75H150.484C149.527 148.75 148.75 149.527 148.75 150.484V169.516C148.75 169.976 148.933 170.417 149.258 170.742C149.583 171.067 150.024 171.25 150.484 171.25H169.516C169.976 171.25 170.417 171.067 170.742 170.742C171.067 170.417 171.25 169.976 171.25 169.516V150.484C171.25 149.527 170.473 148.75 169.516 148.75ZM169.375 150.625V164.997L165.869 161.491C165.517 161.139 165.04 160.941 164.542 160.941C164.045 160.941 163.567 161.139 163.216 161.491L161.875 162.859L156.719 157.741C156.367 157.389 155.89 157.191 155.392 157.191C154.895 157.191 154.417 157.389 154.066 157.741L150.625 161.181V150.625H169.375ZM150.625 169.375V163.825L155.387 159.062V159.062L160.516 164.191C160.867 164.543 161.345 164.741 161.842 164.741C162.34 164.741 162.817 164.543 163.169 164.191L164.538 162.812V162.812L169.375 167.65V169.375H150.625Z"
    fill="#525252" />
  <mask id="mask0_0_5242" style="mask-type:luminance" maskUnits="userSpaceOnUse" x="148" y="148"
    width="24" height="24">
    <path fill-rule="evenodd" clip-rule="evenodd"
      d="M162.812 158.125C161.259 158.125 160 156.866 160 155.312C160 153.759 161.259 152.5 162.812 152.5C164.366 152.5 165.625 153.759 165.625 155.312C165.625 156.058 165.329 156.774 164.801 157.301C164.274 157.829 163.558 158.125 162.812 158.125V158.125ZM162.812 154.375C162.295 154.375 161.875 154.795 161.875 155.312C161.875 155.83 162.295 156.25 162.812 156.25C163.33 156.25 163.75 155.83 163.75 155.312C163.75 154.795 163.33 154.375 162.812 154.375ZM169.516 148.75H150.484C149.527 148.75 148.75 149.527 148.75 150.484V169.516C148.75 169.976 148.933 170.417 149.258 170.742C149.583 171.067 150.024 171.25 150.484 171.25H169.516C169.976 171.25 170.417 171.067 170.742 170.742C171.067 170.417 171.25 169.976 171.25 169.516V150.484C171.25 149.527 170.473 148.75 169.516 148.75ZM169.375 150.625V164.997L165.869 161.491C165.517 161.139 165.04 160.941 164.542 160.941C164.045 160.941 163.567 161.139 163.216 161.491L161.875 162.859L156.719 157.741C156.367 157.389 155.89 157.191 155.392 157.191C154.895 157.191 154.417 157.389 154.066 157.741L150.625 161.181V150.625H169.375ZM150.625 169.375V163.825L155.387 159.062V159.062L160.516 164.191C160.867 164.543 161.345 164.741 161.842 164.741C162.34 164.741 162.817 164.543 163.169 164.191L164.538 162.812V162.812L169.375 167.65V169.375H150.625Z"
      fill="white" />
  </mask>
  <g mask="url(#mask0_0_5242)">
</g>
  <rect x="60" y="110" width="200" height="100" stroke="#A8A8A8" />
  <path fill-rule="evenodd" clip-rule="evenodd"
    d="M250.062 197.688L249.666 198.084L251.798 200.219H245.844V200.781H251.798L249.666 202.916L250.062 203.312L252.875 200.5L250.062 197.688V197.688Z"
    fill="#0F62FE" />
  <mask id="mask1_0_5242" style="mask-type:luminance" maskUnits="userSpaceOnUse" x="245" y="197"
    width="8" height="7">
    <path fill-rule="evenodd" clip-rule="evenodd"
      d="M250.062 197.688L249.666 198.084L251.798 200.219H245.844V200.781H251.798L249.666 202.916L250.062 203.312L252.875 200.5L250.062 197.688V197.688Z"
      fill="white" />
  </mask>
  <g mask="url(#mask1_0_5242)">
</g>
  <rect x="199" y="179" width="32" height="3" fill="#8D8D8D" />
</svg>