<svg width="320" height="320" viewBox="0 0 320 320" fill="none" xmlns="http://www.w3.org/2000/svg">
<rect x="72" y="111" width="176" height="98" fill="#F3F3F3" stroke="#A8A8A8"/>
<path fill-rule="evenodd" clip-rule="evenodd" d="M101.474 193.042C101.437 193.03 101.399 193.024 101.36 193.024C101.321 193.024 101.283 193.03 101.246 193.042L95.72 194.885V193.601L99.599 190.154C99.676 190.085 99.72 189.987 99.72 189.884V169.53C99.72 167.977 100.352 165.721 101.341 165.721C102.339 165.721 103 168.013 103 169.53V175.244C103 175.356 103.052 175.461 103.14 175.53L109.128 180.141C109.136 180.148 109.145 180.154 109.153 180.16L114 183.893V187.266L103.543 181.327C103.431 181.264 103.295 181.266 103.184 181.329C103.073 181.394 103.005 181.513 103.005 181.641L103 189.884C103 189.987 103.044 190.085 103.121 190.154L107 193.601V194.885L101.474 193.042ZM106.72 177.378L109 179.134V176.384C109 176.185 109.161 176.024 109.36 176.024C109.559 176.024 109.72 176.185 109.72 176.384V179.688L114.58 183.431C114.668 183.499 114.72 183.605 114.72 183.716V187.884C114.72 188.012 114.652 188.131 114.541 188.196C114.43 188.26 114.294 188.26 114.182 188.197L103.725 182.259L103.72 189.723L107.599 193.169C107.676 193.238 107.72 193.336 107.72 193.439V195.384C107.72 195.499 107.664 195.609 107.57 195.676C107.508 195.721 107.435 195.744 107.36 195.744C107.322 195.744 107.283 195.738 107.246 195.726L101.36 193.764L95.474 195.726C95.364 195.761 95.243 195.744 95.15 195.676C95.056 195.609 95 195.499 95 195.384V193.439C95 193.336 95.044 193.238 95.121 193.169L99 189.722V169.53C99 168.111 99.589 165 101.341 165C103.121 165 103.72 168.111 103.72 169.53V175.068L106 176.823V174.384C106 174.185 106.161 174.023 106.36 174.023C106.559 174.023 106.72 174.185 106.72 174.384V177.378ZM93 179.252L93.0001 179.26L88.131 183.26C88.048 183.328 88 183.431 88 183.538V187.862C88 187.991 88.068 188.109 88.18 188.173C88.235 188.205 88.298 188.222 88.36 188.222C88.422 188.222 88.485 188.205 88.54 188.173L97.54 182.977C97.712 182.877 97.771 182.658 97.672 182.486C97.572 182.312 97.352 182.252 97.18 182.354L88.72 187.238V183.708L97.589 176.423C97.742 176.297 97.764 176.07 97.638 175.916C97.512 175.763 97.285 175.742 97.131 175.867L96.72 176.204V174.383C96.72 174.184 96.559 174.023 96.36 174.023C96.161 174.023 96 174.184 96 174.383V176.787C96 176.79 96 176.793 96.0001 176.796L93.72 178.669V176.383C93.72 176.184 93.559 176.023 93.36 176.023C93.161 176.023 93 176.184 93 176.383V179.252Z" fill="black"/>
<path fill-rule="evenodd" clip-rule="evenodd" d="M229 185L228.295 185.705L232.085 189.5H221.5V190.5H232.085L228.295 194.295L229 195L234 190L229 185V185Z" fill="#0F62FE"/>
<mask id="mask0_0_5158" style="mask-type:luminance" maskUnits="userSpaceOnUse" x="221" y="185" width="13" height="10">
<path fill-rule="evenodd" clip-rule="evenodd" d="M229 185L228.295 185.705L232.085 189.5H221.5V190.5H232.085L228.295 194.295L229 195L234 190L229 185V185Z" fill="white"/>
</mask>
<g mask="url(#mask0_0_5158)">
</g>
<rect x="85" y="124" width="96" height="6" fill="#8D8D8D"/>
</svg>
