<?xml version="1.0" encoding="UTF-8"?>
<svg width="320px" height="320px" viewBox="0 0 320 320" version="1.1" xmlns="http://www.w3.org/2000/svg" xmlns:xlink="http://www.w3.org/1999/xlink">
    <title>card_group</title>
    <defs>
        <polygon id="path-1" points="5.0625 1.6875 4.6659375 2.0840625 6.7978125 4.21875 0.84375 4.21875 0.84375 4.78125 6.7978125 4.78125 4.6659375 6.9159375 5.0625 7.3125 7.875 4.5"></polygon>
        <polygon id="path-3" points="5.0625 1.6875 4.6659375 2.0840625 6.7978125 4.21875 0.84375 4.21875 0.84375 4.78125 6.7978125 4.78125 4.6659375 6.9159375 5.0625 7.3125 7.875 4.5"></polygon>
        <polygon id="path-5" points="5.0625 1.6875 4.6659375 2.0840625 6.7978125 4.21875 0.84375 4.21875 0.84375 4.78125 6.7978125 4.78125 4.6659375 6.9159375 5.0625 7.3125 7.875 4.5"></polygon>
        <polygon id="path-7" points="5.0625 1.6875 4.6659375 2.0840625 6.7978125 4.21875 0.84375 4.21875 0.84375 4.78125 6.7978125 4.78125 4.6659375 6.9159375 5.0625 7.3125 7.875 4.5"></polygon>
        <polygon id="path-9" points="5.0625 1.6875 4.6659375 2.0840625 6.7978125 4.21875 0.84375 4.21875 0.84375 4.78125 6.7978125 4.78125 4.6659375 6.9159375 5.0625 7.3125 7.875 4.5"></polygon>
        <polygon id="path-11" points="5.0625 1.6875 4.6659375 2.0840625 6.7978125 4.21875 0.84375 4.21875 0.84375 4.78125 6.7978125 4.78125 4.6659375 6.9159375 5.0625 7.3125 7.875 4.5"></polygon>
    </defs>
    <g id="card_group" stroke="none" stroke-width="1" fill="none" fill-rule="evenodd">
        <g id="Group" transform="translate(48.000000, 100.000000)">
            <rect id="Rectangle-Copy-63" fill="#F3F3F3" x="150" y="0" width="74" height="60"></rect>
            <rect id="Rectangle-Copy-83" fill="#262626" x="150" y="61" width="74" height="60"></rect>
            <rect id="Rectangle-Copy-71" fill="#F3F3F3" x="0" y="0" width="74" height="60"></rect>
            <rect id="Rectangle-Copy-72" fill="#F3F3F3" x="75" y="0" width="74" height="60"></rect>
            <rect id="Rectangle-Copy-84" fill="#F3F3F3" x="0" y="61" width="74" height="60"></rect>
            <rect id="Rectangle-Copy-106" fill="#F3F3F3" x="75" y="61" width="74" height="60"></rect>
            <rect id="Rectangle-Copy-107" fill="#C6C6C6" x="154" y="67" width="39" height="4"></rect>
            <rect id="Rectangle-Copy-108" fill="#A8A8A8" x="79" y="67" width="39" height="4"></rect>
            <rect id="Rectangle-Copy-109" fill="#A8A8A8" x="4" y="67" width="39" height="4"></rect>
            <rect id="Rectangle-Copy-110" fill="#A8A8A8" x="4" y="6" width="39" height="4"></rect>
            <rect id="Rectangle-Copy-111" fill="#A8A8A8" x="79" y="6" width="39" height="4"></rect>
            <rect id="Rectangle-Copy-112" fill="#A8A8A8" x="153" y="6" width="39" height="4"></rect>
            <rect id="Rectangle-Copy-113" fill="#C6C6C6" x="4" y="84" width="60" height="3"></rect>
            <rect id="Rectangle-Copy-114" fill="#C6C6C6" x="4" y="23" width="60" height="3"></rect>
            <rect id="Rectangle-Copy-115" fill="#C6C6C6" x="79" y="23" width="60" height="3"></rect>
            <rect id="Rectangle-Copy-116" fill="#C6C6C6" x="153" y="23" width="60" height="3"></rect>
            <rect id="Rectangle-Copy-117" fill="#C6C6C6" x="79" y="84" width="60" height="3"></rect>
            <rect id="Rectangle-Copy-118" fill="#C6C6C6" x="4" y="89" width="52" height="3"></rect>
            <rect id="Rectangle-Copy-119" fill="#C6C6C6" x="4" y="28" width="52" height="3"></rect>
            <rect id="Rectangle-Copy-120" fill="#C6C6C6" x="79" y="28" width="52" height="3"></rect>
            <rect id="Rectangle-Copy-121" fill="#C6C6C6" x="153" y="28" width="52" height="3"></rect>
            <rect id="Rectangle-Copy-122" fill="#C6C6C6" x="79" y="89" width="52" height="3"></rect>
            <rect id="Rectangle-Copy-123" fill="#C6C6C6" x="4" y="94" width="60" height="3"></rect>
            <rect id="Rectangle-Copy-124" fill="#C6C6C6" x="4" y="33" width="60" height="3"></rect>
            <rect id="Rectangle-Copy-125" fill="#C6C6C6" x="79" y="33" width="60" height="3"></rect>
            <rect id="Rectangle-Copy-126" fill="#C6C6C6" x="153" y="33" width="60" height="3"></rect>
            <rect id="Rectangle-Copy-127" fill="#C6C6C6" x="79" y="94" width="60" height="3"></rect>
            <rect id="Rectangle-Copy-128" fill="#C6C6C6" x="4" y="23" width="60" height="2"></rect>
            <rect id="Rectangle-Copy-129" fill="#C6C6C6" x="79" y="23" width="60" height="2"></rect>
            <rect id="Rectangle-Copy-130" fill="#C6C6C6" x="153" y="23" width="60" height="2"></rect>
            <g transform="translate(154.000000, 46.000000)" id="icons/arrows/ibm-forward-link-copy-8">
                <mask id="mask-2" fill="white">
                    <use xlink:href="#path-1"></use>
                </mask>
                <use id="icon-color" fill="#0F62FE" xlink:href="#path-1"></use>
            </g>
            <g transform="translate(79.000000, 46.000000)" id="icons/arrows/ibm-forward-link-copy-8">
                <mask id="mask-4" fill="white">
                    <use xlink:href="#path-3"></use>
                </mask>
                <use id="icon-color" fill="#0F62FE" xlink:href="#path-3"></use>
            </g>
            <g transform="translate(79.000000, 108.000000)" id="icons/arrows/ibm-forward-link-copy-8">
                <mask id="mask-6" fill="white">
                    <use xlink:href="#path-5"></use>
                </mask>
                <use id="icon-color" fill="#0F62FE" xlink:href="#path-5"></use>
            </g>
            <g transform="translate(154.000000, 108.000000)" id="icons/arrows/ibm-forward-link-copy-11">
                <mask id="mask-8" fill="white">
                    <use xlink:href="#path-7"></use>
                </mask>
                <use id="icon-color" fill="#A6C8FF" xlink:href="#path-7"></use>
            </g>
            <g transform="translate(4.000000, 46.000000)" id="icons/arrows/ibm-forward-link-copy-8">
                <mask id="mask-10" fill="white">
                    <use xlink:href="#path-9"></use>
                </mask>
                <use id="icon-color" fill="#0F62FE" xlink:href="#path-9"></use>
            </g>
            <g transform="translate(4.000000, 108.000000)" id="icons/arrows/ibm-forward-link-copy-8">
                <mask id="mask-12" fill="white">
                    <use xlink:href="#path-11"></use>
                </mask>
                <use id="icon-color" fill="#0F62FE" xlink:href="#path-11"></use>
            </g>
        </g>
    </g>
</svg>