<?xml version="1.0" encoding="UTF-8"?>
<!DOCTYPE svg PUBLIC "-//W3C//DTD SVG 1.1//EN" "http://www.w3.org/Graphics/SVG/1.1/DTD/svg11.dtd">
<svg xmlns="http://www.w3.org/2000/svg" version="1.1" width="640px" height="360px" style="shape-rendering:geometricPrecision; text-rendering:geometricPrecision; image-rendering:optimizeQuality; fill-rule:evenodd; clip-rule:evenodd" xmlns:xlink="http://www.w3.org/1999/xlink">
<g><path style="opacity:1" fill="#a7a8a7" d="M 142.5,66.5 C 260.5,66.5 378.5,66.5 496.5,66.5C 496.5,141.833 496.5,217.167 496.5,292.5C 378.5,292.5 260.5,292.5 142.5,292.5C 142.5,217.167 142.5,141.833 142.5,66.5 Z"/></g>
<g><path style="opacity:1" fill="#fdfdfd" d="M 225.5,68.5 C 225.098,73.9655 225.098,79.6322 225.5,85.5C 203.5,85.5 181.5,85.5 159.5,85.5C 159.5,87.5 159.5,89.5 159.5,91.5C 181.5,91.5 203.5,91.5 225.5,91.5C 225.208,93.9572 225.208,96.6239 225.5,99.5C 203.5,99.5 181.5,99.5 159.5,99.5C 159.5,101.5 159.5,103.5 159.5,105.5C 181.5,105.5 203.5,105.5 225.5,105.5C 225.2,166.699 225.2,228.032 225.5,289.5C 198.5,289.5 171.5,289.5 144.5,289.5C 144.5,215.833 144.5,142.167 144.5,68.5C 171.5,68.5 198.5,68.5 225.5,68.5 Z"/></g>
<g><path style="opacity:1" fill="#f2f2f2" d="M 225.5,68.5 C 255.5,68.5 285.5,68.5 315.5,68.5C 315.414,69.4959 315.748,70.3292 316.5,71C 315.833,71.3333 315.167,71.6667 314.5,72C 314.72,76.3683 315.387,80.8683 316.5,85.5C 286.167,85.5 255.833,85.5 225.5,85.5C 225.098,79.6322 225.098,73.9655 225.5,68.5 Z"/></g>
<g><path style="opacity:1" fill="#eaeaea" d="M 315.5,68.5 C 330.833,68.5 346.167,68.5 361.5,68.5C 360.819,80.6096 360.819,93.4429 361.5,107C 359.219,108.851 359.219,110.518 361.5,112C 360.767,142.869 360.434,173.036 360.5,202.5C 346.5,202.5 332.5,202.5 318.5,202.5C 318.5,231.833 318.5,261.167 318.5,290.5C 260.331,290.832 202.331,290.499 144.5,289.5C 171.5,289.5 198.5,289.5 225.5,289.5C 240.5,289.5 255.5,289.5 270.5,289.5C 285.5,289.5 300.5,289.5 315.5,289.5C 315.351,256.911 315.351,223.245 315.5,188.5C 321.509,188.666 327.509,188.499 333.5,188C 334.833,178.333 334.833,168.667 333.5,159C 327.843,158.501 322.176,158.334 316.5,158.5C 316.167,158.5 315.833,158.5 315.5,158.5C 315.601,136.436 315.601,114.103 315.5,91.5C 316.833,91.5 318.167,91.5 319.5,91.5C 319.5,89.5 319.5,87.5 319.5,85.5C 318.5,85.5 317.5,85.5 316.5,85.5C 315.387,80.8683 314.72,76.3683 314.5,72C 315.167,71.6667 315.833,71.3333 316.5,71C 315.748,70.3292 315.414,69.4959 315.5,68.5 Z"/></g>
<g><path style="opacity:1" fill="#e4e4e4" d="M 361.5,68.5 C 378.833,68.5 396.167,68.5 413.5,68.5C 412.729,74.2602 412.395,79.7602 412.5,85C 414.891,86.3086 414.891,87.3086 412.5,88C 412.744,96.7556 412.744,105.589 412.5,114.5C 410.5,114.5 408.5,114.5 406.5,114.5C 406.5,143.833 406.5,173.167 406.5,202.5C 391.167,202.5 375.833,202.5 360.5,202.5C 360.434,173.036 360.767,142.869 361.5,112C 359.219,110.518 359.219,108.851 361.5,107C 360.819,93.4429 360.819,80.6096 361.5,68.5 Z"/></g>
<g><path style="opacity:1" fill="#dfe0df" d="M 413.5,68.5 C 440.5,68.5 467.5,68.5 494.5,68.5C 494.5,83.8333 494.5,99.1667 494.5,114.5C 467.167,114.5 439.833,114.5 412.5,114.5C 412.744,105.589 412.744,96.7556 412.5,88C 414.891,87.3086 414.891,86.3086 412.5,85C 412.395,79.7602 412.729,74.2602 413.5,68.5 Z"/></g>
<g><path style="opacity:1" fill="#8c8d8c" d="M 225.5,85.5 C 255.833,85.5 286.167,85.5 316.5,85.5C 317.5,85.5 318.5,85.5 319.5,85.5C 319.5,87.5 319.5,89.5 319.5,91.5C 318.167,91.5 316.833,91.5 315.5,91.5C 285.5,91.5 255.5,91.5 225.5,91.5C 203.5,91.5 181.5,91.5 159.5,91.5C 159.5,89.5 159.5,87.5 159.5,85.5C 181.5,85.5 203.5,85.5 225.5,85.5 Z"/></g>
<g><path style="opacity:1" fill="#f0f0f0" d="M 225.5,91.5 C 255.5,91.5 285.5,91.5 315.5,91.5C 315.601,114.103 315.601,136.436 315.5,158.5C 311.894,158.211 308.394,158.544 305,159.5C 304.333,168.833 304.333,178.167 305,187.5C 306.011,188.337 307.178,188.67 308.5,188.5C 310.833,188.5 313.167,188.5 315.5,188.5C 315.351,223.245 315.351,256.911 315.5,289.5C 300.5,289.5 285.5,289.5 270.5,289.5C 270.092,227.602 270.092,166.269 270.5,105.5C 276.167,105.5 281.833,105.5 287.5,105.5C 287.5,103.5 287.5,101.5 287.5,99.5C 266.833,99.5 246.167,99.5 225.5,99.5C 225.208,96.6239 225.208,93.9572 225.5,91.5 Z"/></g>
<g><path style="opacity:1" fill="#8c8d8c" d="M 225.5,99.5 C 246.167,99.5 266.833,99.5 287.5,99.5C 287.5,101.5 287.5,103.5 287.5,105.5C 281.833,105.5 276.167,105.5 270.5,105.5C 255.5,105.5 240.5,105.5 225.5,105.5C 203.5,105.5 181.5,105.5 159.5,105.5C 159.5,103.5 159.5,101.5 159.5,99.5C 181.5,99.5 203.5,99.5 225.5,99.5 Z"/></g>
<g><path style="opacity:1" fill="#f6f6f6" d="M 225.5,105.5 C 240.5,105.5 255.5,105.5 270.5,105.5C 270.092,166.269 270.092,227.602 270.5,289.5C 255.5,289.5 240.5,289.5 225.5,289.5C 225.2,228.032 225.2,166.699 225.5,105.5 Z"/></g>
<g><path style="opacity:1" fill="#b9b9b9" d="M 412.5,114.5 C 439.833,114.5 467.167,114.5 494.5,114.5C 494.5,115.167 494.5,115.833 494.5,116.5C 465.833,116.5 437.167,116.5 408.5,116.5C 408.5,145.167 408.5,173.833 408.5,202.5C 437.167,202.5 465.833,202.5 494.5,202.5C 494.5,203.167 494.5,203.833 494.5,204.5C 465.833,204.5 437.167,204.5 408.5,204.5C 408.5,233.167 408.5,261.833 408.5,290.5C 407.833,290.5 407.167,290.5 406.5,290.5C 406.5,261.833 406.5,233.167 406.5,204.5C 377.833,204.5 349.167,204.5 320.5,204.5C 320.5,233.167 320.5,261.833 320.5,290.5C 319.833,290.5 319.167,290.5 318.5,290.5C 318.5,261.167 318.5,231.833 318.5,202.5C 332.5,202.5 346.5,202.5 360.5,202.5C 375.833,202.5 391.167,202.5 406.5,202.5C 406.5,173.167 406.5,143.833 406.5,114.5C 408.5,114.5 410.5,114.5 412.5,114.5 Z"/></g>
<g><path style="opacity:1" fill="#f3f3f4" d="M 494.5,116.5 C 494.5,145.167 494.5,173.833 494.5,202.5C 465.833,202.5 437.167,202.5 408.5,202.5C 408.5,173.833 408.5,145.167 408.5,116.5C 437.167,116.5 465.833,116.5 494.5,116.5 Z"/></g>
<g><path style="opacity:1" fill="#8c8d8c" d="M 417.5,125.5 C 433.5,125.5 449.5,125.5 465.5,125.5C 465.5,126.833 465.5,128.167 465.5,129.5C 449.5,129.5 433.5,129.5 417.5,129.5C 417.5,128.167 417.5,126.833 417.5,125.5 Z"/></g>
<g><path style="opacity:1" fill="#a7a8a7" d="M 417.5,137.5 C 437.5,137.5 457.5,137.5 477.5,137.5C 477.5,138.5 477.5,139.5 477.5,140.5C 457.5,140.5 437.5,140.5 417.5,140.5C 417.5,139.5 417.5,138.5 417.5,137.5 Z"/></g>
<g><path style="opacity:1" fill="#a7a8a7" d="M 417.5,144.5 C 437.5,144.5 457.5,144.5 477.5,144.5C 477.5,145.5 477.5,146.5 477.5,147.5C 457.5,147.5 437.5,147.5 417.5,147.5C 417.5,146.5 417.5,145.5 417.5,144.5 Z"/></g>
<g><path style="opacity:1" fill="#a7a8a7" d="M 417.5,151.5 C 437.5,151.5 457.5,151.5 477.5,151.5C 477.5,152.5 477.5,153.5 477.5,154.5C 457.5,154.5 437.5,154.5 417.5,154.5C 417.5,153.5 417.5,152.5 417.5,151.5 Z"/></g>
<g><path style="opacity:1" fill="#afafaf" d="M 315.5,158.5 C 315.833,158.5 316.167,158.5 316.5,158.5C 321.251,160.141 326.251,161.141 331.5,161.5C 323.5,161.5 315.5,161.5 307.5,161.5C 307.176,165.555 307.509,169.555 308.5,173.5C 310.167,172.167 311.833,170.833 313.5,169.5C 315.188,170.521 316.521,171.855 317.5,173.5C 316.662,173.842 316.328,174.508 316.5,175.5C 315.206,174.71 314.039,173.71 313,172.5C 308.077,175.492 306.244,179.825 307.5,185.5C 315.903,186.134 323.903,185.467 331.5,183.5C 332.404,184.209 332.737,185.209 332.5,186.5C 324.097,185.866 316.097,186.533 308.5,188.5C 307.178,188.67 306.011,188.337 305,187.5C 304.333,178.167 304.333,168.833 305,159.5C 308.394,158.544 311.894,158.211 315.5,158.5 Z"/></g>
<g><path style="opacity:1" fill="#959595" d="M 316.5,158.5 C 322.176,158.334 327.843,158.501 333.5,159C 334.833,168.667 334.833,178.333 333.5,188C 327.509,188.499 321.509,188.666 315.5,188.5C 313.167,188.5 310.833,188.5 308.5,188.5C 316.097,186.533 324.097,185.866 332.5,186.5C 332.737,185.209 332.404,184.209 331.5,183.5C 330.04,181.537 328.373,179.704 326.5,178C 324.893,177.885 323.393,178.385 322,179.5C 320.019,178.35 318.186,177.016 316.5,175.5C 316.328,174.508 316.662,173.842 317.5,173.5C 319.129,174.625 320.629,175.959 322,177.5C 323.019,176.313 324.186,175.313 325.5,174.5C 327.5,176.167 329.5,177.833 331.5,179.5C 332.817,173.346 332.817,167.346 331.5,161.5C 326.251,161.141 321.251,160.141 316.5,158.5 Z"/></g>
<g><path style="opacity:1" fill="#a7a8a7" d="M 417.5,158.5 C 428.167,158.5 438.833,158.5 449.5,158.5C 449.5,159.5 449.5,160.5 449.5,161.5C 438.833,161.5 428.167,161.5 417.5,161.5C 417.5,160.5 417.5,159.5 417.5,158.5 Z"/></g>
<g><path style="opacity:1" fill="#e6e6e6" d="M 331.5,161.5 C 332.817,167.346 332.817,173.346 331.5,179.5C 329.5,177.833 327.5,176.167 325.5,174.5C 324.186,175.313 323.019,176.313 322,177.5C 320.629,175.959 319.129,174.625 317.5,173.5C 316.521,171.855 315.188,170.521 313.5,169.5C 311.833,170.833 310.167,172.167 308.5,173.5C 307.509,169.555 307.176,165.555 307.5,161.5C 315.5,161.5 323.5,161.5 331.5,161.5 Z"/></g>
<g><path style="opacity:1" fill="#a4a4a4" d="M 321.5,163.5 C 326.328,163.385 327.661,165.552 325.5,170C 319.339,170.878 318.006,168.711 321.5,163.5 Z"/></g>
<g><path style="opacity:1" fill="#eaeaea" d="M 316.5,175.5 C 318.186,177.016 320.019,178.35 322,179.5C 323.393,178.385 324.893,177.885 326.5,178C 328.373,179.704 330.04,181.537 331.5,183.5C 323.903,185.467 315.903,186.134 307.5,185.5C 306.244,179.825 308.077,175.492 313,172.5C 314.039,173.71 315.206,174.71 316.5,175.5 Z"/></g>
<g><path style="opacity:1" fill="#4f81fc" d="M 480.5,186.5 C 482.664,185.882 484.33,186.882 485.5,189.5C 484.808,192.373 483.141,193.873 480.5,194C 481.5,193 482.5,192 483.5,191C 470.167,190.333 470.167,189.667 483.5,189C 482.627,187.955 481.627,187.122 480.5,186.5 Z"/></g>
<g><path style="opacity:1" fill="#f3f3f4" d="M 406.5,290.5 C 377.833,290.5 349.167,290.5 320.5,290.5C 320.5,261.833 320.5,233.167 320.5,204.5C 349.167,204.5 377.833,204.5 406.5,204.5C 406.5,233.167 406.5,261.833 406.5,290.5 Z"/></g>
<g><path style="opacity:1" fill="#f3f3f4" d="M 494.5,204.5 C 494.5,233.167 494.5,261.833 494.5,290.5C 465.833,290.5 437.167,290.5 408.5,290.5C 408.5,261.833 408.5,233.167 408.5,204.5C 437.167,204.5 465.833,204.5 494.5,204.5 Z"/></g>
<g><path style="opacity:1" fill="#8c8d8c" d="M 329.5,213.5 C 345.5,213.5 361.5,213.5 377.5,213.5C 377.5,214.833 377.5,216.167 377.5,217.5C 361.5,217.5 345.5,217.5 329.5,217.5C 329.5,216.167 329.5,214.833 329.5,213.5 Z"/></g>
<g><path style="opacity:1" fill="#8c8d8c" d="M 417.5,213.5 C 433.5,213.5 449.5,213.5 465.5,213.5C 465.5,214.833 465.5,216.167 465.5,217.5C 449.5,217.5 433.5,217.5 417.5,217.5C 417.5,216.167 417.5,214.833 417.5,213.5 Z"/></g>
<g><path style="opacity:1" fill="#a7a8a7" d="M 329.5,225.5 C 349.5,225.5 369.5,225.5 389.5,225.5C 389.5,226.5 389.5,227.5 389.5,228.5C 369.5,228.5 349.5,228.5 329.5,228.5C 329.5,227.5 329.5,226.5 329.5,225.5 Z"/></g>
<g><path style="opacity:1" fill="#a7a8a7" d="M 417.5,225.5 C 437.5,225.5 457.5,225.5 477.5,225.5C 477.5,226.5 477.5,227.5 477.5,228.5C 457.5,228.5 437.5,228.5 417.5,228.5C 417.5,227.5 417.5,226.5 417.5,225.5 Z"/></g>
<g><path style="opacity:1" fill="#a7a8a7" d="M 329.5,232.5 C 349.5,232.5 369.5,232.5 389.5,232.5C 389.5,233.5 389.5,234.5 389.5,235.5C 369.5,235.5 349.5,235.5 329.5,235.5C 329.5,234.5 329.5,233.5 329.5,232.5 Z"/></g>
<g><path style="opacity:1" fill="#a7a8a7" d="M 417.5,232.5 C 437.5,232.5 457.5,232.5 477.5,232.5C 477.5,233.5 477.5,234.5 477.5,235.5C 457.5,235.5 437.5,235.5 417.5,235.5C 417.5,234.5 417.5,233.5 417.5,232.5 Z"/></g>
<g><path style="opacity:1" fill="#a7a8a7" d="M 329.5,239.5 C 349.5,239.5 369.5,239.5 389.5,239.5C 389.5,240.5 389.5,241.5 389.5,242.5C 369.5,242.5 349.5,242.5 329.5,242.5C 329.5,241.5 329.5,240.5 329.5,239.5 Z"/></g>
<g><path style="opacity:1" fill="#a7a8a7" d="M 417.5,239.5 C 437.5,239.5 457.5,239.5 477.5,239.5C 477.5,240.5 477.5,241.5 477.5,242.5C 457.5,242.5 437.5,242.5 417.5,242.5C 417.5,241.5 417.5,240.5 417.5,239.5 Z"/></g>
<g><path style="opacity:1" fill="#a7a8a7" d="M 329.5,246.5 C 340.167,246.5 350.833,246.5 361.5,246.5C 361.5,247.5 361.5,248.5 361.5,249.5C 350.833,249.5 340.167,249.5 329.5,249.5C 329.5,248.5 329.5,247.5 329.5,246.5 Z"/></g>
<g><path style="opacity:1" fill="#a7a8a7" d="M 417.5,246.5 C 428.167,246.5 438.833,246.5 449.5,246.5C 449.5,247.5 449.5,248.5 449.5,249.5C 438.833,249.5 428.167,249.5 417.5,249.5C 417.5,248.5 417.5,247.5 417.5,246.5 Z"/></g>
<g><path style="opacity:1" fill="#4f81fc" d="M 390.5,274.5 C 392.664,273.882 394.33,274.882 395.5,277.5C 394.808,280.373 393.141,281.873 390.5,282C 391.5,281 392.5,280 393.5,279C 380.167,278.333 380.167,277.667 393.5,277C 392.627,275.955 391.627,275.122 390.5,274.5 Z"/></g>
<g><path style="opacity:1" fill="#4f81fc" d="M 480.5,274.5 C 482.664,273.882 484.33,274.882 485.5,277.5C 484.808,280.373 483.141,281.873 480.5,282C 481.5,281 482.5,280 483.5,279C 470.167,278.333 470.167,277.667 483.5,277C 482.627,275.955 481.627,275.122 480.5,274.5 Z"/></g>
</svg>
