<?xml version="1.0" encoding="UTF-8"?>
<!DOCTYPE svg PUBLIC "-//W3C//DTD SVG 1.1//EN" "http://www.w3.org/Graphics/SVG/1.1/DTD/svg11.dtd">
<svg xmlns="http://www.w3.org/2000/svg" version="1.1" width="640px" height="360px" style="shape-rendering:geometricPrecision; text-rendering:geometricPrecision; image-rendering:optimizeQuality; fill-rule:evenodd; clip-rule:evenodd" xmlns:xlink="http://www.w3.org/1999/xlink">
<g><path style="opacity:1" fill="#a7a8a7" d="M 142.5,68.5 C 260.5,68.5 378.5,68.5 496.5,68.5C 496.5,142.5 496.5,216.5 496.5,290.5C 378.5,290.5 260.5,290.5 142.5,290.5C 142.5,216.5 142.5,142.5 142.5,68.5 Z"/></g>
<g><path style="opacity:1" fill="#fefffe" d="M 144.5,70.5 C 261.167,70.5 377.833,70.5 494.5,70.5C 494.5,143.167 494.5,215.833 494.5,288.5C 377.833,288.5 261.167,288.5 144.5,288.5C 144.5,215.833 144.5,143.167 144.5,70.5 Z"/></g>
<g><path style="opacity:1" fill="#a7a8a7" d="M 234.5,82.5 C 317.167,82.5 399.833,82.5 482.5,82.5C 482.5,110.5 482.5,138.5 482.5,166.5C 455.167,166.5 427.833,166.5 400.5,166.5C 400.5,193.833 400.5,221.167 400.5,248.5C 345.167,248.5 289.833,248.5 234.5,248.5C 234.5,193.167 234.5,137.833 234.5,82.5 Z"/></g>
<g><path style="opacity:1" fill="#8c8d8c" d="M 157.5,83.5 C 173.5,83.5 189.5,83.5 205.5,83.5C 205.5,84.8333 205.5,86.1667 205.5,87.5C 189.5,87.5 173.5,87.5 157.5,87.5C 157.5,86.1667 157.5,84.8333 157.5,83.5 Z"/></g>
<g><path style="opacity:1" fill="#f3f3f4" d="M 236.5,84.5 C 263.167,84.5 289.833,84.5 316.5,84.5C 316.5,111.167 316.5,137.833 316.5,164.5C 289.833,164.5 263.167,164.5 236.5,164.5C 236.5,137.833 236.5,111.167 236.5,84.5 Z"/></g>
<g><path style="opacity:1" fill="#f3f3f4" d="M 318.5,84.5 C 345.167,84.5 371.833,84.5 398.5,84.5C 398.5,111.167 398.5,137.833 398.5,164.5C 371.833,164.5 345.167,164.5 318.5,164.5C 318.5,137.833 318.5,111.167 318.5,84.5 Z"/></g>
<g><path style="opacity:1" fill="#f3f3f4" d="M 400.5,84.5 C 427.167,84.5 453.833,84.5 480.5,84.5C 480.5,111.167 480.5,137.833 480.5,164.5C 453.833,164.5 427.167,164.5 400.5,164.5C 400.5,137.833 400.5,111.167 400.5,84.5 Z"/></g>
<g><path style="opacity:1" fill="#8c8d8c" d="M 157.5,93.5 C 168.167,93.5 178.833,93.5 189.5,93.5C 189.5,94.8333 189.5,96.1667 189.5,97.5C 178.833,97.5 168.167,97.5 157.5,97.5C 157.5,96.1667 157.5,94.8333 157.5,93.5 Z"/></g>
<g><path style="opacity:1" fill="#8c8d8c" d="M 245.5,93.5 C 261.5,93.5 277.5,93.5 293.5,93.5C 293.5,94.8333 293.5,96.1667 293.5,97.5C 277.5,97.5 261.5,97.5 245.5,97.5C 245.5,96.1667 245.5,94.8333 245.5,93.5 Z"/></g>
<g><path style="opacity:1" fill="#8c8d8c" d="M 327.5,93.5 C 343.5,93.5 359.5,93.5 375.5,93.5C 375.5,94.8333 375.5,96.1667 375.5,97.5C 359.5,97.5 343.5,97.5 327.5,97.5C 327.5,96.1667 327.5,94.8333 327.5,93.5 Z"/></g>
<g><path style="opacity:1" fill="#8c8d8c" d="M 409.5,93.5 C 425.5,93.5 441.5,93.5 457.5,93.5C 457.5,94.8333 457.5,96.1667 457.5,97.5C 441.5,97.5 425.5,97.5 409.5,97.5C 409.5,96.1667 409.5,94.8333 409.5,93.5 Z"/></g>
<g><path style="opacity:1" fill="#a7a8a7" d="M 245.5,105.5 C 265.5,105.5 285.5,105.5 305.5,105.5C 305.5,106.5 305.5,107.5 305.5,108.5C 285.5,108.5 265.5,108.5 245.5,108.5C 245.5,107.5 245.5,106.5 245.5,105.5 Z"/></g>
<g><path style="opacity:1" fill="#a7a8a7" d="M 327.5,105.5 C 347.5,105.5 367.5,105.5 387.5,105.5C 387.5,106.5 387.5,107.5 387.5,108.5C 367.5,108.5 347.5,108.5 327.5,108.5C 327.5,107.5 327.5,106.5 327.5,105.5 Z"/></g>
<g><path style="opacity:1" fill="#a7a8a7" d="M 409.5,105.5 C 429.5,105.5 449.5,105.5 469.5,105.5C 469.5,106.5 469.5,107.5 469.5,108.5C 449.5,108.5 429.5,108.5 409.5,108.5C 409.5,107.5 409.5,106.5 409.5,105.5 Z"/></g>
<g><path style="opacity:1" fill="#a7a8a7" d="M 245.5,112.5 C 265.5,112.5 285.5,112.5 305.5,112.5C 305.5,113.5 305.5,114.5 305.5,115.5C 285.5,115.5 265.5,115.5 245.5,115.5C 245.5,114.5 245.5,113.5 245.5,112.5 Z"/></g>
<g><path style="opacity:1" fill="#a7a8a7" d="M 327.5,112.5 C 347.5,112.5 367.5,112.5 387.5,112.5C 387.5,113.5 387.5,114.5 387.5,115.5C 367.5,115.5 347.5,115.5 327.5,115.5C 327.5,114.5 327.5,113.5 327.5,112.5 Z"/></g>
<g><path style="opacity:1" fill="#a7a8a7" d="M 409.5,112.5 C 429.5,112.5 449.5,112.5 469.5,112.5C 469.5,113.5 469.5,114.5 469.5,115.5C 449.5,115.5 429.5,115.5 409.5,115.5C 409.5,114.5 409.5,113.5 409.5,112.5 Z"/></g>
<g><path style="opacity:1" fill="#a7a8a7" d="M 245.5,119.5 C 265.5,119.5 285.5,119.5 305.5,119.5C 305.5,120.5 305.5,121.5 305.5,122.5C 285.5,122.5 265.5,122.5 245.5,122.5C 245.5,121.5 245.5,120.5 245.5,119.5 Z"/></g>
<g><path style="opacity:1" fill="#a7a8a7" d="M 327.5,119.5 C 347.5,119.5 367.5,119.5 387.5,119.5C 387.5,120.5 387.5,121.5 387.5,122.5C 367.5,122.5 347.5,122.5 327.5,122.5C 327.5,121.5 327.5,120.5 327.5,119.5 Z"/></g>
<g><path style="opacity:1" fill="#a7a8a7" d="M 409.5,119.5 C 429.5,119.5 449.5,119.5 469.5,119.5C 469.5,120.5 469.5,121.5 469.5,122.5C 449.5,122.5 429.5,122.5 409.5,122.5C 409.5,121.5 409.5,120.5 409.5,119.5 Z"/></g>
<g><path style="opacity:1" fill="#a7a8a7" d="M 245.5,126.5 C 256.167,126.5 266.833,126.5 277.5,126.5C 277.5,127.5 277.5,128.5 277.5,129.5C 266.833,129.5 256.167,129.5 245.5,129.5C 245.5,128.5 245.5,127.5 245.5,126.5 Z"/></g>
<g><path style="opacity:1" fill="#a7a8a7" d="M 327.5,126.5 C 338.167,126.5 348.833,126.5 359.5,126.5C 359.5,127.5 359.5,128.5 359.5,129.5C 348.833,129.5 338.167,129.5 327.5,129.5C 327.5,128.5 327.5,127.5 327.5,126.5 Z"/></g>
<g><path style="opacity:1" fill="#a7a8a7" d="M 409.5,126.5 C 420.167,126.5 430.833,126.5 441.5,126.5C 441.5,127.5 441.5,128.5 441.5,129.5C 430.833,129.5 420.167,129.5 409.5,129.5C 409.5,128.5 409.5,127.5 409.5,126.5 Z"/></g>
<g><path style="opacity:1" fill="#4f81fc" d="M 302.5,148.5 C 304.664,147.882 306.33,148.882 307.5,151.5C 306.808,154.373 305.141,155.873 302.5,156C 303.5,155 304.5,154 305.5,153C 292.167,152.333 292.167,151.667 305.5,151C 304.627,149.955 303.627,149.122 302.5,148.5 Z"/></g>
<g><path style="opacity:1" fill="#4f81fc" d="M 384.5,148.5 C 386.664,147.882 388.33,148.882 389.5,151.5C 388.808,154.373 387.141,155.873 384.5,156C 385.5,155 386.5,154 387.5,153C 374.167,152.333 374.167,151.667 387.5,151C 386.627,149.955 385.627,149.122 384.5,148.5 Z"/></g>
<g><path style="opacity:1" fill="#4f81fc" d="M 466.5,148.5 C 468.664,147.882 470.33,148.882 471.5,151.5C 470.808,154.373 469.141,155.873 466.5,156C 467.5,155 468.5,154 469.5,153C 456.167,152.333 456.167,151.667 469.5,151C 468.627,149.955 467.627,149.122 466.5,148.5 Z"/></g>
<g><path style="opacity:1" fill="#f3f3f4" d="M 236.5,166.5 C 263.167,166.5 289.833,166.5 316.5,166.5C 316.5,193.167 316.5,219.833 316.5,246.5C 289.833,246.5 263.167,246.5 236.5,246.5C 236.5,219.833 236.5,193.167 236.5,166.5 Z"/></g>
<g><path style="opacity:1" fill="#f3f3f4" d="M 318.5,166.5 C 345.167,166.5 371.833,166.5 398.5,166.5C 398.5,193.167 398.5,219.833 398.5,246.5C 371.833,246.5 345.167,246.5 318.5,246.5C 318.5,219.833 318.5,193.167 318.5,166.5 Z"/></g>
<g><path style="opacity:1" fill="#8c8d8c" d="M 245.5,175.5 C 261.5,175.5 277.5,175.5 293.5,175.5C 293.5,176.833 293.5,178.167 293.5,179.5C 277.5,179.5 261.5,179.5 245.5,179.5C 245.5,178.167 245.5,176.833 245.5,175.5 Z"/></g>
<g><path style="opacity:1" fill="#8c8d8c" d="M 327.5,175.5 C 343.5,175.5 359.5,175.5 375.5,175.5C 375.5,176.833 375.5,178.167 375.5,179.5C 359.5,179.5 343.5,179.5 327.5,179.5C 327.5,178.167 327.5,176.833 327.5,175.5 Z"/></g>
<g><path style="opacity:1" fill="#a7a8a7" d="M 245.5,187.5 C 265.5,187.5 285.5,187.5 305.5,187.5C 305.5,188.5 305.5,189.5 305.5,190.5C 285.5,190.5 265.5,190.5 245.5,190.5C 245.5,189.5 245.5,188.5 245.5,187.5 Z"/></g>
<g><path style="opacity:1" fill="#a7a8a7" d="M 327.5,187.5 C 347.5,187.5 367.5,187.5 387.5,187.5C 387.5,188.5 387.5,189.5 387.5,190.5C 367.5,190.5 347.5,190.5 327.5,190.5C 327.5,189.5 327.5,188.5 327.5,187.5 Z"/></g>
<g><path style="opacity:1" fill="#a7a8a7" d="M 245.5,194.5 C 265.5,194.5 285.5,194.5 305.5,194.5C 305.5,195.5 305.5,196.5 305.5,197.5C 285.5,197.5 265.5,197.5 245.5,197.5C 245.5,196.5 245.5,195.5 245.5,194.5 Z"/></g>
<g><path style="opacity:1" fill="#a7a8a7" d="M 327.5,194.5 C 347.5,194.5 367.5,194.5 387.5,194.5C 387.5,195.5 387.5,196.5 387.5,197.5C 367.5,197.5 347.5,197.5 327.5,197.5C 327.5,196.5 327.5,195.5 327.5,194.5 Z"/></g>
<g><path style="opacity:1" fill="#a7a8a7" d="M 245.5,201.5 C 265.5,201.5 285.5,201.5 305.5,201.5C 305.5,202.5 305.5,203.5 305.5,204.5C 285.5,204.5 265.5,204.5 245.5,204.5C 245.5,203.5 245.5,202.5 245.5,201.5 Z"/></g>
<g><path style="opacity:1" fill="#a7a8a7" d="M 327.5,201.5 C 347.5,201.5 367.5,201.5 387.5,201.5C 387.5,202.5 387.5,203.5 387.5,204.5C 367.5,204.5 347.5,204.5 327.5,204.5C 327.5,203.5 327.5,202.5 327.5,201.5 Z"/></g>
<g><path style="opacity:1" fill="#a7a8a7" d="M 245.5,208.5 C 256.167,208.5 266.833,208.5 277.5,208.5C 277.5,209.5 277.5,210.5 277.5,211.5C 266.833,211.5 256.167,211.5 245.5,211.5C 245.5,210.5 245.5,209.5 245.5,208.5 Z"/></g>
<g><path style="opacity:1" fill="#a7a8a7" d="M 327.5,208.5 C 338.167,208.5 348.833,208.5 359.5,208.5C 359.5,209.5 359.5,210.5 359.5,211.5C 348.833,211.5 338.167,211.5 327.5,211.5C 327.5,210.5 327.5,209.5 327.5,208.5 Z"/></g>
<g><path style="opacity:1" fill="#719cfa" d="M 302.5,229.5 C 304.479,230.812 306.145,232.479 307.5,234.5C 306.185,236.316 304.685,237.983 303,239.5C 302.493,238.004 302.993,236.837 304.5,236C 292.5,235 292.5,234 304.5,233C 303.177,232.184 302.511,231.017 302.5,229.5 Z"/></g>
<g><path style="opacity:1" fill="#719cfa" d="M 384.5,229.5 C 386.479,230.812 388.145,232.479 389.5,234.5C 388.185,236.316 386.685,237.983 385,239.5C 384.493,238.004 384.993,236.837 386.5,236C 374.5,235 374.5,234 386.5,233C 385.177,232.184 384.511,231.017 384.5,229.5 Z"/></g>
</svg>
