<svg width="320" height="320" viewBox="0 0 320 320" fill="none" xmlns="http://www.w3.org/2000/svg">
<rect x="72" y="104" width="176" height="112" fill="#E0E0E0"/>
<path fill-rule="evenodd" clip-rule="evenodd" d="M161.875 155.75C160.839 155.75 160 154.911 160 153.875C160 152.839 160.839 152 161.875 152C162.911 152 163.75 152.839 163.75 153.875C163.75 154.372 163.552 154.849 163.201 155.201C162.849 155.552 162.372 155.75 161.875 155.75V155.75ZM161.875 153.25C161.53 153.25 161.25 153.53 161.25 153.875C161.25 154.22 161.53 154.5 161.875 154.5C162.22 154.5 162.5 154.22 162.5 153.875C162.5 153.53 162.22 153.25 161.875 153.25ZM166.344 149.5H153.656C153.018 149.5 152.5 150.018 152.5 150.656V163.344C152.5 163.65 152.622 163.945 152.839 164.161C153.055 164.378 153.35 164.5 153.656 164.5H166.344C166.65 164.5 166.945 164.378 167.161 164.161C167.378 163.945 167.5 163.65 167.5 163.344V150.656C167.5 150.018 166.982 149.5 166.344 149.5ZM166.25 150.75V160.331L163.913 157.994C163.678 157.759 163.36 157.627 163.028 157.627C162.696 157.627 162.378 157.759 162.144 157.994L161.25 158.906L157.812 155.494C157.578 155.259 157.26 155.127 156.928 155.127C156.596 155.127 156.278 155.259 156.044 155.494L153.75 157.788V150.75H166.25ZM153.75 163.25V159.55L156.925 156.375V156.375L160.344 159.794C160.578 160.028 160.896 160.16 161.228 160.16C161.56 160.16 161.878 160.028 162.113 159.794L163.025 158.875V158.875L166.25 162.1V163.25H153.75Z" fill="#525252"/>
<mask id="mask0_1304_3803" style="mask-type:luminance" maskUnits="userSpaceOnUse" x="152" y="149" width="16" height="16">
<path fill-rule="evenodd" clip-rule="evenodd" d="M161.875 155.75C160.839 155.75 160 154.911 160 153.875C160 152.839 160.839 152 161.875 152C162.911 152 163.75 152.839 163.75 153.875C163.75 154.372 163.552 154.849 163.201 155.201C162.849 155.552 162.372 155.75 161.875 155.75V155.75ZM161.875 153.25C161.53 153.25 161.25 153.53 161.25 153.875C161.25 154.22 161.53 154.5 161.875 154.5C162.22 154.5 162.5 154.22 162.5 153.875C162.5 153.53 162.22 153.25 161.875 153.25ZM166.344 149.5H153.656C153.018 149.5 152.5 150.018 152.5 150.656V163.344C152.5 163.65 152.622 163.945 152.839 164.161C153.055 164.378 153.35 164.5 153.656 164.5H166.344C166.65 164.5 166.945 164.378 167.161 164.161C167.378 163.945 167.5 163.65 167.5 163.344V150.656C167.5 150.018 166.982 149.5 166.344 149.5ZM166.25 150.75V160.331L163.913 157.994C163.678 157.759 163.36 157.627 163.028 157.627C162.696 157.627 162.378 157.759 162.144 157.994L161.25 158.906L157.812 155.494C157.578 155.259 157.26 155.127 156.928 155.127C156.596 155.127 156.278 155.259 156.044 155.494L153.75 157.788V150.75H166.25ZM153.75 163.25V159.55L156.925 156.375V156.375L160.344 159.794C160.578 160.028 160.896 160.16 161.228 160.16C161.56 160.16 161.878 160.028 162.113 159.794L163.025 158.875V158.875L166.25 162.1V163.25H153.75Z" fill="white"/>
</mask>
<g mask="url(#mask0_1304_3803)">
</g>
<rect x="209" y="215" width="137" height="111" transform="rotate(-180 209 215)" fill="url(#paint0_linear_1304_3803)"/>
<rect x="204" y="128" width="44" height="44" fill="#F4F4F4" stroke="#A8A8A8" stroke-width="0.81"/>
<rect x="204" y="172" width="44" height="44" fill="#F4F4F4" stroke="#A8A8A8" stroke-width="0.81"/>
<rect x="160" y="172" width="44" height="44" fill="#F4F4F4" stroke="#A8A8A8" stroke-width="0.81"/>
<rect x="72" y="104" width="176" height="112" stroke="#A8A8A8"/>
<path fill-rule="evenodd" clip-rule="evenodd" d="M195.75 206.672L195.398 207.024L197.293 208.922H192V209.422H197.293L195.398 211.319L195.75 211.672L198.25 209.172L195.75 206.672V206.672Z" fill="#0F62FE"/>
<path fill-rule="evenodd" clip-rule="evenodd" d="M240.75 206.672L240.398 207.024L242.293 208.922H237V209.422H242.293L240.398 211.319L240.75 211.672L243.25 209.172L240.75 206.672V206.672Z" fill="#0F62FE"/>
<path fill-rule="evenodd" clip-rule="evenodd" d="M240.75 162.672L240.398 163.024L242.293 164.922H237V165.422H242.293L240.398 167.319L240.75 167.672L243.25 165.172L240.75 162.672V162.672Z" fill="#0F62FE"/>
<rect x="80" y="113" width="80" height="3" fill="#8D8D8D"/>
<rect x="80" y="120" width="64" height="3" fill="#8D8D8D"/>
<rect x="209" y="133" width="24" height="2" fill="#8D8D8D"/>
<rect x="209" y="177" width="24" height="2" fill="#8D8D8D"/>
<rect x="165" y="177" width="24" height="2" fill="#8D8D8D"/>
<rect x="209" y="139" width="30" height="1.5" fill="#A8A8A8"/>
<rect x="209" y="183" width="30" height="1.5" fill="#A8A8A8"/>
<rect x="165" y="183" width="30" height="1.5" fill="#A8A8A8"/>
<rect x="209" y="146" width="30" height="1.5" fill="#A8A8A8"/>
<rect x="209" y="190" width="30" height="1.5" fill="#A8A8A8"/>
<rect x="165" y="190" width="30" height="1.5" fill="#A8A8A8"/>
<rect x="209" y="142.5" width="30" height="1.5" fill="#A8A8A8"/>
<rect x="209" y="186.5" width="30" height="1.5" fill="#A8A8A8"/>
<rect x="165" y="186.5" width="30" height="1.5" fill="#A8A8A8"/>
<rect x="209" y="149.5" width="16" height="1.5" fill="#A8A8A8"/>
<rect x="209" y="193.5" width="16" height="1.5" fill="#A8A8A8"/>
<rect x="165" y="193.5" width="16" height="1.5" fill="#A8A8A8"/>
<defs>
<linearGradient id="paint0_linear_1304_3803" x1="325.761" y1="326" x2="209" y2="326" gradientUnits="userSpaceOnUse">
<stop stop-color="white"/>
<stop offset="1" stop-color="white" stop-opacity="0"/>
</linearGradient>
</defs>
</svg>
