<?xml version="1.0" encoding="UTF-8"?>
<!DOCTYPE svg PUBLIC "-//W3C//DTD SVG 1.1//EN" "http://www.w3.org/Graphics/SVG/1.1/DTD/svg11.dtd">
<svg xmlns="http://www.w3.org/2000/svg" version="1.1" width="640px" height="360px" style="shape-rendering:geometricPrecision; text-rendering:geometricPrecision; image-rendering:optimizeQuality; fill-rule:evenodd; clip-rule:evenodd" xmlns:xlink="http://www.w3.org/1999/xlink">
<g><path style="opacity:1" fill="#a8a8a8" d="M 110.5,100.5 C 249.833,100.5 389.167,100.5 528.5,100.5C 528.5,153.167 528.5,205.833 528.5,258.5C 389.167,258.5 249.833,258.5 110.5,258.5C 110.5,205.833 110.5,153.167 110.5,100.5 Z"/></g>
<g><path style="opacity:1" fill="#fefefe" d="M 526.5,118.5 C 524.5,118.5 522.5,118.5 520.5,118.5C 520.5,150.5 520.5,182.5 520.5,214.5C 522.5,214.5 524.5,214.5 526.5,214.5C 526.5,228.5 526.5,242.5 526.5,256.5C 388.5,256.5 250.5,256.5 112.5,256.5C 112.5,205.167 112.5,153.833 112.5,102.5C 250.5,102.5 388.5,102.5 526.5,102.5C 526.5,107.833 526.5,113.167 526.5,118.5 Z"/></g>
<g><path style="opacity:1" fill="#8c8d8c" d="M 127.5,119.5 C 148.833,119.5 170.167,119.5 191.5,119.5C 191.5,120.833 191.5,122.167 191.5,123.5C 170.167,123.5 148.833,123.5 127.5,123.5C 127.5,122.167 127.5,120.833 127.5,119.5 Z"/></g>
<g><path style="opacity:1" fill="#bbbbbb" d="M 526.5,118.5 C 526.5,119.167 526.5,119.833 526.5,120.5C 525.167,120.5 523.833,120.5 522.5,120.5C 522.5,151.167 522.5,181.833 522.5,212.5C 523.833,212.5 525.167,212.5 526.5,212.5C 526.5,213.167 526.5,213.833 526.5,214.5C 524.5,214.5 522.5,214.5 520.5,214.5C 520.5,182.5 520.5,150.5 520.5,118.5C 522.5,118.5 524.5,118.5 526.5,118.5 Z"/></g>
<g><path style="opacity:1" fill="#f3f4f3" d="M 526.5,120.5 C 526.5,151.167 526.5,181.833 526.5,212.5C 525.167,212.5 523.833,212.5 522.5,212.5C 522.5,181.833 522.5,151.167 522.5,120.5C 523.833,120.5 525.167,120.5 526.5,120.5 Z"/></g>
<g><path style="opacity:1" fill="#8c8d8c" d="M 127.5,129.5 C 143.5,129.5 159.5,129.5 175.5,129.5C 175.5,130.833 175.5,132.167 175.5,133.5C 159.5,133.5 143.5,133.5 127.5,133.5C 127.5,132.167 127.5,130.833 127.5,129.5 Z"/></g>
<g><path style="opacity:1" fill="#78a9ff" d="M 127.5,149.5 C 143.5,149.5 159.5,149.5 175.5,149.5C 175.5,150.833 175.5,152.167 175.5,153.5C 159.5,153.5 143.5,153.5 127.5,153.5C 127.5,152.167 127.5,150.833 127.5,149.5 Z"/></g>
<g><path style="opacity:1" fill="#bcbcbc" d="M 220.5,118.5 C 252.5,118.5 284.5,118.5 316.5,118.5C 316.5,150.5 316.5,182.5 316.5,214.5C 284.5,214.5 252.5,214.5 220.5,214.5C 220.5,182.5 220.5,150.5 220.5,118.5 Z"/></g>
<g><path style="opacity:1" fill="#f3f3f4" d="M 222.5,120.5 C 253.167,120.5 283.833,120.5 314.5,120.5C 314.5,151.167 314.5,181.833 314.5,212.5C 283.833,212.5 253.167,212.5 222.5,212.5C 222.5,181.833 222.5,151.167 222.5,120.5 Z"/></g>
<g><path style="opacity:1" fill="#719cfa" d="M 300.5,193.5 C 302.479,194.812 304.145,196.479 305.5,198.5C 304.185,200.316 302.685,201.983 301,203.5C 300.493,202.004 300.993,200.837 302.5,200C 290.5,199 290.5,198 302.5,197C 301.177,196.184 300.511,195.017 300.5,193.5 Z"/></g>
<g><path style="opacity:1" fill="#a7a8a7" d="M 231.5,164.5 C 242.167,164.5 252.833,164.5 263.5,164.5C 263.5,165.5 263.5,166.5 263.5,167.5C 252.833,167.5 242.167,167.5 231.5,167.5C 231.5,166.5 231.5,165.5 231.5,164.5 Z"/></g>
<g><path style="opacity:1" fill="#a7a8a7" d="M 231.5,157.5 C 252.833,157.5 274.167,157.5 295.5,157.5C 295.5,158.5 295.5,159.5 295.5,160.5C 274.167,160.5 252.833,160.5 231.5,160.5C 231.5,159.5 231.5,158.5 231.5,157.5 Z"/></g>
<g><path style="opacity:1" fill="#a7a8a7" d="M 231.5,150.5 C 252.833,150.5 274.167,150.5 295.5,150.5C 295.5,151.5 295.5,152.5 295.5,153.5C 274.167,153.5 252.833,153.5 231.5,153.5C 231.5,152.5 231.5,151.5 231.5,150.5 Z"/></g>
<g><path style="opacity:1" fill="#a7a8a7" d="M 231.5,143.5 C 252.833,143.5 274.167,143.5 295.5,143.5C 295.5,144.5 295.5,145.5 295.5,146.5C 274.167,146.5 252.833,146.5 231.5,146.5C 231.5,145.5 231.5,144.5 231.5,143.5 Z"/></g>
<g><path style="opacity:1" fill="#8c8d8c" d="M 231.5,131.5 C 247.5,131.5 263.5,131.5 279.5,131.5C 279.5,132.833 279.5,134.167 279.5,135.5C 263.5,135.5 247.5,135.5 231.5,135.5C 231.5,134.167 231.5,132.833 231.5,131.5 Z"/></g>
<g><path style="opacity:1" fill="#bcbcbc" d="M 320.5,118.5 C 352.5,118.5 384.5,118.5 416.5,118.5C 416.5,150.5 416.5,182.5 416.5,214.5C 384.5,214.5 352.5,214.5 320.5,214.5C 320.5,182.5 320.5,150.5 320.5,118.5 Z"/></g>
<g><path style="opacity:1" fill="#f3f3f4" d="M 322.5,120.5 C 353.167,120.5 383.833,120.5 414.5,120.5C 414.5,151.167 414.5,181.833 414.5,212.5C 383.833,212.5 353.167,212.5 322.5,212.5C 322.5,181.833 322.5,151.167 322.5,120.5 Z"/></g>
<g><path style="opacity:1" fill="#719cfa" d="M 400.5,193.5 C 402.479,194.812 404.145,196.479 405.5,198.5C 404.185,200.316 402.685,201.983 401,203.5C 400.493,202.004 400.993,200.837 402.5,200C 390.5,199 390.5,198 402.5,197C 401.177,196.184 400.511,195.017 400.5,193.5 Z"/></g>
<g><path style="opacity:1" fill="#a7a8a7" d="M 331.5,164.5 C 342.167,164.5 352.833,164.5 363.5,164.5C 363.5,165.5 363.5,166.5 363.5,167.5C 352.833,167.5 342.167,167.5 331.5,167.5C 331.5,166.5 331.5,165.5 331.5,164.5 Z"/></g>
<g><path style="opacity:1" fill="#a7a8a7" d="M 331.5,157.5 C 352.833,157.5 374.167,157.5 395.5,157.5C 395.5,158.5 395.5,159.5 395.5,160.5C 374.167,160.5 352.833,160.5 331.5,160.5C 331.5,159.5 331.5,158.5 331.5,157.5 Z"/></g>
<g><path style="opacity:1" fill="#a7a8a7" d="M 331.5,150.5 C 352.833,150.5 374.167,150.5 395.5,150.5C 395.5,151.5 395.5,152.5 395.5,153.5C 374.167,153.5 352.833,153.5 331.5,153.5C 331.5,152.5 331.5,151.5 331.5,150.5 Z"/></g>
<g><path style="opacity:1" fill="#a7a8a7" d="M 331.5,143.5 C 352.833,143.5 374.167,143.5 395.5,143.5C 395.5,144.5 395.5,145.5 395.5,146.5C 374.167,146.5 352.833,146.5 331.5,146.5C 331.5,145.5 331.5,144.5 331.5,143.5 Z"/></g>
<g><path style="opacity:1" fill="#8c8d8c" d="M 331.5,131.5 C 347.5,131.5 363.5,131.5 379.5,131.5C 379.5,132.833 379.5,134.167 379.5,135.5C 363.5,135.5 347.5,135.5 331.5,135.5C 331.5,134.167 331.5,132.833 331.5,131.5 Z"/></g>
<g><path style="opacity:1" fill="#bcbcbc" d="M 420.5,118.5 C 452.5,118.5 484.5,118.5 516.5,118.5C 516.5,150.5 516.5,182.5 516.5,214.5C 484.5,214.5 452.5,214.5 420.5,214.5C 420.5,182.5 420.5,150.5 420.5,118.5 Z"/></g>
<g><path style="opacity:1" fill="#f3f3f4" d="M 422.5,120.5 C 453.167,120.5 483.833,120.5 514.5,120.5C 514.5,151.167 514.5,181.833 514.5,212.5C 483.833,212.5 453.167,212.5 422.5,212.5C 422.5,181.833 422.5,151.167 422.5,120.5 Z"/></g>
<g><path style="opacity:1" fill="#719cfa" d="M 500.5,193.5 C 502.479,194.812 504.145,196.479 505.5,198.5C 504.185,200.316 502.685,201.983 501,203.5C 500.493,202.004 500.993,200.837 502.5,200C 490.5,199 490.5,198 502.5,197C 501.177,196.184 500.511,195.017 500.5,193.5 Z"/></g>
<g><path style="opacity:1" fill="#a7a8a7" d="M 431.5,164.5 C 442.167,164.5 452.833,164.5 463.5,164.5C 463.5,165.5 463.5,166.5 463.5,167.5C 452.833,167.5 442.167,167.5 431.5,167.5C 431.5,166.5 431.5,165.5 431.5,164.5 Z"/></g>
<g><path style="opacity:1" fill="#a7a8a7" d="M 431.5,157.5 C 452.833,157.5 474.167,157.5 495.5,157.5C 495.5,158.5 495.5,159.5 495.5,160.5C 474.167,160.5 452.833,160.5 431.5,160.5C 431.5,159.5 431.5,158.5 431.5,157.5 Z"/></g>
<g><path style="opacity:1" fill="#a7a8a7" d="M 431.5,150.5 C 452.833,150.5 474.167,150.5 495.5,150.5C 495.5,151.5 495.5,152.5 495.5,153.5C 474.167,153.5 452.833,153.5 431.5,153.5C 431.5,152.5 431.5,151.5 431.5,150.5 Z"/></g>
<g><path style="opacity:1" fill="#a7a8a7" d="M 431.5,143.5 C 452.833,143.5 474.167,143.5 495.5,143.5C 495.5,144.5 495.5,145.5 495.5,146.5C 474.167,146.5 452.833,146.5 431.5,146.5C 431.5,145.5 431.5,144.5 431.5,143.5 Z"/></g>
<g><path style="opacity:1" fill="#8c8d8c" d="M 431.5,131.5 C 447.5,131.5 463.5,131.5 479.5,131.5C 479.5,132.833 479.5,134.167 479.5,135.5C 463.5,135.5 447.5,135.5 431.5,135.5C 431.5,134.167 431.5,132.833 431.5,131.5 Z"/></g>
<g><path style="opacity:1" fill="#cfcfcf" d="M 476.5,224.5 C 481.5,224.5 486.5,224.5 491.5,224.5C 491.5,229.833 491.5,235.167 491.5,240.5C 486.5,240.5 481.5,240.5 476.5,240.5C 476.5,235.167 476.5,229.833 476.5,224.5 Z"/></g>
<g><path style="opacity:1" fill="#1e67fe" d="M 500.5,224.5 C 505.5,224.5 510.5,224.5 515.5,224.5C 515.5,229.5 515.5,234.5 515.5,239.5C 510.5,239.5 505.5,239.5 500.5,239.5C 500.5,234.5 500.5,229.5 500.5,224.5 Z"/></g>
<g><path style="opacity:1" fill="#fefffe" d="M 478.5,226.5 C 482.167,226.5 485.833,226.5 489.5,226.5C 489.5,230.167 489.5,233.833 489.5,237.5C 485.833,237.5 482.167,237.5 478.5,237.5C 478.5,233.833 478.5,230.167 478.5,226.5 Z"/></g>
<g><path style="opacity:1" fill="#fefffe" d="M 502.5,226.5 C 506.167,226.5 509.833,226.5 513.5,226.5C 513.5,230.167 513.5,233.833 513.5,237.5C 513.5,233.833 513.5,230.167 513.5,226.5C 509.833,226.5 506.167,226.5 502.5,226.5 Z"/></g>
<g><path style="opacity:1" fill="#85aefe" d="M 502.5,226.5 C 502.5,230.167 502.5,233.833 502.5,237.5C 506.167,237.5 509.833,237.5 513.5,237.5C 509.702,238.483 505.702,238.817 501.5,238.5C 501.183,234.298 501.517,230.298 502.5,226.5 Z"/></g>
</svg>
