<?xml version="1.0" encoding="UTF-8"?>
<!DOCTYPE svg PUBLIC "-//W3C//DTD SVG 1.1//EN" "http://www.w3.org/Graphics/SVG/1.1/DTD/svg11.dtd">
<svg xmlns="http://www.w3.org/2000/svg" version="1.1" width="640px" height="360px" style="shape-rendering:geometricPrecision; text-rendering:geometricPrecision; image-rendering:optimizeQuality; fill-rule:evenodd; clip-rule:evenodd" xmlns:xlink="http://www.w3.org/1999/xlink">
<g><path style="opacity:1" fill="#a7a8a7" d="M 142.5,80.5 C 260.5,80.5 378.5,80.5 496.5,80.5C 496.5,146.5 496.5,212.5 496.5,278.5C 378.5,278.5 260.5,278.5 142.5,278.5C 142.5,212.5 142.5,146.5 142.5,80.5 Z"/></g>
<g><path style="opacity:1" fill="#f2f2f2" d="M 144.5,82.5 C 261.167,82.5 377.833,82.5 494.5,82.5C 494.5,147.167 494.5,211.833 494.5,276.5C 377.833,276.5 261.167,276.5 144.5,276.5C 144.5,211.833 144.5,147.167 144.5,82.5 Z"/></g>
<g><path style="opacity:1" fill="#8c8d8c" d="M 169.5,107.5 C 233.5,107.5 297.5,107.5 361.5,107.5C 361.5,111.5 361.5,115.5 361.5,119.5C 297.5,119.5 233.5,119.5 169.5,119.5C 169.5,115.5 169.5,111.5 169.5,107.5 Z"/></g>
<g><path style="opacity:1" fill="#ededed" d="M 196.5,241.5 C 197.5,241.167 198.167,240.5 198.5,239.5C 199.496,225.01 199.829,210.343 199.5,195.5C 199.726,192.236 201.226,191.236 204,192.5C 205.245,198.39 205.912,204.39 206,210.5C 212.69,216.024 219.523,221.358 226.5,226.5C 227.833,228.833 227.833,231.167 226.5,233.5C 219.833,229.833 213.167,226.167 206.5,222.5C 205.337,228.137 205.17,233.804 206,239.5C 216.968,249.939 215.634,251.939 202,245.5C 198.569,246.811 195.069,247.811 191.5,248.5C 191.351,247.448 191.517,246.448 192,245.5C 193.992,244.672 195.492,243.339 196.5,241.5 Z"/></g>
<g><path style="opacity:1" fill="#282828" d="M 195.5,241.5 C 195.833,241.5 196.167,241.5 196.5,241.5C 195.492,243.339 193.992,244.672 192,245.5C 191.517,246.448 191.351,247.448 191.5,248.5C 195.069,247.811 198.569,246.811 202,245.5C 215.634,251.939 216.968,249.939 206,239.5C 205.17,233.804 205.337,228.137 206.5,222.5C 213.167,226.167 219.833,229.833 226.5,233.5C 227.833,231.167 227.833,228.833 226.5,226.5C 219.523,221.358 212.69,216.024 206,210.5C 205.912,204.39 205.245,198.39 204,192.5C 201.226,191.236 199.726,192.236 199.5,195.5C 198.662,195.158 198.328,194.492 198.5,193.5C 200.269,188.642 202.769,188.308 206,192.5C 207.139,198.436 207.805,204.436 208,210.5C 211.031,213.108 212.365,212.108 212,207.5C 212.333,209.833 212.667,212.167 213,214.5C 214.512,215.257 215.846,216.257 217,217.5C 217.192,215.423 217.692,213.423 218.5,211.5C 219.318,214.107 219.818,216.774 220,219.5C 223,221.833 226,224.167 229,226.5C 229.498,229.482 229.665,232.482 229.5,235.5C 222.038,232.519 214.872,228.852 208,224.5C 205.392,233.605 207.725,240.938 215,246.5C 215.49,247.793 215.657,249.127 215.5,250.5C 211.132,249.712 206.799,248.712 202.5,247.5C 198.195,248.66 193.861,249.66 189.5,250.5C 189.084,245.912 191.084,242.912 195.5,241.5 Z"/></g>
<g><path style="opacity:1" fill="#777777" d="M 198.5,193.5 C 198.328,194.492 198.662,195.158 199.5,195.5C 199.829,210.343 199.496,225.01 198.5,239.5C 198.829,224.99 198.496,210.657 197.5,196.5C 197.263,195.209 197.596,194.209 198.5,193.5 Z"/></g>
<g><path style="opacity:1" fill="#030303" d="M 197.5,196.5 C 198.496,210.657 198.829,224.99 198.5,239.5C 198.167,240.5 197.5,241.167 196.5,241.5C 196.167,241.5 195.833,241.5 195.5,241.5C 195.783,240.711 196.283,240.044 197,239.5C 197.5,225.171 197.667,210.837 197.5,196.5 Z"/></g>
<g><path style="opacity:1" fill="#0c0c0c" d="M 190.5,215.5 C 190.167,215.5 189.833,215.5 189.5,215.5C 191.07,213.149 191.903,210.482 192,207.5C 192.199,209.402 193.033,210.902 194.5,212C 193.295,213.376 191.962,214.542 190.5,215.5 Z"/></g>
<g><path style="opacity:1" fill="#0f61fe" d="M 456.5,231.5 C 456.897,230.475 457.563,230.308 458.5,231C 461.35,233.682 464.016,236.516 466.5,239.5C 463.794,243.396 460.461,246.23 456.5,248C 458.833,245.667 461.167,243.333 463.5,241C 435.5,240 435.5,239 463.5,238C 461.297,235.628 458.963,233.461 456.5,231.5 Z"/></g>
<g><path style="opacity:1" fill="#262626" d="M 189.5,215.5 C 189.833,215.5 190.167,215.5 190.5,215.5C 186.527,219.301 182.36,222.968 178,226.5C 177.333,228.833 177.333,231.167 178,233.5C 183.286,229.942 188.786,227.109 194.5,225C 188.889,229.098 182.889,232.598 176.5,235.5C 175.167,232.167 175.167,228.833 176.5,225.5C 179.188,222.978 182.021,220.644 185,218.5C 185.186,216.1 185.686,213.766 186.5,211.5C 187.057,213.332 188.057,214.665 189.5,215.5 Z"/></g>
</svg>
