<?xml version="1.0" encoding="UTF-8"?>
<!DOCTYPE svg PUBLIC "-//W3C//DTD SVG 1.1//EN" "http://www.w3.org/Graphics/SVG/1.1/DTD/svg11.dtd">
<svg xmlns="http://www.w3.org/2000/svg" version="1.1" width="640px" height="360px" style="shape-rendering:geometricPrecision; text-rendering:geometricPrecision; image-rendering:optimizeQuality; fill-rule:evenodd; clip-rule:evenodd" xmlns:xlink="http://www.w3.org/1999/xlink">
<g><path style="opacity:1" fill="#a7a8a7" d="M 118.5,78.5 C 252.5,78.5 386.5,78.5 520.5,78.5C 520.5,145.833 520.5,213.167 520.5,280.5C 386.5,280.5 252.5,280.5 118.5,280.5C 118.5,213.167 118.5,145.833 118.5,78.5 Z"/></g>
<g><path style="opacity:1" fill="#c5c5c5" d="M 518.5,205.5 C 474.833,205.5 431.167,205.5 387.5,205.5C 387.5,229.833 387.5,254.167 387.5,278.5C 298.5,278.5 209.5,278.5 120.5,278.5C 120.5,212.5 120.5,146.5 120.5,80.5C 253.167,80.5 385.833,80.5 518.5,80.5C 518.5,122.167 518.5,163.833 518.5,205.5 Z"/></g>
<g><path style="opacity:1" fill="#535353" d="M 298.5,157.5 C 312.745,157.176 326.912,157.51 341,158.5C 341.823,172.742 341.656,186.908 340.5,201C 326.258,201.823 312.092,201.656 298,200.5C 297.185,186.092 297.352,171.759 298.5,157.5 Z"/></g>
<g><path style="opacity:1" fill="#a7a7a7" d="M 336.5,187.5 C 337.493,179.016 337.826,170.349 337.5,161.5C 325.5,161.5 313.5,161.5 301.5,161.5C 301.5,167.833 301.5,174.167 301.5,180.5C 300.501,174.592 300.167,167.926 300.5,160.5C 313.167,160.5 325.833,160.5 338.5,160.5C 338.666,170.172 338.5,179.839 338,189.5C 337.283,188.956 336.783,188.289 336.5,187.5 Z"/></g>
<g><path style="opacity:1" fill="#c3c3c3" d="M 336.5,187.5 C 334.109,185.106 331.443,183.106 328.5,181.5C 326.792,181.703 325.459,182.536 324.5,184C 323.5,184.667 322.5,184.667 321.5,184C 317.954,180.118 314.121,176.618 310,173.5C 307.013,175.654 304.18,177.987 301.5,180.5C 301.5,174.167 301.5,167.833 301.5,161.5C 313.5,161.5 325.5,161.5 337.5,161.5C 337.826,170.349 337.493,179.016 336.5,187.5 Z"/></g>
<g><path style="opacity:1" fill="#585858" d="M 322.5,164.5 C 330.022,164.67 332.022,168.003 328.5,174.5C 322.197,176.363 319.364,174.03 320,167.5C 321.045,166.627 321.878,165.627 322.5,164.5 Z"/></g>
<g><path style="opacity:1" fill="#c2c2c2" d="M 323.5,168.5 C 324.5,168.5 325.5,168.5 326.5,168.5C 326.5,169.5 326.5,170.5 326.5,171.5C 325.5,171.5 324.5,171.5 323.5,171.5C 323.5,170.5 323.5,169.5 323.5,168.5 Z"/></g>
<g><path style="opacity:1" fill="#c3c3c3" d="M 337.5,194.5 C 337.5,195.5 337.5,196.5 337.5,197.5C 325.5,197.5 313.5,197.5 301.5,197.5C 301.5,193.833 301.5,190.167 301.5,186.5C 303.846,183.321 306.679,180.654 310,178.5C 313.787,181.284 317.287,184.451 320.5,188C 322.167,188.667 323.833,188.667 325.5,188C 326.466,186.322 327.799,185.655 329.5,186C 332.371,188.703 335.038,191.536 337.5,194.5 Z"/></g>
<g><path style="opacity:1" fill="#a7a7a7" d="M 301.5,186.5 C 301.5,190.167 301.5,193.833 301.5,197.5C 313.5,197.5 325.5,197.5 337.5,197.5C 337.5,196.5 337.5,195.5 337.5,194.5C 338.434,195.568 338.768,196.901 338.5,198.5C 325.833,198.5 313.167,198.5 300.5,198.5C 300.183,194.298 300.517,190.298 301.5,186.5 Z"/></g>
<g><path style="opacity:1" fill="#fefeff" d="M 518.5,205.5 C 518.5,229.833 518.5,254.167 518.5,278.5C 474.833,278.5 431.167,278.5 387.5,278.5C 387.5,254.167 387.5,229.833 387.5,205.5C 431.167,205.5 474.833,205.5 518.5,205.5 Z"/></g>
<g><path style="opacity:1" fill="#8c8d8c" d="M 397.5,217.5 C 418.833,217.5 440.167,217.5 461.5,217.5C 461.5,219.5 461.5,221.5 461.5,223.5C 440.167,223.5 418.833,223.5 397.5,223.5C 397.5,221.5 397.5,219.5 397.5,217.5 Z"/></g>
<g><path style="opacity:1" fill="#7da4fe" d="M 499.5,255.5 C 504.817,257.732 505.484,260.732 501.5,264.5C 500.494,264.062 500.494,263.396 501.5,262.5C 488.215,261.015 488.215,259.848 501.5,259C 500.177,258.184 499.511,257.017 499.5,255.5 Z"/></g>
</svg>
