<?xml version="1.0" encoding="UTF-8"?>
<!DOCTYPE svg PUBLIC "-//W3C//DTD SVG 1.1//EN" "http://www.w3.org/Graphics/SVG/1.1/DTD/svg11.dtd">
<svg xmlns="http://www.w3.org/2000/svg" version="1.1" width="640px" height="360px" style="shape-rendering:geometricPrecision; text-rendering:geometricPrecision; image-rendering:optimizeQuality; fill-rule:evenodd; clip-rule:evenodd" xmlns:xlink="http://www.w3.org/1999/xlink">
<g><path style="opacity:1" fill="#a7a8a7" d="M 114.5,70.5 C 251.167,70.5 387.833,70.5 524.5,70.5C 524.5,143.167 524.5,215.833 524.5,288.5C 387.833,288.5 251.167,288.5 114.5,288.5C 114.5,215.833 114.5,143.167 114.5,70.5 Z"/></g>
<g><path style="opacity:1" fill="#f3f3f4" d="M 116.5,72.5 C 161.167,72.5 205.833,72.5 250.5,72.5C 250.5,107.833 250.5,143.167 250.5,178.5C 205.833,178.5 161.167,178.5 116.5,178.5C 116.5,143.167 116.5,107.833 116.5,72.5 Z"/></g>
<g><path style="opacity:1" fill="#f3f3f4" d="M 252.5,72.5 C 297.167,72.5 341.833,72.5 386.5,72.5C 386.5,107.833 386.5,143.167 386.5,178.5C 341.833,178.5 297.167,178.5 252.5,178.5C 252.5,143.167 252.5,107.833 252.5,72.5 Z"/></g>
<g><path style="opacity:1" fill="#f3f3f4" d="M 388.5,72.5 C 433.167,72.5 477.833,72.5 522.5,72.5C 522.5,107.833 522.5,143.167 522.5,178.5C 477.833,178.5 433.167,178.5 388.5,178.5C 388.5,143.167 388.5,107.833 388.5,72.5 Z"/></g>
<g><path style="opacity:1" fill="#8c8d8c" d="M 125.5,83.5 C 152.167,83.5 178.833,83.5 205.5,83.5C 205.5,85.5 205.5,87.5 205.5,89.5C 178.833,89.5 152.167,89.5 125.5,89.5C 125.5,87.5 125.5,85.5 125.5,83.5 Z"/></g>
<g><path style="opacity:1" fill="#8c8d8c" d="M 261.5,83.5 C 288.167,83.5 314.833,83.5 341.5,83.5C 341.5,85.5 341.5,87.5 341.5,89.5C 314.833,89.5 288.167,89.5 261.5,89.5C 261.5,87.5 261.5,85.5 261.5,83.5 Z"/></g>
<g><path style="opacity:1" fill="#8c8d8c" d="M 397.5,83.5 C 424.167,83.5 450.833,83.5 477.5,83.5C 477.5,85.5 477.5,87.5 477.5,89.5C 450.833,89.5 424.167,89.5 397.5,89.5C 397.5,87.5 397.5,85.5 397.5,83.5 Z"/></g>
<g><path style="opacity:1" fill="#a7a8a7" d="M 125.5,105.5 C 163.5,105.5 201.5,105.5 239.5,105.5C 239.5,106.833 239.5,108.167 239.5,109.5C 201.5,109.5 163.5,109.5 125.5,109.5C 125.5,108.167 125.5,106.833 125.5,105.5 Z"/></g>
<g><path style="opacity:1" fill="#a7a8a7" d="M 261.5,105.5 C 299.5,105.5 337.5,105.5 375.5,105.5C 375.5,106.833 375.5,108.167 375.5,109.5C 337.5,109.5 299.5,109.5 261.5,109.5C 261.5,108.167 261.5,106.833 261.5,105.5 Z"/></g>
<g><path style="opacity:1" fill="#a7a8a7" d="M 397.5,105.5 C 435.5,105.5 473.5,105.5 511.5,105.5C 511.5,106.833 511.5,108.167 511.5,109.5C 473.5,109.5 435.5,109.5 397.5,109.5C 397.5,108.167 397.5,106.833 397.5,105.5 Z"/></g>
<g><path style="opacity:1" fill="#a7a8a7" d="M 125.5,115.5 C 163.5,115.5 201.5,115.5 239.5,115.5C 239.5,116.833 239.5,118.167 239.5,119.5C 201.5,119.5 163.5,119.5 125.5,119.5C 125.5,118.167 125.5,116.833 125.5,115.5 Z"/></g>
<g><path style="opacity:1" fill="#a7a8a7" d="M 261.5,115.5 C 299.5,115.5 337.5,115.5 375.5,115.5C 375.5,116.833 375.5,118.167 375.5,119.5C 337.5,119.5 299.5,119.5 261.5,119.5C 261.5,118.167 261.5,116.833 261.5,115.5 Z"/></g>
<g><path style="opacity:1" fill="#a7a8a7" d="M 397.5,115.5 C 435.5,115.5 473.5,115.5 511.5,115.5C 511.5,116.833 511.5,118.167 511.5,119.5C 473.5,119.5 435.5,119.5 397.5,119.5C 397.5,118.167 397.5,116.833 397.5,115.5 Z"/></g>
<g><path style="opacity:1" fill="#a7a8a7" d="M 125.5,125.5 C 152.167,125.5 178.833,125.5 205.5,125.5C 205.5,126.833 205.5,128.167 205.5,129.5C 178.833,129.5 152.167,129.5 125.5,129.5C 125.5,128.167 125.5,126.833 125.5,125.5 Z"/></g>
<g><path style="opacity:1" fill="#a7a8a7" d="M 261.5,125.5 C 288.167,125.5 314.833,125.5 341.5,125.5C 341.5,126.833 341.5,128.167 341.5,129.5C 314.833,129.5 288.167,129.5 261.5,129.5C 261.5,128.167 261.5,126.833 261.5,125.5 Z"/></g>
<g><path style="opacity:1" fill="#a7a8a7" d="M 397.5,125.5 C 424.167,125.5 450.833,125.5 477.5,125.5C 477.5,126.833 477.5,128.167 477.5,129.5C 450.833,129.5 424.167,129.5 397.5,129.5C 397.5,128.167 397.5,126.833 397.5,125.5 Z"/></g>
<g><path style="opacity:1" fill="#6c97fa" d="M 231.5,157.5 C 236.817,159.732 237.484,162.732 233.5,166.5C 232.494,166.062 232.494,165.396 233.5,164.5C 220.215,163.015 220.215,161.848 233.5,161C 232.177,160.184 231.511,159.017 231.5,157.5 Z"/></g>
<g><path style="opacity:1" fill="#6c97fa" d="M 367.5,157.5 C 372.817,159.732 373.484,162.732 369.5,166.5C 368.494,166.062 368.494,165.396 369.5,164.5C 356.215,163.015 356.215,161.848 369.5,161C 368.177,160.184 367.511,159.017 367.5,157.5 Z"/></g>
<g><path style="opacity:1" fill="#6c97fa" d="M 503.5,157.5 C 508.817,159.732 509.484,162.732 505.5,166.5C 504.494,166.062 504.494,165.396 505.5,164.5C 492.215,163.015 492.215,161.848 505.5,161C 504.177,160.184 503.511,159.017 503.5,157.5 Z"/></g>
<g><path style="opacity:1" fill="#f3f3f4" d="M 116.5,180.5 C 161.167,180.5 205.833,180.5 250.5,180.5C 250.5,215.833 250.5,251.167 250.5,286.5C 205.833,286.5 161.167,286.5 116.5,286.5C 116.5,251.167 116.5,215.833 116.5,180.5 Z"/></g>
<g><path style="opacity:1" fill="#f3f3f4" d="M 252.5,180.5 C 297.167,180.5 341.833,180.5 386.5,180.5C 386.5,215.833 386.5,251.167 386.5,286.5C 341.833,286.5 297.167,286.5 252.5,286.5C 252.5,251.167 252.5,215.833 252.5,180.5 Z"/></g>
<g><path style="opacity:1" fill="#fefeff" d="M 388.5,180.5 C 433.167,180.5 477.833,180.5 522.5,180.5C 522.5,215.833 522.5,251.167 522.5,286.5C 477.833,286.5 433.167,286.5 388.5,286.5C 388.5,251.167 388.5,215.833 388.5,180.5 Z"/></g>
<g><path style="opacity:1" fill="#8c8d8c" d="M 125.5,191.5 C 152.167,191.5 178.833,191.5 205.5,191.5C 205.5,193.5 205.5,195.5 205.5,197.5C 178.833,197.5 152.167,197.5 125.5,197.5C 125.5,195.5 125.5,193.5 125.5,191.5 Z"/></g>
<g><path style="opacity:1" fill="#8c8d8c" d="M 261.5,191.5 C 288.167,191.5 314.833,191.5 341.5,191.5C 341.5,193.5 341.5,195.5 341.5,197.5C 314.833,197.5 288.167,197.5 261.5,197.5C 261.5,195.5 261.5,193.5 261.5,191.5 Z"/></g>
<g><path style="opacity:1" fill="#8c8d8c" d="M 397.5,191.5 C 424.167,191.5 450.833,191.5 477.5,191.5C 477.5,193.5 477.5,195.5 477.5,197.5C 450.833,197.5 424.167,197.5 397.5,197.5C 397.5,195.5 397.5,193.5 397.5,191.5 Z"/></g>
<g><path style="opacity:1" fill="#a7a8a7" d="M 125.5,213.5 C 163.5,213.5 201.5,213.5 239.5,213.5C 239.5,214.833 239.5,216.167 239.5,217.5C 201.5,217.5 163.5,217.5 125.5,217.5C 125.5,216.167 125.5,214.833 125.5,213.5 Z"/></g>
<g><path style="opacity:1" fill="#a7a8a7" d="M 261.5,213.5 C 299.5,213.5 337.5,213.5 375.5,213.5C 375.5,214.833 375.5,216.167 375.5,217.5C 337.5,217.5 299.5,217.5 261.5,217.5C 261.5,216.167 261.5,214.833 261.5,213.5 Z"/></g>
<g><path style="opacity:1" fill="#a7a8a7" d="M 125.5,223.5 C 163.5,223.5 201.5,223.5 239.5,223.5C 239.5,224.833 239.5,226.167 239.5,227.5C 201.5,227.5 163.5,227.5 125.5,227.5C 125.5,226.167 125.5,224.833 125.5,223.5 Z"/></g>
<g><path style="opacity:1" fill="#a7a8a7" d="M 261.5,223.5 C 299.5,223.5 337.5,223.5 375.5,223.5C 375.5,224.833 375.5,226.167 375.5,227.5C 337.5,227.5 299.5,227.5 261.5,227.5C 261.5,226.167 261.5,224.833 261.5,223.5 Z"/></g>
<g><path style="opacity:1" fill="#a7a8a7" d="M 125.5,233.5 C 152.167,233.5 178.833,233.5 205.5,233.5C 205.5,234.833 205.5,236.167 205.5,237.5C 178.833,237.5 152.167,237.5 125.5,237.5C 125.5,236.167 125.5,234.833 125.5,233.5 Z"/></g>
<g><path style="opacity:1" fill="#a7a8a7" d="M 261.5,233.5 C 288.167,233.5 314.833,233.5 341.5,233.5C 341.5,234.833 341.5,236.167 341.5,237.5C 314.833,237.5 288.167,237.5 261.5,237.5C 261.5,236.167 261.5,234.833 261.5,233.5 Z"/></g>
<g><path style="opacity:1" fill="#6c97fa" d="M 231.5,265.5 C 236.817,267.732 237.484,270.732 233.5,274.5C 232.494,274.062 232.494,273.396 233.5,272.5C 220.215,271.015 220.215,269.848 233.5,269C 232.177,268.184 231.511,267.017 231.5,265.5 Z"/></g>
<g><path style="opacity:1" fill="#6c97fa" d="M 367.5,265.5 C 372.817,267.732 373.484,270.732 369.5,274.5C 368.494,274.062 368.494,273.396 369.5,272.5C 356.215,271.015 356.215,269.848 369.5,269C 368.177,268.184 367.511,267.017 367.5,265.5 Z"/></g>
<g><path style="opacity:1" fill="#719bfe" d="M 503.5,265.5 C 508.817,267.732 509.484,270.732 505.5,274.5C 504.494,274.062 504.494,273.396 505.5,272.5C 492.215,271.015 492.215,269.848 505.5,269C 504.177,268.184 503.511,267.017 503.5,265.5 Z"/></g>
</svg>
