<?xml version="1.0" encoding="UTF-8"?>
<!DOCTYPE svg PUBLIC "-//W3C//DTD SVG 1.1//EN" "http://www.w3.org/Graphics/SVG/1.1/DTD/svg11.dtd">
<svg xmlns="http://www.w3.org/2000/svg" version="1.1" width="640px" height="360px" style="shape-rendering:geometricPrecision; text-rendering:geometricPrecision; image-rendering:optimizeQuality; fill-rule:evenodd; clip-rule:evenodd" xmlns:xlink="http://www.w3.org/1999/xlink">
<g><path style="opacity:0.749" fill="#b0b0b0" d="M 110.5,114.5 C 152.5,114.5 194.5,114.5 236.5,114.5C 236.5,156.5 236.5,198.5 236.5,240.5C 194.5,240.5 152.5,240.5 110.5,240.5C 110.5,198.5 110.5,156.5 110.5,114.5 Z"/></g>
<g><path style="opacity:0.748" fill="#b0b0b0" d="M 246.5,114.5 C 288.5,114.5 330.5,114.5 372.5,114.5C 372.5,156.5 372.5,198.5 372.5,240.5C 330.5,240.5 288.5,240.5 246.5,240.5C 246.5,198.5 246.5,156.5 246.5,114.5 Z"/></g>
<g><path style="opacity:0.748" fill="#b0b0b0" d="M 382.5,114.5 C 424.5,114.5 466.5,114.5 508.5,114.5C 508.5,156.5 508.5,198.5 508.5,240.5C 466.5,240.5 424.5,240.5 382.5,240.5C 382.5,198.5 382.5,156.5 382.5,114.5 Z"/></g>
<g><path style="opacity:0.749" fill="#afafaf" d="M 518.5,114.5 C 521.833,114.5 525.167,114.5 528.5,114.5C 528.5,156.5 528.5,198.5 528.5,240.5C 525.167,240.5 521.833,240.5 518.5,240.5C 518.5,198.5 518.5,156.5 518.5,114.5 Z"/></g>
<g><path style="opacity:1" fill="#f3f3f4" d="M 112.5,116.5 C 153.167,116.5 193.833,116.5 234.5,116.5C 234.5,157.167 234.5,197.833 234.5,238.5C 193.833,238.5 153.167,238.5 112.5,238.5C 112.5,197.833 112.5,157.167 112.5,116.5 Z"/></g>
<g><path style="opacity:1" fill="#f3f3f4" d="M 248.5,116.5 C 289.167,116.5 329.833,116.5 370.5,116.5C 370.5,157.167 370.5,197.833 370.5,238.5C 329.833,238.5 289.167,238.5 248.5,238.5C 248.5,197.833 248.5,157.167 248.5,116.5 Z"/></g>
<g><path style="opacity:1" fill="#f3f3f4" d="M 384.5,116.5 C 425.167,116.5 465.833,116.5 506.5,116.5C 506.5,157.167 506.5,197.833 506.5,238.5C 465.833,238.5 425.167,238.5 384.5,238.5C 384.5,197.833 384.5,157.167 384.5,116.5 Z"/></g>
<g><path style="opacity:1" fill="#f3f4f3" d="M 520.5,116.5 C 522.5,116.5 524.5,116.5 526.5,116.5C 526.5,157.167 526.5,197.833 526.5,238.5C 524.5,238.5 522.5,238.5 520.5,238.5C 520.5,197.833 520.5,157.167 520.5,116.5 Z"/></g>
<g><path style="opacity:1" fill="#8c8d8c" d="M 125.5,131.5 C 152.167,131.5 178.833,131.5 205.5,131.5C 205.5,133.5 205.5,135.5 205.5,137.5C 178.833,137.5 152.167,137.5 125.5,137.5C 125.5,135.5 125.5,133.5 125.5,131.5 Z"/></g>
<g><path style="opacity:1" fill="#8c8d8c" d="M 261.5,131.5 C 288.167,131.5 314.833,131.5 341.5,131.5C 341.5,133.5 341.5,135.5 341.5,137.5C 314.833,137.5 288.167,137.5 261.5,137.5C 261.5,135.5 261.5,133.5 261.5,131.5 Z"/></g>
<g><path style="opacity:1" fill="#8c8d8c" d="M 397.5,131.5 C 424.167,131.5 450.833,131.5 477.5,131.5C 477.5,133.5 477.5,135.5 477.5,137.5C 450.833,137.5 424.167,137.5 397.5,137.5C 397.5,135.5 397.5,133.5 397.5,131.5 Z"/></g>
<g><path style="opacity:1" fill="#a7a8a7" d="M 125.5,153.5 C 157.5,153.5 189.5,153.5 221.5,153.5C 221.5,154.833 221.5,156.167 221.5,157.5C 189.5,157.5 157.5,157.5 125.5,157.5C 125.5,156.167 125.5,154.833 125.5,153.5 Z"/></g>
<g><path style="opacity:1" fill="#a7a8a7" d="M 261.5,153.5 C 293.5,153.5 325.5,153.5 357.5,153.5C 357.5,154.833 357.5,156.167 357.5,157.5C 325.5,157.5 293.5,157.5 261.5,157.5C 261.5,156.167 261.5,154.833 261.5,153.5 Z"/></g>
<g><path style="opacity:1" fill="#a7a8a7" d="M 397.5,153.5 C 429.5,153.5 461.5,153.5 493.5,153.5C 493.5,154.833 493.5,156.167 493.5,157.5C 461.5,157.5 429.5,157.5 397.5,157.5C 397.5,156.167 397.5,154.833 397.5,153.5 Z"/></g>
<g><path style="opacity:1" fill="#a7a8a7" d="M 125.5,163.5 C 157.5,163.5 189.5,163.5 221.5,163.5C 221.5,164.833 221.5,166.167 221.5,167.5C 189.5,167.5 157.5,167.5 125.5,167.5C 125.5,166.167 125.5,164.833 125.5,163.5 Z"/></g>
<g><path style="opacity:1" fill="#a7a8a7" d="M 261.5,163.5 C 293.5,163.5 325.5,163.5 357.5,163.5C 357.5,164.833 357.5,166.167 357.5,167.5C 325.5,167.5 293.5,167.5 261.5,167.5C 261.5,166.167 261.5,164.833 261.5,163.5 Z"/></g>
<g><path style="opacity:1" fill="#a7a8a7" d="M 397.5,163.5 C 429.5,163.5 461.5,163.5 493.5,163.5C 493.5,164.833 493.5,166.167 493.5,167.5C 461.5,167.5 429.5,167.5 397.5,167.5C 397.5,166.167 397.5,164.833 397.5,163.5 Z"/></g>
<g><path style="opacity:1" fill="#a7a8a7" d="M 125.5,173.5 C 146.833,173.5 168.167,173.5 189.5,173.5C 189.5,174.833 189.5,176.167 189.5,177.5C 168.167,177.5 146.833,177.5 125.5,177.5C 125.5,176.167 125.5,174.833 125.5,173.5 Z"/></g>
<g><path style="opacity:1" fill="#a7a8a7" d="M 261.5,173.5 C 282.833,173.5 304.167,173.5 325.5,173.5C 325.5,174.833 325.5,176.167 325.5,177.5C 304.167,177.5 282.833,177.5 261.5,177.5C 261.5,176.167 261.5,174.833 261.5,173.5 Z"/></g>
<g><path style="opacity:1" fill="#a7a8a7" d="M 397.5,173.5 C 418.833,173.5 440.167,173.5 461.5,173.5C 461.5,174.833 461.5,176.167 461.5,177.5C 440.167,177.5 418.833,177.5 397.5,177.5C 397.5,176.167 397.5,174.833 397.5,173.5 Z"/></g>
<g><path style="opacity:1" fill="#5587fb" d="M 217.5,215.5 C 223.851,219.214 224.018,223.214 218,227.5C 217.837,225.613 218.671,224.113 220.5,223C 205.833,222 205.833,221 220.5,220C 218.859,218.871 217.859,217.371 217.5,215.5 Z"/></g>
<g><path style="opacity:1" fill="#5587fb" d="M 353.5,215.5 C 359.851,219.214 360.018,223.214 354,227.5C 353.837,225.613 354.671,224.113 356.5,223C 341.833,222 341.833,221 356.5,220C 354.859,218.871 353.859,217.371 353.5,215.5 Z"/></g>
<g><path style="opacity:1" fill="#5587fb" d="M 489.5,215.5 C 495.851,219.214 496.018,223.214 490,227.5C 489.837,225.613 490.671,224.113 492.5,223C 477.833,222 477.833,221 492.5,220C 490.859,218.871 489.859,217.371 489.5,215.5 Z"/></g>
<g><path style="opacity:1" fill="#c5c6c5" d="M 454.5,258.5 C 461.167,258.5 467.833,258.5 474.5,258.5C 474.5,265.167 474.5,271.833 474.5,278.5C 467.833,278.5 461.167,278.5 454.5,278.5C 454.5,271.833 454.5,265.167 454.5,258.5 Z M 456.5,260.5 C 461.833,260.5 467.167,260.5 472.5,260.5C 472.5,265.833 472.5,271.167 472.5,276.5C 467.167,276.5 461.833,276.5 456.5,276.5C 456.5,271.167 456.5,265.833 456.5,260.5 Z"/></g>
<g><path style="opacity:1" fill="#0f61fe" d="M 486.5,258.5 C 493.167,258.5 499.833,258.5 506.5,258.5C 506.5,265.167 506.5,271.833 506.5,278.5C 499.833,278.5 493.167,278.5 486.5,278.5C 486.5,271.833 486.5,265.167 486.5,258.5 Z M 488.5,260.5 C 493.833,260.5 499.167,260.5 504.5,260.5C 504.5,265.833 504.5,271.167 504.5,276.5C 499.167,276.5 493.833,276.5 488.5,276.5C 488.5,271.167 488.5,265.833 488.5,260.5 Z"/></g>
</svg>
