<?xml version="1.0" encoding="UTF-8"?>
<svg width="320px" height="320px" viewBox="0 0 320 320" version="1.1" xmlns="http://www.w3.org/2000/svg" xmlns:xlink="http://www.w3.org/1999/xlink">
    <title>coming_soon</title>
    <g id="coming_soon" stroke="none" stroke-width="1" fill="none" fill-rule="evenodd">
        <rect fill="#FFFFFF" x="0" y="0" width="320" height="320"></rect>
        <path d="M75.478,165 L75.478,160.828 L78.194,160.828 C79.0713333,160.828 79.7456667,160.578333 80.217,160.079 C80.6883333,159.579667 80.924,158.896 80.924,158.028 C80.924,157.16 80.6883333,156.476333 80.217,155.977 C79.7456667,155.477667 79.0713333,155.228 78.194,155.228 L78.194,155.228 L74.302,155.228 L74.302,165 L75.478,165 Z M78.194,159.792 L75.478,159.792 L75.478,156.264 L78.194,156.264 C78.6606667,156.264 79.0223333,156.385333 79.279,156.628 C79.5356667,156.870667 79.664,157.216 79.664,157.664 L79.664,157.664 L79.664,158.392 C79.664,158.84 79.5356667,159.185333 79.279,159.428 C79.0223333,159.670667 78.6606667,159.792 78.194,159.792 L78.194,159.792 Z M83.794,165 L83.794,160.1 C83.794,159.754667 83.9643333,159.467667 84.305,159.239 C84.6456667,159.010333 85.1193333,158.896 85.726,158.896 L85.726,158.896 L86.384,158.896 L86.384,157.776 L85.95,157.776 C85.362,157.776 84.9,157.911333 84.564,158.182 C84.228,158.452667 83.9946667,158.760667 83.864,159.106 L83.864,159.106 L83.794,159.106 L83.794,157.776 L82.674,157.776 L82.674,165 L83.794,165 Z M90.528,165.168 C91.2093333,165.168 91.7973333,165.016333 92.292,164.713 C92.7866667,164.409667 93.1506667,164.010667 93.384,163.516 L93.384,163.516 L92.586,162.942 C92.3993333,163.343333 92.1356667,163.651333 91.795,163.866 C91.4543333,164.080667 91.0553333,164.188 90.598,164.188 C90.262,164.188 89.961,164.132 89.695,164.02 C89.429,163.908 89.205,163.754 89.023,163.558 C88.841,163.362 88.701,163.131 88.603,162.865 C88.505,162.599 88.456,162.312 88.456,162.004 L88.456,162.004 L88.456,161.668 L93.65,161.668 L93.65,161.136 C93.65,160.622667 93.5776667,160.151333 93.433,159.722 C93.2883333,159.292667 93.0806667,158.921667 92.81,158.609 C92.5393333,158.296333 92.2126667,158.051333 91.83,157.874 C91.4473333,157.696667 91.0133333,157.608 90.528,157.608 C90.0333333,157.608 89.5876667,157.696667 89.191,157.874 C88.7943333,158.051333 88.4536667,158.305667 88.169,158.637 C87.8843333,158.968333 87.665,159.367333 87.511,159.834 C87.357,160.300667 87.28,160.818667 87.28,161.388 C87.28,161.966667 87.357,162.487 87.511,162.949 C87.665,163.411 87.8843333,163.807667 88.169,164.139 C88.4536667,164.470333 88.7943333,164.724667 89.191,164.902 C89.5876667,165.079333 90.0333333,165.168 90.528,165.168 Z M92.446,160.828 L88.456,160.828 L88.456,160.73 C88.456,160.412667 88.5073333,160.121 88.61,159.855 C88.7126667,159.589 88.855,159.358 89.037,159.162 C89.219,158.966 89.436,158.814333 89.688,158.707 C89.94,158.599667 90.22,158.546 90.528,158.546 C91.1066667,158.546 91.571,158.739667 91.921,159.127 C92.271,159.514333 92.446,160.03 92.446,160.674 L92.446,160.674 L92.446,160.828 Z M98.396,165 L100.944,157.776 L99.866,157.776 L98.578,161.36 L97.794,163.824 L97.724,163.824 L96.94,161.36 L95.68,157.776 L94.56,157.776 L97.094,165 L98.396,165 Z M102.946,156.082 C103.188667,156.082 103.363667,156.023667 103.471,155.907 C103.578333,155.790333 103.632,155.638667 103.632,155.452 L103.632,155.452 L103.632,155.27 C103.632,155.083333 103.578333,154.931667 103.471,154.815 C103.363667,154.698333 103.188667,154.64 102.946,154.64 C102.703333,154.64 102.528333,154.698333 102.421,154.815 C102.313667,154.931667 102.26,155.083333 102.26,155.27 L102.26,155.27 L102.26,155.452 C102.26,155.638667 102.313667,155.790333 102.421,155.907 C102.528333,156.023667 102.703333,156.082 102.946,156.082 Z M103.506,165 L103.506,157.776 L102.386,157.776 L102.386,165 L103.506,165 Z M108.602,165.168 C109.283333,165.168 109.871333,165.016333 110.366,164.713 C110.860667,164.409667 111.224667,164.010667 111.458,163.516 L111.458,163.516 L110.66,162.942 C110.473333,163.343333 110.209667,163.651333 109.869,163.866 C109.528333,164.080667 109.129333,164.188 108.672,164.188 C108.336,164.188 108.035,164.132 107.769,164.02 C107.503,163.908 107.279,163.754 107.097,163.558 C106.915,163.362 106.775,163.131 106.677,162.865 C106.579,162.599 106.53,162.312 106.53,162.004 L106.53,162.004 L106.53,161.668 L111.724,161.668 L111.724,161.136 C111.724,160.622667 111.651667,160.151333 111.507,159.722 C111.362333,159.292667 111.154667,158.921667 110.884,158.609 C110.613333,158.296333 110.286667,158.051333 109.904,157.874 C109.521333,157.696667 109.087333,157.608 108.602,157.608 C108.107333,157.608 107.661667,157.696667 107.265,157.874 C106.868333,158.051333 106.527667,158.305667 106.243,158.637 C105.958333,158.968333 105.739,159.367333 105.585,159.834 C105.431,160.300667 105.354,160.818667 105.354,161.388 C105.354,161.966667 105.431,162.487 105.585,162.949 C105.739,163.411 105.958333,163.807667 106.243,164.139 C106.527667,164.470333 106.868333,164.724667 107.265,164.902 C107.661667,165.079333 108.107333,165.168 108.602,165.168 Z M110.52,160.828 L106.53,160.828 L106.53,160.73 C106.53,160.412667 106.581333,160.121 106.684,159.855 C106.786667,159.589 106.929,159.358 107.111,159.162 C107.293,158.966 107.51,158.814333 107.762,158.707 C108.014,158.599667 108.294,158.546 108.602,158.546 C109.180667,158.546 109.645,158.739667 109.995,159.127 C110.345,159.514333 110.52,160.03 110.52,160.674 L110.52,160.674 L110.52,160.828 Z M116.106,165 L117.114,161.528 L117.73,159.33 L117.758,159.33 L118.388,161.528 L119.396,165 L120.782,165 L122.7,157.776 L121.65,157.776 L120.866,160.898 L120.124,164.062 L120.096,164.062 L119.2,160.898 L118.262,157.776 L117.268,157.776 L116.358,160.898 L115.476,164.062 L115.448,164.062 L114.678,160.898 L113.908,157.776 L112.816,157.776 L114.748,165 L116.106,165 Z M128.188,156.082 C128.430667,156.082 128.605667,156.023667 128.713,155.907 C128.820333,155.790333 128.874,155.638667 128.874,155.452 L128.874,155.452 L128.874,155.27 C128.874,155.083333 128.820333,154.931667 128.713,154.815 C128.605667,154.698333 128.430667,154.64 128.188,154.64 C127.945333,154.64 127.770333,154.698333 127.663,154.815 C127.555667,154.931667 127.502,155.083333 127.502,155.27 L127.502,155.27 L127.502,155.452 C127.502,155.638667 127.555667,155.790333 127.663,155.907 C127.770333,156.023667 127.945333,156.082 128.188,156.082 Z M128.748,165 L128.748,157.776 L127.628,157.776 L127.628,165 L128.748,165 Z M132.248,165 L132.248,159.988 C132.248,159.754667 132.297,159.551667 132.395,159.379 C132.493,159.206333 132.621333,159.064 132.78,158.952 C132.938667,158.84 133.120667,158.756 133.326,158.7 C133.531333,158.644 133.746,158.616 133.97,158.616 C134.502,158.616 134.894,158.779333 135.146,159.106 C135.398,159.432667 135.524,159.918 135.524,160.562 L135.524,160.562 L135.524,165 L136.644,165 L136.644,159.988 C136.644,159.754667 136.690667,159.551667 136.784,159.379 C136.877333,159.206333 137.003333,159.064 137.162,158.952 C137.320667,158.84 137.500333,158.756 137.701,158.7 C137.901667,158.644 138.114,158.616 138.338,158.616 C138.888667,158.616 139.29,158.779333 139.542,159.106 C139.794,159.432667 139.92,159.918 139.92,160.562 L139.92,160.562 L139.92,165 L141.04,165 L141.04,160.366 C141.04,159.488667 140.832333,158.809667 140.417,158.329 C140.001667,157.848333 139.425333,157.608 138.688,157.608 C138.072,157.608 137.584333,157.755 137.225,158.049 C136.865667,158.343 136.620667,158.686 136.49,159.078 L136.49,159.078 L136.462,159.078 C136.266,158.555333 135.967333,158.179667 135.566,157.951 C135.164667,157.722333 134.726,157.608 134.25,157.608 C133.97,157.608 133.727333,157.643 133.522,157.713 C133.316667,157.783 133.137,157.878667 132.983,158 C132.829,158.121333 132.698333,158.263667 132.591,158.427 C132.483667,158.590333 132.388,158.765333 132.304,158.952 L132.304,158.952 L132.248,158.952 L132.248,157.776 L131.128,157.776 L131.128,165 L132.248,165 Z M145.198,165.168 C145.702,165.168 146.136,165.056 146.5,164.832 C146.864,164.608 147.125333,164.272 147.284,163.824 L147.284,163.824 L147.354,163.824 C147.400667,164.16 147.515,164.44 147.697,164.664 C147.879,164.888 148.18,165 148.6,165 L148.6,165 L149.23,165 L149.23,164.02 L148.404,164.02 L148.404,160.044 C148.404,159.278667 148.161333,158.681333 147.676,158.252 C147.190667,157.822667 146.509333,157.608 145.632,157.608 C144.978667,157.608 144.437333,157.745667 144.008,158.021 C143.578667,158.296333 143.266,158.63 143.07,159.022 L143.07,159.022 L143.742,159.652 C143.938,159.325333 144.183,159.064 144.477,158.868 C144.771,158.672 145.137333,158.574 145.576,158.574 C146.154667,158.574 146.584,158.709333 146.864,158.98 C147.144,159.250667 147.284,159.642667 147.284,160.156 L147.284,160.156 L147.284,160.87 L145.856,160.87 C144.801333,160.87 144.024333,161.052 143.525,161.416 C143.025667,161.78 142.776,162.302667 142.776,162.984 C142.776,163.656 142.988333,164.188 143.413,164.58 C143.837667,164.972 144.432667,165.168 145.198,165.168 Z M145.38,164.216 C144.941333,164.216 144.593667,164.118 144.337,163.922 C144.080333,163.726 143.952,163.450667 143.952,163.096 L143.952,163.096 L143.952,162.802 C143.952,162.447333 144.099,162.176667 144.393,161.99 C144.687,161.803333 145.156,161.71 145.8,161.71 L145.8,161.71 L147.284,161.71 L147.284,162.9 C147.284,163.086667 147.237333,163.259333 147.144,163.418 C147.050667,163.576667 146.92,163.716667 146.752,163.838 C146.584,163.959333 146.383333,164.052667 146.15,164.118 C145.916667,164.183333 145.66,164.216 145.38,164.216 Z M153.416,167.968 C154.582667,167.968 155.457667,167.793 156.041,167.443 C156.624333,167.093 156.916,166.544667 156.916,165.798 C156.916,165.200667 156.713,164.731667 156.307,164.391 C155.901,164.050333 155.25,163.88 154.354,163.88 L154.354,163.88 L152.814,163.88 C152.487333,163.88 152.221333,163.842667 152.016,163.768 C151.810667,163.693333 151.708,163.548667 151.708,163.334 C151.708,163.11 151.806,162.935 152.002,162.809 C152.198,162.683 152.417333,162.587333 152.66,162.522 C152.893333,162.568667 153.126667,162.592 153.36,162.592 C153.770667,162.592 154.144,162.531333 154.48,162.41 C154.816,162.288667 155.103,162.118333 155.341,161.899 C155.579,161.679667 155.763333,161.416 155.894,161.108 C156.024667,160.8 156.09,160.464 156.09,160.1 C156.09,159.708 156.017667,159.355667 155.873,159.043 C155.728333,158.730333 155.525333,158.462 155.264,158.238 L155.264,158.238 L155.264,157.776 L156.636,157.776 L156.636,156.796 L155.558,156.796 C155.259333,156.796 155.044667,156.887 154.914,157.069 C154.783333,157.251 154.718,157.482 154.718,157.762 L154.718,157.762 L154.718,157.888 C154.316667,157.701333 153.859333,157.608 153.346,157.608 C152.935333,157.608 152.564333,157.668667 152.233,157.79 C151.901667,157.911333 151.617,158.081667 151.379,158.301 C151.141,158.520333 150.956667,158.784 150.826,159.092 C150.695333,159.4 150.63,159.736 150.63,160.1 C150.63,160.604 150.749,161.047333 150.987,161.43 C151.225,161.812667 151.558667,162.106667 151.988,162.312 L151.988,162.312 L151.988,162.368 C151.624,162.461333 151.325333,162.603667 151.092,162.795 C150.858667,162.986333 150.742,163.264 150.742,163.628 C150.742,164.094667 150.956667,164.430667 151.386,164.636 L151.386,164.636 L151.386,164.79 C151.031333,164.892667 150.751333,165.053667 150.546,165.273 C150.340667,165.492333 150.238,165.798 150.238,166.19 C150.238,166.759333 150.485333,167.198 150.98,167.506 C151.474667,167.814 152.286667,167.968 153.416,167.968 Z M153.36,161.696 C152.884,161.696 152.506,161.581667 152.226,161.353 C151.946,161.124333 151.806,160.772 151.806,160.296 L151.806,160.296 L151.806,159.904 C151.806,159.428 151.946,159.075667 152.226,158.847 C152.506,158.618333 152.884,158.504 153.36,158.504 C153.836,158.504 154.214,158.618333 154.494,158.847 C154.774,159.075667 154.914,159.428 154.914,159.904 L154.914,159.904 L154.914,160.296 C154.914,160.772 154.774,161.124333 154.494,161.353 C154.214,161.581667 153.836,161.696 153.36,161.696 Z M153.892,167.058 L152.856,167.058 C152.286667,167.058 151.883,166.946 151.645,166.722 C151.407,166.498 151.288,166.227333 151.288,165.91 C151.288,165.462 151.512,165.135333 151.96,164.93 L151.96,164.93 L154.368,164.93 C154.928,164.93 155.317667,165.016333 155.537,165.189 C155.756333,165.361667 155.866,165.592667 155.866,165.882 C155.866,166.274 155.693333,166.568 155.348,166.764 C155.002667,166.96 154.517333,167.058 153.892,167.058 L153.892,167.058 Z M160.934,165.168 C161.615333,165.168 162.203333,165.016333 162.698,164.713 C163.192667,164.409667 163.556667,164.010667 163.79,163.516 L163.79,163.516 L162.992,162.942 C162.805333,163.343333 162.541667,163.651333 162.201,163.866 C161.860333,164.080667 161.461333,164.188 161.004,164.188 C160.668,164.188 160.367,164.132 160.101,164.02 C159.835,163.908 159.611,163.754 159.429,163.558 C159.247,163.362 159.107,163.131 159.009,162.865 C158.911,162.599 158.862,162.312 158.862,162.004 L158.862,162.004 L158.862,161.668 L164.056,161.668 L164.056,161.136 C164.056,160.622667 163.983667,160.151333 163.839,159.722 C163.694333,159.292667 163.486667,158.921667 163.216,158.609 C162.945333,158.296333 162.618667,158.051333 162.236,157.874 C161.853333,157.696667 161.419333,157.608 160.934,157.608 C160.439333,157.608 159.993667,157.696667 159.597,157.874 C159.200333,158.051333 158.859667,158.305667 158.575,158.637 C158.290333,158.968333 158.071,159.367333 157.917,159.834 C157.763,160.300667 157.686,160.818667 157.686,161.388 C157.686,161.966667 157.763,162.487 157.917,162.949 C158.071,163.411 158.290333,163.807667 158.575,164.139 C158.859667,164.470333 159.200333,164.724667 159.597,164.902 C159.993667,165.079333 160.439333,165.168 160.934,165.168 Z M162.852,160.828 L158.862,160.828 L158.862,160.73 C158.862,160.412667 158.913333,160.121 159.016,159.855 C159.118667,159.589 159.261,159.358 159.443,159.162 C159.625,158.966 159.842,158.814333 160.094,158.707 C160.346,158.599667 160.626,158.546 160.934,158.546 C161.512667,158.546 161.977,158.739667 162.327,159.127 C162.677,159.514333 162.852,160.03 162.852,160.674 L162.852,160.674 L162.852,160.828 Z M171.896,165.168 C172.586667,165.168 173.163,165.014 173.625,164.706 C174.087,164.398 174.434667,163.982667 174.668,163.46 L174.668,163.46 L173.856,162.914 C173.454667,163.754 172.801333,164.174 171.896,164.174 C171.233333,164.174 170.731667,163.971 170.391,163.565 C170.050333,163.159 169.88,162.638667 169.88,162.004 L169.88,162.004 L169.88,160.772 C169.88,160.454667 169.922,160.163 170.006,159.897 C170.09,159.631 170.216,159.402333 170.384,159.211 C170.552,159.019667 170.762,158.870333 171.014,158.763 C171.266,158.655667 171.56,158.602 171.896,158.602 C172.344,158.602 172.717333,158.704667 173.016,158.91 C173.314667,159.115333 173.529333,159.404667 173.66,159.778 L173.66,159.778 L174.598,159.302 C174.383333,158.798 174.059,158.389667 173.625,158.077 C173.191,157.764333 172.614667,157.608 171.896,157.608 C171.392,157.608 170.939333,157.696667 170.538,157.874 C170.136667,158.051333 169.798333,158.303333 169.523,158.63 C169.247667,158.956667 169.037667,159.353333 168.893,159.82 C168.748333,160.286667 168.676,160.809333 168.676,161.388 C168.676,161.966667 168.748333,162.489333 168.893,162.956 C169.037667,163.422667 169.247667,163.819333 169.523,164.146 C169.798333,164.472667 170.136667,164.724667 170.538,164.902 C170.939333,165.079333 171.392,165.168 171.896,165.168 Z M178.98,165.168 C179.465333,165.168 179.906333,165.079333 180.303,164.902 C180.699667,164.724667 181.042667,164.470333 181.332,164.139 C181.621333,163.807667 181.845333,163.411 182.004,162.949 C182.162667,162.487 182.242,161.966667 182.242,161.388 C182.242,160.818667 182.162667,160.300667 182.004,159.834 C181.845333,159.367333 181.621333,158.968333 181.332,158.637 C181.042667,158.305667 180.699667,158.051333 180.303,157.874 C179.906333,157.696667 179.465333,157.608 178.98,157.608 C178.494667,157.608 178.051333,157.696667 177.65,157.874 C177.248667,158.051333 176.905667,158.305667 176.621,158.637 C176.336333,158.968333 176.114667,159.367333 175.956,159.834 C175.797333,160.300667 175.718,160.818667 175.718,161.388 C175.718,161.966667 175.797333,162.487 175.956,162.949 C176.114667,163.411 176.336333,163.807667 176.621,164.139 C176.905667,164.470333 177.248667,164.724667 177.65,164.902 C178.051333,165.079333 178.494667,165.168 178.98,165.168 Z M178.98,164.174 C178.373333,164.174 177.878667,163.987333 177.496,163.614 C177.113333,163.240667 176.922,162.671333 176.922,161.906 L176.922,161.906 L176.922,160.87 C176.922,160.104667 177.113333,159.535333 177.496,159.162 C177.878667,158.788667 178.373333,158.602 178.98,158.602 C179.586667,158.602 180.081333,158.788667 180.464,159.162 C180.846667,159.535333 181.038,160.104667 181.038,160.87 L181.038,160.87 L181.038,161.906 C181.038,162.671333 180.846667,163.240667 180.464,163.614 C180.081333,163.987333 179.586667,164.174 178.98,164.174 Z M185.21,165 L185.21,159.988 C185.21,159.754667 185.259,159.551667 185.357,159.379 C185.455,159.206333 185.583333,159.064 185.742,158.952 C185.900667,158.84 186.082667,158.756 186.288,158.7 C186.493333,158.644 186.708,158.616 186.932,158.616 C187.464,158.616 187.856,158.779333 188.108,159.106 C188.36,159.432667 188.486,159.918 188.486,160.562 L188.486,160.562 L188.486,165 L189.606,165 L189.606,159.988 C189.606,159.754667 189.652667,159.551667 189.746,159.379 C189.839333,159.206333 189.965333,159.064 190.124,158.952 C190.282667,158.84 190.462333,158.756 190.663,158.7 C190.863667,158.644 191.076,158.616 191.3,158.616 C191.850667,158.616 192.252,158.779333 192.504,159.106 C192.756,159.432667 192.882,159.918 192.882,160.562 L192.882,160.562 L192.882,165 L194.002,165 L194.002,160.366 C194.002,159.488667 193.794333,158.809667 193.379,158.329 C192.963667,157.848333 192.387333,157.608 191.65,157.608 C191.034,157.608 190.546333,157.755 190.187,158.049 C189.827667,158.343 189.582667,158.686 189.452,159.078 L189.452,159.078 L189.424,159.078 C189.228,158.555333 188.929333,158.179667 188.528,157.951 C188.126667,157.722333 187.688,157.608 187.212,157.608 C186.932,157.608 186.689333,157.643 186.484,157.713 C186.278667,157.783 186.099,157.878667 185.945,158 C185.791,158.121333 185.660333,158.263667 185.553,158.427 C185.445667,158.590333 185.35,158.765333 185.266,158.952 L185.266,158.952 L185.21,158.952 L185.21,157.776 L184.09,157.776 L184.09,165 L185.21,165 Z M196.872,156.082 C197.114667,156.082 197.289667,156.023667 197.397,155.907 C197.504333,155.790333 197.558,155.638667 197.558,155.452 L197.558,155.452 L197.558,155.27 C197.558,155.083333 197.504333,154.931667 197.397,154.815 C197.289667,154.698333 197.114667,154.64 196.872,154.64 C196.629333,154.64 196.454333,154.698333 196.347,154.815 C196.239667,154.931667 196.186,155.083333 196.186,155.27 L196.186,155.27 L196.186,155.452 C196.186,155.638667 196.239667,155.790333 196.347,155.907 C196.454333,156.023667 196.629333,156.082 196.872,156.082 Z M197.432,165 L197.432,157.776 L196.312,157.776 L196.312,165 L197.432,165 Z M200.932,165 L200.932,159.988 C200.932,159.754667 200.981,159.551667 201.079,159.379 C201.177,159.206333 201.31,159.064 201.478,158.952 C201.646,158.84 201.835,158.756 202.045,158.7 C202.255,158.644 202.472,158.616 202.696,158.616 C203.788,158.616 204.334,159.264667 204.334,160.562 L204.334,160.562 L204.334,165 L205.454,165 L205.454,160.366 C205.454,159.488667 205.237,158.809667 204.803,158.329 C204.369,157.848333 203.778667,157.608 203.032,157.608 C202.490667,157.608 202.059,157.729333 201.737,157.972 C201.415,158.214667 201.165333,158.541333 200.988,158.952 L200.988,158.952 L200.932,158.952 L200.932,157.776 L199.812,157.776 L199.812,165 L200.932,165 Z M210.354,167.968 C211.520667,167.968 212.395667,167.793 212.979,167.443 C213.562333,167.093 213.854,166.544667 213.854,165.798 C213.854,165.200667 213.651,164.731667 213.245,164.391 C212.839,164.050333 212.188,163.88 211.292,163.88 L211.292,163.88 L209.752,163.88 C209.425333,163.88 209.159333,163.842667 208.954,163.768 C208.748667,163.693333 208.646,163.548667 208.646,163.334 C208.646,163.11 208.744,162.935 208.94,162.809 C209.136,162.683 209.355333,162.587333 209.598,162.522 C209.831333,162.568667 210.064667,162.592 210.298,162.592 C210.708667,162.592 211.082,162.531333 211.418,162.41 C211.754,162.288667 212.041,162.118333 212.279,161.899 C212.517,161.679667 212.701333,161.416 212.832,161.108 C212.962667,160.8 213.028,160.464 213.028,160.1 C213.028,159.708 212.955667,159.355667 212.811,159.043 C212.666333,158.730333 212.463333,158.462 212.202,158.238 L212.202,158.238 L212.202,157.776 L213.574,157.776 L213.574,156.796 L212.496,156.796 C212.197333,156.796 211.982667,156.887 211.852,157.069 C211.721333,157.251 211.656,157.482 211.656,157.762 L211.656,157.762 L211.656,157.888 C211.254667,157.701333 210.797333,157.608 210.284,157.608 C209.873333,157.608 209.502333,157.668667 209.171,157.79 C208.839667,157.911333 208.555,158.081667 208.317,158.301 C208.079,158.520333 207.894667,158.784 207.764,159.092 C207.633333,159.4 207.568,159.736 207.568,160.1 C207.568,160.604 207.687,161.047333 207.925,161.43 C208.163,161.812667 208.496667,162.106667 208.926,162.312 L208.926,162.312 L208.926,162.368 C208.562,162.461333 208.263333,162.603667 208.03,162.795 C207.796667,162.986333 207.68,163.264 207.68,163.628 C207.68,164.094667 207.894667,164.430667 208.324,164.636 L208.324,164.636 L208.324,164.79 C207.969333,164.892667 207.689333,165.053667 207.484,165.273 C207.278667,165.492333 207.176,165.798 207.176,166.19 C207.176,166.759333 207.423333,167.198 207.918,167.506 C208.412667,167.814 209.224667,167.968 210.354,167.968 Z M210.298,161.696 C209.822,161.696 209.444,161.581667 209.164,161.353 C208.884,161.124333 208.744,160.772 208.744,160.296 L208.744,160.296 L208.744,159.904 C208.744,159.428 208.884,159.075667 209.164,158.847 C209.444,158.618333 209.822,158.504 210.298,158.504 C210.774,158.504 211.152,158.618333 211.432,158.847 C211.712,159.075667 211.852,159.428 211.852,159.904 L211.852,159.904 L211.852,160.296 C211.852,160.772 211.712,161.124333 211.432,161.353 C211.152,161.581667 210.774,161.696 210.298,161.696 Z M210.83,167.058 L209.794,167.058 C209.224667,167.058 208.821,166.946 208.583,166.722 C208.345,166.498 208.226,166.227333 208.226,165.91 C208.226,165.462 208.45,165.135333 208.898,164.93 L208.898,164.93 L211.306,164.93 C211.866,164.93 212.255667,165.016333 212.475,165.189 C212.694333,165.361667 212.804,165.592667 212.804,165.882 C212.804,166.274 212.631333,166.568 212.286,166.764 C211.940667,166.96 211.455333,167.058 210.83,167.058 L210.83,167.058 Z M220.63,165.168 C221.460667,165.168 222.114,164.967333 222.59,164.566 C223.066,164.164667 223.304,163.614 223.304,162.914 C223.304,162.363333 223.136,161.917667 222.8,161.577 C222.464,161.236333 221.894667,161.005333 221.092,160.884 L221.092,160.884 L220.532,160.8 C220.084,160.725333 219.741,160.608667 219.503,160.45 C219.265,160.291333 219.146,160.034667 219.146,159.68 C219.146,159.334667 219.265,159.061667 219.503,158.861 C219.741,158.660333 220.093333,158.56 220.56,158.56 C221.026667,158.56 221.414,158.651 221.722,158.833 C222.03,159.015 222.263333,159.218 222.422,159.442 L222.422,159.442 L223.164,158.77 C222.865333,158.406 222.517667,158.121333 222.121,157.916 C221.724333,157.710667 221.232,157.608 220.644,157.608 C220.28,157.608 219.939333,157.652333 219.622,157.741 C219.304667,157.829667 219.031667,157.962667 218.803,158.14 C218.574333,158.317333 218.394667,158.539 218.264,158.805 C218.133333,159.071 218.068,159.381333 218.068,159.736 C218.068,160.072 218.126333,160.361333 218.243,160.604 C218.359667,160.846667 218.523,161.049667 218.733,161.213 C218.943,161.376333 219.188,161.507 219.468,161.605 C219.748,161.703 220.056,161.775333 220.392,161.822 L220.392,161.822 L220.966,161.906 C221.442,161.980667 221.771,162.118333 221.953,162.319 C222.135,162.519667 222.226,162.76 222.226,163.04 C222.226,163.413333 222.093,163.702667 221.827,163.908 C221.561,164.113333 221.19,164.216 220.714,164.216 C220.256667,164.216 219.855333,164.120333 219.51,163.929 C219.164667,163.737667 218.852,163.464667 218.572,163.11 L218.572,163.11 L217.774,163.754 C218.100667,164.183333 218.490333,164.526333 218.943,164.783 C219.395667,165.039667 219.958,165.168 220.63,165.168 Z M228.008,165.168 C228.493333,165.168 228.934333,165.079333 229.331,164.902 C229.727667,164.724667 230.070667,164.470333 230.36,164.139 C230.649333,163.807667 230.873333,163.411 231.032,162.949 C231.190667,162.487 231.27,161.966667 231.27,161.388 C231.27,160.818667 231.190667,160.300667 231.032,159.834 C230.873333,159.367333 230.649333,158.968333 230.36,158.637 C230.070667,158.305667 229.727667,158.051333 229.331,157.874 C228.934333,157.696667 228.493333,157.608 228.008,157.608 C227.522667,157.608 227.079333,157.696667 226.678,157.874 C226.276667,158.051333 225.933667,158.305667 225.649,158.637 C225.364333,158.968333 225.142667,159.367333 224.984,159.834 C224.825333,160.300667 224.746,160.818667 224.746,161.388 C224.746,161.966667 224.825333,162.487 224.984,162.949 C225.142667,163.411 225.364333,163.807667 225.649,164.139 C225.933667,164.470333 226.276667,164.724667 226.678,164.902 C227.079333,165.079333 227.522667,165.168 228.008,165.168 Z M228.008,164.174 C227.401333,164.174 226.906667,163.987333 226.524,163.614 C226.141333,163.240667 225.95,162.671333 225.95,161.906 L225.95,161.906 L225.95,160.87 C225.95,160.104667 226.141333,159.535333 226.524,159.162 C226.906667,158.788667 227.401333,158.602 228.008,158.602 C228.614667,158.602 229.109333,158.788667 229.492,159.162 C229.874667,159.535333 230.066,160.104667 230.066,160.87 L230.066,160.87 L230.066,161.906 C230.066,162.671333 229.874667,163.240667 229.492,163.614 C229.109333,163.987333 228.614667,164.174 228.008,164.174 Z M235.848,165.168 C236.333333,165.168 236.774333,165.079333 237.171,164.902 C237.567667,164.724667 237.910667,164.470333 238.2,164.139 C238.489333,163.807667 238.713333,163.411 238.872,162.949 C239.030667,162.487 239.11,161.966667 239.11,161.388 C239.11,160.818667 239.030667,160.300667 238.872,159.834 C238.713333,159.367333 238.489333,158.968333 238.2,158.637 C237.910667,158.305667 237.567667,158.051333 237.171,157.874 C236.774333,157.696667 236.333333,157.608 235.848,157.608 C235.362667,157.608 234.919333,157.696667 234.518,157.874 C234.116667,158.051333 233.773667,158.305667 233.489,158.637 C233.204333,158.968333 232.982667,159.367333 232.824,159.834 C232.665333,160.300667 232.586,160.818667 232.586,161.388 C232.586,161.966667 232.665333,162.487 232.824,162.949 C232.982667,163.411 233.204333,163.807667 233.489,164.139 C233.773667,164.470333 234.116667,164.724667 234.518,164.902 C234.919333,165.079333 235.362667,165.168 235.848,165.168 Z M235.848,164.174 C235.241333,164.174 234.746667,163.987333 234.364,163.614 C233.981333,163.240667 233.79,162.671333 233.79,161.906 L233.79,161.906 L233.79,160.87 C233.79,160.104667 233.981333,159.535333 234.364,159.162 C234.746667,158.788667 235.241333,158.602 235.848,158.602 C236.454667,158.602 236.949333,158.788667 237.332,159.162 C237.714667,159.535333 237.906,160.104667 237.906,160.87 L237.906,160.87 L237.906,161.906 C237.906,162.671333 237.714667,163.240667 237.332,163.614 C236.949333,163.987333 236.454667,164.174 235.848,164.174 Z M242.078,165 L242.078,159.988 C242.078,159.754667 242.127,159.551667 242.225,159.379 C242.323,159.206333 242.456,159.064 242.624,158.952 C242.792,158.84 242.981,158.756 243.191,158.7 C243.401,158.644 243.618,158.616 243.842,158.616 C244.934,158.616 245.48,159.264667 245.48,160.562 L245.48,160.562 L245.48,165 L246.6,165 L246.6,160.366 C246.6,159.488667 246.383,158.809667 245.949,158.329 C245.515,157.848333 244.924667,157.608 244.178,157.608 C243.636667,157.608 243.205,157.729333 242.883,157.972 C242.561,158.214667 242.311333,158.541333 242.134,158.952 L242.134,158.952 L242.078,158.952 L242.078,157.776 L240.958,157.776 L240.958,165 L242.078,165 Z" id="Previewimagecomingsoon" fill="#ADADAD" fill-rule="nonzero"></path>
        <rect id="Rectangle-Copy-21" fill="#7ED321" x="99" y="-146" width="121" height="146"></rect>
    </g>
</svg>