<?xml version="1.0" encoding="UTF-8"?>
<!DOCTYPE svg PUBLIC "-//W3C//DTD SVG 1.1//EN" "http://www.w3.org/Graphics/SVG/1.1/DTD/svg11.dtd">
<svg xmlns="http://www.w3.org/2000/svg" version="1.1" width="640px" height="360px" style="shape-rendering:geometricPrecision; text-rendering:geometricPrecision; image-rendering:optimizeQuality; fill-rule:evenodd; clip-rule:evenodd" xmlns:xlink="http://www.w3.org/1999/xlink">
<g><path style="opacity:0.875" fill="#acacac" d="M 142.5,46.5 C 260.5,46.5 378.5,46.5 496.5,46.5C 496.5,135.167 496.5,223.833 496.5,312.5C 378.5,312.5 260.5,312.5 142.5,312.5C 142.5,223.833 142.5,135.167 142.5,46.5 Z"/></g>
<g><path style="opacity:1" fill="#fefefe" d="M 144.5,48.5 C 261.167,48.5 377.833,48.5 494.5,48.5C 494.5,135.833 494.5,223.167 494.5,310.5C 377.833,310.5 261.167,310.5 144.5,310.5C 144.5,223.167 144.5,135.833 144.5,48.5 Z"/></g>
<g><path style="opacity:1" fill="#8c8d8c" d="M 155.5,65.5 C 171.5,65.5 187.5,65.5 203.5,65.5C 203.5,66.8333 203.5,68.1667 203.5,69.5C 187.5,69.5 171.5,69.5 155.5,69.5C 155.5,68.1667 155.5,66.8333 155.5,65.5 Z"/></g>
<g><path style="opacity:1" fill="#8c8d8c" d="M 249.5,65.5 C 296.167,65.5 342.833,65.5 389.5,65.5C 389.5,67.5 389.5,69.5 389.5,71.5C 342.833,71.5 296.167,71.5 249.5,71.5C 249.5,69.5 249.5,67.5 249.5,65.5 Z"/></g>
<g><path style="opacity:1" fill="#8c8d8c" d="M 249.5,79.5 C 276.167,79.5 302.833,79.5 329.5,79.5C 329.5,81.5 329.5,83.5 329.5,85.5C 302.833,85.5 276.167,85.5 249.5,85.5C 249.5,83.5 249.5,81.5 249.5,79.5 Z"/></g>
<g><path style="opacity:1" fill="#8c8d8c" d="M 249.5,103.5 C 276.167,103.5 302.833,103.5 329.5,103.5C 329.5,104.5 329.5,105.5 329.5,106.5C 302.833,106.5 276.167,106.5 249.5,106.5C 249.5,105.5 249.5,104.5 249.5,103.5 Z"/></g>
<g><path style="opacity:1" fill="#a7a8a7" d="M 249.5,110.5 C 296.167,110.5 342.833,110.5 389.5,110.5C 389.5,111.5 389.5,112.5 389.5,113.5C 342.833,113.5 296.167,113.5 249.5,113.5C 249.5,112.5 249.5,111.5 249.5,110.5 Z"/></g>
<g><path style="opacity:1" fill="#a7a8a7" d="M 249.5,117.5 C 286.833,117.5 324.167,117.5 361.5,117.5C 361.5,118.5 361.5,119.5 361.5,120.5C 324.167,120.5 286.833,120.5 249.5,120.5C 249.5,119.5 249.5,118.5 249.5,117.5 Z"/></g>
<g><path style="opacity:1" fill="#c5c5c5" d="M 249.5,137.5 C 296.167,137.5 342.833,137.5 389.5,137.5C 389.5,160.833 389.5,184.167 389.5,207.5C 342.833,207.5 296.167,207.5 249.5,207.5C 249.5,184.167 249.5,160.833 249.5,137.5 Z"/></g>
<g><path style="opacity:1" fill="#646464" d="M 311.5,162.5 C 317.758,162.19 323.924,162.524 330,163.5C 330.809,169.749 330.642,175.916 329.5,182C 323.251,182.809 317.084,182.642 311,181.5C 310.21,175.085 310.376,168.752 311.5,162.5 Z"/></g>
<g><path style="opacity:1" fill="#c5c5c5" d="M 315.5,172.5 C 317.544,173.031 319.211,174.198 320.5,176C 324.135,174.645 326.802,175.812 328.5,179.5C 323.208,180.495 317.875,180.828 312.5,180.5C 312.016,177.212 313.016,174.545 315.5,172.5 Z"/></g>
<g><path style="opacity:1" fill="#c0c0c0" d="M 312.5,164.5 C 317.833,164.5 323.167,164.5 328.5,164.5C 328.666,168.514 328.499,172.514 328,176.5C 326.684,173.953 324.851,173.287 322.5,174.5C 320.772,172.774 318.772,171.441 316.5,170.5C 315.5,171.167 314.5,171.833 313.5,172.5C 312.52,169.914 312.187,167.247 312.5,164.5 Z"/></g>
<g><path style="opacity:1" fill="#636363" d="M 320.5,166.5 C 322.665,166.116 324.332,166.783 325.5,168.5C 324.332,170.217 322.665,170.884 320.5,170.5C 320.5,169.167 320.5,167.833 320.5,166.5 Z"/></g>
<g><path style="opacity:1" fill="#8c8d8c" d="M 249.5,223.5 C 276.167,223.5 302.833,223.5 329.5,223.5C 329.5,224.5 329.5,225.5 329.5,226.5C 302.833,226.5 276.167,226.5 249.5,226.5C 249.5,225.5 249.5,224.5 249.5,223.5 Z"/></g>
<g><path style="opacity:1" fill="#a7a8a7" d="M 249.5,230.5 C 296.167,230.5 342.833,230.5 389.5,230.5C 389.5,231.5 389.5,232.5 389.5,233.5C 342.833,233.5 296.167,233.5 249.5,233.5C 249.5,232.5 249.5,231.5 249.5,230.5 Z"/></g>
<g><path style="opacity:1" fill="#a7a8a7" d="M 249.5,237.5 C 286.833,237.5 324.167,237.5 361.5,237.5C 361.5,238.5 361.5,239.5 361.5,240.5C 324.167,240.5 286.833,240.5 249.5,240.5C 249.5,239.5 249.5,238.5 249.5,237.5 Z"/></g>
<g><path style="opacity:1" fill="#cfcfcf" d="M 251.5,256.5 C 274.836,256.333 298.169,256.5 321.5,257C 322.654,268.424 322.82,279.924 322,291.5C 298.573,292.66 275.073,292.827 251.5,292C 250.176,280.167 250.176,268.333 251.5,256.5 Z"/></g>
<g><path style="opacity:1" fill="#f3f3f4" d="M 252.5,258.5 C 275.167,258.5 297.833,258.5 320.5,258.5C 320.5,269.167 320.5,279.833 320.5,290.5C 297.833,290.5 275.167,290.5 252.5,290.5C 252.5,279.833 252.5,269.167 252.5,258.5 Z"/></g>
<g><path style="opacity:1" fill="#abc3f7" d="M 311.5,279.5 C 315.184,281.203 315.351,283.203 312,285.5C 310.796,284.141 309.296,283.141 307.5,282.5C 309.332,281.943 310.665,280.943 311.5,279.5 Z"/></g>
<g><path style="opacity:1" fill="#8c8d8c" d="M 257.5,263.5 C 268.167,263.5 278.833,263.5 289.5,263.5C 289.5,264.5 289.5,265.5 289.5,266.5C 278.833,266.5 268.167,266.5 257.5,266.5C 257.5,265.5 257.5,264.5 257.5,263.5 Z"/></g>
</svg>
