<?xml version="1.0" encoding="UTF-8"?>
<svg width="240px" height="240px" viewBox="0 0 240 240" version="1.1" xmlns="http://www.w3.org/2000/svg" xmlns:xlink="http://www.w3.org/1999/xlink">
    <title>content-group-horizontal</title>
    <g id="content-group-horizontal" stroke="none" stroke-width="1" fill="none" fill-rule="evenodd">
        <rect fill="#FFFFFF" x="0" y="0" width="240" height="240"></rect>
        <g id="Group-3" transform="translate(32.000000, 65.000000)">
            <rect id="Rectangle" stroke="#979797" fill="#FFFFFF" x="0" y="0" width="176" height="126"></rect>
            <g id="Group-4" transform="translate(47.000000, 8.000000)">
                <g id="Group-2" fill="#525252">
                    <rect id="Rectangle-Copy" x="0" y="0" width="60" height="4"></rect>
                    <rect id="Rectangle-Copy-2" x="0" y="8" width="40" height="4"></rect>
                </g>
                <g id="Group-6" transform="translate(0.000000, 28.000000)">
                    <g id="Group-5" transform="translate(43.000000, 0.000000)" fill="#A8A8A8">
                        <rect id="Rectangle-Copy-4" x="0" y="0" width="60" height="2"></rect>
                        <rect id="Rectangle-Copy-5" x="0" y="4" width="60" height="2"></rect>
                        <rect id="Rectangle-Copy-6" x="0" y="8" width="60" height="2"></rect>
                        <rect id="Rectangle-Copy-8" x="0" y="12" width="38.4615385" height="2"></rect>
                    </g>
                    <rect id="Rectangle-Copy-2" fill="#525252" x="0" y="0" width="28" height="4"></rect>
                </g>
                <g id="Group-6-Copy" transform="translate(0.000000, 58.000000)">
                    <g id="Group-5" transform="translate(43.000000, 0.000000)" fill="#A8A8A8">
                        <rect id="Rectangle-Copy-4" x="0" y="0" width="60" height="2"></rect>
                        <rect id="Rectangle-Copy-5" x="0" y="4" width="60" height="2"></rect>
                        <rect id="Rectangle-Copy-6" x="0" y="8" width="60" height="2"></rect>
                        <rect id="Rectangle-Copy-8" x="0" y="12" width="38.4615385" height="2"></rect>
                    </g>
                    <rect id="Rectangle-Copy-2" fill="#525252" x="0" y="0" width="28" height="4"></rect>
                </g>
                <g id="Group-6-Copy-2" transform="translate(0.000000, 88.000000)">
                    <g id="Group-5" transform="translate(43.000000, 0.000000)" fill="#A8A8A8">
                        <rect id="Rectangle-Copy-4" x="0" y="0" width="60" height="2"></rect>
                        <rect id="Rectangle-Copy-5" x="0" y="4" width="60" height="2"></rect>
                        <rect id="Rectangle-Copy-6" x="0" y="8" width="60" height="2"></rect>
                        <rect id="Rectangle-Copy-8" x="0" y="12" width="38.4615385" height="2"></rect>
                    </g>
                    <rect id="Rectangle-Copy-2" fill="#525252" x="0" y="0" width="28" height="4"></rect>
                </g>
            </g>
        </g>
    </g>
</svg>