<?xml version="1.0" encoding="UTF-8"?>
<!DOCTYPE svg PUBLIC "-//W3C//DTD SVG 1.1//EN" "http://www.w3.org/Graphics/SVG/1.1/DTD/svg11.dtd">
<svg xmlns="http://www.w3.org/2000/svg" version="1.1" width="640px" height="360px" style="shape-rendering:geometricPrecision; text-rendering:geometricPrecision; image-rendering:optimizeQuality; fill-rule:evenodd; clip-rule:evenodd" xmlns:xlink="http://www.w3.org/1999/xlink">
<g><path style="opacity:1" fill="#a7a8a7" d="M 142.5,68.5 C 260.5,68.5 378.5,68.5 496.5,68.5C 496.5,142.5 496.5,216.5 496.5,290.5C 378.5,290.5 260.5,290.5 142.5,290.5C 142.5,216.5 142.5,142.5 142.5,68.5 Z"/></g>
<g><path style="opacity:1" fill="#fefefe" d="M 144.5,70.5 C 261.167,70.5 377.833,70.5 494.5,70.5C 494.5,143.167 494.5,215.833 494.5,288.5C 377.833,288.5 261.167,288.5 144.5,288.5C 144.5,215.833 144.5,143.167 144.5,70.5 Z"/></g>
<g><path style="opacity:1" fill="#8c8d8c" d="M 237.5,87.5 C 284.167,87.5 330.833,87.5 377.5,87.5C 377.5,89.5 377.5,91.5 377.5,93.5C 330.833,93.5 284.167,93.5 237.5,93.5C 237.5,91.5 237.5,89.5 237.5,87.5 Z"/></g>
<g><path style="opacity:1" fill="#8c8d8c" d="M 237.5,101.5 C 284.167,101.5 330.833,101.5 377.5,101.5C 377.5,103.5 377.5,105.5 377.5,107.5C 330.833,107.5 284.167,107.5 237.5,107.5C 237.5,105.5 237.5,103.5 237.5,101.5 Z"/></g>
<g><path style="opacity:1" fill="#8c8d8c" d="M 237.5,115.5 C 264.167,115.5 290.833,115.5 317.5,115.5C 317.5,117.5 317.5,119.5 317.5,121.5C 290.833,121.5 264.167,121.5 237.5,121.5C 237.5,119.5 237.5,117.5 237.5,115.5 Z"/></g>
<g><path style="opacity:1" fill="#a7a8a7" d="M 281.5,143.5 C 322.167,143.5 362.833,143.5 403.5,143.5C 403.5,144.5 403.5,145.5 403.5,146.5C 362.833,146.5 322.167,146.5 281.5,146.5C 281.5,145.5 281.5,144.5 281.5,143.5 Z"/></g>
<g><path style="opacity:1" fill="#838383" d="M 247.5,146.5 C 247.56,145.957 247.893,145.624 248.5,145.5C 249.5,146.167 250.5,146.833 251.5,147.5C 252.62,146.167 253.953,145.667 255.5,146C 254.315,147.353 252.981,148.52 251.5,149.5C 250.148,148.476 248.815,147.476 247.5,146.5 Z"/></g>
<g><path style="opacity:1" fill="#7b7b7b" d="M 265.5,148.5 C 264.373,147.878 263.373,147.045 262.5,146C 264.489,145.481 265.489,146.314 265.5,148.5 Z"/></g>
<g><path style="opacity:1" fill="#7b7b7b" d="M 237.5,148.5 C 237.511,146.314 238.511,145.481 240.5,146C 239.627,147.045 238.627,147.878 237.5,148.5 Z"/></g>
<g><path style="opacity:1" fill="#a7a8a7" d="M 281.5,150.5 C 322.167,150.5 362.833,150.5 403.5,150.5C 403.5,151.5 403.5,152.5 403.5,153.5C 362.833,153.5 322.167,153.5 281.5,153.5C 281.5,152.5 281.5,151.5 281.5,150.5 Z"/></g>
<g><path style="opacity:1" fill="#8a8a8a" d="M 237.5,148.5 C 237.543,151.587 237.71,154.587 238,157.5C 235.227,154.463 235.061,151.463 237.5,148.5 Z"/></g>
<g><path style="opacity:1" fill="#a7a8a7" d="M 281.5,157.5 C 322.167,157.5 362.833,157.5 403.5,157.5C 403.5,158.5 403.5,159.5 403.5,160.5C 362.833,160.5 322.167,160.5 281.5,160.5C 281.5,159.5 281.5,158.5 281.5,157.5 Z"/></g>
<g><path style="opacity:1" fill="#a5a5a5" d="M 265.5,148.5 C 267.764,151.71 267.598,155.044 265,158.5C 261.571,162.439 257.737,165.772 253.5,168.5C 256.796,164.702 260.296,161.036 264,157.5C 265.289,154.649 265.789,151.649 265.5,148.5 Z"/></g>
<g><path style="opacity:1" fill="#a7a8a7" d="M 281.5,164.5 C 292.167,164.5 302.833,164.5 313.5,164.5C 313.5,165.5 313.5,166.5 313.5,167.5C 302.833,167.5 292.167,167.5 281.5,167.5C 281.5,166.5 281.5,165.5 281.5,164.5 Z"/></g>
<g><path style="opacity:1" fill="#969696" d="M 253.5,168.5 C 251.837,171.052 250.17,170.886 248.5,168C 250.107,168.019 251.774,168.185 253.5,168.5 Z"/></g>
<g><path style="opacity:1" fill="#888888" d="M 255.5,189.5 C 253.18,187.774 250.513,187.107 247.5,187.5C 250.995,184.663 253.661,185.33 255.5,189.5 Z"/></g>
<g><path style="opacity:1" fill="#a7a8a7" d="M 281.5,187.5 C 322.167,187.5 362.833,187.5 403.5,187.5C 403.5,188.5 403.5,189.5 403.5,190.5C 362.833,190.5 322.167,190.5 281.5,190.5C 281.5,189.5 281.5,188.5 281.5,187.5 Z"/></g>
<g><path style="opacity:1" fill="#949494" d="M 247.5,187.5 C 245.375,190.584 244.875,193.918 246,197.5C 242.25,193.31 242.75,189.977 247.5,187.5 Z"/></g>
<g><path style="opacity:1" fill="#9e9e9e" d="M 240.5,203.5 C 243.102,202.031 245.269,202.698 247,205.5C 247.333,200.833 247.667,196.167 248,191.5C 249.667,188.833 251.333,188.833 253,191.5C 253.497,194.146 253.664,196.813 253.5,199.5C 263.81,199.094 266.977,203.76 263,213.5C 262.667,209.833 262.333,206.167 262,202.5C 258.924,201.712 255.758,201.212 252.5,201C 251.87,197.871 251.204,194.704 250.5,191.5C 249.833,197.167 249.167,202.833 248.5,208.5C 246.684,207.185 245.017,205.685 243.5,204C 242.552,203.517 241.552,203.351 240.5,203.5 Z"/></g>
<g><path style="opacity:1" fill="#a7a8a7" d="M 281.5,194.5 C 322.167,194.5 362.833,194.5 403.5,194.5C 403.5,195.5 403.5,196.5 403.5,197.5C 362.833,197.5 322.167,197.5 281.5,197.5C 281.5,196.5 281.5,195.5 281.5,194.5 Z"/></g>
<g><path style="opacity:1" fill="#8e8e8e" d="M 255.5,189.5 C 258.135,192.181 257.969,194.848 255,197.5C 255.255,194.918 255.422,192.252 255.5,189.5 Z"/></g>
<g><path style="opacity:1" fill="#a7a8a7" d="M 281.5,201.5 C 322.167,201.5 362.833,201.5 403.5,201.5C 403.5,202.5 403.5,203.5 403.5,204.5C 362.833,204.5 322.167,204.5 281.5,204.5C 281.5,203.5 281.5,202.5 281.5,201.5 Z"/></g>
<g><path style="opacity:1" fill="#7f7f7f" d="M 240.5,203.5 C 242.006,205.789 243.173,208.123 244,210.5C 242.667,209.167 241.333,207.833 240,206.5C 239.26,205.251 239.427,204.251 240.5,203.5 Z"/></g>
<g><path style="opacity:1" fill="#a7a8a7" d="M 281.5,208.5 C 292.167,208.5 302.833,208.5 313.5,208.5C 313.5,209.5 313.5,210.5 313.5,211.5C 302.833,211.5 292.167,211.5 281.5,211.5C 281.5,210.5 281.5,209.5 281.5,208.5 Z"/></g>
<g><path style="opacity:1" fill="#929292" d="M 250.5,215.5 C 248.804,215.315 247.471,214.481 246.5,213C 248.412,212.721 249.746,213.554 250.5,215.5 Z"/></g>
<g><path style="opacity:1" fill="#959595" d="M 250.5,215.5 C 253.85,215.335 257.183,215.502 260.5,216C 256.901,218.118 253.568,217.951 250.5,215.5 Z"/></g>
<g><path style="opacity:1" fill="#909090" d="M 240.5,235.5 C 246.397,228.89 253.064,228.056 260.5,233C 256.022,231.622 251.356,231.289 246.5,232C 244.595,233.421 242.595,234.588 240.5,235.5 Z"/></g>
<g><path style="opacity:1" fill="#a7a8a7" d="M 281.5,231.5 C 322.167,231.5 362.833,231.5 403.5,231.5C 403.5,232.5 403.5,233.5 403.5,234.5C 362.833,234.5 322.167,234.5 281.5,234.5C 281.5,233.5 281.5,232.5 281.5,231.5 Z"/></g>
<g><path style="opacity:1" fill="#898989" d="M 256.5,246.5 C 255.188,245.855 254.188,244.855 253.5,243.5C 255.561,238.397 254.061,236.73 249,238.5C 248.96,240.724 248.794,242.724 248.5,244.5C 245.709,240.388 246.709,237.388 251.5,235.5C 254.167,236.167 255.833,237.833 256.5,240.5C 255.377,242.482 255.377,244.482 256.5,246.5 Z"/></g>
<g><path style="opacity:1" fill="#a7a8a7" d="M 281.5,238.5 C 322.167,238.5 362.833,238.5 403.5,238.5C 403.5,239.5 403.5,240.5 403.5,241.5C 362.833,241.5 322.167,241.5 281.5,241.5C 281.5,240.5 281.5,239.5 281.5,238.5 Z"/></g>
<g><path style="opacity:1" fill="#969696" d="M 240.5,235.5 C 238.374,238.439 237.374,241.772 237.5,245.5C 237.611,248.685 238.111,251.685 239,254.5C 233.952,247.621 234.452,241.287 240.5,235.5 Z"/></g>
<g><path style="opacity:1" fill="#989898" d="M 262.5,236.5 C 263.077,235.227 263.743,235.227 264.5,236.5C 268.581,242.681 268.415,248.681 264,254.5C 264.889,251.685 265.389,248.685 265.5,245.5C 265.864,241.948 264.864,238.948 262.5,236.5 Z"/></g>
<g><path style="opacity:1" fill="#a7a8a7" d="M 281.5,245.5 C 322.167,245.5 362.833,245.5 403.5,245.5C 403.5,246.5 403.5,247.5 403.5,248.5C 362.833,248.5 322.167,248.5 281.5,248.5C 281.5,247.5 281.5,246.5 281.5,245.5 Z"/></g>
<g><path style="opacity:1" fill="#9e9e9e" d="M 248.5,244.5 C 247.043,247.255 246.043,250.255 245.5,253.5C 244.359,251.579 244.192,249.579 245,247.5C 245.422,245.574 246.589,244.574 248.5,244.5 Z"/></g>
<g><path style="opacity:1" fill="#9e9e9e" d="M 256.5,246.5 C 258.502,248.526 258.836,250.859 257.5,253.5C 256.526,251.257 256.192,248.924 256.5,246.5 Z"/></g>
<g><path style="opacity:1" fill="#a7a8a7" d="M 281.5,252.5 C 292.167,252.5 302.833,252.5 313.5,252.5C 313.5,253.5 313.5,254.5 313.5,255.5C 302.833,255.5 292.167,255.5 281.5,255.5C 281.5,254.5 281.5,253.5 281.5,252.5 Z"/></g>
<g><path style="opacity:1" fill="#929292" d="M 241.5,257.5 C 241.56,256.957 241.893,256.624 242.5,256.5C 245.023,258.857 248.023,259.857 251.5,259.5C 254.685,259.389 257.685,258.889 260.5,258C 254.019,262.801 247.685,262.635 241.5,257.5 Z"/></g>
</svg>
