<?xml version="1.0" encoding="UTF-8"?>
<!DOCTYPE svg PUBLIC "-//W3C//DTD SVG 1.1//EN" "http://www.w3.org/Graphics/SVG/1.1/DTD/svg11.dtd">
<svg xmlns="http://www.w3.org/2000/svg" version="1.1" width="640px" height="360px" style="shape-rendering:geometricPrecision; text-rendering:geometricPrecision; image-rendering:optimizeQuality; fill-rule:evenodd; clip-rule:evenodd" xmlns:xlink="http://www.w3.org/1999/xlink">
<g><path style="opacity:1" fill="#a7a8a7" d="M 142.5,46.5 C 260.5,46.5 378.5,46.5 496.5,46.5C 496.5,135.167 496.5,223.833 496.5,312.5C 378.5,312.5 260.5,312.5 142.5,312.5C 142.5,223.833 142.5,135.167 142.5,46.5 Z"/></g>
<g><path style="opacity:1" fill="#fefffe" d="M 144.5,48.5 C 261.167,48.5 377.833,48.5 494.5,48.5C 494.5,135.833 494.5,223.167 494.5,310.5C 377.833,310.5 261.167,310.5 144.5,310.5C 144.5,223.167 144.5,135.833 144.5,48.5 Z"/></g>
<g><path style="opacity:1" fill="#8c8d8c" d="M 233.5,65.5 C 286.833,65.5 340.167,65.5 393.5,65.5C 393.5,67.5 393.5,69.5 393.5,71.5C 340.167,71.5 286.833,71.5 233.5,71.5C 233.5,69.5 233.5,67.5 233.5,65.5 Z"/></g>
<g><path style="opacity:1" fill="#8c8d8c" d="M 233.5,79.5 C 265.5,79.5 297.5,79.5 329.5,79.5C 329.5,81.5 329.5,83.5 329.5,85.5C 297.5,85.5 265.5,85.5 233.5,85.5C 233.5,83.5 233.5,81.5 233.5,79.5 Z"/></g>
<g><path style="opacity:1" fill="#a7a8a7" d="M 232.5,108.5 C 305.167,108.5 377.833,108.5 450.5,108.5C 450.5,166.5 450.5,224.5 450.5,282.5C 377.833,282.5 305.167,282.5 232.5,282.5C 232.5,224.5 232.5,166.5 232.5,108.5 Z"/></g>
<g><path style="opacity:1" fill="#f2f2f3" d="M 234.5,110.5 C 269.833,110.5 305.167,110.5 340.5,110.5C 340.5,138.5 340.5,166.5 340.5,194.5C 305.167,194.5 269.833,194.5 234.5,194.5C 234.5,166.5 234.5,138.5 234.5,110.5 Z"/></g>
<g><path style="opacity:1" fill="#f2f2f3" d="M 342.5,110.5 C 377.833,110.5 413.167,110.5 448.5,110.5C 448.5,138.5 448.5,166.5 448.5,194.5C 413.167,194.5 377.833,194.5 342.5,194.5C 342.5,166.5 342.5,138.5 342.5,110.5 Z"/></g>
<g><path style="opacity:1" fill="#8c8d8c" d="M 243.5,119.5 C 259.5,119.5 275.5,119.5 291.5,119.5C 291.5,120.833 291.5,122.167 291.5,123.5C 275.5,123.5 259.5,123.5 243.5,123.5C 243.5,122.167 243.5,120.833 243.5,119.5 Z"/></g>
<g><path style="opacity:1" fill="#8c8d8c" d="M 351.5,119.5 C 367.5,119.5 383.5,119.5 399.5,119.5C 399.5,120.833 399.5,122.167 399.5,123.5C 383.5,123.5 367.5,123.5 351.5,123.5C 351.5,122.167 351.5,120.833 351.5,119.5 Z"/></g>
<g><path style="opacity:1" fill="#a7a8a7" d="M 243.5,131.5 C 272.833,131.5 302.167,131.5 331.5,131.5C 331.5,132.5 331.5,133.5 331.5,134.5C 302.167,134.5 272.833,134.5 243.5,134.5C 243.5,133.5 243.5,132.5 243.5,131.5 Z"/></g>
<g><path style="opacity:1" fill="#a7a8a7" d="M 351.5,131.5 C 380.833,131.5 410.167,131.5 439.5,131.5C 439.5,132.5 439.5,133.5 439.5,134.5C 410.167,134.5 380.833,134.5 351.5,134.5C 351.5,133.5 351.5,132.5 351.5,131.5 Z"/></g>
<g><path style="opacity:1" fill="#a7a8a7" d="M 243.5,138.5 C 272.833,138.5 302.167,138.5 331.5,138.5C 331.5,139.5 331.5,140.5 331.5,141.5C 302.167,141.5 272.833,141.5 243.5,141.5C 243.5,140.5 243.5,139.5 243.5,138.5 Z"/></g>
<g><path style="opacity:1" fill="#a7a8a7" d="M 351.5,138.5 C 380.833,138.5 410.167,138.5 439.5,138.5C 439.5,139.5 439.5,140.5 439.5,141.5C 410.167,141.5 380.833,141.5 351.5,141.5C 351.5,140.5 351.5,139.5 351.5,138.5 Z"/></g>
<g><path style="opacity:1" fill="#a7a8a7" d="M 243.5,145.5 C 272.833,145.5 302.167,145.5 331.5,145.5C 331.5,146.5 331.5,147.5 331.5,148.5C 302.167,148.5 272.833,148.5 243.5,148.5C 243.5,147.5 243.5,146.5 243.5,145.5 Z"/></g>
<g><path style="opacity:1" fill="#a7a8a7" d="M 351.5,145.5 C 380.833,145.5 410.167,145.5 439.5,145.5C 439.5,146.5 439.5,147.5 439.5,148.5C 410.167,148.5 380.833,148.5 351.5,148.5C 351.5,147.5 351.5,146.5 351.5,145.5 Z"/></g>
<g><path style="opacity:1" fill="#a7a8a7" d="M 243.5,152.5 C 254.167,152.5 264.833,152.5 275.5,152.5C 275.5,153.5 275.5,154.5 275.5,155.5C 264.833,155.5 254.167,155.5 243.5,155.5C 243.5,154.5 243.5,153.5 243.5,152.5 Z"/></g>
<g><path style="opacity:1" fill="#a7a8a7" d="M 351.5,152.5 C 362.167,152.5 372.833,152.5 383.5,152.5C 383.5,153.5 383.5,154.5 383.5,155.5C 372.833,155.5 362.167,155.5 351.5,155.5C 351.5,154.5 351.5,153.5 351.5,152.5 Z"/></g>
<g><path style="opacity:1" fill="#78a2f8" d="M 329.5,178.5 C 329.5,179.833 329.5,181.167 329.5,182.5C 326.41,186.478 326.077,186.311 328.5,182C 316.5,181 316.5,180 328.5,179C 326.077,174.689 326.41,174.522 329.5,178.5 Z"/></g>
<g><path style="opacity:1" fill="#2c73fd" d="M 329.5,178.5 C 332.167,179.833 332.167,181.167 329.5,182.5C 329.5,181.167 329.5,179.833 329.5,178.5 Z"/></g>
<g><path style="opacity:1" fill="#78a2f8" d="M 437.5,178.5 C 437.5,179.833 437.5,181.167 437.5,182.5C 434.41,186.478 434.077,186.311 436.5,182C 424.5,181 424.5,180 436.5,179C 434.077,174.689 434.41,174.522 437.5,178.5 Z"/></g>
<g><path style="opacity:1" fill="#2c73fd" d="M 437.5,178.5 C 440.167,179.833 440.167,181.167 437.5,182.5C 437.5,181.167 437.5,179.833 437.5,178.5 Z"/></g>
<g><path style="opacity:1" fill="#f2f2f3" d="M 234.5,196.5 C 269.833,196.5 305.167,196.5 340.5,196.5C 340.5,224.5 340.5,252.5 340.5,280.5C 305.167,280.5 269.833,280.5 234.5,280.5C 234.5,252.5 234.5,224.5 234.5,196.5 Z"/></g>
<g><path style="opacity:1" fill="#f2f2f3" d="M 342.5,196.5 C 377.833,196.5 413.167,196.5 448.5,196.5C 448.5,224.5 448.5,252.5 448.5,280.5C 413.167,280.5 377.833,280.5 342.5,280.5C 342.5,252.5 342.5,224.5 342.5,196.5 Z"/></g>
<g><path style="opacity:1" fill="#8c8d8c" d="M 243.5,205.5 C 259.5,205.5 275.5,205.5 291.5,205.5C 291.5,206.833 291.5,208.167 291.5,209.5C 275.5,209.5 259.5,209.5 243.5,209.5C 243.5,208.167 243.5,206.833 243.5,205.5 Z"/></g>
<g><path style="opacity:1" fill="#8c8d8c" d="M 351.5,205.5 C 367.5,205.5 383.5,205.5 399.5,205.5C 399.5,206.833 399.5,208.167 399.5,209.5C 383.5,209.5 367.5,209.5 351.5,209.5C 351.5,208.167 351.5,206.833 351.5,205.5 Z"/></g>
<g><path style="opacity:1" fill="#a7a8a7" d="M 243.5,217.5 C 272.833,217.5 302.167,217.5 331.5,217.5C 331.5,218.5 331.5,219.5 331.5,220.5C 302.167,220.5 272.833,220.5 243.5,220.5C 243.5,219.5 243.5,218.5 243.5,217.5 Z"/></g>
<g><path style="opacity:1" fill="#a7a8a7" d="M 351.5,217.5 C 380.833,217.5 410.167,217.5 439.5,217.5C 439.5,218.5 439.5,219.5 439.5,220.5C 410.167,220.5 380.833,220.5 351.5,220.5C 351.5,219.5 351.5,218.5 351.5,217.5 Z"/></g>
<g><path style="opacity:1" fill="#a7a8a7" d="M 243.5,224.5 C 272.833,224.5 302.167,224.5 331.5,224.5C 331.5,225.5 331.5,226.5 331.5,227.5C 302.167,227.5 272.833,227.5 243.5,227.5C 243.5,226.5 243.5,225.5 243.5,224.5 Z"/></g>
<g><path style="opacity:1" fill="#a7a8a7" d="M 351.5,224.5 C 380.833,224.5 410.167,224.5 439.5,224.5C 439.5,225.5 439.5,226.5 439.5,227.5C 410.167,227.5 380.833,227.5 351.5,227.5C 351.5,226.5 351.5,225.5 351.5,224.5 Z"/></g>
<g><path style="opacity:1" fill="#a7a8a7" d="M 243.5,231.5 C 272.833,231.5 302.167,231.5 331.5,231.5C 331.5,232.5 331.5,233.5 331.5,234.5C 302.167,234.5 272.833,234.5 243.5,234.5C 243.5,233.5 243.5,232.5 243.5,231.5 Z"/></g>
<g><path style="opacity:1" fill="#a7a8a7" d="M 351.5,231.5 C 380.833,231.5 410.167,231.5 439.5,231.5C 439.5,232.5 439.5,233.5 439.5,234.5C 410.167,234.5 380.833,234.5 351.5,234.5C 351.5,233.5 351.5,232.5 351.5,231.5 Z"/></g>
<g><path style="opacity:1" fill="#a7a8a7" d="M 243.5,238.5 C 254.167,238.5 264.833,238.5 275.5,238.5C 275.5,239.5 275.5,240.5 275.5,241.5C 264.833,241.5 254.167,241.5 243.5,241.5C 243.5,240.5 243.5,239.5 243.5,238.5 Z"/></g>
<g><path style="opacity:1" fill="#a7a8a7" d="M 351.5,238.5 C 362.167,238.5 372.833,238.5 383.5,238.5C 383.5,239.5 383.5,240.5 383.5,241.5C 372.833,241.5 362.167,241.5 351.5,241.5C 351.5,240.5 351.5,239.5 351.5,238.5 Z"/></g>
<g><path style="opacity:1" fill="#78a2f8" d="M 329.5,264.5 C 329.5,265.833 329.5,267.167 329.5,268.5C 326.41,272.478 326.077,272.311 328.5,268C 316.5,267 316.5,266 328.5,265C 326.077,260.689 326.41,260.522 329.5,264.5 Z"/></g>
<g><path style="opacity:1" fill="#2c73fd" d="M 329.5,264.5 C 332.167,265.833 332.167,267.167 329.5,268.5C 329.5,267.167 329.5,265.833 329.5,264.5 Z"/></g>
<g><path style="opacity:1" fill="#719cf9" d="M 434.5,261.5 C 436.479,262.812 438.145,264.479 439.5,266.5C 438.185,268.316 436.685,269.983 435,271.5C 434.493,270.004 434.993,268.837 436.5,268C 424.5,267 424.5,266 436.5,265C 435.177,264.184 434.511,263.017 434.5,261.5 Z"/></g>
</svg>
