<?xml version="1.0" encoding="UTF-8"?>
<!DOCTYPE svg PUBLIC "-//W3C//DTD SVG 1.1//EN" "http://www.w3.org/Graphics/SVG/1.1/DTD/svg11.dtd">
<svg xmlns="http://www.w3.org/2000/svg" version="1.1" width="640px" height="360px" style="shape-rendering:geometricPrecision; text-rendering:geometricPrecision; image-rendering:optimizeQuality; fill-rule:evenodd; clip-rule:evenodd" xmlns:xlink="http://www.w3.org/1999/xlink">
<g><path style="opacity:1" fill="#a7a8a7" d="M 142.5,68.5 C 260.5,68.5 378.5,68.5 496.5,68.5C 496.5,142.5 496.5,216.5 496.5,290.5C 378.5,290.5 260.5,290.5 142.5,290.5C 142.5,216.5 142.5,142.5 142.5,68.5 Z"/></g>
<g><path style="opacity:1" fill="#fefffe" d="M 144.5,70.5 C 261.167,70.5 377.833,70.5 494.5,70.5C 494.5,143.167 494.5,215.833 494.5,288.5C 377.833,288.5 261.167,288.5 144.5,288.5C 144.5,215.833 144.5,143.167 144.5,70.5 Z"/></g>
<g><path style="opacity:1" fill="#8c8d8c" d="M 235.5,87.5 C 288.833,87.5 342.167,87.5 395.5,87.5C 395.5,89.5 395.5,91.5 395.5,93.5C 342.167,93.5 288.833,93.5 235.5,93.5C 235.5,91.5 235.5,89.5 235.5,87.5 Z"/></g>
<g><path style="opacity:1" fill="#8c8d8c" d="M 235.5,101.5 C 288.833,101.5 342.167,101.5 395.5,101.5C 395.5,103.5 395.5,105.5 395.5,107.5C 342.167,107.5 288.833,107.5 235.5,107.5C 235.5,105.5 235.5,103.5 235.5,101.5 Z"/></g>
<g><path style="opacity:1" fill="#8c8d8c" d="M 235.5,115.5 C 262.167,115.5 288.833,115.5 315.5,115.5C 315.5,117.5 315.5,119.5 315.5,121.5C 288.833,121.5 262.167,121.5 235.5,121.5C 235.5,119.5 235.5,117.5 235.5,115.5 Z"/></g>
<g><path style="opacity:1" fill="#8c8d8c" d="M 235.5,145.5 C 262.167,145.5 288.833,145.5 315.5,145.5C 315.5,147.5 315.5,149.5 315.5,151.5C 288.833,151.5 262.167,151.5 235.5,151.5C 235.5,149.5 235.5,147.5 235.5,145.5 Z"/></g>
<g><path style="opacity:1" fill="#a7a8a7" d="M 235.5,165.5 C 288.833,165.5 342.167,165.5 395.5,165.5C 395.5,166.833 395.5,168.167 395.5,169.5C 342.167,169.5 288.833,169.5 235.5,169.5C 235.5,168.167 235.5,166.833 235.5,165.5 Z"/></g>
<g><path style="opacity:1" fill="#a7a8a7" d="M 235.5,175.5 C 288.833,175.5 342.167,175.5 395.5,175.5C 395.5,176.833 395.5,178.167 395.5,179.5C 342.167,179.5 288.833,179.5 235.5,179.5C 235.5,178.167 235.5,176.833 235.5,175.5 Z"/></g>
<g><path style="opacity:1" fill="#a7a8a7" d="M 235.5,185.5 C 256.833,185.5 278.167,185.5 299.5,185.5C 299.5,186.833 299.5,188.167 299.5,189.5C 278.167,189.5 256.833,189.5 235.5,189.5C 235.5,188.167 235.5,186.833 235.5,185.5 Z"/></g>
<g><path style="opacity:1" fill="#8c8d8c" d="M 235.5,213.5 C 262.167,213.5 288.833,213.5 315.5,213.5C 315.5,215.5 315.5,217.5 315.5,219.5C 288.833,219.5 262.167,219.5 235.5,219.5C 235.5,217.5 235.5,215.5 235.5,213.5 Z"/></g>
<g><path style="opacity:1" fill="#a7a8a7" d="M 235.5,233.5 C 288.833,233.5 342.167,233.5 395.5,233.5C 395.5,234.833 395.5,236.167 395.5,237.5C 342.167,237.5 288.833,237.5 235.5,237.5C 235.5,236.167 235.5,234.833 235.5,233.5 Z"/></g>
<g><path style="opacity:1" fill="#a7a8a7" d="M 235.5,243.5 C 288.833,243.5 342.167,243.5 395.5,243.5C 395.5,244.833 395.5,246.167 395.5,247.5C 342.167,247.5 288.833,247.5 235.5,247.5C 235.5,246.167 235.5,244.833 235.5,243.5 Z"/></g>
<g><path style="opacity:1" fill="#a7a8a7" d="M 235.5,253.5 C 256.833,253.5 278.167,253.5 299.5,253.5C 299.5,254.833 299.5,256.167 299.5,257.5C 278.167,257.5 256.833,257.5 235.5,257.5C 235.5,256.167 235.5,254.833 235.5,253.5 Z"/></g>
</svg>
