<?xml version="1.0" encoding="UTF-8"?>
<svg width="320px" height="320px" viewBox="0 0 320 320" version="1.1" xmlns="http://www.w3.org/2000/svg" xmlns:xlink="http://www.w3.org/1999/xlink">
    <title>cta</title>
    <defs>
        <path d="M19.5,11.25 L18.4425,10.1925 L12.75,15.8775 L12.75,1.5 L11.25,1.5 L11.25,15.8775 L5.5575,10.1925 L4.5,11.25 L12,18.75 L19.5,11.25 L19.5,11.25 Z M19.5,18 L19.5,21 L4.5,21 L4.5,18 L3,18 L3,21 L3,21 C3,21.8284271 3.67157288,22.5 4.5,22.5 L19.5,22.5 C20.3284271,22.5 21,21.8284271 21,21 L21,21 L21,18 L19.5,18 Z" id="path-1"></path>
    </defs>
    <g id="cta" stroke="none" stroke-width="1" fill="none" fill-rule="evenodd">
        <rect fill="#FFFFFF" x="0" y="0" width="320" height="320"></rect>
        <path d="M101.232,165 C101.925333,165 102.554667,164.882667 103.12,164.648 C103.685333,164.413333 104.168,164.064 104.568,163.6 C104.968,163.136 105.274667,162.554667 105.488,161.856 C105.701333,161.157333 105.808,160.344 105.808,159.416 C105.808,158.488 105.701333,157.674667 105.488,156.976 C105.274667,156.277333 104.968,155.696 104.568,155.232 C104.168,154.768 103.685333,154.418667 103.12,154.184 C102.554667,153.949333 101.925333,153.832 101.232,153.832 L101.232,153.832 L97.488,153.832 L97.488,165 L101.232,165 Z M101.232,163.816 L98.832,163.816 L98.832,155.016 L101.232,155.016 C101.690667,155.016 102.112,155.093333 102.496,155.248 C102.88,155.402667 103.210667,155.629333 103.488,155.928 C103.765333,156.226667 103.981333,156.592 104.136,157.024 C104.290667,157.456 104.368,157.949333 104.368,158.504 L104.368,158.504 L104.368,160.328 C104.368,160.882667 104.290667,161.376 104.136,161.808 C103.981333,162.24 103.765333,162.605333 103.488,162.904 C103.210667,163.202667 102.88,163.429333 102.496,163.584 C102.112,163.738667 101.690667,163.816 101.232,163.816 L101.232,163.816 Z M111.216,165.192 C111.770667,165.192 112.274667,165.090667 112.728,164.888 C113.181333,164.685333 113.573333,164.394667 113.904,164.016 C114.234667,163.637333 114.490667,163.184 114.672,162.656 C114.853333,162.128 114.944,161.533333 114.944,160.872 C114.944,160.221333 114.853333,159.629333 114.672,159.096 C114.490667,158.562667 114.234667,158.106667 113.904,157.728 C113.573333,157.349333 113.181333,157.058667 112.728,156.856 C112.274667,156.653333 111.770667,156.552 111.216,156.552 C110.661333,156.552 110.154667,156.653333 109.696,156.856 C109.237333,157.058667 108.845333,157.349333 108.52,157.728 C108.194667,158.106667 107.941333,158.562667 107.76,159.096 C107.578667,159.629333 107.488,160.221333 107.488,160.872 C107.488,161.533333 107.578667,162.128 107.76,162.656 C107.941333,163.184 108.194667,163.637333 108.52,164.016 C108.845333,164.394667 109.237333,164.685333 109.696,164.888 C110.154667,165.090667 110.661333,165.192 111.216,165.192 Z M111.216,164.056 C110.522667,164.056 109.957333,163.842667 109.52,163.416 C109.082667,162.989333 108.864,162.338667 108.864,161.464 L108.864,161.464 L108.864,160.28 C108.864,159.405333 109.082667,158.754667 109.52,158.328 C109.957333,157.901333 110.522667,157.688 111.216,157.688 C111.909333,157.688 112.474667,157.901333 112.912,158.328 C113.349333,158.754667 113.568,159.405333 113.568,160.28 L113.568,160.28 L113.568,161.464 C113.568,162.338667 113.349333,162.989333 112.912,163.416 C112.474667,163.842667 111.909333,164.056 111.216,164.056 Z M119.952,165 L121.104,161.032 L121.808,158.52 L121.84,158.52 L122.56,161.032 L123.712,165 L125.296,165 L127.488,156.744 L126.288,156.744 L125.392,160.312 L124.544,163.928 L124.512,163.928 L123.488,160.312 L122.416,156.744 L121.28,156.744 L120.24,160.312 L119.232,163.928 L119.2,163.928 L118.32,160.312 L117.44,156.744 L116.192,156.744 L118.4,165 L119.952,165 Z M130.624,165 L130.624,159.272 C130.624,159.005333 130.68,158.773333 130.792,158.576 C130.904,158.378667 131.056,158.216 131.248,158.088 C131.44,157.96 131.656,157.864 131.896,157.8 C132.136,157.736 132.384,157.704 132.64,157.704 C133.888,157.704 134.512,158.445333 134.512,159.928 L134.512,159.928 L134.512,165 L135.792,165 L135.792,159.704 C135.792,158.701333 135.544,157.925333 135.048,157.376 C134.552,156.826667 133.877333,156.552 133.024,156.552 C132.405333,156.552 131.912,156.690667 131.544,156.968 C131.176,157.245333 130.890667,157.618667 130.688,158.088 L130.688,158.088 L130.624,158.088 L130.624,156.744 L129.344,156.744 L129.344,165 L130.624,165 Z M140.928,165 L140.928,163.88 L139.712,163.88 L139.712,153.16 L138.432,153.16 L138.432,163.672 C138.432,164.056 138.546667,164.373333 138.776,164.624 C139.005333,164.874667 139.344,165 139.792,165 L139.792,165 L140.928,165 Z M145.904,165.192 C146.458667,165.192 146.962667,165.090667 147.416,164.888 C147.869333,164.685333 148.261333,164.394667 148.592,164.016 C148.922667,163.637333 149.178667,163.184 149.36,162.656 C149.541333,162.128 149.632,161.533333 149.632,160.872 C149.632,160.221333 149.541333,159.629333 149.36,159.096 C149.178667,158.562667 148.922667,158.106667 148.592,157.728 C148.261333,157.349333 147.869333,157.058667 147.416,156.856 C146.962667,156.653333 146.458667,156.552 145.904,156.552 C145.349333,156.552 144.842667,156.653333 144.384,156.856 C143.925333,157.058667 143.533333,157.349333 143.208,157.728 C142.882667,158.106667 142.629333,158.562667 142.448,159.096 C142.266667,159.629333 142.176,160.221333 142.176,160.872 C142.176,161.533333 142.266667,162.128 142.448,162.656 C142.629333,163.184 142.882667,163.637333 143.208,164.016 C143.533333,164.394667 143.925333,164.685333 144.384,164.888 C144.842667,165.090667 145.349333,165.192 145.904,165.192 Z M145.904,164.056 C145.210667,164.056 144.645333,163.842667 144.208,163.416 C143.770667,162.989333 143.552,162.338667 143.552,161.464 L143.552,161.464 L143.552,160.28 C143.552,159.405333 143.770667,158.754667 144.208,158.328 C144.645333,157.901333 145.210667,157.688 145.904,157.688 C146.597333,157.688 147.162667,157.901333 147.6,158.328 C148.037333,158.754667 148.256,159.405333 148.256,160.28 L148.256,160.28 L148.256,161.464 C148.256,162.338667 148.037333,162.989333 147.6,163.416 C147.162667,163.842667 146.597333,164.056 145.904,164.056 Z M153.856,165.192 C154.432,165.192 154.928,165.064 155.344,164.808 C155.76,164.552 156.058667,164.168 156.24,163.656 L156.24,163.656 L156.32,163.656 C156.373333,164.04 156.504,164.36 156.712,164.616 C156.92,164.872 157.264,165 157.744,165 L157.744,165 L158.464,165 L158.464,163.88 L157.52,163.88 L157.52,159.336 C157.52,158.461333 157.242667,157.778667 156.688,157.288 C156.133333,156.797333 155.354667,156.552 154.352,156.552 C153.605333,156.552 152.986667,156.709333 152.496,157.024 C152.005333,157.338667 151.648,157.72 151.424,158.168 L151.424,158.168 L152.192,158.888 C152.416,158.514667 152.696,158.216 153.032,157.992 C153.368,157.768 153.786667,157.656 154.288,157.656 C154.949333,157.656 155.44,157.810667 155.76,158.12 C156.08,158.429333 156.24,158.877333 156.24,159.464 L156.24,159.464 L156.24,160.28 L154.608,160.28 C153.402667,160.28 152.514667,160.488 151.944,160.904 C151.373333,161.32 151.088,161.917333 151.088,162.696 C151.088,163.464 151.330667,164.072 151.816,164.52 C152.301333,164.968 152.981333,165.192 153.856,165.192 Z M154.064,164.104 C153.562667,164.104 153.165333,163.992 152.872,163.768 C152.578667,163.544 152.432,163.229333 152.432,162.824 L152.432,162.824 L152.432,162.488 C152.432,162.082667 152.6,161.773333 152.936,161.56 C153.272,161.346667 153.808,161.24 154.544,161.24 L154.544,161.24 L156.24,161.24 L156.24,162.6 C156.24,162.813333 156.186667,163.010667 156.08,163.192 C155.973333,163.373333 155.824,163.533333 155.632,163.672 C155.44,163.810667 155.210667,163.917333 154.944,163.992 C154.677333,164.066667 154.384,164.104 154.064,164.104 Z M163.088,165.192 C164.197333,165.192 165.002667,164.68 165.504,163.656 L165.504,163.656 L165.568,163.656 L165.568,165 L166.848,165 L166.848,153.16 L165.568,153.16 L165.568,158.088 L165.504,158.088 C165.290667,157.565333 164.978667,157.178667 164.568,156.928 C164.157333,156.677333 163.664,156.552 163.088,156.552 C162.576,156.552 162.112,156.653333 161.696,156.856 C161.28,157.058667 160.925333,157.346667 160.632,157.72 C160.338667,158.093333 160.114667,158.546667 159.96,159.08 C159.805333,159.613333 159.728,160.210667 159.728,160.872 C159.728,161.533333 159.805333,162.130667 159.96,162.664 C160.114667,163.197333 160.338667,163.650667 160.632,164.024 C160.925333,164.397333 161.28,164.685333 161.696,164.888 C162.112,165.090667 162.576,165.192 163.088,165.192 Z M163.44,164.04 C162.714667,164.04 162.144,163.813333 161.728,163.36 C161.312,162.906667 161.104,162.312 161.104,161.576 L161.104,161.576 L161.104,160.168 C161.104,159.432 161.312,158.837333 161.728,158.384 C162.144,157.930667 162.714667,157.704 163.44,157.704 C163.728,157.704 164.002667,157.744 164.264,157.824 C164.525333,157.904 164.752,158.013333 164.944,158.152 C165.136,158.290667 165.288,158.458667 165.4,158.656 C165.512,158.853333 165.568,159.064 165.568,159.288 L165.568,159.288 L165.568,162.36 C165.568,162.626667 165.512,162.864 165.4,163.072 C165.288,163.28 165.136,163.456 164.944,163.6 C164.752,163.744 164.525333,163.853333 164.264,163.928 C164.002667,164.002667 163.728,164.04 163.44,164.04 Z M175.072,165 L175.072,157.864 L178.416,157.864 L178.416,165 L179.696,165 L179.696,156.744 L175.072,156.744 L175.072,154.28 L176.848,154.28 L176.848,153.16 L175.6,153.16 C174.992,153.16 174.538667,153.336 174.24,153.688 C173.941333,154.04 173.792,154.504 173.792,155.08 L173.792,155.08 L173.792,156.744 L172.448,156.744 L172.448,157.864 L173.792,157.864 L173.792,165 L175.072,165 Z M179.056,154.808 C179.333333,154.808 179.533333,154.741333 179.656,154.608 C179.778667,154.474667 179.84,154.301333 179.84,154.088 L179.84,154.088 L179.84,153.88 C179.84,153.666667 179.778667,153.493333 179.656,153.36 C179.533333,153.226667 179.333333,153.16 179.056,153.16 C178.778667,153.16 178.578667,153.226667 178.456,153.36 C178.333333,153.493333 178.272,153.666667 178.272,153.88 L178.272,153.88 L178.272,154.088 C178.272,154.301333 178.333333,154.474667 178.456,154.608 C178.578667,154.741333 178.778667,154.808 179.056,154.808 Z M184.912,165 L184.912,163.88 L183.696,163.88 L183.696,153.16 L182.416,153.16 L182.416,163.672 C182.416,164.056 182.530667,164.373333 182.76,164.624 C182.989333,164.874667 183.328,165 183.776,165 L183.776,165 L184.912,165 Z M189.872,165.192 C190.650667,165.192 191.322667,165.018667 191.888,164.672 C192.453333,164.325333 192.869333,163.869333 193.136,163.304 L193.136,163.304 L192.224,162.648 C192.010667,163.106667 191.709333,163.458667 191.32,163.704 C190.930667,163.949333 190.474667,164.072 189.952,164.072 C189.568,164.072 189.224,164.008 188.92,163.88 C188.616,163.752 188.36,163.576 188.152,163.352 C187.944,163.128 187.784,162.864 187.672,162.56 C187.56,162.256 187.504,161.928 187.504,161.576 L187.504,161.576 L187.504,161.192 L193.44,161.192 L193.44,160.584 C193.44,159.997333 193.357333,159.458667 193.192,158.968 C193.026667,158.477333 192.789333,158.053333 192.48,157.696 C192.170667,157.338667 191.797333,157.058667 191.36,156.856 C190.922667,156.653333 190.426667,156.552 189.872,156.552 C189.306667,156.552 188.797333,156.653333 188.344,156.856 C187.890667,157.058667 187.501333,157.349333 187.176,157.728 C186.850667,158.106667 186.6,158.562667 186.424,159.096 C186.248,159.629333 186.16,160.221333 186.16,160.872 C186.16,161.533333 186.248,162.128 186.424,162.656 C186.6,163.184 186.850667,163.637333 187.176,164.016 C187.501333,164.394667 187.890667,164.685333 188.344,164.888 C188.797333,165.090667 189.306667,165.192 189.872,165.192 Z M192.064,160.232 L187.504,160.232 L187.504,160.12 C187.504,159.757333 187.562667,159.424 187.68,159.12 C187.797333,158.816 187.96,158.552 188.168,158.328 C188.376,158.104 188.624,157.930667 188.912,157.808 C189.2,157.685333 189.52,157.624 189.872,157.624 C190.533333,157.624 191.064,157.845333 191.464,158.288 C191.864,158.730667 192.064,159.32 192.064,160.056 L192.064,160.056 L192.064,160.232 Z" id="Downloadfile" fill="#161616" fill-rule="nonzero"></path>
        <g id="icons/arrows/ibm-forward-link-copy" transform="translate(201.000000, 148.000000)">
            <mask id="mask-2" fill="white">
                <use xlink:href="#path-1"></use>
            </mask>
            <use id="icon-color" fill="#0F62FE" xlink:href="#path-1"></use>
        </g>
    </g>
</svg>