<?xml version="1.0" encoding="UTF-8"?>
<!DOCTYPE svg PUBLIC "-//W3C//DTD SVG 1.1//EN" "http://www.w3.org/Graphics/SVG/1.1/DTD/svg11.dtd">
<svg xmlns="http://www.w3.org/2000/svg" version="1.1" width="640px" height="360px" style="shape-rendering:geometricPrecision; text-rendering:geometricPrecision; image-rendering:optimizeQuality; fill-rule:evenodd; clip-rule:evenodd" xmlns:xlink="http://www.w3.org/1999/xlink">
<g><path style="opacity:0.806" fill="#0f62fe" d="M 398.5,166.5 C 400.289,171.407 401.122,176.74 401,182.5C 402.5,181 404,179.5 405.5,178C 406.635,177.251 407.635,177.417 408.5,178.5C 405.833,181.833 402.833,184.833 399.5,187.5C 396.167,184.833 393.167,181.833 390.5,178.5C 391.365,177.417 392.365,177.251 393.5,178C 395,179.5 396.5,181 398,182.5C 398.499,177.177 398.666,171.844 398.5,166.5 Z"/></g>
<g><path style="opacity:0.681" fill="#0f62fd" d="M 286.5,171.5 C 287.5,171.5 288.5,171.5 289.5,171.5C 288.946,177.395 289.612,183.062 291.5,188.5C 289.994,189.747 288.494,189.747 287,188.5C 286.501,182.843 286.334,177.176 286.5,171.5 Z"/></g>
<g><path style="opacity:0.738" fill="#0f62fe" d="M 327.5,171.5 C 328.5,171.5 329.5,171.5 330.5,171.5C 330.5,177.5 330.5,183.5 330.5,189.5C 320.3,192.135 316.8,188.468 320,178.5C 322.075,176.352 324.408,176.018 327,177.5C 327.495,175.527 327.662,173.527 327.5,171.5 Z M 322.5,179.5 C 324.144,179.286 325.644,179.62 327,180.5C 327.758,182.769 327.591,184.936 326.5,187C 321.636,186.774 320.303,184.274 322.5,179.5 Z"/></g>
<g><path style="opacity:0.708" fill="#0f62fe" d="M 340.5,171.5 C 342.288,171.215 343.955,171.548 345.5,172.5C 344.675,173.386 343.675,173.719 342.5,173.5C 342.5,174.5 342.5,175.5 342.5,176.5C 344.833,176.5 347.167,176.5 349.5,176.5C 349.5,180.833 349.5,185.167 349.5,189.5C 348.5,189.5 347.5,189.5 346.5,189.5C 346.5,186.167 346.5,182.833 346.5,179.5C 345.167,179.5 343.833,179.5 342.5,179.5C 342.5,182.833 342.5,186.167 342.5,189.5C 341.5,189.5 340.5,189.5 339.5,189.5C 339.923,185.449 339.256,181.616 337.5,178C 339.178,176.125 340.178,173.958 340.5,171.5 Z"/></g>
<g><path style="opacity:0.625" fill="#0f62fd" d="M 346.5,171.5 C 347.5,171.5 348.5,171.5 349.5,171.5C 349.5,172.5 349.5,173.5 349.5,174.5C 348.5,174.5 347.5,174.5 346.5,174.5C 346.5,173.5 346.5,172.5 346.5,171.5 Z"/></g>
<g><path style="opacity:0.64" fill="#0f62fd" d="M 352.5,171.5 C 353.5,171.5 354.5,171.5 355.5,171.5C 354.946,177.395 355.612,183.062 357.5,188.5C 355.994,189.747 354.494,189.747 353,188.5C 352.501,182.843 352.334,177.176 352.5,171.5 Z"/></g>
<g><path style="opacity:0.774" fill="#0f62fe" d="M 225.5,172.5 C 236.33,170.496 240.497,174.83 238,185.5C 237.535,186.931 236.701,188.097 235.5,189C 232.183,189.498 228.85,189.665 225.5,189.5C 225.5,183.833 225.5,178.167 225.5,172.5 Z M 228.5,174.5 C 233.414,174.324 235.748,176.657 235.5,181.5C 235.507,186.02 233.173,188.02 228.5,187.5C 228.5,183.167 228.5,178.833 228.5,174.5 Z"/></g>
<g><path style="opacity:0.684" fill="#0f62fe" d="M 243.5,176.5 C 250.745,175.963 253.578,179.296 252,186.5C 248.822,191.371 245.155,191.704 241,187.5C 239.812,183.259 240.645,179.592 243.5,176.5 Z M 244.5,179.5 C 246.144,179.286 247.644,179.62 249,180.5C 249.758,182.769 249.591,184.936 248.5,187C 246.888,187.72 245.388,187.554 244,186.5C 243.297,184.071 243.463,181.738 244.5,179.5 Z"/></g>
<g><path style="opacity:0.663" fill="#0f61fd" d="M 253.5,176.5 C 254.5,176.5 255.5,176.5 256.5,176.5C 257.394,186.953 258.728,186.953 260.5,176.5C 261.675,176.281 262.675,176.614 263.5,177.5C 264.634,180.07 265.468,182.736 266,185.5C 266.834,182.828 267.668,180.161 268.5,177.5C 269.365,176.417 270.365,176.251 271.5,177C 269.954,181.019 268.954,185.185 268.5,189.5C 267.022,189.762 265.689,189.429 264.5,188.5C 262.292,180.625 260.959,180.958 260.5,189.5C 259.022,189.762 257.689,189.429 256.5,188.5C 255.184,184.571 254.184,180.571 253.5,176.5 Z"/></g>
<g><path style="opacity:0.828" fill="#0f62fe" d="M 273.5,176.5 C 276.007,176.805 278.674,176.971 281.5,177C 282,177.5 282.5,178 283,178.5C 283.499,182.152 283.665,185.818 283.5,189.5C 282.5,189.5 281.5,189.5 280.5,189.5C 280.5,186.167 280.5,182.833 280.5,179.5C 278.856,179.286 277.356,179.62 276,180.5C 275.821,183.553 275.321,186.553 274.5,189.5C 273.508,185.217 273.174,180.884 273.5,176.5 Z"/></g>
<g><path style="opacity:0.682" fill="#0f62fe" d="M 295.5,176.5 C 302.745,175.963 305.578,179.296 304,186.5C 300.333,191.833 296.667,191.833 293,186.5C 291.861,182.579 292.695,179.246 295.5,176.5 Z M 296.5,179.5 C 298.144,179.286 299.644,179.62 301,180.5C 301.758,182.769 301.591,184.936 300.5,187C 298.888,187.72 297.388,187.554 296,186.5C 295.297,184.071 295.463,181.738 296.5,179.5 Z"/></g>
<g><path style="opacity:0.725" fill="#0f62fe" d="M 308.5,176.5 C 310.792,176.244 312.959,176.577 315,177.5C 316.076,181.102 316.91,184.769 317.5,188.5C 315.242,189.418 312.909,190.085 310.5,190.5C 306.282,189.726 304.949,187.392 306.5,183.5C 308.904,182.65 311.237,181.65 313.5,180.5C 311.674,178.219 309.674,178.219 307.5,180.5C 307.167,180 306.833,179.5 306.5,179C 307.056,177.989 307.722,177.156 308.5,176.5 Z M 308.5,184.5 C 310.288,184.215 311.955,184.548 313.5,185.5C 312.332,187.217 310.665,187.884 308.5,187.5C 308.5,186.5 308.5,185.5 308.5,184.5 Z"/></g>
<g><path style="opacity:0.732" fill="#0f62fe" d="M 361.5,176.5 C 367.755,175.593 370.422,178.093 369.5,184C 366.774,184.182 364.107,184.682 361.5,185.5C 363.577,188.119 365.743,188.119 368,185.5C 370.021,187.651 369.521,189.151 366.5,190C 359.129,190.27 356.629,186.77 359,179.5C 360.045,178.627 360.878,177.627 361.5,176.5 Z M 363.5,178.5 C 364.995,178.415 365.995,179.081 366.5,180.5C 364.926,181.631 363.259,181.798 361.5,181C 362.381,180.292 363.047,179.458 363.5,178.5 Z"/></g>
<g><path style="opacity:0.728" fill="#0f62fd" d="M 388.5,186.5 C 389.5,186.5 390.5,186.5 391.5,186.5C 391.5,187.5 391.5,188.5 391.5,189.5C 396.833,189.5 402.167,189.5 407.5,189.5C 407.5,188.5 407.5,187.5 407.5,186.5C 408.5,186.5 409.5,186.5 410.5,186.5C 410.739,188.467 410.406,190.301 409.5,192C 402.833,192.667 396.167,192.667 389.5,192C 388.594,190.301 388.261,188.467 388.5,186.5 Z"/></g>
</svg>
