<?xml version="1.0" encoding="UTF-8"?>
<!DOCTYPE svg PUBLIC "-//W3C//DTD SVG 1.1//EN" "http://www.w3.org/Graphics/SVG/1.1/DTD/svg11.dtd">
<svg xmlns="http://www.w3.org/2000/svg" version="1.1" width="640px" height="360px" style="shape-rendering:geometricPrecision; text-rendering:geometricPrecision; image-rendering:optimizeQuality; fill-rule:evenodd; clip-rule:evenodd" xmlns:xlink="http://www.w3.org/1999/xlink">
<g><path style="opacity:1" fill="#a7a8a7" d="M 110.5,100.5 C 249.833,100.5 389.167,100.5 528.5,100.5C 528.5,153.167 528.5,205.833 528.5,258.5C 389.167,258.5 249.833,258.5 110.5,258.5C 110.5,205.833 110.5,153.167 110.5,100.5 Z"/></g>
<g><path style="opacity:1" fill="#fefffe" d="M 112.5,102.5 C 250.5,102.5 388.5,102.5 526.5,102.5C 526.5,153.833 526.5,205.167 526.5,256.5C 388.5,256.5 250.5,256.5 112.5,256.5C 112.5,205.167 112.5,153.833 112.5,102.5 Z"/></g>
<g><path style="opacity:1" fill="#8c8d8c" d="M 219.5,121.5 C 272.833,121.5 326.167,121.5 379.5,121.5C 379.5,123.5 379.5,125.5 379.5,127.5C 326.167,127.5 272.833,127.5 219.5,127.5C 219.5,125.5 219.5,123.5 219.5,121.5 Z"/></g>
<g><path style="opacity:1" fill="#8c8d8c" d="M 219.5,135.5 C 246.167,135.5 272.833,135.5 299.5,135.5C 299.5,137.5 299.5,139.5 299.5,141.5C 272.833,141.5 246.167,141.5 219.5,141.5C 219.5,139.5 219.5,137.5 219.5,135.5 Z"/></g>
<g><path style="opacity:1" fill="#a7a8a7" d="M 219.5,165.5 C 283.5,165.5 347.5,165.5 411.5,165.5C 411.5,166.5 411.5,167.5 411.5,168.5C 347.5,168.5 283.5,168.5 219.5,168.5C 219.5,167.5 219.5,166.5 219.5,165.5 Z"/></g>
<g><path style="opacity:1" fill="#a7a8a7" d="M 219.5,172.5 C 283.5,172.5 347.5,172.5 411.5,172.5C 411.5,173.5 411.5,174.5 411.5,175.5C 347.5,175.5 283.5,175.5 219.5,175.5C 219.5,174.5 219.5,173.5 219.5,172.5 Z"/></g>
<g><path style="opacity:1" fill="#a7a8a7" d="M 219.5,179.5 C 262.167,179.5 304.833,179.5 347.5,179.5C 347.5,180.5 347.5,181.5 347.5,182.5C 304.833,182.5 262.167,182.5 219.5,182.5C 219.5,181.5 219.5,180.5 219.5,179.5 Z"/></g>
<g><path style="opacity:1" fill="#0f61fe" d="M 292.5,200.5 C 314.5,200.5 336.5,200.5 358.5,200.5C 358.5,206.5 358.5,212.5 358.5,218.5C 336.5,218.5 314.5,218.5 292.5,218.5C 292.5,212.5 292.5,206.5 292.5,200.5 Z"/></g>
<g><path style="opacity:1" fill="#0f61fe" d="M 219.5,201.5 C 240.833,201.5 262.167,201.5 283.5,201.5C 283.5,206.833 283.5,212.167 283.5,217.5C 262.167,217.5 240.833,217.5 219.5,217.5C 219.5,212.167 219.5,206.833 219.5,201.5 Z"/></g>
<g><path style="opacity:1" fill="#fefffe" d="M 294.5,202.5 C 315.167,202.5 335.833,202.5 356.5,202.5C 356.5,207.167 356.5,211.833 356.5,216.5C 335.833,216.5 315.167,216.5 294.5,216.5C 294.5,211.833 294.5,207.167 294.5,202.5 Z"/></g>
</svg>
