<?xml version="1.0" encoding="UTF-8"?>
<svg width="320px" height="320px" viewBox="0 0 320 320" version="1.1" xmlns="http://www.w3.org/2000/svg" xmlns:xlink="http://www.w3.org/1999/xlink">
    <title>dot_com_shell</title>
    <g id="dot_com_shell" stroke="none" stroke-width="1" fill="none" fill-rule="evenodd">
        <g id="Group" transform="translate(60.000000, 80.000000)">
            <rect id="Rectangle-Copy-29" fill="#262626" x="0" y="64" width="201" height="96"></rect>
            <rect id="Rectangle-Copy-30" fill="#F3F3F3" x="0" y="0" width="201" height="12"></rect>
            <rect id="Rectangle-Copy-31" fill="#3D3D3D" x="0" y="12" width="49" height="26"></rect>
            <rect id="Rectangle-Copy-32" fill="#C6C6C6" x="49" y="12" width="152" height="26"></rect>
            <rect id="Rectangle-Copy-33" fill="#C6C6C6" x="8" y="4" width="18" height="5"></rect>
            <rect id="Rectangle-Copy-34" fill="#C6C6C6" x="7" y="74" width="32" height="13"></rect>
            <rect id="Rectangle-Copy-35" fill="#FFFFFF" x="56" y="74" width="21" height="3"></rect>
            <rect id="Rectangle-Copy-36" fill="#FFFFFF" x="105" y="74" width="21" height="3"></rect>
            <rect id="Rectangle-Copy-37" fill="#FFFFFF" x="155" y="74" width="21" height="3"></rect>
            <rect id="Rectangle-Copy-38" fill="#C6C6C6" x="56" y="82" width="21" height="3"></rect>
            <rect id="Rectangle-Copy-39" fill="#C6C6C6" x="105" y="82" width="21" height="3"></rect>
            <rect id="Rectangle-Copy-40" fill="#C6C6C6" x="155" y="82" width="21" height="3"></rect>
            <rect id="Rectangle-Copy-41" fill="#C6C6C6" x="56" y="90" width="21" height="3"></rect>
            <rect id="Rectangle-Copy-42" fill="#C6C6C6" x="105" y="90" width="21" height="3"></rect>
            <rect id="Rectangle-Copy-43" fill="#C6C6C6" x="155" y="90" width="21" height="3"></rect>
            <rect id="Rectangle-Copy-44" fill="#C6C6C6" x="56" y="98" width="21" height="3"></rect>
            <rect id="Rectangle-Copy-45" fill="#C6C6C6" x="105" y="98" width="21" height="3"></rect>
            <rect id="Rectangle-Copy-46" fill="#C6C6C6" x="105" y="114" width="21" height="3"></rect>
            <rect id="Rectangle-Copy-47" fill="#C6C6C6" x="56" y="106" width="21" height="3"></rect>
            <rect id="Rectangle-Copy-48" fill="#C6C6C6" x="8" y="137" width="36" height="4"></rect>
            <rect id="Rectangle-Copy-49" fill="#C6C6C6" x="56" y="150" width="21" height="3"></rect>
            <rect id="Rectangle-Copy-50" fill="#C6C6C6" x="105" y="150" width="21" height="3"></rect>
            <rect id="Rectangle-Copy-51" fill="#C6C6C6" x="154" y="150" width="21" height="3"></rect>
            <rect id="Rectangle-Copy-52" fill="#C6C6C6" x="105" y="106" width="21" height="3"></rect>
            <rect id="Rectangle-Copy-53" fill="#C6C6C6" x="105" y="122" width="21" height="3"></rect>
            <rect id="Rectangle-Copy-54" fill="#C6C6C6" x="31" y="5" width="22" height="3"></rect>
            <rect id="Rectangle-Copy-55" fill="#D8D8D8" x="9" y="29" width="29" height="3"></rect>
            <rect id="Rectangle-Copy-56" fill="#C6C6C6" x="58" y="5" width="22" height="3"></rect>
            <rect id="Rectangle-Copy-57" fill="#C6C6C6" x="176" y="4" width="5" height="5"></rect>
            <rect id="Rectangle-Copy-58" fill="#C6C6C6" x="186" y="4" width="5" height="5"></rect>
            <line x1="8" y1="145.654475" x2="194.294693" y2="145.654475" id="Path-3-Copy" stroke="#979797"></line>
        </g>
    </g>
</svg>