<?xml version="1.0" encoding="UTF-8"?>
<!DOCTYPE svg PUBLIC "-//W3C//DTD SVG 1.1//EN" "http://www.w3.org/Graphics/SVG/1.1/DTD/svg11.dtd">
<svg xmlns="http://www.w3.org/2000/svg" version="1.1" width="640px" height="360px" style="shape-rendering:geometricPrecision; text-rendering:geometricPrecision; image-rendering:optimizeQuality; fill-rule:evenodd; clip-rule:evenodd" xmlns:xlink="http://www.w3.org/1999/xlink">
<g><path style="opacity:1" fill="#a7a8a7" d="M 118.5,46.5 C 257.833,46.5 397.167,46.5 536.5,46.5C 536.5,65.1667 536.5,83.8333 536.5,102.5C 397.167,102.5 257.833,102.5 118.5,102.5C 118.5,83.8333 118.5,65.1667 118.5,46.5 Z"/></g>
<g><path style="opacity:1" fill="#fefffe" d="M 120.5,48.5 C 258.5,48.5 396.5,48.5 534.5,48.5C 534.5,55.8333 534.5,63.1667 534.5,70.5C 396.5,70.5 258.5,70.5 120.5,70.5C 120.5,63.1667 120.5,55.8333 120.5,48.5 Z"/></g>
<g><path style="opacity:1" fill="#c5c6c5" d="M 491.5,55.5 C 494.833,55.5 498.167,55.5 501.5,55.5C 501.5,58.8333 501.5,62.1667 501.5,65.5C 498.167,65.5 494.833,65.5 491.5,65.5C 491.5,62.1667 491.5,58.8333 491.5,55.5 Z"/></g>
<g><path style="opacity:1" fill="#c5c6c5" d="M 511.5,55.5 C 514.833,55.5 518.167,55.5 521.5,55.5C 521.5,58.8333 521.5,62.1667 521.5,65.5C 518.167,65.5 514.833,65.5 511.5,65.5C 511.5,62.1667 511.5,58.8333 511.5,55.5 Z"/></g>
<g><path style="opacity:1" fill="#8c8d8c" d="M 133.5,57.5 C 144.167,57.5 154.833,57.5 165.5,57.5C 165.5,59.5 165.5,61.5 165.5,63.5C 154.833,63.5 144.167,63.5 133.5,63.5C 133.5,61.5 133.5,59.5 133.5,57.5 Z"/></g>
<g><path style="opacity:1" fill="#a7a8a7" d="M 181.5,57.5 C 194.833,57.5 208.167,57.5 221.5,57.5C 221.5,58.8333 221.5,60.1667 221.5,61.5C 208.167,61.5 194.833,61.5 181.5,61.5C 181.5,60.1667 181.5,58.8333 181.5,57.5 Z"/></g>
<g><path style="opacity:1" fill="#a7a8a7" d="M 237.5,57.5 C 250.833,57.5 264.167,57.5 277.5,57.5C 277.5,58.8333 277.5,60.1667 277.5,61.5C 264.167,61.5 250.833,61.5 237.5,61.5C 237.5,60.1667 237.5,58.8333 237.5,57.5 Z"/></g>
<g><path style="opacity:1" fill="#a7a8a7" d="M 293.5,57.5 C 306.833,57.5 320.167,57.5 333.5,57.5C 333.5,58.8333 333.5,60.1667 333.5,61.5C 320.167,61.5 306.833,61.5 293.5,61.5C 293.5,60.1667 293.5,58.8333 293.5,57.5 Z"/></g>
<g><path style="opacity:1" fill="#a7a8a7" d="M 349.5,57.5 C 362.833,57.5 376.167,57.5 389.5,57.5C 389.5,58.8333 389.5,60.1667 389.5,61.5C 376.167,61.5 362.833,61.5 349.5,61.5C 349.5,60.1667 349.5,58.8333 349.5,57.5 Z"/></g>
<g><path style="opacity:1" fill="#0f61fe" d="M 457.5,100.5 C 457.5,91.1667 457.5,81.8333 457.5,72.5C 483.328,71.5022 509.328,71.1689 535.5,71.5C 535.5,81.5 535.5,91.5 535.5,101.5C 509.328,101.831 483.328,101.498 457.5,100.5 Z"/></g>
<g><path style="opacity:1" fill="#fefffe" d="M 457.5,72.5 C 457.5,81.8333 457.5,91.1667 457.5,100.5C 365.5,100.5 273.5,100.5 181.5,100.5C 162.833,99.1667 144.167,99.1667 125.5,100.5C 123.833,100.5 122.167,100.5 120.5,100.5C 120.5,91.1667 120.5,81.8333 120.5,72.5C 232.833,72.5 345.167,72.5 457.5,72.5 Z"/></g>
<g><path style="opacity:1" fill="#8c8d8c" d="M 133.5,89.5 C 146.833,89.5 160.167,89.5 173.5,89.5C 173.5,90.8333 173.5,92.1667 173.5,93.5C 160.167,93.5 146.833,93.5 133.5,93.5C 133.5,92.1667 133.5,90.8333 133.5,89.5 Z"/></g>
<g><path style="opacity:1" fill="#a7a8a7" d="M 189.5,89.5 C 202.833,89.5 216.167,89.5 229.5,89.5C 229.5,90.8333 229.5,92.1667 229.5,93.5C 216.167,93.5 202.833,93.5 189.5,93.5C 189.5,92.1667 189.5,90.8333 189.5,89.5 Z"/></g>
<g><path style="opacity:1" fill="#a7a8a7" d="M 245.5,89.5 C 258.833,89.5 272.167,89.5 285.5,89.5C 285.5,90.8333 285.5,92.1667 285.5,93.5C 272.167,93.5 258.833,93.5 245.5,93.5C 245.5,92.1667 245.5,90.8333 245.5,89.5 Z"/></g>
<g><path style="opacity:1" fill="#a7a8a7" d="M 301.5,89.5 C 314.833,89.5 328.167,89.5 341.5,89.5C 341.5,90.8333 341.5,92.1667 341.5,93.5C 328.167,93.5 314.833,93.5 301.5,93.5C 301.5,92.1667 301.5,90.8333 301.5,89.5 Z"/></g>
<g><path style="opacity:1" fill="#78a9ff" d="M 401.5,89.5 C 414.833,89.5 428.167,89.5 441.5,89.5C 441.5,90.8333 441.5,92.1667 441.5,93.5C 428.167,93.5 414.833,93.5 401.5,93.5C 401.5,92.1667 401.5,90.8333 401.5,89.5 Z"/></g>
<g><path style="opacity:1" fill="#0f61fe" d="M 181.5,100.5 C 162.833,101.833 144.167,101.833 125.5,100.5C 144.167,99.1667 162.833,99.1667 181.5,100.5 Z"/></g>
<g><path style="opacity:0.2" fill="#000000" d="M 118.5,132.5 C 257.833,132.5 397.167,132.5 536.5,132.5C 536.5,192.5 536.5,252.5 536.5,312.5C 397.167,312.5 257.833,312.5 118.5,312.5C 118.5,252.5 118.5,192.5 118.5,132.5 Z"/></g>
<g><path style="opacity:1" fill="#1d1e1d" d="M 119.5,133.5 C 258.167,133.5 396.833,133.5 535.5,133.5C 535.5,192.833 535.5,252.167 535.5,311.5C 396.833,311.5 258.167,311.5 119.5,311.5C 119.5,252.167 119.5,192.833 119.5,133.5 Z"/></g>
<g><path style="opacity:1" fill="#262626" d="M 120.5,134.5 C 258.5,134.5 396.5,134.5 534.5,134.5C 534.5,193.167 534.5,251.833 534.5,310.5C 396.5,310.5 258.5,310.5 120.5,310.5C 120.5,251.833 120.5,193.167 120.5,134.5 Z"/></g>
<g><path style="opacity:1" fill="#a2a3a2" d="M 442.5,148.5 C 469.167,148.5 495.833,148.5 522.5,148.5C 522.5,154.5 522.5,160.5 522.5,166.5C 495.833,166.5 469.167,166.5 442.5,166.5C 442.5,160.5 442.5,154.5 442.5,148.5 Z"/></g>
<g><path style="opacity:1" fill="#a7a8a7" d="M 133.5,149.5 C 149.5,149.5 165.5,149.5 181.5,149.5C 181.5,154.833 181.5,160.167 181.5,165.5C 165.5,165.5 149.5,165.5 133.5,165.5C 133.5,160.167 133.5,154.833 133.5,149.5 Z"/></g>
<g><path style="opacity:1" fill="#fefffe" d="M 237.5,149.5 C 250.833,149.5 264.167,149.5 277.5,149.5C 277.5,150.833 277.5,152.167 277.5,153.5C 264.167,153.5 250.833,153.5 237.5,153.5C 237.5,152.167 237.5,150.833 237.5,149.5 Z"/></g>
<g><path style="opacity:1" fill="#252625" d="M 444.5,150.5 C 469.833,150.5 495.167,150.5 520.5,150.5C 520.5,155.167 520.5,159.833 520.5,164.5C 495.167,164.5 469.833,164.5 444.5,164.5C 444.5,159.833 444.5,155.167 444.5,150.5 Z"/></g>
<g><path style="opacity:1" fill="#fefffe" d="M 237.5,197.5 C 250.833,197.5 264.167,197.5 277.5,197.5C 277.5,198.833 277.5,200.167 277.5,201.5C 264.167,201.5 250.833,201.5 237.5,201.5C 237.5,200.167 237.5,198.833 237.5,197.5 Z"/></g>
<g><path style="opacity:1" fill="#fefffe" d="M 339.5,197.5 C 352.833,197.5 366.167,197.5 379.5,197.5C 379.5,198.833 379.5,200.167 379.5,201.5C 366.167,201.5 352.833,201.5 339.5,201.5C 339.5,200.167 339.5,198.833 339.5,197.5 Z"/></g>
<g><path style="opacity:1" fill="#fefffe" d="M 443.5,197.5 C 456.833,197.5 470.167,197.5 483.5,197.5C 483.5,198.833 483.5,200.167 483.5,201.5C 470.167,201.5 456.833,201.5 443.5,201.5C 443.5,200.167 443.5,198.833 443.5,197.5 Z"/></g>
<g><path style="opacity:1" fill="#a7a8a7" d="M 237.5,213.5 C 250.833,213.5 264.167,213.5 277.5,213.5C 277.5,214.833 277.5,216.167 277.5,217.5C 264.167,217.5 250.833,217.5 237.5,217.5C 237.5,216.167 237.5,214.833 237.5,213.5 Z"/></g>
<g><path style="opacity:1" fill="#a7a8a7" d="M 339.5,213.5 C 352.833,213.5 366.167,213.5 379.5,213.5C 379.5,214.833 379.5,216.167 379.5,217.5C 366.167,217.5 352.833,217.5 339.5,217.5C 339.5,216.167 339.5,214.833 339.5,213.5 Z"/></g>
<g><path style="opacity:1" fill="#a7a8a7" d="M 443.5,213.5 C 456.833,213.5 470.167,213.5 483.5,213.5C 483.5,214.833 483.5,216.167 483.5,217.5C 470.167,217.5 456.833,217.5 443.5,217.5C 443.5,216.167 443.5,214.833 443.5,213.5 Z"/></g>
<g><path style="opacity:1" fill="#a7a8a7" d="M 237.5,229.5 C 250.833,229.5 264.167,229.5 277.5,229.5C 277.5,230.833 277.5,232.167 277.5,233.5C 264.167,233.5 250.833,233.5 237.5,233.5C 237.5,232.167 237.5,230.833 237.5,229.5 Z"/></g>
<g><path style="opacity:1" fill="#a7a8a7" d="M 339.5,229.5 C 352.833,229.5 366.167,229.5 379.5,229.5C 379.5,230.833 379.5,232.167 379.5,233.5C 366.167,233.5 352.833,233.5 339.5,233.5C 339.5,232.167 339.5,230.833 339.5,229.5 Z"/></g>
<g><path style="opacity:1" fill="#a7a8a7" d="M 443.5,229.5 C 456.833,229.5 470.167,229.5 483.5,229.5C 483.5,230.833 483.5,232.167 483.5,233.5C 470.167,233.5 456.833,233.5 443.5,233.5C 443.5,232.167 443.5,230.833 443.5,229.5 Z"/></g>
<g><path style="opacity:1" fill="#a7a8a7" d="M 237.5,245.5 C 250.833,245.5 264.167,245.5 277.5,245.5C 277.5,246.833 277.5,248.167 277.5,249.5C 264.167,249.5 250.833,249.5 237.5,249.5C 237.5,248.167 237.5,246.833 237.5,245.5 Z"/></g>
<g><path style="opacity:1" fill="#a7a8a7" d="M 339.5,245.5 C 352.833,245.5 366.167,245.5 379.5,245.5C 379.5,246.833 379.5,248.167 379.5,249.5C 366.167,249.5 352.833,249.5 339.5,249.5C 339.5,248.167 339.5,246.833 339.5,245.5 Z"/></g>
<g><path style="opacity:1" fill="#a7a8a7" d="M 339.5,261.5 C 352.833,261.5 366.167,261.5 379.5,261.5C 379.5,262.833 379.5,264.167 379.5,265.5C 366.167,265.5 352.833,265.5 339.5,265.5C 339.5,264.167 339.5,262.833 339.5,261.5 Z"/></g>
<g><path style="opacity:1" fill="#a7a8a7" d="M 237.5,295.5 C 250.833,295.5 264.167,295.5 277.5,295.5C 277.5,296.833 277.5,298.167 277.5,299.5C 264.167,299.5 250.833,299.5 237.5,299.5C 237.5,298.167 237.5,296.833 237.5,295.5 Z"/></g>
<g><path style="opacity:1" fill="#a7a8a7" d="M 339.5,295.5 C 352.833,295.5 366.167,295.5 379.5,295.5C 379.5,296.833 379.5,298.167 379.5,299.5C 366.167,299.5 352.833,299.5 339.5,299.5C 339.5,298.167 339.5,296.833 339.5,295.5 Z"/></g>
<g><path style="opacity:1" fill="#a7a8a7" d="M 443.5,295.5 C 456.833,295.5 470.167,295.5 483.5,295.5C 483.5,296.833 483.5,298.167 483.5,299.5C 470.167,299.5 456.833,299.5 443.5,299.5C 443.5,298.167 443.5,296.833 443.5,295.5 Z"/></g>
</svg>
