<svg width="320" height="320" viewBox="0 0 320 320" fill="none" xmlns="http://www.w3.org/2000/svg">
  <g filter="url(#filter0_d_0_4555)">
    <rect x="54" y="102" width="212" height="116" fill="black" fill-opacity="0.01" />
  </g>
  <rect width="212" height="116" transform="translate(54 102)" fill="#F3F3F3" />
  <path fill-rule="evenodd" clip-rule="evenodd"
    d="M252.074 115.5L254.75 112.824L254.176 112.25L251.5 114.926L248.824 112.25L248.25 112.824L250.926 115.5L248.25 118.176L248.824 118.75L251.5 116.074L254.176 118.75L254.75 118.176L252.074 115.5V115.5Z"
    fill="black" />
  <mask id="mask0_0_4555" style="mask-type:luminance" maskUnits="userSpaceOnUse" x="248" y="112"
    width="7" height="7">
    <path fill-rule="evenodd" clip-rule="evenodd"
      d="M252.074 115.5L254.75 112.824L254.176 112.25L251.5 114.926L248.824 112.25L248.25 112.824L250.926 115.5L248.25 118.176L248.824 118.75L251.5 116.074L254.176 118.75L254.75 118.176L252.074 115.5V115.5Z"
      fill="white" />
  </mask>
  <g mask="url(#mask0_0_4555)">
</g>
  <rect x="63" y="192" width="69" height="16" fill="#0F6DFF" />
  <rect x="63" y="114" width="64" height="6" fill="#8D8D8D" />
  <rect x="63" y="130" width="148" height="3" fill="#A8A8A8" />
  <rect x="63" y="144" width="148" height="3" fill="#A8A8A8" />
  <rect x="63" y="137" width="148" height="3" fill="#A8A8A8" />
  <rect x="63" y="151" width="118" height="3" fill="#A8A8A8" />
  <defs>
    <filter id="filter0_d_0_4555" x="48" y="98" width="224" height="128"
      filterUnits="userSpaceOnUse" color-interpolation-filters="sRGB">
      <feFlood flood-opacity="0" result="BackgroundImageFix" />
      <feColorMatrix in="SourceAlpha" type="matrix"
        values="0 0 0 0 0 0 0 0 0 0 0 0 0 0 0 0 0 0 127 0" result="hardAlpha" />
      <feOffset dy="2" />
      <feGaussianBlur stdDeviation="3" />
      <feColorMatrix type="matrix"
        values="0 0 0 0 0.862745 0 0 0 0 0.862745 0 0 0 0 0.862745 0 0 0 1 0" />
      <feBlend mode="normal" in2="BackgroundImageFix" result="effect1_dropShadow_0_4555" />
      <feBlend mode="normal" in="SourceGraphic" in2="effect1_dropShadow_0_4555" result="shape" />
    </filter>
  </defs>
</svg>