<?xml version="1.0" encoding="UTF-8"?>
<svg width="320px" height="320px" viewBox="0 0 320 320" version="1.1" xmlns="http://www.w3.org/2000/svg" xmlns:xlink="http://www.w3.org/1999/xlink">
    <title>expressive_modal</title>
    <defs>
        <rect id="path-1" x="0" y="0" width="200" height="122"></rect>
        <filter x="-5.0%" y="-6.6%" width="110.0%" height="116.4%" filterUnits="objectBoundingBox" id="filter-2">
            <feOffset dx="0" dy="2" in="SourceAlpha" result="shadowOffsetOuter1"></feOffset>
            <feGaussianBlur stdDeviation="3" in="shadowOffsetOuter1" result="shadowBlurOuter1"></feGaussianBlur>
            <feColorMatrix values="0 0 0 0 0.862745106   0 0 0 0 0.862745106   0 0 0 0 0.862745106  0 0 0 1 0" type="matrix" in="shadowBlurOuter1"></feColorMatrix>
        </filter>
        <polygon id="path-3" points="7.618625 7 10.5 4.118625 9.881375 3.5 7 6.381375 4.118625 3.5 3.5 4.118625 6.381375 7 3.5 9.881375 4.118625 10.5 7 7.618625 9.881375 10.5 10.5 9.881375"></polygon>
    </defs>
    <g id="expressive_modal" stroke="none" stroke-width="1" fill="none" fill-rule="evenodd">
        <g id="Group" transform="translate(60.000000, 99.000000)">
            <g id="Group-38-Copy">
                <g id="Rectangle" fill="black" fill-opacity="1">
                    <use filter="url(#filter-2)" xlink:href="#path-1"></use>
                </g>
                <g id="color/gray/10-copy-10" fill="#F3F3F3">
                    <rect id="Rectangle" x="0" y="0" width="200" height="122"></rect>
                </g>
            </g>
            <g transform="translate(177.000000, 10.000000)" id="icon/navigation/close/16-copy-2">
                <mask id="mask-4" fill="white">
                    <use xlink:href="#path-3"></use>
                </mask>
                <use id="icon-color" fill="#000000" xlink:href="#path-3"></use>
            </g>
            <rect id="Rectangle-Copy-4" fill="#A8A8A8" x="9" y="13" width="58" height="7"></rect>
            <rect id="Rectangle-Copy-12" fill="#C6C6C6" x="9" y="29" width="137" height="5"></rect>
            <rect id="Rectangle-Copy-16" fill="#C6C6C6" x="9" y="49" width="137" height="5"></rect>
            <rect id="Rectangle-Copy-17" fill="#0F6DFF" x="9" y="96" width="69" height="16"></rect>
            <rect id="Rectangle-Copy-18" fill="#C6C6C6" x="9" y="39" width="112" height="5"></rect>
        </g>
    </g>
</svg>