<?xml version="1.0" encoding="UTF-8"?>
<!DOCTYPE svg PUBLIC "-//W3C//DTD SVG 1.1//EN" "http://www.w3.org/Graphics/SVG/1.1/DTD/svg11.dtd">
<svg xmlns="http://www.w3.org/2000/svg" version="1.1" width="640px" height="360px" style="shape-rendering:geometricPrecision; text-rendering:geometricPrecision; image-rendering:optimizeQuality; fill-rule:evenodd; clip-rule:evenodd" xmlns:xlink="http://www.w3.org/1999/xlink">
<g><path style="opacity:0.007" fill="#f8f8f8" d="M 542.5,62.5 C 541.811,61.2264 540.977,61.2264 540,62.5C 539.333,61.8333 538.667,61.1667 538,60.5C 536.16,61.8331 535.66,61.6665 536.5,60C 534.714,59.2155 533.214,58.0488 532,56.5C 531.692,57.3081 531.192,57.9747 530.5,58.5C 528.167,58.5 525.833,58.5 523.5,58.5C 522.808,57.9747 522.308,57.3081 522,56.5C 519.267,58.8907 516.6,58.8907 514,56.5C 512.518,58.7811 510.851,58.7811 509,56.5C 506.667,57.1667 504.333,57.8333 502,58.5C 501,57.8333 500,57.1667 499,56.5C 494.661,58.4972 489.828,58.4972 484.5,56.5C 482.291,57.1062 480.124,57.7728 478,58.5C 473.554,58.3877 469.388,58.3877 465.5,58.5C 464.702,58.0431 464.369,57.3764 464.5,56.5C 490.337,56.0926 516.337,55.7593 542.5,55.5C 542.833,55.6667 543.167,55.8333 543.5,56C 542.5,57 541.5,58 540.5,59C 541.449,59.6172 542.282,59.4506 543,58.5C 543.765,60.0657 543.598,61.3991 542.5,62.5 Z"/></g>
<g><path style="opacity:0.378" fill="#dddddd" d="M 208.5,56.5 C 208.369,57.3764 208.702,58.0431 209.5,58.5C 213.388,58.3877 217.554,58.3877 222,58.5C 226.918,56.4212 231.918,56.4212 237,58.5C 238.333,57.8333 239.667,57.1667 241,56.5C 242.66,56.3241 244.326,56.9907 246,58.5C 248.333,57.8333 250.667,57.1667 253,56.5C 254.851,58.7811 256.518,58.7811 258,56.5C 260.6,58.8907 263.267,58.8907 266,56.5C 267.667,57.1667 269.333,57.8333 271,58.5C 273.485,57.5238 275.652,56.8572 277.5,56.5C 339.162,55.3354 401.496,55.3354 464.5,56.5C 464.369,57.3764 464.702,58.0431 465.5,58.5C 469.388,58.3877 473.554,58.3877 478,58.5C 480.124,57.7728 482.291,57.1062 484.5,56.5C 489.828,58.4972 494.661,58.4972 499,56.5C 500,57.1667 501,57.8333 502,58.5C 504.333,57.8333 506.667,57.1667 509,56.5C 510.851,58.7811 512.518,58.7811 514,56.5C 516.6,58.8907 519.267,58.8907 522,56.5C 522.308,57.3081 522.808,57.9747 523.5,58.5C 525.833,58.5 528.167,58.5 530.5,58.5C 531.192,57.9747 531.692,57.3081 532,56.5C 533.214,58.0488 534.714,59.2155 536.5,60C 535.66,61.6665 536.16,61.8331 538,60.5C 538.667,61.1667 539.333,61.8333 540,62.5C 540.977,61.2264 541.811,61.2264 542.5,62.5C 541.167,63.1667 541.167,63.8333 542.5,64.5C 542.613,144.049 542.947,222.382 543.5,299.5C 542.833,300.167 542.167,300.833 541.5,301.5C 543.583,304.953 543.749,308.286 542,311.5C 541.751,310.376 541.251,309.376 540.5,308.5C 539.304,308.846 539.304,309.346 540.5,310C 539.271,310.781 537.938,311.281 536.5,311.5C 513.534,310.563 490.867,310.23 468.5,310.5C 464.726,309.391 460.893,309.391 457,310.5C 455.691,308.109 454.691,308.109 454,310.5C 452.34,310.676 450.674,310.009 449,308.5C 446.457,308.635 443.79,309.302 441,310.5C 439.112,308.256 437.612,308.256 436.5,310.5C 363.406,310.928 288.739,310.928 212.5,310.5C 208.726,309.391 204.893,309.391 201,310.5C 199.691,308.109 198.691,308.109 198,310.5C 196.34,310.676 194.674,310.009 193,308.5C 190.457,308.635 187.79,309.302 185,310.5C 183.112,308.256 181.612,308.256 180.5,310.5C 153.184,310.378 125.684,310.711 98,311.5C 97.7216,310.584 97.2216,309.918 96.5,309.5C 95.7849,306.896 95.7849,304.563 96.5,302.5C 96.1627,222.517 95.8294,143.183 95.5,64.5C 95.8178,63.3527 96.4844,62.5194 97.5,62C 96.6919,61.6924 96.0253,61.1924 95.5,60.5C 96.5821,60.2514 97.9154,60.0848 99.5,60C 98.4366,58.8118 97.1033,58.3118 95.5,58.5C 95.3505,57.448 95.5172,56.448 96,55.5C 97,56.8333 98,56.8333 99,55.5C 100.61,57.5311 102.443,57.5311 104.5,55.5C 138.146,55.6604 172.812,55.9937 208.5,56.5 Z M 98.5,307.5 C 101.001,307.511 101.168,308.178 99,309.5C 98.5357,308.906 98.369,308.239 98.5,307.5 Z"/></g>
<g><path style="opacity:0.007" fill="#fafafa" d="M 277.5,56.5 C 275.652,56.8572 273.485,57.5238 271,58.5C 269.333,57.8333 267.667,57.1667 266,56.5C 263.267,58.8907 260.6,58.8907 258,56.5C 256.518,58.7811 254.851,58.7811 253,56.5C 250.667,57.1667 248.333,57.8333 246,58.5C 244.326,56.9907 242.66,56.3241 241,56.5C 239.667,57.1667 238.333,57.8333 237,58.5C 231.918,56.4212 226.918,56.4212 222,58.5C 217.554,58.3877 213.388,58.3877 209.5,58.5C 208.702,58.0431 208.369,57.3764 208.5,56.5C 231.151,55.6413 254.151,55.6413 277.5,56.5 Z"/></g>
<g><path style="opacity:1" fill="#f2f2f2" d="M 107.5,63.5 C 248.833,63.5 390.167,63.5 531.5,63.5C 531.5,140.833 531.5,218.167 531.5,295.5C 390.167,295.5 248.833,295.5 107.5,295.5C 107.5,218.167 107.5,140.833 107.5,63.5 Z"/></g>
<g><path style="opacity:0.004" fill="#fefffe" d="M 542.5,63.5 C 543.833,64.1667 543.833,64.1667 542.5,63.5 Z"/></g>
<g><path style="opacity:1" fill="#363636" d="M 496.5,84.5 C 498.736,85.3891 500.736,86.7224 502.5,88.5C 509.167,83.1667 509.833,83.8333 504.5,90.5C 509.833,97.1667 509.167,97.8333 502.5,92.5C 495.833,97.8333 495.167,97.1667 500.5,90.5C 498.722,88.736 497.389,86.736 496.5,84.5 Z"/></g>
<g><path style="opacity:1" fill="#8c8d8c" d="M 125.5,87.5 C 168.167,87.5 210.833,87.5 253.5,87.5C 253.5,91.5 253.5,95.5 253.5,99.5C 210.833,99.5 168.167,99.5 125.5,99.5C 125.5,95.5 125.5,91.5 125.5,87.5 Z"/></g>
<g><path style="opacity:1" fill="#a7a8a7" d="M 125.5,119.5 C 224.167,119.5 322.833,119.5 421.5,119.5C 421.5,121.5 421.5,123.5 421.5,125.5C 322.833,125.5 224.167,125.5 125.5,125.5C 125.5,123.5 125.5,121.5 125.5,119.5 Z"/></g>
<g><path style="opacity:1" fill="#a7a8a7" d="M 125.5,133.5 C 224.167,133.5 322.833,133.5 421.5,133.5C 421.5,135.5 421.5,137.5 421.5,139.5C 322.833,139.5 224.167,139.5 125.5,139.5C 125.5,137.5 125.5,135.5 125.5,133.5 Z"/></g>
<g><path style="opacity:1" fill="#a7a8a7" d="M 125.5,147.5 C 224.167,147.5 322.833,147.5 421.5,147.5C 421.5,149.5 421.5,151.5 421.5,153.5C 322.833,153.5 224.167,153.5 125.5,153.5C 125.5,151.5 125.5,149.5 125.5,147.5 Z"/></g>
<g><path style="opacity:1" fill="#a7a8a7" d="M 125.5,161.5 C 204.167,161.5 282.833,161.5 361.5,161.5C 361.5,163.5 361.5,165.5 361.5,167.5C 282.833,167.5 204.167,167.5 125.5,167.5C 125.5,165.5 125.5,163.5 125.5,161.5 Z"/></g>
<g><path style="opacity:1" fill="#0f6cff" d="M 125.5,243.5 C 171.5,243.5 217.5,243.5 263.5,243.5C 263.5,254.167 263.5,264.833 263.5,275.5C 217.5,275.5 171.5,275.5 125.5,275.5C 125.5,264.833 125.5,254.167 125.5,243.5 Z"/></g>
<g><path style="opacity:0.004" fill="#fefffe" d="M 96.5,302.5 C 95.8333,303.167 95.8333,303.167 96.5,302.5 Z"/></g>
<g><path style="opacity:0.007" fill="#fefffe" d="M 212.5,310.5 C 201.529,311.685 190.862,311.685 180.5,310.5C 181.612,308.256 183.112,308.256 185,310.5C 187.79,309.302 190.457,308.635 193,308.5C 194.674,310.009 196.34,310.676 198,310.5C 198.691,308.109 199.691,308.109 201,310.5C 204.893,309.391 208.726,309.391 212.5,310.5 Z"/></g>
<g><path style="opacity:0.007" fill="#fefffe" d="M 468.5,310.5 C 457.529,311.685 446.862,311.685 436.5,310.5C 437.612,308.256 439.112,308.256 441,310.5C 443.79,309.302 446.457,308.635 449,308.5C 450.674,310.009 452.34,310.676 454,310.5C 454.691,308.109 455.691,308.109 457,310.5C 460.893,309.391 464.726,309.391 468.5,310.5 Z"/></g>
<g><path style="opacity:0.004" fill="#fefffe" d="M 96.5,309.5 C 95.8333,310.167 95.8333,310.167 96.5,309.5 Z"/></g>
</svg>
