<?xml version="1.0" encoding="UTF-8"?>
<!DOCTYPE svg PUBLIC "-//W3C//DTD SVG 1.1//EN" "http://www.w3.org/Graphics/SVG/1.1/DTD/svg11.dtd">
<svg xmlns="http://www.w3.org/2000/svg" version="1.1" width="640px" height="360px" style="shape-rendering:geometricPrecision; text-rendering:geometricPrecision; image-rendering:optimizeQuality; fill-rule:evenodd; clip-rule:evenodd" xmlns:xlink="http://www.w3.org/1999/xlink">
<g><path style="opacity:1" fill="#f3f4f3" d="M 323.5,79.5 C 323.5,146.167 323.5,212.833 323.5,279.5C 256.833,279.5 190.167,279.5 123.5,279.5C 123.5,212.833 123.5,146.167 123.5,79.5C 190.167,79.5 256.833,79.5 323.5,79.5 Z"/></g>
<g><path style="opacity:1" fill="#c5c5c5" d="M 323.5,79.5 C 390.167,79.5 456.833,79.5 523.5,79.5C 523.5,146.167 523.5,212.833 523.5,279.5C 520.5,279.5 517.5,279.5 514.5,279.5C 514.5,261.5 514.5,243.5 514.5,225.5C 481.5,225.5 448.5,225.5 415.5,225.5C 415.5,243.5 415.5,261.5 415.5,279.5C 384.833,279.5 354.167,279.5 323.5,279.5C 323.5,212.833 323.5,146.167 323.5,79.5 Z"/></g>
<g><path style="opacity:1" fill="#8c8d8c" d="M 139.5,97.5 C 182.167,97.5 224.833,97.5 267.5,97.5C 267.5,99.5 267.5,101.5 267.5,103.5C 224.833,103.5 182.167,103.5 139.5,103.5C 139.5,101.5 139.5,99.5 139.5,97.5 Z"/></g>
<g><path style="opacity:1" fill="#8c8d8c" d="M 139.5,111.5 C 166.167,111.5 192.833,111.5 219.5,111.5C 219.5,113.5 219.5,115.5 219.5,117.5C 192.833,117.5 166.167,117.5 139.5,117.5C 139.5,115.5 139.5,113.5 139.5,111.5 Z"/></g>
<g><path style="opacity:1" fill="#a7a8a7" d="M 139.5,141.5 C 182.167,141.5 224.833,141.5 267.5,141.5C 267.5,142.5 267.5,143.5 267.5,144.5C 224.833,144.5 182.167,144.5 139.5,144.5C 139.5,143.5 139.5,142.5 139.5,141.5 Z"/></g>
<g><path style="opacity:1" fill="#a7a8a7" d="M 139.5,148.5 C 182.167,148.5 224.833,148.5 267.5,148.5C 267.5,149.5 267.5,150.5 267.5,151.5C 224.833,151.5 182.167,151.5 139.5,151.5C 139.5,150.5 139.5,149.5 139.5,148.5 Z"/></g>
<g><path style="opacity:1" fill="#a7a8a7" d="M 139.5,155.5 C 166.167,155.5 192.833,155.5 219.5,155.5C 219.5,156.5 219.5,157.5 219.5,158.5C 192.833,158.5 166.167,158.5 139.5,158.5C 139.5,157.5 139.5,156.5 139.5,155.5 Z"/></g>
<g><path style="opacity:1" fill="#535353" d="M 406.5,161.5 C 418.081,161.179 429.581,161.512 441,162.5C 441.82,174.076 441.654,185.576 440.5,197C 428.924,197.82 417.424,197.654 406,196.5C 405.189,184.757 405.356,173.091 406.5,161.5 Z"/></g>
<g><path style="opacity:1" fill="#c2c2c2" d="M 408.5,164.5 C 418.5,164.5 428.5,164.5 438.5,164.5C 438.666,172.174 438.5,179.841 438,187.5C 436.167,185.667 434.333,183.833 432.5,182C 429.927,181.572 427.594,181.906 425.5,183C 422.911,179.903 419.911,177.403 416.5,175.5C 413.594,176.897 411.094,178.897 409,181.5C 408.501,175.843 408.334,170.176 408.5,164.5 Z"/></g>
<g><path style="opacity:1" fill="#585858" d="M 425.5,167.5 C 432.289,167.258 433.955,169.925 430.5,175.5C 426.3,177.527 423.966,176.194 423.5,171.5C 423.752,169.927 424.418,168.594 425.5,167.5 Z"/></g>
<g><path style="opacity:1" fill="#aeaeae" d="M 426.5,170.5 C 427.5,170.5 428.5,170.5 429.5,170.5C 429.5,171.5 429.5,172.5 429.5,173.5C 428.5,173.5 427.5,173.5 426.5,173.5C 426.5,172.5 426.5,171.5 426.5,170.5 Z"/></g>
<g><path style="opacity:1" fill="#c2c2c2" d="M 414.5,178.5 C 415.552,178.351 416.552,178.517 417.5,179C 420.349,182.016 423.349,184.85 426.5,187.5C 427.916,185.861 429.583,185.027 431.5,185C 434.888,187.531 437.221,190.698 438.5,194.5C 428.5,194.5 418.5,194.5 408.5,194.5C 408.335,191.15 408.502,187.817 409,184.5C 411.04,182.63 412.873,180.63 414.5,178.5 Z"/></g>
<g><path style="opacity:1" fill="#a8a8a8" d="M 514.5,279.5 C 481.5,279.5 448.5,279.5 415.5,279.5C 415.5,261.5 415.5,243.5 415.5,225.5C 448.5,225.5 481.5,225.5 514.5,225.5C 514.5,243.5 514.5,261.5 514.5,279.5 Z"/></g>
<g><path style="opacity:1" fill="#f2f2f2" d="M 417.5,227.5 C 449.167,227.5 480.833,227.5 512.5,227.5C 512.5,244.167 512.5,260.833 512.5,277.5C 480.833,277.5 449.167,277.5 417.5,277.5C 417.5,260.833 417.5,244.167 417.5,227.5 Z"/></g>
<g><path style="opacity:1" fill="#8c8d8c" d="M 425.5,235.5 C 441.5,235.5 457.5,235.5 473.5,235.5C 473.5,236.833 473.5,238.167 473.5,239.5C 457.5,239.5 441.5,239.5 425.5,239.5C 425.5,238.167 425.5,236.833 425.5,235.5 Z"/></g>
<g><path style="opacity:1" fill="#719af9" d="M 497.5,261.5 C 504.711,263.05 505.044,266.05 498.5,270.5C 498.167,270.333 497.833,270.167 497.5,270C 498.5,269 499.5,268 500.5,267C 488.5,266 488.5,265 500.5,264C 499.627,262.955 498.627,262.122 497.5,261.5 Z"/></g>
</svg>
