<svg width="320" height="320" viewBox="0 0 320 320" fill="none" xmlns="http://www.w3.org/2000/svg">
  <rect x="162" y="110" width="100" height="100" fill="#C6C6C6" />
  <path fill-rule="evenodd" clip-rule="evenodd"
    d="M214.25 158.5C213.007 158.5 212 157.493 212 156.25C212 155.007 213.007 154 214.25 154C215.493 154 216.5 155.007 216.5 156.25C216.5 156.847 216.263 157.419 215.841 157.841C215.419 158.263 214.847 158.5 214.25 158.5V158.5ZM214.25 155.5C213.836 155.5 213.5 155.836 213.5 156.25C213.5 156.664 213.836 157 214.25 157C214.664 157 215 156.664 215 156.25C215 155.836 214.664 155.5 214.25 155.5ZM219.612 151H204.388C203.621 151 203 151.621 203 152.388V167.612C203 167.98 203.146 168.333 203.406 168.594C203.667 168.854 204.02 169 204.388 169H219.612C219.98 169 220.333 168.854 220.594 168.594C220.854 168.333 221 167.98 221 167.612V152.388C221 151.621 220.379 151 219.612 151ZM219.5 152.5V163.997L216.695 161.192C216.414 160.911 216.032 160.753 215.634 160.753C215.236 160.753 214.854 160.911 214.573 161.192L213.5 162.287L209.375 158.192C209.094 157.911 208.712 157.753 208.314 157.753C207.916 157.753 207.534 157.911 207.253 158.192L204.5 160.945V152.5H219.5ZM204.5 167.5V163.06L208.31 159.25V159.25L212.413 163.352C212.694 163.634 213.076 163.792 213.474 163.792C213.872 163.792 214.254 163.634 214.535 163.352L215.63 162.25V162.25L219.5 166.12V167.5H204.5Z"
    fill="#525252" />
  <mask id="mask0_0_4730" style="mask-type:luminance" maskUnits="userSpaceOnUse" x="203" y="151"
    width="18" height="18">
    <path fill-rule="evenodd" clip-rule="evenodd"
      d="M214.25 158.5C213.007 158.5 212 157.493 212 156.25C212 155.007 213.007 154 214.25 154C215.493 154 216.5 155.007 216.5 156.25C216.5 156.847 216.263 157.419 215.841 157.841C215.419 158.263 214.847 158.5 214.25 158.5V158.5ZM214.25 155.5C213.836 155.5 213.5 155.836 213.5 156.25C213.5 156.664 213.836 157 214.25 157C214.664 157 215 156.664 215 156.25C215 155.836 214.664 155.5 214.25 155.5ZM219.612 151H204.388C203.621 151 203 151.621 203 152.388V167.612C203 167.98 203.146 168.333 203.406 168.594C203.667 168.854 204.02 169 204.388 169H219.612C219.98 169 220.333 168.854 220.594 168.594C220.854 168.333 221 167.98 221 167.612V152.388C221 151.621 220.379 151 219.612 151ZM219.5 152.5V163.997L216.695 161.192C216.414 160.911 216.032 160.753 215.634 160.753C215.236 160.753 214.854 160.911 214.573 161.192L213.5 162.287L209.375 158.192C209.094 157.911 208.712 157.753 208.314 157.753C207.916 157.753 207.534 157.911 207.253 158.192L204.5 160.945V152.5H219.5ZM204.5 167.5V163.06L208.31 159.25V159.25L212.413 163.352C212.694 163.634 213.076 163.792 213.474 163.792C213.872 163.792 214.254 163.634 214.535 163.352L215.63 162.25V162.25L219.5 166.12V167.5H204.5Z"
      fill="white" />
  </mask>
  <g mask="url(#mask0_0_4730)">
</g>
  <rect x="62" y="110" width="100" height="100" fill="#F4F4F4" />
  <rect x="208.569" y="183.5" width="48.3448" height="26" fill="#F3F3F3" />
  <rect x="208.569" y="183.5" width="48.3448" height="26" stroke="#A8A8A8" stroke-miterlimit="0"
    stroke-linejoin="bevel" />
  <path fill-rule="evenodd" clip-rule="evenodd"
    d="M249.5 200.5L249.148 200.853L251.043 202.75H245.75V203.25H251.043L249.148 205.148L249.5 205.5L252 203L249.5 200.5V200.5Z"
    fill="#0F62FE" />
  <mask id="mask1_0_4730" style="mask-type:luminance" maskUnits="userSpaceOnUse" x="245" y="200"
    width="7" height="6">
    <path fill-rule="evenodd" clip-rule="evenodd"
      d="M249.5 200.5L249.148 200.853L251.043 202.75H245.75V203.25H251.043L249.148 205.148L249.5 205.5L252 203L249.5 200.5V200.5Z"
      fill="white" />
  </mask>
  <g mask="url(#mask1_0_4730)">
</g>
  <rect x="70" y="119" width="64" height="3" fill="#8D8D8D" />
  <rect x="70" y="126" width="40" height="3" fill="#8D8D8D" />
  <rect x="70" y="141" width="64" height="1.5" fill="#A8A8A8" />
  <rect x="70" y="148" width="40" height="1.5" fill="#A8A8A8" />
  <rect x="70" y="144.5" width="64" height="1.5" fill="#A8A8A8" />
  <rect x="213" y="188" width="24" height="2" fill="#8D8D8D" />
</svg>