<?xml version="1.0" encoding="UTF-8"?>
<!DOCTYPE svg PUBLIC "-//W3C//DTD SVG 1.1//EN" "http://www.w3.org/Graphics/SVG/1.1/DTD/svg11.dtd">
<svg xmlns="http://www.w3.org/2000/svg" version="1.1" width="640px" height="360px" style="shape-rendering:geometricPrecision; text-rendering:geometricPrecision; image-rendering:optimizeQuality; fill-rule:evenodd; clip-rule:evenodd" xmlns:xlink="http://www.w3.org/1999/xlink">
<g><path style="opacity:1" fill="#c5c5c5" d="M 319.5,79.5 C 319.5,146.167 319.5,212.833 319.5,279.5C 252.833,279.5 186.167,279.5 119.5,279.5C 119.5,212.833 119.5,146.167 119.5,79.5C 186.167,79.5 252.833,79.5 319.5,79.5 Z"/></g>
<g><path style="opacity:1" fill="#a7a8a7" d="M 319.5,79.5 C 386.167,79.5 452.833,79.5 519.5,79.5C 519.5,146.167 519.5,212.833 519.5,279.5C 452.833,279.5 386.167,279.5 319.5,279.5C 319.5,212.833 319.5,146.167 319.5,79.5 Z"/></g>
<g><path style="opacity:1" fill="#f3f3f4" d="M 321.5,81.5 C 386.833,81.5 452.167,81.5 517.5,81.5C 517.5,146.833 517.5,212.167 517.5,277.5C 452.167,277.5 386.833,277.5 321.5,277.5C 321.5,212.167 321.5,146.833 321.5,81.5 Z"/></g>
<g><path style="opacity:1" fill="#8c8d8c" d="M 335.5,99.5 C 378.167,99.5 420.833,99.5 463.5,99.5C 463.5,101.5 463.5,103.5 463.5,105.5C 420.833,105.5 378.167,105.5 335.5,105.5C 335.5,103.5 335.5,101.5 335.5,99.5 Z"/></g>
<g><path style="opacity:1" fill="#8c8d8c" d="M 335.5,113.5 C 362.167,113.5 388.833,113.5 415.5,113.5C 415.5,115.5 415.5,117.5 415.5,119.5C 388.833,119.5 362.167,119.5 335.5,119.5C 335.5,117.5 335.5,115.5 335.5,113.5 Z"/></g>
<g><path style="opacity:1" fill="#535353" d="M 202.5,161.5 C 214.081,161.179 225.581,161.512 237,162.5C 237.82,174.076 237.654,185.576 236.5,197C 224.924,197.82 213.424,197.654 202,196.5C 201.189,184.757 201.356,173.091 202.5,161.5 Z"/></g>
<g><path style="opacity:1" fill="#c2c2c2" d="M 204.5,164.5 C 214.5,164.5 224.5,164.5 234.5,164.5C 234.666,172.174 234.5,179.841 234,187.5C 232.167,185.667 230.333,183.833 228.5,182C 225.927,181.572 223.594,181.906 221.5,183C 218.911,179.903 215.911,177.403 212.5,175.5C 209.594,176.897 207.094,178.897 205,181.5C 204.501,175.843 204.334,170.176 204.5,164.5 Z"/></g>
<g><path style="opacity:1" fill="#585858" d="M 221.5,167.5 C 228.289,167.258 229.955,169.925 226.5,175.5C 222.3,177.527 219.966,176.194 219.5,171.5C 219.752,169.927 220.418,168.594 221.5,167.5 Z"/></g>
<g><path style="opacity:1" fill="#aeaeae" d="M 222.5,170.5 C 223.5,170.5 224.5,170.5 225.5,170.5C 225.5,171.5 225.5,172.5 225.5,173.5C 224.5,173.5 223.5,173.5 222.5,173.5C 222.5,172.5 222.5,171.5 222.5,170.5 Z"/></g>
<g><path style="opacity:1" fill="#c2c2c2" d="M 210.5,178.5 C 211.552,178.351 212.552,178.517 213.5,179C 216.349,182.016 219.349,184.85 222.5,187.5C 223.916,185.861 225.583,185.027 227.5,185C 230.888,187.531 233.221,190.698 234.5,194.5C 224.5,194.5 214.5,194.5 204.5,194.5C 204.335,191.15 204.502,187.817 205,184.5C 207.04,182.63 208.873,180.63 210.5,178.5 Z"/></g>
<g><path style="opacity:1" fill="#3275fc" d="M 491.5,242.5 C 494.479,244.812 497.146,247.479 499.5,250.5C 497.183,253.317 494.683,255.984 492,258.5C 492.546,255.907 494.046,253.74 496.5,252C 473.833,251 473.833,250 496.5,249C 494.21,247.223 492.543,245.056 491.5,242.5 Z"/></g>
</svg>
