<svg width="320" height="320" viewBox="0 0 320 320" fill="none" xmlns="http://www.w3.org/2000/svg">
<rect x="60" y="110" width="100" height="100" fill="#C6C6C6"/>
<rect x="160.5" y="110.5" width="99" height="99" fill="#F4F4F4" stroke="#A8A8A8"/>
<path fill-rule="evenodd" clip-rule="evenodd" d="M246.312 191.438L245.74 192.01L248.819 195.094H240.219V195.906H248.819L245.74 198.99L246.312 199.562L250.375 195.5L246.312 191.438V191.438Z" fill="#0F62FE"/>
<mask id="mask0_0_4723" style="mask-type:luminance" maskUnits="userSpaceOnUse" x="240" y="191" width="11" height="9">
<path fill-rule="evenodd" clip-rule="evenodd" d="M246.312 191.438L245.74 192.01L248.819 195.094H240.219V195.906H248.819L245.74 198.99L246.312 199.562L250.375 195.5L246.312 191.438V191.438Z" fill="white"/>
</mask>
<g mask="url(#mask0_0_4723)">
</g>
<path fill-rule="evenodd" clip-rule="evenodd" d="M112.25 158.5C111.007 158.5 110 157.493 110 156.25C110 155.007 111.007 154 112.25 154C113.493 154 114.5 155.007 114.5 156.25C114.5 156.847 114.263 157.419 113.841 157.841C113.419 158.263 112.847 158.5 112.25 158.5V158.5ZM112.25 155.5C111.836 155.5 111.5 155.836 111.5 156.25C111.5 156.664 111.836 157 112.25 157C112.664 157 113 156.664 113 156.25C113 155.836 112.664 155.5 112.25 155.5ZM117.612 151H102.388C101.621 151 101 151.621 101 152.388V167.612C101 167.98 101.146 168.333 101.406 168.594C101.667 168.854 102.02 169 102.388 169H117.612C117.98 169 118.333 168.854 118.594 168.594C118.854 168.333 119 167.98 119 167.612V152.388C119 151.621 118.379 151 117.612 151ZM117.5 152.5V163.997L114.695 161.192C114.414 160.911 114.032 160.753 113.634 160.753C113.236 160.753 112.854 160.911 112.573 161.192L111.5 162.287L107.375 158.192C107.094 157.911 106.712 157.753 106.314 157.753C105.916 157.753 105.534 157.911 105.253 158.192L102.5 160.945V152.5H117.5ZM102.5 167.5V163.06L106.31 159.25V159.25L110.413 163.352C110.694 163.634 111.076 163.792 111.474 163.792C111.872 163.792 112.254 163.634 112.535 163.352L113.63 162.25V162.25L117.5 166.12V167.5H102.5Z" fill="#525252"/>
<mask id="mask1_0_4723" style="mask-type:luminance" maskUnits="userSpaceOnUse" x="101" y="151" width="18" height="18">
<path fill-rule="evenodd" clip-rule="evenodd" d="M112.25 158.5C111.007 158.5 110 157.493 110 156.25C110 155.007 111.007 154 112.25 154C113.493 154 114.5 155.007 114.5 156.25C114.5 156.847 114.263 157.419 113.841 157.841C113.419 158.263 112.847 158.5 112.25 158.5V158.5ZM112.25 155.5C111.836 155.5 111.5 155.836 111.5 156.25C111.5 156.664 111.836 157 112.25 157C112.664 157 113 156.664 113 156.25C113 155.836 112.664 155.5 112.25 155.5ZM117.612 151H102.388C101.621 151 101 151.621 101 152.388V167.612C101 167.98 101.146 168.333 101.406 168.594C101.667 168.854 102.02 169 102.388 169H117.612C117.98 169 118.333 168.854 118.594 168.594C118.854 168.333 119 167.98 119 167.612V152.388C119 151.621 118.379 151 117.612 151ZM117.5 152.5V163.997L114.695 161.192C114.414 160.911 114.032 160.753 113.634 160.753C113.236 160.753 112.854 160.911 112.573 161.192L111.5 162.287L107.375 158.192C107.094 157.911 106.712 157.753 106.314 157.753C105.916 157.753 105.534 157.911 105.253 158.192L102.5 160.945V152.5H117.5ZM102.5 167.5V163.06L106.31 159.25V159.25L110.413 163.352C110.694 163.634 111.076 163.792 111.474 163.792C111.872 163.792 112.254 163.634 112.535 163.352L113.63 162.25V162.25L117.5 166.12V167.5H102.5Z" fill="white"/>
</mask>
<g mask="url(#mask1_0_4723)">
</g>
<rect x="168" y="120" width="64" height="3" fill="#8D8D8D"/>
<rect x="168" y="127" width="40" height="3" fill="#8D8D8D"/>
</svg>
