<?xml version="1.0" encoding="UTF-8"?>
<!DOCTYPE svg PUBLIC "-//W3C//DTD SVG 1.1//EN" "http://www.w3.org/Graphics/SVG/1.1/DTD/svg11.dtd">
<svg xmlns="http://www.w3.org/2000/svg" version="1.1" width="640px" height="360px" style="shape-rendering:geometricPrecision; text-rendering:geometricPrecision; image-rendering:optimizeQuality; fill-rule:evenodd; clip-rule:evenodd" xmlns:xlink="http://www.w3.org/1999/xlink">
<g><path style="opacity:1" fill="#f3f3f3" d="M 425.5,84.5 C 350.167,84.5 274.833,84.5 199.5,84.5C 199.5,72.8333 199.5,61.1667 199.5,49.5C 274.833,49.5 350.167,49.5 425.5,49.5C 425.5,61.1667 425.5,72.8333 425.5,84.5 Z"/></g>
<g><path style="opacity:1" fill="#8c8d8c" d="M 219.5,65.5 C 262.167,65.5 304.833,65.5 347.5,65.5C 347.5,67.5 347.5,69.5 347.5,71.5C 304.833,71.5 262.167,71.5 219.5,71.5C 219.5,69.5 219.5,67.5 219.5,65.5 Z"/></g>
<g><path style="opacity:1" fill="#d1d1d1" d="M 199.5,84.5 C 274.833,84.5 350.167,84.5 425.5,84.5C 425.5,85.1667 425.5,85.8333 425.5,86.5C 350.167,86.5 274.833,86.5 199.5,86.5C 199.5,85.8333 199.5,85.1667 199.5,84.5 Z"/></g>
<g><path style="opacity:1" fill="#f3f3f3" d="M 199.5,86.5 C 274.833,86.5 350.167,86.5 425.5,86.5C 425.5,125.833 425.5,165.167 425.5,204.5C 350.167,204.5 274.833,204.5 199.5,204.5C 199.5,165.167 199.5,125.833 199.5,86.5 Z"/></g>
<g><path style="opacity:1" fill="#8c8d8c" d="M 219.5,97.5 C 262.167,97.5 304.833,97.5 347.5,97.5C 347.5,99.5 347.5,101.5 347.5,103.5C 304.833,103.5 262.167,103.5 219.5,103.5C 219.5,101.5 219.5,99.5 219.5,97.5 Z"/></g>
<g><path style="opacity:1" fill="#4d4d4d" d="M 397.5,99.5 C 400.225,100.713 402.559,102.546 404.5,105C 403.833,105.667 403.167,105.667 402.5,105C 401.315,103.647 399.981,102.48 398.5,101.5C 397.019,102.48 395.685,103.647 394.5,105C 393.833,105.667 393.167,105.667 392.5,105C 394.373,103.296 396.04,101.463 397.5,99.5 Z"/></g>
<g><path style="opacity:1" fill="#a7a8a7" d="M 219.5,121.5 C 262.167,121.5 304.833,121.5 347.5,121.5C 347.5,123.5 347.5,125.5 347.5,127.5C 304.833,127.5 262.167,127.5 219.5,127.5C 219.5,125.5 219.5,123.5 219.5,121.5 Z"/></g>
<g><path style="opacity:1" fill="#c4c4c4" d="M 347.5,149.5 C 347.5,147.833 347.5,146.167 347.5,144.5C 305.167,144.5 262.833,144.5 220.5,144.5C 220.5,146.167 220.5,147.833 220.5,149.5C 219.539,147.735 219.205,145.735 219.5,143.5C 262.5,143.5 305.5,143.5 348.5,143.5C 348.795,145.735 348.461,147.735 347.5,149.5 Z"/></g>
<g><path style="opacity:1" fill="#a7a8a7" d="M 347.5,149.5 C 305.167,149.5 262.833,149.5 220.5,149.5C 220.5,147.833 220.5,146.167 220.5,144.5C 262.833,144.5 305.167,144.5 347.5,144.5C 347.5,146.167 347.5,147.833 347.5,149.5 Z"/></g>
<g><path style="opacity:1" fill="#a7a8a7" d="M 219.5,167.5 C 262.167,167.5 304.833,167.5 347.5,167.5C 347.5,169.5 347.5,171.5 347.5,173.5C 304.833,173.5 262.167,173.5 219.5,173.5C 219.5,171.5 219.5,169.5 219.5,167.5 Z"/></g>
<g><path style="opacity:1" fill="#d5d5d5" d="M 199.5,204.5 C 274.833,204.5 350.167,204.5 425.5,204.5C 425.5,205.167 425.5,205.833 425.5,206.5C 350.167,206.5 274.833,206.5 199.5,206.5C 199.5,205.833 199.5,205.167 199.5,204.5 Z"/></g>
<g><path style="opacity:1" fill="#f3f3f3" d="M 199.5,206.5 C 274.833,206.5 350.167,206.5 425.5,206.5C 425.5,217.5 425.5,228.5 425.5,239.5C 350.167,239.5 274.833,239.5 199.5,239.5C 199.5,228.5 199.5,217.5 199.5,206.5 Z"/></g>
<g><path style="opacity:1" fill="#a9a9a9" d="M 347.5,225.5 C 347.5,223.833 347.5,222.167 347.5,220.5C 305.167,220.5 262.833,220.5 220.5,220.5C 220.5,222.167 220.5,223.833 220.5,225.5C 219.539,223.735 219.205,221.735 219.5,219.5C 262.5,219.5 305.5,219.5 348.5,219.5C 348.795,221.735 348.461,223.735 347.5,225.5 Z"/></g>
<g><path style="opacity:1" fill="#8c8d8c" d="M 347.5,225.5 C 305.167,225.5 262.833,225.5 220.5,225.5C 220.5,223.833 220.5,222.167 220.5,220.5C 262.833,220.5 305.167,220.5 347.5,220.5C 347.5,222.167 347.5,223.833 347.5,225.5 Z"/></g>
<g><path style="opacity:1" fill="#393939" d="M 392.5,221.5 C 392.56,220.957 392.893,220.624 393.5,220.5C 395.167,221.833 396.833,223.167 398.5,224.5C 399.981,223.52 401.315,222.353 402.5,221C 403.167,220.333 403.833,220.333 404.5,221C 402.65,223.018 400.65,224.851 398.5,226.5C 396.481,224.81 394.481,223.144 392.5,221.5 Z"/></g>
<g><path style="opacity:1" fill="#c7c7c7" d="M 199.5,239.5 C 274.833,239.5 350.167,239.5 425.5,239.5C 425.5,240.167 425.5,240.833 425.5,241.5C 350.167,241.5 274.833,241.5 199.5,241.5C 199.5,240.833 199.5,240.167 199.5,239.5 Z"/></g>
<g><path style="opacity:1" fill="#f3f3f3" d="M 199.5,241.5 C 274.833,241.5 350.167,241.5 425.5,241.5C 425.5,252.833 425.5,264.167 425.5,275.5C 350.167,275.5 274.833,275.5 199.5,275.5C 199.5,264.167 199.5,252.833 199.5,241.5 Z"/></g>
<g><path style="opacity:1" fill="#8e8e8e" d="M 220.5,255.5 C 262.833,255.5 305.167,255.5 347.5,255.5C 347.5,257.5 347.5,259.5 347.5,261.5C 305.167,261.5 262.833,261.5 220.5,261.5C 220.5,259.5 220.5,257.5 220.5,255.5 Z"/></g>
<g><path style="opacity:1" fill="#3e3e3e" d="M 392.5,257.5 C 392.56,256.957 392.893,256.624 393.5,256.5C 395.167,257.833 396.833,259.167 398.5,260.5C 399.981,259.52 401.315,258.353 402.5,257C 403.167,256.333 403.833,256.333 404.5,257C 402.65,259.018 400.65,260.851 398.5,262.5C 396.481,260.81 394.481,259.144 392.5,257.5 Z"/></g>
<g><path style="opacity:1" fill="#c9c9c9" d="M 199.5,275.5 C 274.833,275.5 350.167,275.5 425.5,275.5C 425.5,276.167 425.5,276.833 425.5,277.5C 350.167,277.5 274.833,277.5 199.5,277.5C 199.5,276.833 199.5,276.167 199.5,275.5 Z"/></g>
<g><path style="opacity:1" fill="#f3f4f3" d="M 199.5,277.5 C 274.833,277.5 350.167,277.5 425.5,277.5C 425.5,288.167 425.5,298.833 425.5,309.5C 350.167,309.5 274.833,309.5 199.5,309.5C 199.5,298.833 199.5,288.167 199.5,277.5 Z"/></g>
</svg>
