<?xml version="1.0" encoding="UTF-8"?>
<!DOCTYPE svg PUBLIC "-//W3C//DTD SVG 1.1//EN" "http://www.w3.org/Graphics/SVG/1.1/DTD/svg11.dtd">
<svg xmlns="http://www.w3.org/2000/svg" version="1.1" width="640px" height="360px" style="shape-rendering:geometricPrecision; text-rendering:geometricPrecision; image-rendering:optimizeQuality; fill-rule:evenodd; clip-rule:evenodd" xmlns:xlink="http://www.w3.org/1999/xlink">
<g><path style="opacity:0.2" fill="#000000" d="M 110.5,88.5 C 249.833,88.5 389.167,88.5 528.5,88.5C 528.5,148.5 528.5,208.5 528.5,268.5C 389.167,268.5 249.833,268.5 110.5,268.5C 110.5,208.5 110.5,148.5 110.5,88.5 Z"/></g>
<g><path style="opacity:1" fill="#1d1e1d" d="M 111.5,89.5 C 250.167,89.5 388.833,89.5 527.5,89.5C 527.5,148.833 527.5,208.167 527.5,267.5C 388.833,267.5 250.167,267.5 111.5,267.5C 111.5,208.167 111.5,148.833 111.5,89.5 Z"/></g>
<g><path style="opacity:1" fill="#262626" d="M 112.5,90.5 C 250.5,90.5 388.5,90.5 526.5,90.5C 526.5,149.167 526.5,207.833 526.5,266.5C 388.5,266.5 250.5,266.5 112.5,266.5C 112.5,207.833 112.5,149.167 112.5,90.5 Z"/></g>
<g><path style="opacity:1" fill="#a2a3a2" d="M 434.5,104.5 C 461.167,104.5 487.833,104.5 514.5,104.5C 514.5,110.5 514.5,116.5 514.5,122.5C 487.833,122.5 461.167,122.5 434.5,122.5C 434.5,116.5 434.5,110.5 434.5,104.5 Z"/></g>
<g><path style="opacity:1" fill="#a7a8a7" d="M 125.5,105.5 C 141.5,105.5 157.5,105.5 173.5,105.5C 173.5,110.833 173.5,116.167 173.5,121.5C 157.5,121.5 141.5,121.5 125.5,121.5C 125.5,116.167 125.5,110.833 125.5,105.5 Z"/></g>
<g><path style="opacity:1" fill="#fefffe" d="M 229.5,105.5 C 242.833,105.5 256.167,105.5 269.5,105.5C 269.5,106.833 269.5,108.167 269.5,109.5C 256.167,109.5 242.833,109.5 229.5,109.5C 229.5,108.167 229.5,106.833 229.5,105.5 Z"/></g>
<g><path style="opacity:1" fill="#252625" d="M 436.5,106.5 C 461.833,106.5 487.167,106.5 512.5,106.5C 512.5,111.167 512.5,115.833 512.5,120.5C 487.167,120.5 461.833,120.5 436.5,120.5C 436.5,115.833 436.5,111.167 436.5,106.5 Z"/></g>
<g><path style="opacity:1" fill="#fefffe" d="M 229.5,153.5 C 242.833,153.5 256.167,153.5 269.5,153.5C 269.5,154.833 269.5,156.167 269.5,157.5C 256.167,157.5 242.833,157.5 229.5,157.5C 229.5,156.167 229.5,154.833 229.5,153.5 Z"/></g>
<g><path style="opacity:1" fill="#fefffe" d="M 331.5,153.5 C 344.833,153.5 358.167,153.5 371.5,153.5C 371.5,154.833 371.5,156.167 371.5,157.5C 358.167,157.5 344.833,157.5 331.5,157.5C 331.5,156.167 331.5,154.833 331.5,153.5 Z"/></g>
<g><path style="opacity:1" fill="#fefffe" d="M 435.5,153.5 C 448.833,153.5 462.167,153.5 475.5,153.5C 475.5,154.833 475.5,156.167 475.5,157.5C 462.167,157.5 448.833,157.5 435.5,157.5C 435.5,156.167 435.5,154.833 435.5,153.5 Z"/></g>
<g><path style="opacity:1" fill="#a7a8a7" d="M 229.5,169.5 C 242.833,169.5 256.167,169.5 269.5,169.5C 269.5,170.833 269.5,172.167 269.5,173.5C 256.167,173.5 242.833,173.5 229.5,173.5C 229.5,172.167 229.5,170.833 229.5,169.5 Z"/></g>
<g><path style="opacity:1" fill="#a7a8a7" d="M 331.5,169.5 C 344.833,169.5 358.167,169.5 371.5,169.5C 371.5,170.833 371.5,172.167 371.5,173.5C 358.167,173.5 344.833,173.5 331.5,173.5C 331.5,172.167 331.5,170.833 331.5,169.5 Z"/></g>
<g><path style="opacity:1" fill="#a7a8a7" d="M 435.5,169.5 C 448.833,169.5 462.167,169.5 475.5,169.5C 475.5,170.833 475.5,172.167 475.5,173.5C 462.167,173.5 448.833,173.5 435.5,173.5C 435.5,172.167 435.5,170.833 435.5,169.5 Z"/></g>
<g><path style="opacity:1" fill="#a7a8a7" d="M 229.5,185.5 C 242.833,185.5 256.167,185.5 269.5,185.5C 269.5,186.833 269.5,188.167 269.5,189.5C 256.167,189.5 242.833,189.5 229.5,189.5C 229.5,188.167 229.5,186.833 229.5,185.5 Z"/></g>
<g><path style="opacity:1" fill="#a7a8a7" d="M 331.5,185.5 C 344.833,185.5 358.167,185.5 371.5,185.5C 371.5,186.833 371.5,188.167 371.5,189.5C 358.167,189.5 344.833,189.5 331.5,189.5C 331.5,188.167 331.5,186.833 331.5,185.5 Z"/></g>
<g><path style="opacity:1" fill="#a7a8a7" d="M 435.5,185.5 C 448.833,185.5 462.167,185.5 475.5,185.5C 475.5,186.833 475.5,188.167 475.5,189.5C 462.167,189.5 448.833,189.5 435.5,189.5C 435.5,188.167 435.5,186.833 435.5,185.5 Z"/></g>
<g><path style="opacity:1" fill="#a7a8a7" d="M 229.5,201.5 C 242.833,201.5 256.167,201.5 269.5,201.5C 269.5,202.833 269.5,204.167 269.5,205.5C 256.167,205.5 242.833,205.5 229.5,205.5C 229.5,204.167 229.5,202.833 229.5,201.5 Z"/></g>
<g><path style="opacity:1" fill="#a7a8a7" d="M 331.5,201.5 C 344.833,201.5 358.167,201.5 371.5,201.5C 371.5,202.833 371.5,204.167 371.5,205.5C 358.167,205.5 344.833,205.5 331.5,205.5C 331.5,204.167 331.5,202.833 331.5,201.5 Z"/></g>
<g><path style="opacity:1" fill="#a7a8a7" d="M 331.5,217.5 C 344.833,217.5 358.167,217.5 371.5,217.5C 371.5,218.833 371.5,220.167 371.5,221.5C 358.167,221.5 344.833,221.5 331.5,221.5C 331.5,220.167 331.5,218.833 331.5,217.5 Z"/></g>
<g><path style="opacity:1" fill="#a7a8a7" d="M 229.5,251.5 C 242.833,251.5 256.167,251.5 269.5,251.5C 269.5,252.833 269.5,254.167 269.5,255.5C 256.167,255.5 242.833,255.5 229.5,255.5C 229.5,254.167 229.5,252.833 229.5,251.5 Z"/></g>
<g><path style="opacity:1" fill="#a7a8a7" d="M 331.5,251.5 C 344.833,251.5 358.167,251.5 371.5,251.5C 371.5,252.833 371.5,254.167 371.5,255.5C 358.167,255.5 344.833,255.5 331.5,255.5C 331.5,254.167 331.5,252.833 331.5,251.5 Z"/></g>
<g><path style="opacity:1" fill="#a7a8a7" d="M 435.5,251.5 C 448.833,251.5 462.167,251.5 475.5,251.5C 475.5,252.833 475.5,254.167 475.5,255.5C 462.167,255.5 448.833,255.5 435.5,255.5C 435.5,254.167 435.5,252.833 435.5,251.5 Z"/></g>
</svg>
