<svg width="320" height="320" viewBox="0 0 320 320" fill="none" xmlns="http://www.w3.org/2000/svg">
    <rect x="56" y="104" width="49" height="26" fill="#C6C6C6" />
    <rect x="105.5" y="104.5" width="158" height="25" fill="white" stroke="#A8A8A8" />
    <rect x="112" y="112" width="68" height="3" fill="#8D8D8D" />
    <rect x="112" y="118" width="24" height="2" fill="#8D8D8D" />
    <rect x="56.5" y="139.5" width="207" height="77" fill="white" stroke="#A8A8A8" />
    <rect x="67" y="150" width="86" height="3" fill="#8D8D8D" />
    <rect x="67" y="157" width="48" height="3" fill="#8D8D8D" />
    <rect x="67" y="197" width="39" height="10" fill="#0F62FE" />
    <rect x="112" y="197" width="40" height="10" stroke="#0F62FE" />
    <path fill-rule="evenodd" clip-rule="evenodd"
        d="M82.5 116C81.6716 116 81 115.328 81 114.5C81 113.672 81.6716 113 82.5 113C83.3284 113 84 113.672 84 114.5C84 114.898 83.842 115.279 83.5607 115.561C83.2794 115.842 82.8978 116 82.5 116ZM82.5 114C82.2239 114 82 114.224 82 114.5C82 114.776 82.2239 115 82.5 115C82.7761 115 83 114.776 83 114.5C83 114.224 82.7761 114 82.5 114ZM86.075 111H75.925C75.4141 111 75 111.414 75 111.925V122.075C75 122.32 75.0975 122.556 75.2709 122.729C75.4444 122.903 75.6797 123 75.925 123H86.075C86.3203 123 86.5556 122.903 86.7291 122.729C86.9025 122.556 87 122.32 87 122.075V111.925C87 111.414 86.5859 111 86.075 111ZM86 112V119.665L84.13 117.795C83.9424 117.607 83.6879 117.502 83.4225 117.502C83.1571 117.502 82.9026 117.607 82.715 117.795L82 118.525L79.25 115.795C79.0624 115.607 78.8079 115.502 78.5425 115.502C78.2771 115.502 78.0226 115.607 77.835 115.795L76 117.63V112H86ZM76 122V119.04L78.54 116.5L81.275 119.235C81.4626 119.423 81.7171 119.528 81.9825 119.528C82.2479 119.528 82.5024 119.423 82.69 119.235L83.42 118.5L86 121.08V122H76Z"
        fill="#525252" />
    <mask id="mask0_1310_4938" style="mask-type:luminance" maskUnits="userSpaceOnUse" x="75" y="111"
        width="12" height="12">
        <path fill-rule="evenodd" clip-rule="evenodd"
            d="M82.5 116C81.6716 116 81 115.328 81 114.5C81 113.672 81.6716 113 82.5 113C83.3284 113 84 113.672 84 114.5C84 114.898 83.842 115.279 83.5607 115.561C83.2794 115.842 82.8978 116 82.5 116ZM82.5 114C82.2239 114 82 114.224 82 114.5C82 114.776 82.2239 115 82.5 115C82.7761 115 83 114.776 83 114.5C83 114.224 82.7761 114 82.5 114ZM86.075 111H75.925C75.4141 111 75 111.414 75 111.925V122.075C75 122.32 75.0975 122.556 75.2709 122.729C75.4444 122.903 75.6797 123 75.925 123H86.075C86.3203 123 86.5556 122.903 86.7291 122.729C86.9025 122.556 87 122.32 87 122.075V111.925C87 111.414 86.5859 111 86.075 111ZM86 112V119.665L84.13 117.795C83.9424 117.607 83.6879 117.502 83.4225 117.502C83.1571 117.502 82.9026 117.607 82.715 117.795L82 118.525L79.25 115.795C79.0624 115.607 78.8079 115.502 78.5425 115.502C78.2771 115.502 78.0226 115.607 77.835 115.795L76 117.63V112H86ZM76 122V119.04L78.54 116.5L81.275 119.235C81.4626 119.423 81.7171 119.528 81.9825 119.528C82.2479 119.528 82.5024 119.423 82.69 119.235L83.42 118.5L86 121.08V122H76Z"
            fill="white" />
    </mask>
    <g mask="url(#mask0_1310_4938)">
</g>
    <path d="M56.5 128.5H263.5V139.5H56.5V128.5Z" fill="white" stroke="#A8A8A8" />
    <rect x="242" y="132" width="5" height="5" fill="#C6C6C6" />
    <rect x="252" y="132" width="5" height="5" fill="#C6C6C6" />
    <rect x="87" y="133" width="20" height="2" fill="#A8A8A8" />
    <rect x="115" y="133" width="20" height="2" fill="#A8A8A8" />
    <rect x="143" y="133" width="20" height="2" fill="#A8A8A8" />
    <rect x="171" y="133" width="20" height="2" fill="#A8A8A8" />
    <rect x="63" y="133" width="16" height="3" fill="#8D8D8D" />
    <rect x="67" y="180" width="86" height="2" fill="#A8A8A8" />
    <rect x="67" y="185" width="40" height="2" fill="#A8A8A8" />
</svg>