<?xml version="1.0" encoding="UTF-8"?>
<svg width="320px" height="320px" viewBox="0 0 320 320" version="1.1" xmlns="http://www.w3.org/2000/svg" xmlns:xlink="http://www.w3.org/1999/xlink">
    <title>global_banner</title>
    <defs>
        <path d="M11.875,8.75 C10.8394661,8.75 10,7.91053391 10,6.875 C10,5.83946609 10.8394661,5 11.875,5 C12.9105339,5 13.75,5.83946609 13.75,6.875 C13.75,7.37228092 13.5524559,7.84919451 13.2008252,8.20082521 C12.8491945,8.55245592 12.3722809,8.75 11.875,8.75 L11.875,8.75 Z M11.875,6.25 C11.529822,6.25 11.25,6.52982203 11.25,6.875 C11.25,7.22017797 11.529822,7.5 11.875,7.5 C12.220178,7.5 12.5,7.22017797 12.5,6.875 C12.5,6.52982203 12.220178,6.25 11.875,6.25 Z M16.34375,2.5 L3.65625,2.5 C3.01767076,2.5 2.5,3.01767076 2.5,3.65625 L2.5,16.34375 C2.5,16.6504066 2.62181885,16.9445033 2.83865778,17.1613422 C3.05549672,17.3781812 3.34959343,17.5 3.65625,17.5 L16.34375,17.5 C16.6504066,17.5 16.9445033,17.3781812 17.1613422,17.1613422 C17.3781812,16.9445033 17.5,16.6504066 17.5,16.34375 L17.5,3.65625 C17.5,3.01767076 16.9823292,2.5 16.34375,2.5 Z M16.25,3.75 L16.25,13.33125 L13.9125,10.99375 C13.6780397,10.7590287 13.3598866,10.6271417 13.028125,10.6271417 C12.6963634,10.6271417 12.3782103,10.7590287 12.14375,10.99375 L11.25,11.90625 L7.8125,8.49375 C7.57803968,8.2590287 7.25988656,8.12714168 6.928125,8.12714168 C6.59636344,8.12714168 6.27821032,8.2590287 6.04375,8.49375 L3.75,10.7875 L3.75,3.75 L16.25,3.75 Z M3.75,16.25 L3.75,12.55 L6.925,9.375 L6.925,9.375 L10.34375,12.79375 C10.5782103,13.0284713 10.8963634,13.1603583 11.228125,13.1603583 C11.5598866,13.1603583 11.8780397,13.0284713 12.1125,12.79375 L13.025,11.875 L13.025,11.875 L16.25,15.1 L16.25,16.25 L3.75,16.25 Z" id="path-1"></path>
    </defs>
    <g id="global_banner" stroke="none" stroke-width="1" fill="none" fill-rule="evenodd">
        <rect id="Rectangle" fill="#262626" x="60" y="144" width="200" height="32"></rect>
        <rect id="Rectangle-Copy-4" fill="#F4F4F4" x="117" y="152" width="72" height="6"></rect>
        <rect id="Rectangle-Copy-5" fill="#6F6F6F" x="117" y="166" width="39" height="2"></rect>
        <rect id="Rectangle-Copy-8" stroke="#979797" x="219.5" y="152.5" width="31" height="7"></rect>
        <rect id="Rectangle-Copy-50" fill="#C6C6C6" x="60" y="144" width="50" height="32"></rect>
        <g id="icon/formatting/image/16-copy-3" transform="translate(75.000000, 150.000000)">
            <mask id="mask-2" fill="white">
                <use xlink:href="#path-1"></use>
            </mask>
            <use id="icon-color" fill="#8E8E93" xlink:href="#path-1"></use>
        </g>
    </g>
</svg>