<?xml version="1.0" encoding="UTF-8"?>
<!DOCTYPE svg PUBLIC "-//W3C//DTD SVG 1.1//EN" "http://www.w3.org/Graphics/SVG/1.1/DTD/svg11.dtd">
<svg xmlns="http://www.w3.org/2000/svg" version="1.1" width="640px" height="360px" style="shape-rendering:geometricPrecision; text-rendering:geometricPrecision; image-rendering:optimizeQuality; fill-rule:evenodd; clip-rule:evenodd" xmlns:xlink="http://www.w3.org/1999/xlink">
<g><path style="opacity:1" fill="#c5c5c5" d="M 209.5,65.5 C 209.5,81.5 209.5,97.5 209.5,113.5C 176.833,113.5 144.167,113.5 111.5,113.5C 111.5,97.5 111.5,81.5 111.5,65.5C 144.167,65.5 176.833,65.5 209.5,65.5 Z"/></g>
<g><path style="opacity:1" fill="#a7a8a7" d="M 209.5,65.5 C 315.5,65.5 421.5,65.5 527.5,65.5C 527.5,140.833 527.5,216.167 527.5,291.5C 388.833,291.5 250.167,291.5 111.5,291.5C 111.5,232.167 111.5,172.833 111.5,113.5C 144.167,113.5 176.833,113.5 209.5,113.5C 209.5,97.5 209.5,81.5 209.5,65.5 Z"/></g>
<g><path style="opacity:1" fill="#fefffe" d="M 211.5,67.5 C 316.167,67.5 420.833,67.5 525.5,67.5C 525.5,82.8333 525.5,98.1667 525.5,113.5C 420.833,113.5 316.167,113.5 211.5,113.5C 211.5,98.1667 211.5,82.8333 211.5,67.5 Z"/></g>
<g><path style="opacity:1" fill="#545454" d="M 150.5,79.5 C 158.087,79.1858 165.587,79.5192 173,80.5C 173.813,88.0799 173.647,95.5799 172.5,103C 164.92,103.813 157.42,103.647 150,102.5C 149.202,94.754 149.369,87.0873 150.5,79.5 Z"/></g>
<g><path style="opacity:1" fill="#c3c3c3" d="M 151.5,81.5 C 158.167,81.5 164.833,81.5 171.5,81.5C 171.666,86.5111 171.499,91.5111 171,96.5C 169.649,94.981 168.149,93.6477 166.5,92.5C 164.902,93.4847 163.235,93.6514 161.5,93C 159.978,91.4782 158.478,89.9782 157,88.5C 155.056,89.4394 153.389,90.7727 152,92.5C 151.501,88.8484 151.335,85.1817 151.5,81.5 Z"/></g>
<g><path style="opacity:1" fill="#8c8d8c" d="M 223.5,81.5 C 268.833,81.5 314.167,81.5 359.5,81.5C 359.5,83.5 359.5,85.5 359.5,87.5C 314.167,87.5 268.833,87.5 223.5,87.5C 223.5,85.5 223.5,83.5 223.5,81.5 Z"/></g>
<g><path style="opacity:1" fill="#686868" d="M 162.5,83.5 C 167.159,83.0146 168.492,84.848 166.5,89C 161.728,89.8104 160.395,87.9771 162.5,83.5 Z"/></g>
<g><path style="opacity:1" fill="#c0c0c0" d="M 155.5,90.5 C 158.412,92.0663 161.079,94.0663 163.5,96.5C 167.145,95.4087 169.812,96.742 171.5,100.5C 164.866,101.497 158.2,101.83 151.5,101.5C 150.658,96.9494 151.992,93.2827 155.5,90.5 Z"/></g>
<g><path style="opacity:1" fill="#8c8d8c" d="M 223.5,93.5 C 239.5,93.5 255.5,93.5 271.5,93.5C 271.5,94.8333 271.5,96.1667 271.5,97.5C 255.5,97.5 239.5,97.5 223.5,97.5C 223.5,96.1667 223.5,94.8333 223.5,93.5 Z"/></g>
<g><path style="opacity:1" fill="#fefffe" d="M 113.5,115.5 C 250.833,115.5 388.167,115.5 525.5,115.5C 525.5,122.167 525.5,128.833 525.5,135.5C 388.167,135.5 250.833,135.5 113.5,135.5C 113.5,128.833 113.5,122.167 113.5,115.5 Z"/></g>
<g><path style="opacity:1" fill="#c5c6c5" d="M 483.5,121.5 C 486.833,121.5 490.167,121.5 493.5,121.5C 493.5,124.833 493.5,128.167 493.5,131.5C 490.167,131.5 486.833,131.5 483.5,131.5C 483.5,128.167 483.5,124.833 483.5,121.5 Z"/></g>
<g><path style="opacity:1" fill="#c5c6c5" d="M 503.5,121.5 C 506.833,121.5 510.167,121.5 513.5,121.5C 513.5,124.833 513.5,128.167 513.5,131.5C 510.167,131.5 506.833,131.5 503.5,131.5C 503.5,128.167 503.5,124.833 503.5,121.5 Z"/></g>
<g><path style="opacity:1" fill="#8c8d8c" d="M 125.5,123.5 C 136.167,123.5 146.833,123.5 157.5,123.5C 157.5,125.5 157.5,127.5 157.5,129.5C 146.833,129.5 136.167,129.5 125.5,129.5C 125.5,127.5 125.5,125.5 125.5,123.5 Z"/></g>
<g><path style="opacity:1" fill="#a7a8a7" d="M 173.5,123.5 C 186.833,123.5 200.167,123.5 213.5,123.5C 213.5,124.833 213.5,126.167 213.5,127.5C 200.167,127.5 186.833,127.5 173.5,127.5C 173.5,126.167 173.5,124.833 173.5,123.5 Z"/></g>
<g><path style="opacity:1" fill="#a7a8a7" d="M 229.5,123.5 C 242.833,123.5 256.167,123.5 269.5,123.5C 269.5,124.833 269.5,126.167 269.5,127.5C 256.167,127.5 242.833,127.5 229.5,127.5C 229.5,126.167 229.5,124.833 229.5,123.5 Z"/></g>
<g><path style="opacity:1" fill="#a7a8a7" d="M 285.5,123.5 C 298.833,123.5 312.167,123.5 325.5,123.5C 325.5,124.833 325.5,126.167 325.5,127.5C 312.167,127.5 298.833,127.5 285.5,127.5C 285.5,126.167 285.5,124.833 285.5,123.5 Z"/></g>
<g><path style="opacity:1" fill="#a7a8a7" d="M 341.5,123.5 C 354.833,123.5 368.167,123.5 381.5,123.5C 381.5,124.833 381.5,126.167 381.5,127.5C 368.167,127.5 354.833,127.5 341.5,127.5C 341.5,126.167 341.5,124.833 341.5,123.5 Z"/></g>
<g><path style="opacity:1" fill="#fefffe" d="M 113.5,137.5 C 250.833,137.5 388.167,137.5 525.5,137.5C 525.5,188.167 525.5,238.833 525.5,289.5C 388.167,289.5 250.833,289.5 113.5,289.5C 113.5,238.833 113.5,188.167 113.5,137.5 Z"/></g>
<g><path style="opacity:1" fill="#8c8d8c" d="M 133.5,157.5 C 190.833,157.5 248.167,157.5 305.5,157.5C 305.5,159.5 305.5,161.5 305.5,163.5C 248.167,163.5 190.833,163.5 133.5,163.5C 133.5,161.5 133.5,159.5 133.5,157.5 Z"/></g>
<g><path style="opacity:1" fill="#8c8d8c" d="M 133.5,171.5 C 165.5,171.5 197.5,171.5 229.5,171.5C 229.5,173.5 229.5,175.5 229.5,177.5C 197.5,177.5 165.5,177.5 133.5,177.5C 133.5,175.5 133.5,173.5 133.5,171.5 Z"/></g>
<g><path style="opacity:1" fill="#a7a8a7" d="M 133.5,217.5 C 190.833,217.5 248.167,217.5 305.5,217.5C 305.5,218.833 305.5,220.167 305.5,221.5C 248.167,221.5 190.833,221.5 133.5,221.5C 133.5,220.167 133.5,218.833 133.5,217.5 Z"/></g>
<g><path style="opacity:1" fill="#a7a8a7" d="M 133.5,227.5 C 160.167,227.5 186.833,227.5 213.5,227.5C 213.5,228.833 213.5,230.167 213.5,231.5C 186.833,231.5 160.167,231.5 133.5,231.5C 133.5,230.167 133.5,228.833 133.5,227.5 Z"/></g>
<g><path style="opacity:1" fill="#0f61fe" d="M 222.5,250.5 C 249.833,250.5 277.167,250.5 304.5,250.5C 304.5,257.833 304.5,265.167 304.5,272.5C 277.167,272.5 249.833,272.5 222.5,272.5C 222.5,265.167 222.5,257.833 222.5,250.5 Z"/></g>
<g><path style="opacity:1" fill="#0f61fe" d="M 133.5,251.5 C 159.5,251.5 185.5,251.5 211.5,251.5C 211.5,258.167 211.5,264.833 211.5,271.5C 185.5,271.5 159.5,271.5 133.5,271.5C 133.5,264.833 133.5,258.167 133.5,251.5 Z"/></g>
<g><path style="opacity:1" fill="#fefffe" d="M 224.5,252.5 C 250.5,252.5 276.5,252.5 302.5,252.5C 302.5,258.5 302.5,264.5 302.5,270.5C 276.5,270.5 250.5,270.5 224.5,270.5C 224.5,264.5 224.5,258.5 224.5,252.5 Z"/></g>
</svg>
