<?xml version="1.0" encoding="UTF-8"?>
<svg width="320px" height="320px" viewBox="0 0 320 320" version="1.1" xmlns="http://www.w3.org/2000/svg" xmlns:xlink="http://www.w3.org/1999/xlink">
    <title>layout</title>
    <g id="layout" stroke="none" stroke-width="1" fill="none" fill-rule="evenodd">
        <g id="Group" transform="translate(46.000000, 109.000000)">
            <rect id="Rectangle-Copy-55" fill="#C6C6C6" x="50" y="18" width="116" height="4"></rect>
            <rect id="Rectangle-Copy-56" fill="#C6C6C6" x="50" y="51" width="116" height="4"></rect>
            <rect id="Rectangle-Copy-61" fill="#C6C6C6" x="50" y="84" width="116" height="4"></rect>
            <rect id="Rectangle-Copy-62" fill="#C6C6C6" x="50" y="25" width="129" height="4"></rect>
            <rect id="Rectangle-Copy-65" fill="#C6C6C6" x="50" y="58" width="129" height="4"></rect>
            <rect id="Rectangle-Copy-66" fill="#C6C6C6" x="50" y="91" width="129" height="4"></rect>
            <rect id="Rectangle-Copy-67" fill="#C6C6C6" x="50" y="11" width="129" height="4"></rect>
            <rect id="Rectangle-Copy-68" fill="#C6C6C6" x="50" y="44" width="129" height="4"></rect>
            <rect id="Rectangle-Copy-69" fill="#C6C6C6" x="50" y="77" width="129" height="4"></rect>
            <rect id="Rectangle-Copy-70" fill="#C6C6C6" x="199" y="11" width="22" height="4"></rect>
            <rect id="Rectangle-Copy-71" fill="#C6C6C6" x="0" y="11" width="22" height="4"></rect>
            <rect id="Rectangle-Copy-72" fill="#C6C6C6" x="199" y="18" width="25" height="4"></rect>
            <rect id="Rectangle-Copy-73" fill="#C6C6C6" x="0" y="18" width="25" height="4"></rect>
            <rect id="Rectangle-Copy-74" fill="#C6C6C6" x="199" y="25" width="22" height="4"></rect>
            <rect id="Rectangle-Copy-75" fill="#C6C6C6" x="0" y="25" width="22" height="4"></rect>
            <rect id="Rectangle-Copy-76" fill="#A8A8A8" x="50" y="0" width="30" height="6"></rect>
            <rect id="Rectangle-Copy-77" fill="#A8A8A8" x="0" y="0" width="30" height="6"></rect>
            <rect id="Rectangle-Copy-78" fill="#A8A8A8" x="199" y="0" width="30" height="6"></rect>
            <rect id="Rectangle-Copy-79" fill="#C6C6C6" x="50" y="32" width="116" height="4"></rect>
            <rect id="Rectangle-Copy-80" fill="#C6C6C6" x="50" y="65" width="116" height="4"></rect>
            <rect id="Rectangle-Copy-81" fill="#C6C6C6" x="50" y="98" width="116" height="4"></rect>
        </g>
    </g>
</svg>