<?xml version="1.0" encoding="UTF-8"?>
<!DOCTYPE svg PUBLIC "-//W3C//DTD SVG 1.1//EN" "http://www.w3.org/Graphics/SVG/1.1/DTD/svg11.dtd">
<svg xmlns="http://www.w3.org/2000/svg" version="1.1" width="640px" height="360px" style="shape-rendering:geometricPrecision; text-rendering:geometricPrecision; image-rendering:optimizeQuality; fill-rule:evenodd; clip-rule:evenodd" xmlns:xlink="http://www.w3.org/1999/xlink">
<g><path style="opacity:0.875" fill="#acacac" d="M 142.5,46.5 C 260.5,46.5 378.5,46.5 496.5,46.5C 496.5,135.167 496.5,223.833 496.5,312.5C 378.5,312.5 260.5,312.5 142.5,312.5C 142.5,223.833 142.5,135.167 142.5,46.5 Z"/></g>
<g><path style="opacity:1" fill="#fefeff" d="M 144.5,48.5 C 261.167,48.5 377.833,48.5 494.5,48.5C 494.5,135.833 494.5,223.167 494.5,310.5C 377.833,310.5 261.167,310.5 144.5,310.5C 144.5,223.167 144.5,135.833 144.5,48.5 Z"/></g>
<g><path style="opacity:1" fill="#8c8d8c" d="M 159.5,65.5 C 175.5,65.5 191.5,65.5 207.5,65.5C 207.5,66.8333 207.5,68.1667 207.5,69.5C 191.5,69.5 175.5,69.5 159.5,69.5C 159.5,68.1667 159.5,66.8333 159.5,65.5 Z"/></g>
<g><path style="opacity:1" fill="#8c8d8c" d="M 253.5,65.5 C 300.167,65.5 346.833,65.5 393.5,65.5C 393.5,67.5 393.5,69.5 393.5,71.5C 346.833,71.5 300.167,71.5 253.5,71.5C 253.5,69.5 253.5,67.5 253.5,65.5 Z"/></g>
<g><path style="opacity:1" fill="#8c8d8c" d="M 253.5,79.5 C 280.167,79.5 306.833,79.5 333.5,79.5C 333.5,81.5 333.5,83.5 333.5,85.5C 306.833,85.5 280.167,85.5 253.5,85.5C 253.5,83.5 253.5,81.5 253.5,79.5 Z"/></g>
<g><path style="opacity:1" fill="#8c8d8c" d="M 253.5,103.5 C 280.167,103.5 306.833,103.5 333.5,103.5C 333.5,104.5 333.5,105.5 333.5,106.5C 306.833,106.5 280.167,106.5 253.5,106.5C 253.5,105.5 253.5,104.5 253.5,103.5 Z"/></g>
<g><path style="opacity:1" fill="#a7a8a7" d="M 253.5,110.5 C 300.167,110.5 346.833,110.5 393.5,110.5C 393.5,111.5 393.5,112.5 393.5,113.5C 346.833,113.5 300.167,113.5 253.5,113.5C 253.5,112.5 253.5,111.5 253.5,110.5 Z"/></g>
<g><path style="opacity:1" fill="#a7a8a7" d="M 253.5,117.5 C 290.833,117.5 328.167,117.5 365.5,117.5C 365.5,118.5 365.5,119.5 365.5,120.5C 328.167,120.5 290.833,120.5 253.5,120.5C 253.5,119.5 253.5,118.5 253.5,117.5 Z"/></g>
<g><path style="opacity:1" fill="#c5c5c5" d="M 253.5,137.5 C 300.167,137.5 346.833,137.5 393.5,137.5C 393.5,160.833 393.5,184.167 393.5,207.5C 346.833,207.5 300.167,207.5 253.5,207.5C 253.5,184.167 253.5,160.833 253.5,137.5 Z"/></g>
<g><path style="opacity:1" fill="#646464" d="M 315.5,162.5 C 321.758,162.19 327.924,162.524 334,163.5C 334.809,169.749 334.642,175.916 333.5,182C 327.251,182.809 321.084,182.642 315,181.5C 314.21,175.085 314.376,168.752 315.5,162.5 Z"/></g>
<g><path style="opacity:1" fill="#c5c5c5" d="M 319.5,172.5 C 321.544,173.031 323.211,174.198 324.5,176C 328.135,174.645 330.802,175.812 332.5,179.5C 327.208,180.495 321.875,180.828 316.5,180.5C 316.016,177.212 317.016,174.545 319.5,172.5 Z"/></g>
<g><path style="opacity:1" fill="#c0c0c0" d="M 316.5,164.5 C 321.833,164.5 327.167,164.5 332.5,164.5C 332.666,168.514 332.499,172.514 332,176.5C 330.684,173.953 328.851,173.287 326.5,174.5C 324.772,172.774 322.772,171.441 320.5,170.5C 319.5,171.167 318.5,171.833 317.5,172.5C 316.52,169.914 316.187,167.247 316.5,164.5 Z"/></g>
<g><path style="opacity:1" fill="#636363" d="M 324.5,166.5 C 326.665,166.116 328.332,166.783 329.5,168.5C 328.332,170.217 326.665,170.884 324.5,170.5C 324.5,169.167 324.5,167.833 324.5,166.5 Z"/></g>
<g><path style="opacity:1" fill="#dfe0df" d="M 253.5,223.5 C 300.171,223.167 346.838,223.5 393.5,224.5C 370.167,224.833 346.833,225.167 323.5,225.5C 299.824,225.5 276.49,224.833 253.5,223.5 Z"/></g>
<g><path style="opacity:1" fill="#a7a8a7" d="M 253.5,231.5 C 280.167,231.5 306.833,231.5 333.5,231.5C 333.5,232.5 333.5,233.5 333.5,234.5C 306.833,234.5 280.167,234.5 253.5,234.5C 253.5,233.5 253.5,232.5 253.5,231.5 Z"/></g>
<g><path style="opacity:1" fill="#a0bdff" d="M 385.5,231.5 C 387.836,233.618 387.503,235.618 384.5,237.5C 383.707,236.645 384.04,235.811 385.5,235C 376.487,234.068 376.487,232.901 385.5,231.5 Z"/></g>
<g><path style="opacity:1" fill="#dfe0df" d="M 253.5,241.5 C 300.171,241.167 346.838,241.5 393.5,242.5C 370.167,242.833 346.833,243.167 323.5,243.5C 299.824,243.5 276.49,242.833 253.5,241.5 Z"/></g>
<g><path style="opacity:1" fill="#a7a8a7" d="M 253.5,249.5 C 280.167,249.5 306.833,249.5 333.5,249.5C 333.5,250.5 333.5,251.5 333.5,252.5C 306.833,252.5 280.167,252.5 253.5,252.5C 253.5,251.5 253.5,250.5 253.5,249.5 Z"/></g>
<g><path style="opacity:1" fill="#a0bdff" d="M 385.5,249.5 C 387.836,251.618 387.503,253.618 384.5,255.5C 383.707,254.645 384.04,253.811 385.5,253C 376.487,252.068 376.487,250.901 385.5,249.5 Z"/></g>
<g><path style="opacity:1" fill="#dfe0df" d="M 253.5,261.5 C 300.171,261.167 346.838,261.5 393.5,262.5C 370.167,262.833 346.833,263.167 323.5,263.5C 299.824,263.5 276.49,262.833 253.5,261.5 Z"/></g>
<g><path style="opacity:1" fill="#0f61fe" d="M 253.5,277.5 C 274.833,277.5 296.167,277.5 317.5,277.5C 317.5,282.833 317.5,288.167 317.5,293.5C 296.167,293.5 274.833,293.5 253.5,293.5C 253.5,288.167 253.5,282.833 253.5,277.5 Z"/></g>
</svg>
