<svg width="320" height="320" viewBox="0 0 320 320" fill="none" xmlns="http://www.w3.org/2000/svg">
<rect x="56" y="121" width="208" height="78" fill="white" stroke="#A8A8A8"/>
<rect x="112" y="160" width="96" height="10" fill="#F4F4F4"/>
<rect x="112" y="170" width="96" height="1" fill="#8D8D8D"/>
<path fill-rule="evenodd" clip-rule="evenodd" d="M119.21 165.937L120.625 167.361L120.361 167.625L118.938 166.209C118.089 166.912 116.839 166.825 116.097 166.01C115.355 165.196 115.384 163.942 116.163 163.163C116.942 162.384 118.196 162.355 119.01 163.096C119.825 163.838 119.913 165.089 119.21 165.937ZM117.625 162.937C116.693 162.937 115.938 163.693 115.938 164.625C115.938 165.557 116.693 166.312 117.625 166.312C118.557 166.312 119.313 165.557 119.313 164.625C119.313 163.693 118.557 162.937 117.625 162.937Z" fill="black"/>
<mask id="mask0_1307_4503" style="mask-type:luminance" maskUnits="userSpaceOnUse" x="115" y="162" width="6" height="6">
<path fill-rule="evenodd" clip-rule="evenodd" d="M119.21 165.937L120.625 167.361L120.361 167.625L118.938 166.209C118.089 166.912 116.839 166.825 116.097 166.01C115.355 165.196 115.384 163.942 116.163 163.163C116.942 162.384 118.196 162.355 119.01 163.096C119.825 163.838 119.913 165.089 119.21 165.937ZM117.625 162.937C116.693 162.937 115.938 163.693 115.938 164.625C115.938 165.557 116.693 166.312 117.625 166.312C118.557 166.312 119.313 165.557 119.313 164.625C119.313 163.693 118.557 162.937 117.625 162.937Z" fill="white"/>
</mask>
<g mask="url(#mask0_1307_4503)">
<rect width="12" height="12" transform="translate(115 162)" fill="#161616"/>
</g>
<rect x="112" y="133" width="86" height="3" fill="#8D8D8D"/>
<rect x="112" y="140" width="40" height="3" fill="#8D8D8D"/>
</svg>
