<?xml version="1.0" encoding="UTF-8"?>
<!DOCTYPE svg PUBLIC "-//W3C//DTD SVG 1.1//EN" "http://www.w3.org/Graphics/SVG/1.1/DTD/svg11.dtd">
<svg xmlns="http://www.w3.org/2000/svg" version="1.1" width="640px" height="360px" style="shape-rendering:geometricPrecision; text-rendering:geometricPrecision; image-rendering:optimizeQuality; fill-rule:evenodd; clip-rule:evenodd" xmlns:xlink="http://www.w3.org/1999/xlink">
<g><path style="opacity:1" fill="#a7a8a7" d="M 110.5,100.5 C 249.833,100.5 389.167,100.5 528.5,100.5C 528.5,153.167 528.5,205.833 528.5,258.5C 389.167,258.5 249.833,258.5 110.5,258.5C 110.5,205.833 110.5,153.167 110.5,100.5 Z"/></g>
<g><path style="opacity:1" fill="#fefffe" d="M 112.5,102.5 C 250.5,102.5 388.5,102.5 526.5,102.5C 526.5,153.833 526.5,205.167 526.5,256.5C 388.5,256.5 250.5,256.5 112.5,256.5C 112.5,205.167 112.5,153.833 112.5,102.5 Z"/></g>
<g><path style="opacity:1" fill="#8c8d8c" d="M 223.5,125.5 C 280.833,125.5 338.167,125.5 395.5,125.5C 395.5,127.5 395.5,129.5 395.5,131.5C 338.167,131.5 280.833,131.5 223.5,131.5C 223.5,129.5 223.5,127.5 223.5,125.5 Z"/></g>
<g><path style="opacity:1" fill="#8c8d8c" d="M 223.5,139.5 C 250.167,139.5 276.833,139.5 303.5,139.5C 303.5,141.5 303.5,143.5 303.5,145.5C 276.833,145.5 250.167,145.5 223.5,145.5C 223.5,143.5 223.5,141.5 223.5,139.5 Z"/></g>
<g><path style="opacity:1" fill="#f3f3f3" d="M 511.5,199.5 C 415.5,199.5 319.5,199.5 223.5,199.5C 223.5,192.833 223.5,186.167 223.5,179.5C 319.5,179.5 415.5,179.5 511.5,179.5C 511.5,186.167 511.5,192.833 511.5,199.5 Z"/></g>
<g><path style="opacity:1" fill="#6f6f6f" d="M 236.5,185.5 C 233.167,185.5 231.5,187.167 231.5,190.5C 229.806,187.361 230.806,185.361 234.5,184.5C 235.416,184.543 236.083,184.876 236.5,185.5 Z"/></g>
<g><path style="opacity:1" fill="#f0f0f0" d="M 236.5,185.5 C 237.341,187.379 237.675,189.379 237.5,191.5C 235.379,191.675 233.379,191.341 231.5,190.5C 231.5,187.167 233.167,185.5 236.5,185.5 Z"/></g>
<g><path style="opacity:1" fill="#7c7c7c" d="M 236.5,185.5 C 240.137,187.171 240.47,189.504 237.5,192.5C 234.688,194.008 232.688,193.341 231.5,190.5C 233.379,191.341 235.379,191.675 237.5,191.5C 237.675,189.379 237.341,187.379 236.5,185.5 Z"/></g>
<g><path style="opacity:1" fill="#8c8d8c" d="M 223.5,199.5 C 319.5,199.5 415.5,199.5 511.5,199.5C 463.838,200.833 415.838,201.5 367.5,201.5C 319.162,201.5 271.162,200.833 223.5,199.5 Z"/></g>
</svg>
