<svg width="320" height="320" viewBox="0 0 320 320" fill="none" xmlns="http://www.w3.org/2000/svg">
<rect x="72" y="94" width="176" height="132" fill="white" stroke="#A8A8A8" stroke-width="0.822695"/>
<path d="M127 182.5H197" stroke="#E0E0E0"/>
<path d="M127 191.5H197" stroke="#E0E0E0"/>
<path d="M127 201.5H197" stroke="#E0E0E0"/>
<rect x="127" y="209" width="32" height="8" fill="#0F62FE"/>
<path fill-rule="evenodd" clip-rule="evenodd" d="M192.375 185.125L192.111 185.389L193.532 186.812H189.562V187.188H193.532L192.111 188.611L192.375 188.875L194.25 187L192.375 185.125V185.125Z" fill="#0F62FE"/>
<mask id="mask0_1306_4459" style="mask-type:luminance" maskUnits="userSpaceOnUse" x="189" y="185" width="6" height="4">
<path fill-rule="evenodd" clip-rule="evenodd" d="M192.375 185.125L192.111 185.389L193.532 186.812H189.562V187.188H193.532L192.111 188.611L192.375 188.875L194.25 187L192.375 185.125V185.125Z" fill="white"/>
</mask>
<g mask="url(#mask0_1306_4459)">
</g>
<path fill-rule="evenodd" clip-rule="evenodd" d="M192.375 194.125L192.111 194.389L193.532 195.812H189.562V196.188H193.532L192.111 197.611L192.375 197.875L194.25 196L192.375 194.125V194.125Z" fill="#0F62FE"/>
<mask id="mask1_1306_4459" style="mask-type:luminance" maskUnits="userSpaceOnUse" x="189" y="194" width="6" height="4">
<path fill-rule="evenodd" clip-rule="evenodd" d="M192.375 194.125L192.111 194.389L193.532 195.812H189.562V196.188H193.532L192.111 197.611L192.375 197.875L194.25 196L192.375 194.125V194.125Z" fill="white"/>
</mask>
<g mask="url(#mask1_1306_4459)">
</g>
<rect x="127" y="139" width="70" height="35" fill="#C6C6C6"/>
<path fill-rule="evenodd" clip-rule="evenodd" d="M163.719 155.688C163.046 155.688 162.5 155.142 162.5 154.469C162.5 153.796 163.046 153.25 163.719 153.25C164.392 153.25 164.938 153.796 164.938 154.469C164.938 154.792 164.809 155.102 164.581 155.331C164.352 155.559 164.042 155.688 163.719 155.688V155.688ZM163.719 154.062C163.494 154.062 163.312 154.244 163.312 154.469C163.312 154.693 163.494 154.875 163.719 154.875C163.943 154.875 164.125 154.693 164.125 154.469C164.125 154.244 163.943 154.062 163.719 154.062ZM166.623 151.625H158.377C157.961 151.625 157.625 151.961 157.625 152.377V160.623C157.625 160.823 157.704 161.014 157.845 161.155C157.986 161.296 158.177 161.375 158.377 161.375H166.623C166.823 161.375 167.014 161.296 167.155 161.155C167.296 161.014 167.375 160.823 167.375 160.623V152.377C167.375 151.961 167.039 151.625 166.623 151.625ZM166.562 152.438V158.665L165.043 157.146C164.891 156.993 164.684 156.908 164.468 156.908C164.253 156.908 164.046 156.993 163.893 157.146L163.312 157.739L161.078 155.521C160.926 155.368 160.719 155.283 160.503 155.283C160.288 155.283 160.081 155.368 159.928 155.521L158.438 157.012V152.438H166.562ZM158.438 160.562V158.157L160.501 156.094V156.094L162.723 158.316C162.876 158.469 163.083 158.554 163.298 158.554C163.514 158.554 163.721 158.469 163.873 158.316L164.466 157.719V157.719L166.562 159.815V160.562H158.438Z" fill="#525252"/>
<mask id="mask2_1306_4459" style="mask-type:luminance" maskUnits="userSpaceOnUse" x="157" y="151" width="11" height="11">
<path fill-rule="evenodd" clip-rule="evenodd" d="M163.719 155.688C163.046 155.688 162.5 155.142 162.5 154.469C162.5 153.796 163.046 153.25 163.719 153.25C164.392 153.25 164.938 153.796 164.938 154.469C164.938 154.792 164.809 155.102 164.581 155.331C164.352 155.559 164.042 155.688 163.719 155.688V155.688ZM163.719 154.062C163.494 154.062 163.312 154.244 163.312 154.469C163.312 154.693 163.494 154.875 163.719 154.875C163.943 154.875 164.125 154.693 164.125 154.469C164.125 154.244 163.943 154.062 163.719 154.062ZM166.623 151.625H158.377C157.961 151.625 157.625 151.961 157.625 152.377V160.623C157.625 160.823 157.704 161.014 157.845 161.155C157.986 161.296 158.177 161.375 158.377 161.375H166.623C166.823 161.375 167.014 161.296 167.155 161.155C167.296 161.014 167.375 160.823 167.375 160.623V152.377C167.375 151.961 167.039 151.625 166.623 151.625ZM166.562 152.438V158.665L165.043 157.146C164.891 156.993 164.684 156.908 164.468 156.908C164.253 156.908 164.046 156.993 163.893 157.146L163.312 157.739L161.078 155.521C160.926 155.368 160.719 155.283 160.503 155.283C160.288 155.283 160.081 155.368 159.928 155.521L158.438 157.012V152.438H166.562ZM158.438 160.562V158.157L160.501 156.094V156.094L162.723 158.316C162.876 158.469 163.083 158.554 163.298 158.554C163.514 158.554 163.721 158.469 163.873 158.316L164.466 157.719V157.719L166.562 159.815V160.562H158.438Z" fill="white"/>
</mask>
<g mask="url(#mask2_1306_4459)">
</g>
<rect x="127" y="103" width="70" height="3" fill="#8D8D8D"/>
<rect x="127" y="110" width="40" height="3" fill="#8D8D8D"/>
<rect x="127" y="129" width="56" height="1.5" fill="#A8A8A8"/>
<rect x="127" y="186" width="40" height="1.5" fill="#A8A8A8"/>
<rect x="127" y="195" width="40" height="1.5" fill="#A8A8A8"/>
<rect x="127" y="125.5" width="70" height="1.5" fill="#A8A8A8"/>
<rect x="127" y="122" width="40" height="1.5" fill="#8D8D8D"/>
<rect x="80" y="103" width="24" height="2" fill="#8D8D8D"/>
</svg>
