<?xml version="1.0" encoding="UTF-8"?>
<!DOCTYPE svg PUBLIC "-//W3C//DTD SVG 1.1//EN" "http://www.w3.org/Graphics/SVG/1.1/DTD/svg11.dtd">
<svg xmlns="http://www.w3.org/2000/svg" version="1.1" width="640px" height="360px" style="shape-rendering:geometricPrecision; text-rendering:geometricPrecision; image-rendering:optimizeQuality; fill-rule:evenodd; clip-rule:evenodd" xmlns:xlink="http://www.w3.org/1999/xlink">
<g><path style="opacity:1" fill="#a7a8a7" d="M 110.5,100.5 C 249.833,100.5 389.167,100.5 528.5,100.5C 528.5,153.167 528.5,205.833 528.5,258.5C 389.167,258.5 249.833,258.5 110.5,258.5C 110.5,205.833 110.5,153.167 110.5,100.5 Z"/></g>
<g><path style="opacity:1" fill="#fefffe" d="M 112.5,102.5 C 250.5,102.5 388.5,102.5 526.5,102.5C 526.5,153.833 526.5,205.167 526.5,256.5C 388.5,256.5 250.5,256.5 112.5,256.5C 112.5,205.167 112.5,153.833 112.5,102.5 Z"/></g>
<g><path style="opacity:1" fill="#8c8d8c" d="M 131.5,125.5 C 188.833,125.5 246.167,125.5 303.5,125.5C 303.5,127.5 303.5,129.5 303.5,131.5C 246.167,131.5 188.833,131.5 131.5,131.5C 131.5,129.5 131.5,127.5 131.5,125.5 Z"/></g>
<g><path style="opacity:1" fill="#8c8d8c" d="M 131.5,139.5 C 158.167,139.5 184.833,139.5 211.5,139.5C 211.5,141.5 211.5,143.5 211.5,145.5C 184.833,145.5 158.167,145.5 131.5,145.5C 131.5,143.5 131.5,141.5 131.5,139.5 Z"/></g>
<g><path style="opacity:1" fill="#a7a8a7" d="M 129.5,181.5 C 186.833,181.5 244.167,181.5 301.5,181.5C 301.5,182.833 301.5,184.167 301.5,185.5C 244.167,185.5 186.833,185.5 129.5,185.5C 129.5,184.167 129.5,182.833 129.5,181.5 Z"/></g>
<g><path style="opacity:1" fill="#a7a8a7" d="M 129.5,191.5 C 156.167,191.5 182.833,191.5 209.5,191.5C 209.5,192.833 209.5,194.167 209.5,195.5C 182.833,195.5 156.167,195.5 129.5,195.5C 129.5,194.167 129.5,192.833 129.5,191.5 Z"/></g>
<g><path style="opacity:1" fill="#0f61fe" d="M 218.5,216.5 C 245.833,216.5 273.167,216.5 300.5,216.5C 300.5,223.833 300.5,231.167 300.5,238.5C 273.167,238.5 245.833,238.5 218.5,238.5C 218.5,231.167 218.5,223.833 218.5,216.5 Z"/></g>
<g><path style="opacity:1" fill="#0f61fe" d="M 129.5,217.5 C 155.5,217.5 181.5,217.5 207.5,217.5C 207.5,224.167 207.5,230.833 207.5,237.5C 181.5,237.5 155.5,237.5 129.5,237.5C 129.5,230.833 129.5,224.167 129.5,217.5 Z"/></g>
<g><path style="opacity:1" fill="#fefffe" d="M 220.5,218.5 C 246.5,218.5 272.5,218.5 298.5,218.5C 298.5,224.5 298.5,230.5 298.5,236.5C 272.5,236.5 246.5,236.5 220.5,236.5C 220.5,230.5 220.5,224.5 220.5,218.5 Z"/></g>
</svg>
