<?xml version="1.0" encoding="UTF-8"?>
<!DOCTYPE svg PUBLIC "-//W3C//DTD SVG 1.1//EN" "http://www.w3.org/Graphics/SVG/1.1/DTD/svg11.dtd">
<svg xmlns="http://www.w3.org/2000/svg" version="1.1" width="640px" height="360px" style="shape-rendering:geometricPrecision; text-rendering:geometricPrecision; image-rendering:optimizeQuality; fill-rule:evenodd; clip-rule:evenodd" xmlns:xlink="http://www.w3.org/1999/xlink">
<g><path style="opacity:0.004" fill="#fefffe" d="M 118.5,58.5 C 117.833,57.1667 117.833,57.1667 118.5,58.5 Z"/></g>
<g><path style="opacity:0.32" fill="#dedede" d="M 310.5,57.5 C 311.374,58.5251 312.541,59.1918 314,59.5C 319.575,59.6374 325.075,59.3041 330.5,58.5C 332.887,58.9121 334.887,59.9121 336.5,61.5C 335.312,61.3069 333.978,61.8069 332.5,63C 264.167,63.5 195.834,63.6667 127.5,63.5C 127.5,140.833 127.5,218.167 127.5,295.5C 191.002,295.832 254.336,295.499 317.5,294.5C 381.833,294.5 446.167,294.5 510.5,294.5C 510.829,279.324 510.496,264.324 509.5,249.5C 509.5,187.5 509.5,125.5 509.5,63.5C 454.166,63.6667 398.832,63.5 343.5,63C 342.5,62.6667 341.5,62.3333 340.5,62C 340.833,61.6667 341.167,61.3333 341.5,61C 338.887,59.9288 338.887,59.0955 341.5,58.5C 399.655,57.5715 457.322,57.2381 514.5,57.5C 516.122,59.854 517.622,59.854 519,57.5C 519.3,137.035 519.466,217.369 519.5,298.5C 519.182,299.647 518.516,300.481 517.5,301C 519.782,302.084 520.116,303.584 518.5,305.5C 517.167,305.833 517.167,306.167 518.5,306.5C 386.42,307.807 253.086,307.807 118.5,306.5C 117.217,224.091 117.217,141.424 118.5,58.5C 181.635,58.0769 245.635,57.7436 310.5,57.5 Z"/></g>
<g><path style="opacity:1" fill="#f2f2f2" d="M 310.5,57.5 C 321.392,57.4287 331.725,57.762 341.5,58.5C 338.887,59.0955 338.887,59.9288 341.5,61C 341.167,61.3333 340.833,61.6667 340.5,62C 341.5,62.3333 342.5,62.6667 343.5,63C 398.832,63.5 454.166,63.6667 509.5,63.5C 509.5,125.5 509.5,187.5 509.5,249.5C 445.5,249.5 381.5,249.5 317.5,249.5C 317.5,264.5 317.5,279.5 317.5,294.5C 254.336,295.499 191.002,295.832 127.5,295.5C 127.5,218.167 127.5,140.833 127.5,63.5C 195.834,63.6667 264.167,63.5 332.5,63C 333.978,61.8069 335.312,61.3069 336.5,61.5C 334.887,59.9121 332.887,58.9121 330.5,58.5C 325.075,59.3041 319.575,59.6374 314,59.5C 312.541,59.1918 311.374,58.5251 310.5,57.5 Z"/></g>
<g><path style="opacity:1" fill="#1a1a1a" d="M 489.5,82.5 C 490.097,82.7352 490.43,83.2352 490.5,84C 488.797,85.3695 487.464,87.0362 486.5,89C 491.999,96.8271 491.333,97.3271 484.5,90.5C 483.07,92.386 481.403,94.0527 479.5,95.5C 478.479,94.9984 478.312,94.3317 479,93.5C 480.5,92 482,90.5 483.5,89C 476.809,82.6831 477.142,82.1831 484.5,87.5C 486.521,86.1455 488.188,84.4788 489.5,82.5 Z"/></g>
<g><path style="opacity:1" fill="#0f6dfe" d="M 509.5,249.5 C 510.496,264.324 510.829,279.324 510.5,294.5C 446.167,294.5 381.833,294.5 317.5,294.5C 317.5,279.5 317.5,264.5 317.5,249.5C 381.5,249.5 445.5,249.5 509.5,249.5 Z"/></g>
<g><path style="opacity:0.004" fill="#fefffe" d="M 518.5,305.5 C 519.833,306.167 519.833,306.167 518.5,305.5 Z"/></g>
</svg>
