<?xml version="1.0" encoding="UTF-8"?>
<svg width="320px" height="320px" viewBox="0 0 320 320" version="1.1" xmlns="http://www.w3.org/2000/svg" xmlns:xlink="http://www.w3.org/1999/xlink">
    <title>leavingibm</title>
    <defs>
        <rect id="path-1" x="60" y="85" width="200" height="150"></rect>
        <filter x="-5.0%" y="-5.3%" width="110.0%" height="113.3%" filterUnits="objectBoundingBox" id="filter-2">
            <feOffset dx="0" dy="2" in="SourceAlpha" result="shadowOffsetOuter1"></feOffset>
            <feGaussianBlur stdDeviation="3" in="shadowOffsetOuter1" result="shadowBlurOuter1"></feGaussianBlur>
            <feColorMatrix values="0 0 0 0 0.862745098   0 0 0 0 0.862745098   0 0 0 0 0.862745098  0 0 0 1 0" type="matrix" in="shadowBlurOuter1"></feColorMatrix>
        </filter>
    </defs>
    <g id="leavingibm" stroke="none" stroke-width="1" fill="none" fill-rule="evenodd">
        <g id="Rectangle" fill-rule="nonzero">
            <use fill="black" fill-opacity="1" filter="url(#filter-2)" xlink:href="#path-1"></use>
            <use fill="#F3F3F3" xlink:href="#path-1"></use>
        </g>
        <g id="color/gray/10-copy-63" transform="translate(160.000000, 203.000000)" fill="#0F6DFF">
            <rect id="Rectangle" x="0" y="0" width="100" height="32"></rect>
        </g>
        <rect id="Rectangle-Copy-4" fill="#A8A8A8" fill-rule="nonzero" x="69" y="98" width="58" height="7"></rect>
        <rect id="Rectangle-Copy-12" fill="#C6C6C6" fill-rule="nonzero" x="69" y="114" width="137" height="5"></rect>
        <rect id="Rectangle-Copy-12-Copy" fill="#0F6DFF" fill-rule="nonzero" x="69" y="167" width="58" height="5"></rect>
        <rect id="Rectangle-Copy-12-Copy-2" fill="#C6C6C6" fill-rule="nonzero" x="69" y="159" width="32" height="3"></rect>
        <rect id="Rectangle-Copy-16" fill="#C6C6C6" fill-rule="nonzero" x="69" y="134" width="137" height="5"></rect>
        <rect id="Rectangle-Copy-18" fill="#C6C6C6" fill-rule="nonzero" x="69" y="124" width="112" height="5"></rect>
        <polygon id="path-3" fill="#000000" fill-rule="nonzero" points="244.618625 102 247.5 99.118625 246.881375 98.5 244 101.381375 241.118625 98.5 240.5 99.118625 243.381375 102 240.5 104.881375 241.118625 105.5 244 102.618625 246.881375 105.5 247.5 104.881375"></polygon>
    </g>
</svg>
