<svg width="320" height="320" viewBox="0 0 320 320" fill="none" xmlns="http://www.w3.org/2000/svg">
  <rect x="56" y="101" width="208" height="118" fill="#C6C6C6" />
  <rect x="61" y="107" width="197" height="106" fill="#F3F3F3" />
  <path fill-rule="evenodd" clip-rule="evenodd"
    d="M247.074 119.5L249.75 116.824L249.176 116.25L246.5 118.926L243.824 116.25L243.25 116.824L245.926 119.5L243.25 122.176L243.824 122.75L246.5 120.074L249.176 122.75L249.75 122.176L247.074 119.5V119.5Z"
    fill="black" />
  <mask id="mask0_0_5015" style="mask-type:luminance" maskUnits="userSpaceOnUse" x="243" y="116"
    width="7" height="7">
    <path fill-rule="evenodd" clip-rule="evenodd"
      d="M247.074 119.5L249.75 116.824L249.176 116.25L246.5 118.926L243.824 116.25L243.25 116.824L245.926 119.5L243.25 122.176L243.824 122.75L246.5 120.074L249.176 122.75L249.75 122.176L247.074 119.5V119.5Z"
      fill="white" />
  </mask>
  <g mask="url(#mask0_0_5015)">
</g>
  <rect x="67" y="113" width="111" height="94" fill="#C6C6C6" />
  <path fill-rule="evenodd" clip-rule="evenodd"
    d="M125.031 159.812C123.633 159.812 122.5 158.679 122.5 157.281C122.5 155.883 123.633 154.75 125.031 154.75C126.429 154.75 127.562 155.883 127.562 157.281C127.562 157.953 127.296 158.596 126.821 159.071C126.346 159.546 125.703 159.812 125.031 159.812V159.812ZM125.031 156.438C124.565 156.438 124.188 156.815 124.188 157.281C124.188 157.747 124.565 158.125 125.031 158.125C125.497 158.125 125.875 157.747 125.875 157.281C125.875 156.815 125.497 156.438 125.031 156.438ZM131.064 151.375H113.936C113.074 151.375 112.375 152.074 112.375 152.936V170.064C112.375 170.478 112.539 170.875 112.832 171.168C113.125 171.461 113.522 171.625 113.936 171.625H131.064C131.478 171.625 131.875 171.461 132.168 171.168C132.461 170.875 132.625 170.478 132.625 170.064V152.936C132.625 152.074 131.926 151.375 131.064 151.375ZM130.938 153.062V165.997L127.782 162.842C127.465 162.525 127.036 162.347 126.588 162.347C126.14 162.347 125.711 162.525 125.394 162.842L124.188 164.073L119.547 159.467C119.23 159.15 118.801 158.972 118.353 158.972C117.905 158.972 117.476 159.15 117.159 159.467L114.062 162.563V153.062H130.938ZM114.062 169.938V164.942L118.349 160.656V160.656L122.964 165.272C123.281 165.588 123.71 165.766 124.158 165.766C124.606 165.766 125.035 165.588 125.352 165.272L126.584 164.031V164.031L130.938 168.385V169.938H114.062Z"
    fill="#525252" />
  <mask id="mask1_0_5015" style="mask-type:luminance" maskUnits="userSpaceOnUse" x="112" y="151"
    width="21" height="21">
    <path fill-rule="evenodd" clip-rule="evenodd"
      d="M125.031 159.812C123.633 159.812 122.5 158.679 122.5 157.281C122.5 155.883 123.633 154.75 125.031 154.75C126.429 154.75 127.562 155.883 127.562 157.281C127.562 157.953 127.296 158.596 126.821 159.071C126.346 159.546 125.703 159.812 125.031 159.812V159.812ZM125.031 156.438C124.565 156.438 124.188 156.815 124.188 157.281C124.188 157.747 124.565 158.125 125.031 158.125C125.497 158.125 125.875 157.747 125.875 157.281C125.875 156.815 125.497 156.438 125.031 156.438ZM131.064 151.375H113.936C113.074 151.375 112.375 152.074 112.375 152.936V170.064C112.375 170.478 112.539 170.875 112.832 171.168C113.125 171.461 113.522 171.625 113.936 171.625H131.064C131.478 171.625 131.875 171.461 132.168 171.168C132.461 170.875 132.625 170.478 132.625 170.064V152.936C132.625 152.074 131.926 151.375 131.064 151.375ZM130.938 153.062V165.997L127.782 162.842C127.465 162.525 127.036 162.347 126.588 162.347C126.14 162.347 125.711 162.525 125.394 162.842L124.188 164.073L119.547 159.467C119.23 159.15 118.801 158.972 118.353 158.972C117.905 158.972 117.476 159.15 117.159 159.467L114.062 162.563V153.062H130.938ZM114.062 169.938V164.942L118.349 160.656V160.656L122.964 165.272C123.281 165.588 123.71 165.766 124.158 165.766C124.606 165.766 125.035 165.588 125.352 165.272L126.584 164.031V164.031L130.938 168.385V169.938H114.062Z"
      fill="white" />
  </mask>
  <g mask="url(#mask1_0_5015)">
</g>
  <rect x="186" y="177" width="56" height="3" fill="#A8A8A8" />
  <rect x="186" y="170" width="32" height="3" fill="#8D8D8D" />
  <rect x="186" y="191" width="56" height="3" fill="#A8A8A8" />
  <rect x="186" y="184" width="56" height="3" fill="#A8A8A8" />
  <rect x="186" y="198" width="32" height="3" fill="#A8A8A8" />
</svg>