<?xml version="1.0" encoding="UTF-8"?>
<!DOCTYPE svg PUBLIC "-//W3C//DTD SVG 1.1//EN" "http://www.w3.org/Graphics/SVG/1.1/DTD/svg11.dtd">
<svg xmlns="http://www.w3.org/2000/svg" version="1.1" width="640px" height="360px" style="shape-rendering:geometricPrecision; text-rendering:geometricPrecision; image-rendering:optimizeQuality; fill-rule:evenodd; clip-rule:evenodd" xmlns:xlink="http://www.w3.org/1999/xlink">
<g><path style="opacity:1" fill="#c5c6c5" d="M 111.5,61.5 C 250.167,61.5 388.833,61.5 527.5,61.5C 527.5,140.167 527.5,218.833 527.5,297.5C 388.833,297.5 250.167,297.5 111.5,297.5C 111.5,218.833 111.5,140.167 111.5,61.5 Z"/></g>
<g><path style="opacity:1" fill="#f2f2f2" d="M 121.5,73.5 C 252.833,73.5 384.167,73.5 515.5,73.5C 515.5,144.167 515.5,214.833 515.5,285.5C 384.167,285.5 252.833,285.5 121.5,285.5C 121.5,214.833 121.5,144.167 121.5,73.5 Z"/></g>
<g><path style="opacity:1" fill="#c5c5c5" d="M 133.5,85.5 C 207.5,85.5 281.5,85.5 355.5,85.5C 355.5,148.167 355.5,210.833 355.5,273.5C 281.5,273.5 207.5,273.5 133.5,273.5C 133.5,210.833 133.5,148.167 133.5,85.5 Z"/></g>
<g><path style="opacity:1" fill="#363636" d="M 486.5,92.5 C 488.736,93.3891 490.736,94.7224 492.5,96.5C 499.167,91.1667 499.833,91.8333 494.5,98.5C 499.833,105.167 499.167,105.833 492.5,100.5C 485.833,105.833 485.167,105.167 490.5,98.5C 488.722,96.736 487.389,94.736 486.5,92.5 Z"/></g>
<g><path style="opacity:1" fill="#535353" d="M 225.5,162.5 C 238.413,162.178 251.246,162.511 264,163.5C 264.822,176.409 264.655,189.242 263.5,202C 250.591,202.822 237.758,202.655 225,201.5C 224.187,188.425 224.354,175.425 225.5,162.5 Z"/></g>
<g><path style="opacity:1" fill="#c2c2c2" d="M 227.5,165.5 C 238.833,165.5 250.167,165.5 261.5,165.5C 261.831,173.86 261.498,182.193 260.5,190.5C 258.091,188.082 255.424,186.082 252.5,184.5C 250.617,184.876 249.117,185.876 248,187.5C 244.573,183.399 240.573,180.066 236,177.5C 233.049,179.447 230.382,181.781 228,184.5C 227.5,178.175 227.334,171.842 227.5,165.5 Z"/></g>
<g><path style="opacity:1" fill="#5a5a5a" d="M 246.5,169.5 C 254.877,169.274 256.544,172.441 251.5,179C 247.349,179.698 245.016,177.865 244.5,173.5C 244.752,171.927 245.418,170.594 246.5,169.5 Z"/></g>
<g><path style="opacity:1" fill="#b8b8b8" d="M 248.5,172.5 C 249.5,172.5 250.5,172.5 251.5,172.5C 251.5,173.5 251.5,174.5 251.5,175.5C 250.5,175.5 249.5,175.5 248.5,175.5C 248.5,174.5 248.5,173.5 248.5,172.5 Z"/></g>
<g><path style="opacity:1" fill="#c1c1c1" d="M 234.5,181.5 C 238.812,183.289 242.479,186.123 245.5,190C 248.707,190.415 251.707,190.082 254.5,189C 258.348,191.647 260.681,195.147 261.5,199.5C 250.167,199.5 238.833,199.5 227.5,199.5C 227.335,195.818 227.501,192.152 228,188.5C 230.372,186.297 232.539,183.963 234.5,181.5 Z"/></g>
<g><path style="opacity:1" fill="#8c8d8c" d="M 371.5,199.5 C 392.833,199.5 414.167,199.5 435.5,199.5C 435.5,201.5 435.5,203.5 435.5,205.5C 414.167,205.5 392.833,205.5 371.5,205.5C 371.5,203.5 371.5,201.5 371.5,199.5 Z"/></g>
<g><path style="opacity:1" fill="#a7a8a7" d="M 371.5,213.5 C 408.833,213.5 446.167,213.5 483.5,213.5C 483.5,215.5 483.5,217.5 483.5,219.5C 446.167,219.5 408.833,219.5 371.5,219.5C 371.5,217.5 371.5,215.5 371.5,213.5 Z"/></g>
<g><path style="opacity:1" fill="#a7a8a7" d="M 371.5,227.5 C 408.833,227.5 446.167,227.5 483.5,227.5C 483.5,229.5 483.5,231.5 483.5,233.5C 446.167,233.5 408.833,233.5 371.5,233.5C 371.5,231.5 371.5,229.5 371.5,227.5 Z"/></g>
<g><path style="opacity:1" fill="#a7a8a7" d="M 371.5,241.5 C 408.833,241.5 446.167,241.5 483.5,241.5C 483.5,243.5 483.5,245.5 483.5,247.5C 446.167,247.5 408.833,247.5 371.5,247.5C 371.5,245.5 371.5,243.5 371.5,241.5 Z"/></g>
<g><path style="opacity:1" fill="#a7a8a7" d="M 371.5,255.5 C 392.833,255.5 414.167,255.5 435.5,255.5C 435.5,257.5 435.5,259.5 435.5,261.5C 414.167,261.5 392.833,261.5 371.5,261.5C 371.5,259.5 371.5,257.5 371.5,255.5 Z"/></g>
</svg>
