<svg width="320" height="320" viewBox="0 0 320 320" fill="none" xmlns="http://www.w3.org/2000/svg">
<path d="M114.116 164V155.624H115.124V163.112H118.688V164H114.116Z" fill="#0F62FE"/>
<path fill-rule="evenodd" clip-rule="evenodd" d="M120.062 156.206C120.154 156.306 120.304 156.356 120.512 156.356C120.72 156.356 120.87 156.306 120.962 156.206C121.054 156.106 121.1 155.976 121.1 155.816V155.66C121.1 155.5 121.054 155.37 120.962 155.27C120.87 155.17 120.72 155.12 120.512 155.12C120.304 155.12 120.154 155.17 120.062 155.27C119.97 155.37 119.924 155.5 119.924 155.66V155.816C119.924 155.976 119.97 156.106 120.062 156.206ZM120.992 164V157.808H120.032V164H120.992Z" fill="#0F62FE"/>
<path d="M123.032 164V157.808H123.992V158.816H124.04C124.192 158.464 124.406 158.184 124.682 157.976C124.958 157.768 125.328 157.664 125.792 157.664C126.432 157.664 126.938 157.87 127.31 158.282C127.682 158.694 127.868 159.276 127.868 160.028V164H126.908V160.196C126.908 159.084 126.44 158.528 125.504 158.528C125.312 158.528 125.126 158.552 124.946 158.6C124.766 158.648 124.604 158.72 124.46 158.816C124.316 158.912 124.202 159.034 124.118 159.182C124.034 159.33 123.992 159.504 123.992 159.704V164H123.032Z" fill="#0F62FE"/>
<path d="M129.848 155.12H130.808V160.748H130.856L131.804 159.692L133.556 157.808H134.72L132.428 160.256L134.948 164H133.784L131.732 160.844L130.808 161.792V164H129.848V155.12Z" fill="#0F62FE"/>
<path d="M138.356 157.808H139.292L139.952 160.484L140.612 163.196H140.636L141.392 160.484L142.172 157.808H143.024L143.828 160.484L144.596 163.196H144.62L145.256 160.484L145.928 157.808H146.828L145.184 164H143.996L143.132 161.024L142.592 159.14H142.568L142.04 161.024L141.176 164H140.012L138.356 157.808Z" fill="#0F62FE"/>
<path fill-rule="evenodd" clip-rule="evenodd" d="M148.25 156.206C148.342 156.306 148.492 156.356 148.7 156.356C148.908 156.356 149.058 156.306 149.15 156.206C149.242 156.106 149.288 155.976 149.288 155.816V155.66C149.288 155.5 149.242 155.37 149.15 155.27C149.058 155.17 148.908 155.12 148.7 155.12C148.492 155.12 148.342 155.17 148.25 155.27C148.158 155.37 148.112 155.5 148.112 155.66V155.816C148.112 155.976 148.158 156.106 148.25 156.206ZM149.18 164V157.808H148.22V164H149.18Z" fill="#0F62FE"/>
<path d="M152.588 164C152.252 164 151.998 163.906 151.826 163.718C151.654 163.53 151.568 163.284 151.568 162.98V158.648H150.548V157.808H151.124C151.332 157.808 151.474 157.766 151.55 157.682C151.626 157.598 151.664 157.452 151.664 157.244V156.092H152.528V157.808H153.884V158.648H152.528V163.16H153.788V164H152.588Z" fill="#0F62FE"/>
<path d="M155.432 155.12H156.392V158.816H156.44C156.592 158.464 156.806 158.184 157.082 157.976C157.358 157.768 157.728 157.664 158.192 157.664C158.832 157.664 159.338 157.87 159.71 158.282C160.082 158.694 160.268 159.276 160.268 160.028V164H159.308V160.196C159.308 159.084 158.84 158.528 157.904 158.528C157.712 158.528 157.526 158.552 157.346 158.6C157.166 158.648 157.004 158.72 156.86 158.816C156.716 158.912 156.602 159.034 156.518 159.182C156.434 159.33 156.392 159.504 156.392 159.704V164H155.432V155.12Z" fill="#0F62FE"/>
<path fill-rule="evenodd" clip-rule="evenodd" d="M165.11 156.206C165.202 156.306 165.352 156.356 165.56 156.356C165.768 156.356 165.918 156.306 166.01 156.206C166.102 156.106 166.148 155.976 166.148 155.816V155.66C166.148 155.5 166.102 155.37 166.01 155.27C165.918 155.17 165.768 155.12 165.56 155.12C165.352 155.12 165.202 155.17 165.11 155.27C165.018 155.37 164.972 155.5 164.972 155.66V155.816C164.972 155.976 165.018 156.106 165.11 156.206ZM166.04 164V157.808H165.08V164H166.04Z" fill="#0F62FE"/>
<path d="M170.384 164.144C169.952 164.144 169.564 164.068 169.22 163.916C168.876 163.764 168.586 163.548 168.35 163.268C168.114 162.988 167.934 162.648 167.81 162.248C167.686 161.848 167.624 161.4 167.624 160.904C167.624 160.408 167.686 159.96 167.81 159.56C167.934 159.16 168.114 158.82 168.35 158.54C168.586 158.26 168.876 158.044 169.22 157.892C169.564 157.74 169.952 157.664 170.384 157.664C171 157.664 171.494 157.798 171.866 158.066C172.238 158.334 172.516 158.684 172.7 159.116L171.896 159.524C171.784 159.204 171.6 158.956 171.344 158.78C171.088 158.604 170.768 158.516 170.384 158.516C170.096 158.516 169.844 158.562 169.628 158.654C169.412 158.746 169.232 158.874 169.088 159.038C168.944 159.202 168.836 159.398 168.764 159.626C168.692 159.854 168.656 160.104 168.656 160.376V161.432C168.656 161.976 168.802 162.422 169.094 162.77C169.386 163.118 169.816 163.292 170.384 163.292C171.16 163.292 171.72 162.932 172.064 162.212L172.76 162.68C172.56 163.128 172.262 163.484 171.866 163.748C171.47 164.012 170.976 164.144 170.384 164.144Z" fill="#0F62FE"/>
<path fill-rule="evenodd" clip-rule="evenodd" d="M175.316 163.916C175.66 164.068 176.04 164.144 176.456 164.144C176.872 164.144 177.25 164.068 177.59 163.916C177.93 163.764 178.224 163.546 178.472 163.262C178.72 162.978 178.912 162.638 179.048 162.242C179.184 161.846 179.252 161.4 179.252 160.904C179.252 160.416 179.184 159.972 179.048 159.572C178.912 159.172 178.72 158.83 178.472 158.546C178.224 158.262 177.93 158.044 177.59 157.892C177.25 157.74 176.872 157.664 176.456 157.664C176.04 157.664 175.66 157.74 175.316 157.892C174.972 158.044 174.678 158.262 174.434 158.546C174.19 158.83 174 159.172 173.864 159.572C173.728 159.972 173.66 160.416 173.66 160.904C173.66 161.4 173.728 161.846 173.864 162.242C174 162.638 174.19 162.978 174.434 163.262C174.678 163.546 174.972 163.764 175.316 163.916ZM177.728 162.812C177.4 163.132 176.976 163.292 176.456 163.292C175.936 163.292 175.512 163.132 175.184 162.812C174.856 162.492 174.692 162.004 174.692 161.348V160.46C174.692 159.804 174.856 159.316 175.184 158.996C175.512 158.676 175.936 158.516 176.456 158.516C176.976 158.516 177.4 158.676 177.728 158.996C178.056 159.316 178.22 159.804 178.22 160.46V161.348C178.22 162.004 178.056 162.492 177.728 162.812Z" fill="#0F62FE"/>
<path d="M180.836 164V157.808H181.796V158.816H181.844C181.996 158.464 182.21 158.184 182.486 157.976C182.762 157.768 183.132 157.664 183.596 157.664C184.236 157.664 184.742 157.87 185.114 158.282C185.486 158.694 185.672 159.276 185.672 160.028V164H184.712V160.196C184.712 159.084 184.244 158.528 183.308 158.528C183.116 158.528 182.93 158.552 182.75 158.6C182.57 158.648 182.408 158.72 182.264 158.816C182.12 158.912 182.006 159.034 181.922 159.182C181.838 159.33 181.796 159.504 181.796 159.704V164H180.836Z" fill="#0F62FE"/>
<path fill-rule="evenodd" clip-rule="evenodd" d="M200.875 155.625L200.258 156.242L203.574 159.562H194.312V160.437H203.574L200.258 163.758L200.875 164.375L205.25 160L200.875 155.625V155.625Z" fill="#0F62FE"/>
<mask id="mask0_0_4644" style="mask-type:luminance" maskUnits="userSpaceOnUse" x="194" y="155" width="12" height="10">
<path fill-rule="evenodd" clip-rule="evenodd" d="M200.875 155.625L200.258 156.242L203.574 159.562H194.312V160.437H203.574L200.258 163.758L200.875 164.375L205.25 160L200.875 155.625V155.625Z" fill="white"/>
</mask>
<g mask="url(#mask0_0_4644)">
</g>
</svg>
