<?xml version="1.0" encoding="UTF-8"?>
<svg width="320px" height="320px" viewBox="0 0 320 320" version="1.1" xmlns="http://www.w3.org/2000/svg" xmlns:xlink="http://www.w3.org/1999/xlink">
    <title>link_list_section</title>
    <defs>
        <polygon id="path-1" points="5.0625 1.6875 4.6659375 2.0840625 6.7978125 4.21875 0.84375 4.21875 0.84375 4.78125 6.7978125 4.78125 4.6659375 6.9159375 5.0625 7.3125 7.875 4.5"></polygon>
        <polygon id="path-3" points="5.0625 1.6875 4.6659375 2.0840625 6.7978125 4.21875 0.84375 4.21875 0.84375 4.78125 6.7978125 4.78125 4.6659375 6.9159375 5.0625 7.3125 7.875 4.5"></polygon>
        <polygon id="path-5" points="5.0625 1.6875 4.6659375 2.0840625 6.7978125 4.21875 0.84375 4.21875 0.84375 4.78125 6.7978125 4.78125 4.6659375 6.9159375 5.0625 7.3125 7.875 4.5"></polygon>
    </defs>
    <g id="link_list_section" stroke="none" stroke-width="1" fill="none" fill-rule="evenodd">
        <rect id="Rectangle-Copy-3" fill="#8D8D8D" x="68" y="133" width="28" height="4"></rect>
        <rect id="Rectangle-Copy-4" fill="#8D8D8D" x="68" y="139" width="28" height="4"></rect>
        <rect id="Rectangle-Copy-64" fill="#78A9FF" x="119" y="140" width="24" height="4"></rect>
        <rect id="Rectangle-Copy-65" fill="#78A9FF" x="119" y="159" width="24" height="4"></rect>
        <rect id="Rectangle-Copy-67" fill="#78A9FF" x="119" y="177" width="24" height="4"></rect>
        <g id="icons/arrows/ibm-forward-link-copy-13" transform="translate(238.000000, 138.000000)">
            <mask id="mask-2" fill="white">
                <use xlink:href="#path-1"></use>
            </mask>
            <use id="icon-color" fill="#0F62FE" xlink:href="#path-1"></use>
        </g>
        <g id="icons/arrows/ibm-forward-link-copy-13" transform="translate(238.000000, 156.000000)">
            <mask id="mask-4" fill="white">
                <use xlink:href="#path-3"></use>
            </mask>
            <use id="icon-color" fill="#0F62FE" xlink:href="#path-3"></use>
        </g>
        <g id="icons/arrows/ibm-forward-link-copy-13" transform="translate(238.000000, 174.000000)">
            <mask id="mask-6" fill="white">
                <use xlink:href="#path-5"></use>
            </mask>
            <use id="icon-color" fill="#0F62FE" xlink:href="#path-5"></use>
        </g>
        <rect id="Rectangle" fill="#D8D8D8" x="115" y="133" width="136" height="1"></rect>
        <rect id="Rectangle" fill="#D8D8D8" x="115" y="151" width="136" height="1"></rect>
        <rect id="Rectangle" fill="#D8D8D8" x="115" y="169" width="136" height="1"></rect>
        <rect id="Rectangle" fill="#D8D8D8" x="115" y="187" width="136" height="1"></rect>
    </g>
</svg>