<?xml version="1.0" encoding="UTF-8"?>
<svg width="320px" height="320px" viewBox="0 0 320 320" version="1.1" xmlns="http://www.w3.org/2000/svg" xmlns:xlink="http://www.w3.org/1999/xlink">
    <title>link_with_icon</title>
    <defs>
        <polygon id="path-1" points="13.5 4.5 12.4425 5.5575 18.1275 11.25 2.25 11.25 2.25 12.75 18.1275 12.75 12.4425 18.4425 13.5 19.5 21 12"></polygon>
    </defs>
    <g id="link_with_icon" stroke="none" stroke-width="1" fill="none" fill-rule="evenodd">
        <rect fill="#FFFFFF" x="0" y="0" width="320" height="320"></rect>
        <path d="M103.584,165 L103.584,163.816 L98.832,163.816 L98.832,153.832 L97.488,153.832 L97.488,165 L103.584,165 Z M106.016,154.808 C106.293333,154.808 106.493333,154.741333 106.616,154.608 C106.738667,154.474667 106.8,154.301333 106.8,154.088 L106.8,154.088 L106.8,153.88 C106.8,153.666667 106.738667,153.493333 106.616,153.36 C106.493333,153.226667 106.293333,153.16 106.016,153.16 C105.738667,153.16 105.538667,153.226667 105.416,153.36 C105.293333,153.493333 105.232,153.666667 105.232,153.88 L105.232,153.88 L105.232,154.088 C105.232,154.301333 105.293333,154.474667 105.416,154.608 C105.538667,154.741333 105.738667,154.808 106.016,154.808 Z M106.656,165 L106.656,156.744 L105.376,156.744 L105.376,165 L106.656,165 Z M110.656,165 L110.656,159.272 C110.656,159.005333 110.712,158.773333 110.824,158.576 C110.936,158.378667 111.088,158.216 111.28,158.088 C111.472,157.96 111.688,157.864 111.928,157.8 C112.168,157.736 112.416,157.704 112.672,157.704 C113.92,157.704 114.544,158.445333 114.544,159.928 L114.544,159.928 L114.544,165 L115.824,165 L115.824,159.704 C115.824,158.701333 115.576,157.925333 115.08,157.376 C114.584,156.826667 113.909333,156.552 113.056,156.552 C112.437333,156.552 111.944,156.690667 111.576,156.968 C111.208,157.245333 110.922667,157.618667 110.72,158.088 L110.72,158.088 L110.656,158.088 L110.656,156.744 L109.376,156.744 L109.376,165 L110.656,165 Z M119.744,165 L119.744,162.056 L120.976,160.792 L123.712,165 L125.264,165 L121.904,160.008 L124.96,156.744 L123.408,156.744 L121.072,159.256 L119.808,160.664 L119.744,160.664 L119.744,153.16 L118.464,153.16 L118.464,165 L119.744,165 Z M133.568,165 L134.72,161.032 L135.424,158.52 L135.456,158.52 L136.176,161.032 L137.328,165 L138.912,165 L141.104,156.744 L139.904,156.744 L139.008,160.312 L138.16,163.928 L138.128,163.928 L137.104,160.312 L136.032,156.744 L134.896,156.744 L133.856,160.312 L132.848,163.928 L132.816,163.928 L131.936,160.312 L131.056,156.744 L129.808,156.744 L132.016,165 L133.568,165 Z M143.6,154.808 C143.877333,154.808 144.077333,154.741333 144.2,154.608 C144.322667,154.474667 144.384,154.301333 144.384,154.088 L144.384,154.088 L144.384,153.88 C144.384,153.666667 144.322667,153.493333 144.2,153.36 C144.077333,153.226667 143.877333,153.16 143.6,153.16 C143.322667,153.16 143.122667,153.226667 143,153.36 C142.877333,153.493333 142.816,153.666667 142.816,153.88 L142.816,153.88 L142.816,154.088 C142.816,154.301333 142.877333,154.474667 143,154.608 C143.122667,154.741333 143.322667,154.808 143.6,154.808 Z M144.24,165 L144.24,156.744 L142.96,156.744 L142.96,165 L144.24,165 Z M150.384,165 L150.384,163.88 L148.704,163.88 L148.704,157.864 L150.512,157.864 L150.512,156.744 L148.704,156.744 L148.704,154.456 L147.552,154.456 L147.552,155.992 C147.552,156.269333 147.501333,156.464 147.4,156.576 C147.298667,156.688 147.109333,156.744 146.832,156.744 L146.832,156.744 L146.064,156.744 L146.064,157.864 L147.424,157.864 L147.424,163.64 C147.424,164.045333 147.538667,164.373333 147.768,164.624 C147.997333,164.874667 148.336,165 148.784,165 L148.784,165 L150.384,165 Z M153.856,165 L153.856,159.272 C153.856,159.005333 153.912,158.773333 154.024,158.576 C154.136,158.378667 154.288,158.216 154.48,158.088 C154.672,157.96 154.888,157.864 155.128,157.8 C155.368,157.736 155.616,157.704 155.872,157.704 C157.12,157.704 157.744,158.445333 157.744,159.928 L157.744,159.928 L157.744,165 L159.024,165 L159.024,159.704 C159.024,158.701333 158.776,157.925333 158.28,157.376 C157.784,156.826667 157.109333,156.552 156.256,156.552 C155.637333,156.552 155.144,156.690667 154.776,156.968 C154.408,157.245333 154.122667,157.618667 153.92,158.088 L153.92,158.088 L153.856,158.088 L153.856,153.16 L152.576,153.16 L152.576,165 L153.856,165 Z M166.08,154.808 C166.357333,154.808 166.557333,154.741333 166.68,154.608 C166.802667,154.474667 166.864,154.301333 166.864,154.088 L166.864,154.088 L166.864,153.88 C166.864,153.666667 166.802667,153.493333 166.68,153.36 C166.557333,153.226667 166.357333,153.16 166.08,153.16 C165.802667,153.16 165.602667,153.226667 165.48,153.36 C165.357333,153.493333 165.296,153.666667 165.296,153.88 L165.296,153.88 L165.296,154.088 C165.296,154.301333 165.357333,154.474667 165.48,154.608 C165.602667,154.741333 165.802667,154.808 166.08,154.808 Z M166.72,165 L166.72,156.744 L165.44,156.744 L165.44,165 L166.72,165 Z M172.512,165.192 C173.301333,165.192 173.96,165.016 174.488,164.664 C175.016,164.312 175.413333,163.837333 175.68,163.24 L175.68,163.24 L174.752,162.616 C174.293333,163.576 173.546667,164.056 172.512,164.056 C171.754667,164.056 171.181333,163.824 170.792,163.36 C170.402667,162.896 170.208,162.301333 170.208,161.576 L170.208,161.576 L170.208,160.168 C170.208,159.805333 170.256,159.472 170.352,159.168 C170.448,158.864 170.592,158.602667 170.784,158.384 C170.976,158.165333 171.216,157.994667 171.504,157.872 C171.792,157.749333 172.128,157.688 172.512,157.688 C173.024,157.688 173.450667,157.805333 173.792,158.04 C174.133333,158.274667 174.378667,158.605333 174.528,159.032 L174.528,159.032 L175.6,158.488 C175.354667,157.912 174.984,157.445333 174.488,157.088 C173.992,156.730667 173.333333,156.552 172.512,156.552 C171.936,156.552 171.418667,156.653333 170.96,156.856 C170.501333,157.058667 170.114667,157.346667 169.8,157.72 C169.485333,158.093333 169.245333,158.546667 169.08,159.08 C168.914667,159.613333 168.832,160.210667 168.832,160.872 C168.832,161.533333 168.914667,162.130667 169.08,162.664 C169.245333,163.197333 169.485333,163.650667 169.8,164.024 C170.114667,164.397333 170.501333,164.685333 170.96,164.888 C171.418667,165.090667 171.936,165.192 172.512,165.192 Z M180.608,165.192 C181.162667,165.192 181.666667,165.090667 182.12,164.888 C182.573333,164.685333 182.965333,164.394667 183.296,164.016 C183.626667,163.637333 183.882667,163.184 184.064,162.656 C184.245333,162.128 184.336,161.533333 184.336,160.872 C184.336,160.221333 184.245333,159.629333 184.064,159.096 C183.882667,158.562667 183.626667,158.106667 183.296,157.728 C182.965333,157.349333 182.573333,157.058667 182.12,156.856 C181.666667,156.653333 181.162667,156.552 180.608,156.552 C180.053333,156.552 179.546667,156.653333 179.088,156.856 C178.629333,157.058667 178.237333,157.349333 177.912,157.728 C177.586667,158.106667 177.333333,158.562667 177.152,159.096 C176.970667,159.629333 176.88,160.221333 176.88,160.872 C176.88,161.533333 176.970667,162.128 177.152,162.656 C177.333333,163.184 177.586667,163.637333 177.912,164.016 C178.237333,164.394667 178.629333,164.685333 179.088,164.888 C179.546667,165.090667 180.053333,165.192 180.608,165.192 Z M180.608,164.056 C179.914667,164.056 179.349333,163.842667 178.912,163.416 C178.474667,162.989333 178.256,162.338667 178.256,161.464 L178.256,161.464 L178.256,160.28 C178.256,159.405333 178.474667,158.754667 178.912,158.328 C179.349333,157.901333 179.914667,157.688 180.608,157.688 C181.301333,157.688 181.866667,157.901333 182.304,158.328 C182.741333,158.754667 182.96,159.405333 182.96,160.28 L182.96,160.28 L182.96,161.464 C182.96,162.338667 182.741333,162.989333 182.304,163.416 C181.866667,163.842667 181.301333,164.056 180.608,164.056 Z M187.728,165 L187.728,159.272 C187.728,159.005333 187.784,158.773333 187.896,158.576 C188.008,158.378667 188.16,158.216 188.352,158.088 C188.544,157.96 188.76,157.864 189,157.8 C189.24,157.736 189.488,157.704 189.744,157.704 C190.992,157.704 191.616,158.445333 191.616,159.928 L191.616,159.928 L191.616,165 L192.896,165 L192.896,159.704 C192.896,158.701333 192.648,157.925333 192.152,157.376 C191.656,156.826667 190.981333,156.552 190.128,156.552 C189.509333,156.552 189.016,156.690667 188.648,156.968 C188.28,157.245333 187.994667,157.618667 187.792,158.088 L187.792,158.088 L187.728,158.088 L187.728,156.744 L186.448,156.744 L186.448,165 L187.728,165 Z" id="Linkwithicon" fill="#161616" fill-rule="nonzero"></path>
        <g id="icons/arrows/ibm-forward-link-copy" transform="translate(201.000000, 148.000000)">
            <mask id="mask-2" fill="white">
                <use xlink:href="#path-1"></use>
            </mask>
            <use id="icon-color" fill="#0F62FE" xlink:href="#path-1"></use>
        </g>
    </g>
</svg>