<svg width="320" height="320" viewBox="0 0 320 320" fill="none" xmlns="http://www.w3.org/2000/svg">
<rect x="56" y="121" width="208" height="78" fill="white" stroke="#A8A8A8"/>
<path d="M110 131.5H157" stroke="#C6C6C6"/>
<path d="M161 131.5H208" stroke="#C6C6C6"/>
<path d="M212 131.5H259" stroke="#C6C6C6"/>
<path d="M110 142.5H157" stroke="#C6C6C6"/>
<path d="M161 142.5H208" stroke="#C6C6C6"/>
<path d="M212 142.5H259" stroke="#C6C6C6"/>
<path d="M110 153.5H157" stroke="#C6C6C6"/>
<path d="M161 153.5H208" stroke="#C6C6C6"/>
<path d="M212 153.5H259" stroke="#C6C6C6"/>
<path d="M110 164.5H157" stroke="#C6C6C6"/>
<path d="M161 164.5H208" stroke="#C6C6C6"/>
<path d="M212 164.5H259" stroke="#C6C6C6"/>
<path fill-rule="evenodd" clip-rule="evenodd" d="M149.375 135.125L149.111 135.389L150.532 136.812H146.562V137.188H150.532L149.111 138.611L149.375 138.875L151.25 137L149.375 135.125V135.125Z" fill="#0F62FE"/>
<mask id="mask0_0_4365" style="mask-type:luminance" maskUnits="userSpaceOnUse" x="146" y="135" width="6" height="4">
<path fill-rule="evenodd" clip-rule="evenodd" d="M149.375 135.125L149.111 135.389L150.532 136.812H146.562V137.188H150.532L149.111 138.611L149.375 138.875L151.25 137L149.375 135.125V135.125Z" fill="white"/>
</mask>
<g mask="url(#mask0_0_4365)">
</g>
<path fill-rule="evenodd" clip-rule="evenodd" d="M200.375 135.125L200.111 135.389L201.532 136.812H197.562V137.188H201.532L200.111 138.611L200.375 138.875L202.25 137L200.375 135.125V135.125Z" fill="#0F62FE"/>
<mask id="mask1_0_4365" style="mask-type:luminance" maskUnits="userSpaceOnUse" x="197" y="135" width="6" height="4">
<path fill-rule="evenodd" clip-rule="evenodd" d="M200.375 135.125L200.111 135.389L201.532 136.812H197.562V137.188H201.532L200.111 138.611L200.375 138.875L202.25 137L200.375 135.125V135.125Z" fill="white"/>
</mask>
<g mask="url(#mask1_0_4365)">
</g>
<path fill-rule="evenodd" clip-rule="evenodd" d="M251.375 135.125L251.111 135.389L252.532 136.812H248.562V137.188H252.532L251.111 138.611L251.375 138.875L253.25 137L251.375 135.125V135.125Z" fill="#0F62FE"/>
<mask id="mask2_0_4365" style="mask-type:luminance" maskUnits="userSpaceOnUse" x="248" y="135" width="6" height="4">
<path fill-rule="evenodd" clip-rule="evenodd" d="M251.375 135.125L251.111 135.389L252.532 136.812H248.562V137.188H252.532L251.111 138.611L251.375 138.875L253.25 137L251.375 135.125V135.125Z" fill="white"/>
</mask>
<g mask="url(#mask2_0_4365)">
</g>
<path fill-rule="evenodd" clip-rule="evenodd" d="M149.375 146.125L149.111 146.389L150.532 147.812H146.562V148.188H150.532L149.111 149.611L149.375 149.875L151.25 148L149.375 146.125V146.125Z" fill="#0F62FE"/>
<mask id="mask3_0_4365" style="mask-type:luminance" maskUnits="userSpaceOnUse" x="146" y="146" width="6" height="4">
<path fill-rule="evenodd" clip-rule="evenodd" d="M149.375 146.125L149.111 146.389L150.532 147.812H146.562V148.188H150.532L149.111 149.611L149.375 149.875L151.25 148L149.375 146.125V146.125Z" fill="white"/>
</mask>
<g mask="url(#mask3_0_4365)">
</g>
<path fill-rule="evenodd" clip-rule="evenodd" d="M200.375 146.125L200.111 146.389L201.532 147.812H197.562V148.188H201.532L200.111 149.611L200.375 149.875L202.25 148L200.375 146.125V146.125Z" fill="#0F62FE"/>
<mask id="mask4_0_4365" style="mask-type:luminance" maskUnits="userSpaceOnUse" x="197" y="146" width="6" height="4">
<path fill-rule="evenodd" clip-rule="evenodd" d="M200.375 146.125L200.111 146.389L201.532 147.812H197.562V148.188H201.532L200.111 149.611L200.375 149.875L202.25 148L200.375 146.125V146.125Z" fill="white"/>
</mask>
<g mask="url(#mask4_0_4365)">
</g>
<path fill-rule="evenodd" clip-rule="evenodd" d="M251.375 146.125L251.111 146.389L252.532 147.812H248.562V148.188H252.532L251.111 149.611L251.375 149.875L253.25 148L251.375 146.125V146.125Z" fill="#0F62FE"/>
<mask id="mask5_0_4365" style="mask-type:luminance" maskUnits="userSpaceOnUse" x="248" y="146" width="6" height="4">
<path fill-rule="evenodd" clip-rule="evenodd" d="M251.375 146.125L251.111 146.389L252.532 147.812H248.562V148.188H252.532L251.111 149.611L251.375 149.875L253.25 148L251.375 146.125V146.125Z" fill="white"/>
</mask>
<g mask="url(#mask5_0_4365)">
</g>
<path fill-rule="evenodd" clip-rule="evenodd" d="M149.375 157.125L149.111 157.389L150.532 158.812H146.562V159.188H150.532L149.111 160.611L149.375 160.875L151.25 159L149.375 157.125V157.125Z" fill="#0F62FE"/>
<mask id="mask6_0_4365" style="mask-type:luminance" maskUnits="userSpaceOnUse" x="146" y="157" width="6" height="4">
<path fill-rule="evenodd" clip-rule="evenodd" d="M149.375 157.125L149.111 157.389L150.532 158.812H146.562V159.188H150.532L149.111 160.611L149.375 160.875L151.25 159L149.375 157.125V157.125Z" fill="white"/>
</mask>
<g mask="url(#mask6_0_4365)">
</g>
<path fill-rule="evenodd" clip-rule="evenodd" d="M200.375 157.125L200.111 157.389L201.532 158.812H197.562V159.188H201.532L200.111 160.611L200.375 160.875L202.25 159L200.375 157.125V157.125Z" fill="#0F62FE"/>
<mask id="mask7_0_4365" style="mask-type:luminance" maskUnits="userSpaceOnUse" x="197" y="157" width="6" height="4">
<path fill-rule="evenodd" clip-rule="evenodd" d="M200.375 157.125L200.111 157.389L201.532 158.812H197.562V159.188H201.532L200.111 160.611L200.375 160.875L202.25 159L200.375 157.125V157.125Z" fill="white"/>
</mask>
<g mask="url(#mask7_0_4365)">
</g>
<path fill-rule="evenodd" clip-rule="evenodd" d="M251.375 157.125L251.111 157.389L252.532 158.812H248.562V159.188H252.532L251.111 160.611L251.375 160.875L253.25 159L251.375 157.125V157.125Z" fill="#0F62FE"/>
<mask id="mask8_0_4365" style="mask-type:luminance" maskUnits="userSpaceOnUse" x="248" y="157" width="6" height="4">
<path fill-rule="evenodd" clip-rule="evenodd" d="M251.375 157.125L251.111 157.389L252.532 158.812H248.562V159.188H252.532L251.111 160.611L251.375 160.875L253.25 159L251.375 157.125V157.125Z" fill="white"/>
</mask>
<g mask="url(#mask8_0_4365)">
</g>
<rect x="110" y="136" width="14" height="1.5" fill="#78A9FF"/>
<rect x="161" y="136" width="14" height="1.5" fill="#78A9FF"/>
<rect x="213" y="136" width="14" height="1.5" fill="#78A9FF"/>
<rect x="110" y="147" width="14" height="1.5" fill="#78A9FF"/>
<rect x="161" y="147" width="14" height="1.5" fill="#78A9FF"/>
<rect x="213" y="147" width="14" height="1.5" fill="#78A9FF"/>
<rect x="110" y="158" width="14" height="1.5" fill="#78A9FF"/>
<rect x="161" y="158" width="14" height="1.5" fill="#78A9FF"/>
<rect x="213" y="158" width="14" height="1.5" fill="#78A9FF"/>
</svg>
