<?xml version="1.0" encoding="UTF-8"?>
<!DOCTYPE svg PUBLIC "-//W3C//DTD SVG 1.1//EN" "http://www.w3.org/Graphics/SVG/1.1/DTD/svg11.dtd">
<svg xmlns="http://www.w3.org/2000/svg" version="1.1" width="640px" height="360px" style="shape-rendering:geometricPrecision; text-rendering:geometricPrecision; image-rendering:optimizeQuality; fill-rule:evenodd; clip-rule:evenodd" xmlns:xlink="http://www.w3.org/1999/xlink">
<g><path style="opacity:1" fill="#a7a8a7" d="M 110.5,112.5 C 249.833,112.5 389.167,112.5 528.5,112.5C 528.5,165.167 528.5,217.833 528.5,270.5C 389.167,270.5 249.833,270.5 110.5,270.5C 110.5,217.833 110.5,165.167 110.5,112.5 Z"/></g>
<g><path style="opacity:1" fill="#fefeff" d="M 112.5,114.5 C 250.5,114.5 388.5,114.5 526.5,114.5C 526.5,165.833 526.5,217.167 526.5,268.5C 388.5,268.5 250.5,268.5 112.5,268.5C 112.5,217.167 112.5,165.833 112.5,114.5 Z"/></g>
<g><path style="opacity:1" fill="#8c8d8c" d="M 127.5,131.5 C 143.5,131.5 159.5,131.5 175.5,131.5C 175.5,132.833 175.5,134.167 175.5,135.5C 159.5,135.5 143.5,135.5 127.5,135.5C 127.5,134.167 127.5,132.833 127.5,131.5 Z"/></g>
<g><path style="opacity:1" fill="#c5c6c5" d="M 219.5,133.5 C 250.84,133.167 282.174,133.5 313.5,134.5C 297.833,134.833 282.167,135.167 266.5,135.5C 250.485,135.499 234.819,134.833 219.5,133.5 Z"/></g>
<g><path style="opacity:1" fill="#c5c6c5" d="M 321.5,133.5 C 352.84,133.167 384.174,133.5 415.5,134.5C 399.833,134.833 384.167,135.167 368.5,135.5C 352.485,135.499 336.819,134.833 321.5,133.5 Z"/></g>
<g><path style="opacity:1" fill="#c5c6c5" d="M 423.5,133.5 C 454.84,133.167 486.174,133.5 517.5,134.5C 501.833,134.833 486.167,135.167 470.5,135.5C 454.485,135.499 438.819,134.833 423.5,133.5 Z"/></g>
<g><path style="opacity:1" fill="#78a9ff" d="M 219.5,143.5 C 228.833,143.5 238.167,143.5 247.5,143.5C 247.5,144.5 247.5,145.5 247.5,146.5C 238.167,146.5 228.833,146.5 219.5,146.5C 219.5,145.5 219.5,144.5 219.5,143.5 Z"/></g>
<g><path style="opacity:1" fill="#78a9ff" d="M 321.5,143.5 C 330.833,143.5 340.167,143.5 349.5,143.5C 349.5,144.5 349.5,145.5 349.5,146.5C 340.167,146.5 330.833,146.5 321.5,146.5C 321.5,145.5 321.5,144.5 321.5,143.5 Z"/></g>
<g><path style="opacity:1" fill="#78a9ff" d="M 425.5,143.5 C 434.833,143.5 444.167,143.5 453.5,143.5C 453.5,144.5 453.5,145.5 453.5,146.5C 444.167,146.5 434.833,146.5 425.5,146.5C 425.5,145.5 425.5,144.5 425.5,143.5 Z"/></g>
<g><path style="opacity:1" fill="#a0bdff" d="M 299.5,143.5 C 301.836,145.618 301.503,147.618 298.5,149.5C 297.707,148.645 298.04,147.811 299.5,147C 290.487,146.068 290.487,144.901 299.5,143.5 Z"/></g>
<g><path style="opacity:1" fill="#a0bdff" d="M 401.5,143.5 C 403.836,145.618 403.503,147.618 400.5,149.5C 399.707,148.645 400.04,147.811 401.5,147C 392.487,146.068 392.487,144.901 401.5,143.5 Z"/></g>
<g><path style="opacity:1" fill="#a0bdff" d="M 503.5,143.5 C 505.836,145.618 505.503,147.618 502.5,149.5C 501.707,148.645 502.04,147.811 503.5,147C 494.487,146.068 494.487,144.901 503.5,143.5 Z"/></g>
<g><path style="opacity:1" fill="#c5c6c5" d="M 219.5,155.5 C 250.84,155.167 282.174,155.5 313.5,156.5C 297.833,156.833 282.167,157.167 266.5,157.5C 250.485,157.499 234.819,156.833 219.5,155.5 Z"/></g>
<g><path style="opacity:1" fill="#c5c6c5" d="M 321.5,155.5 C 352.84,155.167 384.174,155.5 415.5,156.5C 399.833,156.833 384.167,157.167 368.5,157.5C 352.485,157.499 336.819,156.833 321.5,155.5 Z"/></g>
<g><path style="opacity:1" fill="#c5c6c5" d="M 423.5,155.5 C 454.84,155.167 486.174,155.5 517.5,156.5C 501.833,156.833 486.167,157.167 470.5,157.5C 454.485,157.499 438.819,156.833 423.5,155.5 Z"/></g>
<g><path style="opacity:1" fill="#78a9ff" d="M 219.5,165.5 C 228.833,165.5 238.167,165.5 247.5,165.5C 247.5,166.5 247.5,167.5 247.5,168.5C 238.167,168.5 228.833,168.5 219.5,168.5C 219.5,167.5 219.5,166.5 219.5,165.5 Z"/></g>
<g><path style="opacity:1" fill="#78a9ff" d="M 321.5,165.5 C 330.833,165.5 340.167,165.5 349.5,165.5C 349.5,166.5 349.5,167.5 349.5,168.5C 340.167,168.5 330.833,168.5 321.5,168.5C 321.5,167.5 321.5,166.5 321.5,165.5 Z"/></g>
<g><path style="opacity:1" fill="#78a9ff" d="M 425.5,165.5 C 434.833,165.5 444.167,165.5 453.5,165.5C 453.5,166.5 453.5,167.5 453.5,168.5C 444.167,168.5 434.833,168.5 425.5,168.5C 425.5,167.5 425.5,166.5 425.5,165.5 Z"/></g>
<g><path style="opacity:1" fill="#a0bdff" d="M 299.5,165.5 C 301.836,167.618 301.503,169.618 298.5,171.5C 297.707,170.645 298.04,169.811 299.5,169C 290.487,168.068 290.487,166.901 299.5,165.5 Z"/></g>
<g><path style="opacity:1" fill="#a0bdff" d="M 401.5,165.5 C 403.836,167.618 403.503,169.618 400.5,171.5C 399.707,170.645 400.04,169.811 401.5,169C 392.487,168.068 392.487,166.901 401.5,165.5 Z"/></g>
<g><path style="opacity:1" fill="#a0bdff" d="M 503.5,165.5 C 505.836,167.618 505.503,169.618 502.5,171.5C 501.707,170.645 502.04,169.811 503.5,169C 494.487,168.068 494.487,166.901 503.5,165.5 Z"/></g>
<g><path style="opacity:1" fill="#c5c6c5" d="M 219.5,177.5 C 250.84,177.167 282.174,177.5 313.5,178.5C 297.833,178.833 282.167,179.167 266.5,179.5C 250.485,179.499 234.819,178.833 219.5,177.5 Z"/></g>
<g><path style="opacity:1" fill="#c5c6c5" d="M 321.5,177.5 C 352.84,177.167 384.174,177.5 415.5,178.5C 399.833,178.833 384.167,179.167 368.5,179.5C 352.485,179.499 336.819,178.833 321.5,177.5 Z"/></g>
<g><path style="opacity:1" fill="#c5c6c5" d="M 423.5,177.5 C 454.84,177.167 486.174,177.5 517.5,178.5C 501.833,178.833 486.167,179.167 470.5,179.5C 454.485,179.499 438.819,178.833 423.5,177.5 Z"/></g>
<g><path style="opacity:1" fill="#78a9ff" d="M 219.5,187.5 C 228.833,187.5 238.167,187.5 247.5,187.5C 247.5,188.5 247.5,189.5 247.5,190.5C 238.167,190.5 228.833,190.5 219.5,190.5C 219.5,189.5 219.5,188.5 219.5,187.5 Z"/></g>
<g><path style="opacity:1" fill="#78a9ff" d="M 321.5,187.5 C 330.833,187.5 340.167,187.5 349.5,187.5C 349.5,188.5 349.5,189.5 349.5,190.5C 340.167,190.5 330.833,190.5 321.5,190.5C 321.5,189.5 321.5,188.5 321.5,187.5 Z"/></g>
<g><path style="opacity:1" fill="#78a9ff" d="M 425.5,187.5 C 434.833,187.5 444.167,187.5 453.5,187.5C 453.5,188.5 453.5,189.5 453.5,190.5C 444.167,190.5 434.833,190.5 425.5,190.5C 425.5,189.5 425.5,188.5 425.5,187.5 Z"/></g>
<g><path style="opacity:1" fill="#a0bdff" d="M 299.5,187.5 C 301.836,189.618 301.503,191.618 298.5,193.5C 297.707,192.645 298.04,191.811 299.5,191C 290.487,190.068 290.487,188.901 299.5,187.5 Z"/></g>
<g><path style="opacity:1" fill="#a0bdff" d="M 401.5,187.5 C 403.836,189.618 403.503,191.618 400.5,193.5C 399.707,192.645 400.04,191.811 401.5,191C 392.487,190.068 392.487,188.901 401.5,187.5 Z"/></g>
<g><path style="opacity:1" fill="#a0bdff" d="M 503.5,187.5 C 505.836,189.618 505.503,191.618 502.5,193.5C 501.707,192.645 502.04,191.811 503.5,191C 494.487,190.068 494.487,188.901 503.5,187.5 Z"/></g>
<g><path style="opacity:1" fill="#c5c6c5" d="M 219.5,199.5 C 250.84,199.167 282.174,199.5 313.5,200.5C 297.833,200.833 282.167,201.167 266.5,201.5C 250.485,201.499 234.819,200.833 219.5,199.5 Z"/></g>
<g><path style="opacity:1" fill="#c5c6c5" d="M 321.5,199.5 C 352.84,199.167 384.174,199.5 415.5,200.5C 399.833,200.833 384.167,201.167 368.5,201.5C 352.485,201.499 336.819,200.833 321.5,199.5 Z"/></g>
<g><path style="opacity:1" fill="#c5c6c5" d="M 423.5,199.5 C 454.84,199.167 486.174,199.5 517.5,200.5C 501.833,200.833 486.167,201.167 470.5,201.5C 454.485,201.499 438.819,200.833 423.5,199.5 Z"/></g>
</svg>
