<?xml version="1.0" encoding="UTF-8"?>
<!DOCTYPE svg PUBLIC "-//W3C//DTD SVG 1.1//EN" "http://www.w3.org/Graphics/SVG/1.1/DTD/svg11.dtd">
<svg xmlns="http://www.w3.org/2000/svg" version="1.1" width="640px" height="360px" style="shape-rendering:geometricPrecision; text-rendering:geometricPrecision; image-rendering:optimizeQuality; fill-rule:evenodd; clip-rule:evenodd" xmlns:xlink="http://www.w3.org/1999/xlink">
<g><path style="opacity:0.549" fill="#0f61fe" d="M 239.5,173.5 C 241.355,173.272 242.188,173.939 242,175.5C 239.366,176.692 238.532,176.026 239.5,173.5 Z"/></g>
<g><path style="opacity:0.739" fill="#0f62fe" d="M 258.5,173.5 C 259.5,173.5 260.5,173.5 261.5,173.5C 261.335,176.85 261.502,180.183 262,183.5C 263.353,182.315 264.52,180.981 265.5,179.5C 266.723,178.386 268.056,178.219 269.5,179C 267.586,180.413 266.253,182.247 265.5,184.5C 266.833,186.5 268.167,188.5 269.5,190.5C 268.635,191.583 267.635,191.749 266.5,191C 265.274,189.365 263.941,187.865 262.5,186.5C 261.548,188.045 261.215,189.712 261.5,191.5C 260.5,191.5 259.5,191.5 258.5,191.5C 258.5,185.5 258.5,179.5 258.5,173.5 Z"/></g>
<g><path style="opacity:0.593" fill="#0f62fe" d="M 295.5,173.5 C 296.5,173.5 297.5,173.5 298.5,173.5C 298.5,174.5 298.5,175.5 298.5,176.5C 297.5,176.5 296.5,176.5 295.5,176.5C 295.5,175.5 295.5,174.5 295.5,173.5 Z"/></g>
<g><path style="opacity:0.633" fill="#0f61fe" d="M 309.5,173.5 C 310.5,173.5 311.5,173.5 312.5,173.5C 312.338,175.527 312.505,177.527 313,179.5C 315.592,178.018 317.925,178.352 320,180.5C 320.499,184.152 320.665,187.818 320.5,191.5C 319.5,191.5 318.5,191.5 317.5,191.5C 317.5,188.167 317.5,184.833 317.5,181.5C 315.856,181.286 314.356,181.62 313,182.5C 312.502,185.482 312.335,188.482 312.5,191.5C 311.5,191.5 310.5,191.5 309.5,191.5C 309.5,185.5 309.5,179.5 309.5,173.5 Z"/></g>
<g><path style="opacity:0.586" fill="#0f61fe" d="M 329.5,173.5 C 330.5,173.5 331.5,173.5 332.5,173.5C 332.5,174.5 332.5,175.5 332.5,176.5C 331.5,176.5 330.5,176.5 329.5,176.5C 329.5,175.5 329.5,174.5 329.5,173.5 Z"/></g>
<g><path style="opacity:0.833" fill="#0f62fe" d="M 227.5,174.5 C 228.5,174.5 229.5,174.5 230.5,174.5C 230.5,179.5 230.5,184.5 230.5,189.5C 232.924,189.192 235.257,189.526 237.5,190.5C 234.232,191.487 230.898,191.82 227.5,191.5C 227.5,185.833 227.5,180.167 227.5,174.5 Z"/></g>
<g><path style="opacity:0.759" fill="#0f62fe" d="M 400.5,174.5 C 404.415,176.743 407.749,179.743 410.5,183.5C 407.833,186.833 404.833,189.833 401.5,192.5C 400.692,192.192 400.025,191.692 399.5,191C 401.5,189 403.5,187 405.5,185C 381.5,184 381.5,183 405.5,182C 403.5,180 401.5,178 399.5,176C 400.056,175.617 400.389,175.117 400.5,174.5 Z"/></g>
<g><path style="opacity:0.836" fill="#0f62fe" d="M 302.5,175.5 C 304.048,175.821 304.715,176.821 304.5,178.5C 305.5,178.5 306.5,178.5 307.5,178.5C 307.5,179.5 307.5,180.5 307.5,181.5C 306.5,181.5 305.5,181.5 304.5,181.5C 304.5,184.167 304.5,186.833 304.5,189.5C 305.675,189.281 306.675,189.614 307.5,190.5C 305.955,191.452 304.288,191.785 302.5,191.5C 302.923,187.449 302.256,183.616 300.5,180C 301.707,178.7 302.374,177.2 302.5,175.5 Z"/></g>
<g><path style="opacity:0.892" fill="#0f62fe" d="M 239.5,178.5 C 240.8,180.223 241.467,182.39 241.5,185C 241.167,187.167 240.833,189.333 240.5,191.5C 239.508,187.217 239.174,182.884 239.5,178.5 Z"/></g>
<g><path style="opacity:0.743" fill="#0f62fe" d="M 245.5,178.5 C 248.007,178.805 250.674,178.971 253.5,179C 254,179.5 254.5,180 255,180.5C 255.499,184.152 255.665,187.818 255.5,191.5C 254.5,191.5 253.5,191.5 252.5,191.5C 252.5,188.167 252.5,184.833 252.5,181.5C 250.856,181.286 249.356,181.62 248,182.5C 247.821,185.553 247.321,188.553 246.5,191.5C 245.508,187.217 245.174,182.884 245.5,178.5 Z"/></g>
<g><path style="opacity:0.669" fill="#0f62fe" d="M 275.5,178.5 C 276.675,178.281 277.675,178.614 278.5,179.5C 279.332,182.161 280.166,184.828 281,187.5C 281.532,184.736 282.366,182.07 283.5,179.5C 284.325,178.614 285.325,178.281 286.5,178.5C 288.272,188.953 289.606,188.953 290.5,178.5C 291.5,178.5 292.5,178.5 293.5,178.5C 292.816,182.571 291.816,186.571 290.5,190.5C 289.311,191.429 287.978,191.762 286.5,191.5C 285.984,182.866 284.65,182.533 282.5,190.5C 281.311,191.429 279.978,191.762 278.5,191.5C 277.707,187.12 276.707,182.787 275.5,178.5 Z"/></g>
<g><path style="opacity:0.619" fill="#0f62fd" d="M 295.5,178.5 C 296.5,178.5 297.5,178.5 298.5,178.5C 298.5,182.833 298.5,187.167 298.5,191.5C 297.5,191.5 296.5,191.5 295.5,191.5C 295.5,187.167 295.5,182.833 295.5,178.5 Z"/></g>
<g><path style="opacity:0.635" fill="#0f61fe" d="M 329.5,178.5 C 330.5,178.5 331.5,178.5 332.5,178.5C 332.5,182.833 332.5,187.167 332.5,191.5C 331.5,191.5 330.5,191.5 329.5,191.5C 329.5,187.167 329.5,182.833 329.5,178.5 Z"/></g>
<g><path style="opacity:0.67" fill="#0f62fe" d="M 337.5,178.5 C 340.908,177.828 343.575,178.828 345.5,181.5C 343.018,181.606 340.518,181.939 338,182.5C 336.33,189.18 338.33,190.846 344,187.5C 345.538,189.329 345.038,190.829 342.5,192C 335.129,192.27 332.629,188.77 335,181.5C 336.045,180.627 336.878,179.627 337.5,178.5 Z"/></g>
<g><path style="opacity:0.673" fill="#0f62fd" d="M 349.5,178.5 C 356.745,177.963 359.578,181.296 358,188.5C 354.333,193.833 350.667,193.833 347,188.5C 345.861,184.579 346.695,181.246 349.5,178.5 Z M 350.5,181.5 C 352.144,181.286 353.644,181.62 355,182.5C 355.758,184.769 355.591,186.936 354.5,189C 352.888,189.72 351.388,189.554 350,188.5C 349.297,186.071 349.463,183.738 350.5,181.5 Z"/></g>
<g><path style="opacity:0.672" fill="#0f62fd" d="M 360.5,178.5 C 363.603,178.67 366.77,179.004 370,179.5C 371.354,183.363 371.854,187.363 371.5,191.5C 370.5,191.5 369.5,191.5 368.5,191.5C 368.665,188.482 368.498,185.482 368,182.5C 366.644,181.62 365.144,181.286 363.5,181.5C 363.5,184.833 363.5,188.167 363.5,191.5C 362.5,191.5 361.5,191.5 360.5,191.5C 360.5,187.167 360.5,182.833 360.5,178.5 Z"/></g>
</svg>
