<svg width="320" height="320" viewBox="0 0 320 320" fill="none" xmlns="http://www.w3.org/2000/svg">
<g filter="url(#filter0_d_0_5043)">
<rect x="72" y="98" width="176" height="123.053" fill="black" fill-opacity="0.01"/>
</g>
<rect width="176" height="124" transform="translate(72 98)" fill="#F3F3F3"/>
<rect x="77" y="133" width="81" height="40" fill="white" stroke="#A8A8A8"/>
<rect x="162" y="133" width="81" height="40" fill="white" stroke="#A8A8A8"/>
<path fill-rule="evenodd" clip-rule="evenodd" d="M238.986 109.5L241.25 107.236L240.764 106.75L238.5 109.014L236.236 106.75L235.75 107.236L238.014 109.5L235.75 111.764L236.236 112.25L238.5 109.986L240.764 112.25L241.25 111.764L238.986 109.5V109.5Z" fill="black"/>
<mask id="mask0_0_5043" style="mask-type:luminance" maskUnits="userSpaceOnUse" x="235" y="106" width="7" height="7">
<path fill-rule="evenodd" clip-rule="evenodd" d="M238.986 109.5L241.25 107.236L240.764 106.75L238.5 109.014L236.236 106.75L235.75 107.236L238.014 109.5L235.75 111.764L236.236 112.25L238.5 109.986L240.764 112.25L241.25 111.764L238.986 109.5V109.5Z" fill="white"/>
</mask>
<g mask="url(#mask0_0_5043)">
</g>
<rect x="77" y="177" width="81" height="40" fill="white" stroke="#A8A8A8"/>
<rect x="162" y="177" width="81" height="40" fill="white" stroke="#A8A8A8"/>
<rect x="77" y="114" width="81" height="6" fill="#8D8D8D"/>
<rect x="77" y="105" width="26" height="3" fill="#A8A8A8"/>
<rect x="82" y="139" width="32" height="3" fill="#A8A8A8"/>
<rect x="166" y="139" width="32" height="3" fill="#A8A8A8"/>
<rect x="82" y="183" width="32" height="3" fill="#A8A8A8"/>
<rect x="166" y="183" width="32" height="3" fill="#A8A8A8"/>
<path fill-rule="evenodd" clip-rule="evenodd" d="M148.625 160.875L148.184 161.316L150.553 163.687H143.938V164.312H150.553L148.184 166.684L148.625 167.125L151.75 164L148.625 160.875V160.875Z" fill="#0F62FE"/>
<mask id="mask1_0_5043" style="mask-type:luminance" maskUnits="userSpaceOnUse" x="143" y="160" width="9" height="8">
<path fill-rule="evenodd" clip-rule="evenodd" d="M148.625 160.875L148.184 161.316L150.553 163.687H143.938V164.312H150.553L148.184 166.684L148.625 167.125L151.75 164L148.625 160.875V160.875Z" fill="white"/>
</mask>
<g mask="url(#mask1_0_5043)">
</g>
<path fill-rule="evenodd" clip-rule="evenodd" d="M148.625 204.875L148.184 205.316L150.553 207.687H143.938V208.312H150.553L148.184 210.684L148.625 211.125L151.75 208L148.625 204.875V204.875Z" fill="#0F62FE"/>
<mask id="mask2_0_5043" style="mask-type:luminance" maskUnits="userSpaceOnUse" x="143" y="204" width="9" height="8">
<path fill-rule="evenodd" clip-rule="evenodd" d="M148.625 204.875L148.184 205.316L150.553 207.687H143.938V208.312H150.553L148.184 210.684L148.625 211.125L151.75 208L148.625 204.875V204.875Z" fill="white"/>
</mask>
<g mask="url(#mask2_0_5043)">
</g>
<path fill-rule="evenodd" clip-rule="evenodd" d="M232.625 160.875L232.184 161.316L234.553 163.687H227.938V164.312H234.553L232.184 166.684L232.625 167.125L235.75 164L232.625 160.875V160.875Z" fill="#0F62FE"/>
<mask id="mask3_0_5043" style="mask-type:luminance" maskUnits="userSpaceOnUse" x="227" y="160" width="9" height="8">
<path fill-rule="evenodd" clip-rule="evenodd" d="M232.625 160.875L232.184 161.316L234.553 163.687H227.938V164.312H234.553L232.184 166.684L232.625 167.125L235.75 164L232.625 160.875V160.875Z" fill="white"/>
</mask>
<g mask="url(#mask3_0_5043)">
</g>
<path fill-rule="evenodd" clip-rule="evenodd" d="M232.625 204.875L232.184 205.316L234.553 207.687H227.938V208.312H234.553L232.184 210.684L232.625 211.125L235.75 208L232.625 204.875V204.875Z" fill="#0F62FE"/>
<mask id="mask4_0_5043" style="mask-type:luminance" maskUnits="userSpaceOnUse" x="227" y="204" width="9" height="8">
<path fill-rule="evenodd" clip-rule="evenodd" d="M232.625 204.875L232.184 205.316L234.553 207.687H227.938V208.312H234.553L232.184 210.684L232.625 211.125L235.75 208L232.625 204.875V204.875Z" fill="white"/>
</mask>
<g mask="url(#mask4_0_5043)">
</g>
<defs>
<filter id="filter0_d_0_5043" x="67" y="95" width="186" height="133.053" filterUnits="userSpaceOnUse" color-interpolation-filters="sRGB">
<feFlood flood-opacity="0" result="BackgroundImageFix"/>
<feColorMatrix in="SourceAlpha" type="matrix" values="0 0 0 0 0 0 0 0 0 0 0 0 0 0 0 0 0 0 127 0" result="hardAlpha"/>
<feOffset dy="2"/>
<feGaussianBlur stdDeviation="2.5"/>
<feColorMatrix type="matrix" values="0 0 0 0 0.862745 0 0 0 0 0.862745 0 0 0 0 0.862745 0 0 0 1 0"/>
<feBlend mode="normal" in2="BackgroundImageFix" result="effect1_dropShadow_0_5043"/>
<feBlend mode="normal" in="SourceGraphic" in2="effect1_dropShadow_0_5043" result="shape"/>
</filter>
</defs>
</svg>
