<?xml version="1.0" encoding="UTF-8"?>
<!DOCTYPE svg PUBLIC "-//W3C//DTD SVG 1.1//EN" "http://www.w3.org/Graphics/SVG/1.1/DTD/svg11.dtd">
<svg xmlns="http://www.w3.org/2000/svg" version="1.1" width="640px" height="360px" style="shape-rendering:geometricPrecision; text-rendering:geometricPrecision; image-rendering:optimizeQuality; fill-rule:evenodd; clip-rule:evenodd" xmlns:xlink="http://www.w3.org/1999/xlink">
<g><path style="opacity:0.004" fill="#fefffe" d="M 503.5,50.5 C 504.302,49.1153 504.969,49.282 505.5,51C 505.43,51.7648 505.097,52.2648 504.5,52.5C 504.672,51.5084 504.338,50.8417 503.5,50.5 Z"/></g>
<g><path style="opacity:0.279" fill="#dddddd" d="M 186.5,50.5 C 190.162,51.2773 193.996,51.2773 198,50.5C 198.75,51.1258 199.584,51.6258 200.5,52C 197.436,53.3665 194.436,53.8665 191.5,53.5C 193.078,54.2978 194.744,54.7978 196.5,55C 178.836,55.4999 161.17,55.6666 143.5,55.5C 143.5,138.167 143.5,220.833 143.5,303.5C 260.833,303.5 378.167,303.5 495.5,303.5C 495.5,220.833 495.5,138.167 495.5,55.5C 396.499,55.6667 297.499,55.5 198.5,55C 202.442,54.0071 206.442,53.3404 210.5,53C 209.376,52.7508 208.376,52.2508 207.5,51.5C 207.833,51.1667 208.167,50.8333 208.5,50.5C 213.111,51.6103 217.778,51.7769 222.5,51C 223.056,50.6174 223.389,50.1174 223.5,49.5C 316.361,49.3261 409.694,49.6595 503.5,50.5C 503.328,51.4916 503.662,52.1583 504.5,52.5C 503.232,53.787 503.565,54.787 505.5,55.5C 504.912,137.775 504.912,221.442 505.5,306.5C 505.471,308.029 504.804,309.196 503.5,310C 505.957,311.154 505.957,312.488 503.5,314C 503.833,314.333 504.167,314.667 504.5,315C 503.212,315.239 502.212,314.739 501.5,313.5C 500.848,314.725 499.681,315.392 498,315.5C 375.634,315.059 254.134,314.892 133.5,315C 133.982,313.992 134.148,312.825 134,311.5C 134.654,312.696 135.154,312.696 135.5,311.5C 134.975,310.808 134.308,310.308 133.5,310C 133.974,226.034 133.974,141.534 133.5,56.5C 134.025,55.8076 134.692,55.3076 135.5,55C 132.423,51.2094 133.423,49.3761 138.5,49.5C 154.303,49.7333 170.303,50.0666 186.5,50.5 Z"/></g>
<g><path style="opacity:1" fill="#f2f2f2" d="M 186.5,50.5 C 198.513,49.9248 210.847,49.5915 223.5,49.5C 223.389,50.1174 223.056,50.6174 222.5,51C 217.778,51.7769 213.111,51.6103 208.5,50.5C 208.167,50.8333 207.833,51.1667 207.5,51.5C 208.376,52.2508 209.376,52.7508 210.5,53C 206.442,53.3404 202.442,54.0071 198.5,55C 297.499,55.5 396.499,55.6667 495.5,55.5C 495.5,138.167 495.5,220.833 495.5,303.5C 378.167,303.5 260.833,303.5 143.5,303.5C 143.5,220.833 143.5,138.167 143.5,55.5C 161.17,55.6666 178.836,55.4999 196.5,55C 194.744,54.7978 193.078,54.2978 191.5,53.5C 194.436,53.8665 197.436,53.3665 200.5,52C 199.584,51.6258 198.75,51.1258 198,50.5C 193.996,51.2773 190.162,51.2773 186.5,50.5 Z"/></g>
<g><path style="opacity:1" fill="#a7a8a7" d="M 153.5,69.5 C 170.833,69.5 188.167,69.5 205.5,69.5C 205.5,71.5 205.5,73.5 205.5,75.5C 188.167,75.5 170.833,75.5 153.5,75.5C 153.5,73.5 153.5,71.5 153.5,69.5 Z"/></g>
<g><path style="opacity:1" fill="#4b4b4b" d="M 471.5,73.5 C 473.436,74.259 475.269,75.259 477,76.5C 482.17,72.4906 482.67,73.1573 478.5,78.5C 482.5,83.8333 481.833,84.5 476.5,80.5C 471.157,84.6699 470.491,84.1699 474.5,79C 473.259,77.2691 472.259,75.4358 471.5,73.5 Z"/></g>
<g><path style="opacity:1" fill="#8c8d8c" d="M 153.5,87.5 C 207.5,87.5 261.5,87.5 315.5,87.5C 315.5,91.5 315.5,95.5 315.5,99.5C 261.5,99.5 207.5,99.5 153.5,99.5C 153.5,95.5 153.5,91.5 153.5,87.5 Z"/></g>
<g><path style="opacity:1" fill="#a7a8a7" d="M 152.5,124.5 C 207.167,124.5 261.833,124.5 316.5,124.5C 316.5,151.833 316.5,179.167 316.5,206.5C 261.833,206.5 207.167,206.5 152.5,206.5C 152.5,179.167 152.5,151.833 152.5,124.5 Z"/></g>
<g><path style="opacity:1" fill="#a7a8a7" d="M 322.5,124.5 C 377.167,124.5 431.833,124.5 486.5,124.5C 486.5,151.833 486.5,179.167 486.5,206.5C 431.833,206.5 377.167,206.5 322.5,206.5C 322.5,179.167 322.5,151.833 322.5,124.5 Z"/></g>
<g><path style="opacity:1" fill="#fefeff" d="M 154.5,126.5 C 207.833,126.5 261.167,126.5 314.5,126.5C 314.5,152.5 314.5,178.5 314.5,204.5C 261.167,204.5 207.833,204.5 154.5,204.5C 154.5,178.5 154.5,152.5 154.5,126.5 Z"/></g>
<g><path style="opacity:1" fill="#fefeff" d="M 324.5,126.5 C 377.833,126.5 431.167,126.5 484.5,126.5C 484.5,152.5 484.5,178.5 484.5,204.5C 431.167,204.5 377.833,204.5 324.5,204.5C 324.5,178.5 324.5,152.5 324.5,126.5 Z"/></g>
<g><path style="opacity:1" fill="#a7a8a7" d="M 163.5,137.5 C 184.833,137.5 206.167,137.5 227.5,137.5C 227.5,139.5 227.5,141.5 227.5,143.5C 206.167,143.5 184.833,143.5 163.5,143.5C 163.5,141.5 163.5,139.5 163.5,137.5 Z"/></g>
<g><path style="opacity:1" fill="#a7a8a7" d="M 331.5,137.5 C 352.833,137.5 374.167,137.5 395.5,137.5C 395.5,139.5 395.5,141.5 395.5,143.5C 374.167,143.5 352.833,143.5 331.5,143.5C 331.5,141.5 331.5,139.5 331.5,137.5 Z"/></g>
<g><path style="opacity:1" fill="#689cfe" d="M 299.5,186.5 C 300.833,187.167 300.833,187.833 299.5,188.5C 283.5,187.833 283.5,187.167 299.5,186.5 Z"/></g>
<g><path style="opacity:1" fill="#689cfe" d="M 467.5,186.5 C 468.833,187.167 468.833,187.833 467.5,188.5C 451.5,187.833 451.5,187.167 467.5,186.5 Z"/></g>
<g><path style="opacity:1" fill="#3177fe" d="M 299.5,188.5 C 300.833,187.833 300.833,187.167 299.5,186.5C 298.524,185.185 297.524,183.852 296.5,182.5C 298.819,183.091 300.819,184.758 302.5,187.5C 300.851,189.65 299.018,191.65 297,193.5C 297.058,191.565 297.891,189.898 299.5,188.5 Z"/></g>
<g><path style="opacity:1" fill="#3177fe" d="M 467.5,188.5 C 468.833,187.833 468.833,187.167 467.5,186.5C 466.524,185.185 465.524,183.852 464.5,182.5C 466.819,183.091 468.819,184.758 470.5,187.5C 468.851,189.65 467.018,191.65 465,193.5C 465.058,191.565 465.891,189.898 467.5,188.5 Z"/></g>
<g><path style="opacity:1" fill="#a7a8a7" d="M 152.5,212.5 C 207.167,212.5 261.833,212.5 316.5,212.5C 316.5,239.833 316.5,267.167 316.5,294.5C 261.833,294.5 207.167,294.5 152.5,294.5C 152.5,267.167 152.5,239.833 152.5,212.5 Z"/></g>
<g><path style="opacity:1" fill="#a7a8a7" d="M 322.5,212.5 C 377.167,212.5 431.833,212.5 486.5,212.5C 486.5,239.833 486.5,267.167 486.5,294.5C 431.833,294.5 377.167,294.5 322.5,294.5C 322.5,267.167 322.5,239.833 322.5,212.5 Z"/></g>
<g><path style="opacity:1" fill="#fefeff" d="M 154.5,214.5 C 207.833,214.5 261.167,214.5 314.5,214.5C 314.5,240.5 314.5,266.5 314.5,292.5C 261.167,292.5 207.833,292.5 154.5,292.5C 154.5,266.5 154.5,240.5 154.5,214.5 Z"/></g>
<g><path style="opacity:1" fill="#fefeff" d="M 324.5,214.5 C 377.833,214.5 431.167,214.5 484.5,214.5C 484.5,240.5 484.5,266.5 484.5,292.5C 431.167,292.5 377.833,292.5 324.5,292.5C 324.5,266.5 324.5,240.5 324.5,214.5 Z"/></g>
<g><path style="opacity:1" fill="#a7a8a7" d="M 163.5,225.5 C 184.833,225.5 206.167,225.5 227.5,225.5C 227.5,227.5 227.5,229.5 227.5,231.5C 206.167,231.5 184.833,231.5 163.5,231.5C 163.5,229.5 163.5,227.5 163.5,225.5 Z"/></g>
<g><path style="opacity:1" fill="#a7a8a7" d="M 331.5,225.5 C 352.833,225.5 374.167,225.5 395.5,225.5C 395.5,227.5 395.5,229.5 395.5,231.5C 374.167,231.5 352.833,231.5 331.5,231.5C 331.5,229.5 331.5,227.5 331.5,225.5 Z"/></g>
<g><path style="opacity:1" fill="#689cfe" d="M 299.5,274.5 C 300.833,275.167 300.833,275.833 299.5,276.5C 283.5,275.833 283.5,275.167 299.5,274.5 Z"/></g>
<g><path style="opacity:1" fill="#689cfe" d="M 467.5,274.5 C 468.833,275.167 468.833,275.833 467.5,276.5C 451.5,275.833 451.5,275.167 467.5,274.5 Z"/></g>
<g><path style="opacity:1" fill="#3177fe" d="M 299.5,276.5 C 300.833,275.833 300.833,275.167 299.5,274.5C 298.524,273.185 297.524,271.852 296.5,270.5C 298.819,271.091 300.819,272.758 302.5,275.5C 300.851,277.65 299.018,279.65 297,281.5C 297.058,279.565 297.891,277.898 299.5,276.5 Z"/></g>
<g><path style="opacity:1" fill="#3177fe" d="M 467.5,276.5 C 468.833,275.833 468.833,275.167 467.5,274.5C 466.524,273.185 465.524,271.852 464.5,270.5C 466.819,271.091 468.819,272.758 470.5,275.5C 468.851,277.65 467.018,279.65 465,281.5C 465.058,279.565 465.891,277.898 467.5,276.5 Z"/></g>
<g><path style="opacity:0.008" fill="#4b4b4b" d="M 502.5,311.5 C 502.5,311.833 502.5,312.167 502.5,312.5C 501.833,312.5 501.5,312.833 501.5,313.5C 498.814,312.012 499.147,311.345 502.5,311.5 Z"/></g>
</svg>
