<?xml version="1.0" encoding="UTF-8"?>
<!DOCTYPE svg PUBLIC "-//W3C//DTD SVG 1.1//EN" "http://www.w3.org/Graphics/SVG/1.1/DTD/svg11.dtd">
<svg xmlns="http://www.w3.org/2000/svg" version="1.1" width="640px" height="360px" style="shape-rendering:geometricPrecision; text-rendering:geometricPrecision; image-rendering:optimizeQuality; fill-rule:evenodd; clip-rule:evenodd" xmlns:xlink="http://www.w3.org/1999/xlink">
<g><path style="opacity:1" fill="#a7a8a7" d="M 142.5,46.5 C 260.5,46.5 378.5,46.5 496.5,46.5C 496.5,135.167 496.5,223.833 496.5,312.5C 378.5,312.5 260.5,312.5 142.5,312.5C 142.5,223.833 142.5,135.167 142.5,46.5 Z"/></g>
<g><path style="opacity:1" fill="#fefefe" d="M 144.5,48.5 C 261.167,48.5 377.833,48.5 494.5,48.5C 494.5,135.833 494.5,223.167 494.5,310.5C 377.833,310.5 261.167,310.5 144.5,310.5C 144.5,223.167 144.5,135.833 144.5,48.5 Z"/></g>
<g><path style="opacity:1" fill="#8c8d8c" d="M 241.5,65.5 C 298.833,65.5 356.167,65.5 413.5,65.5C 413.5,67.5 413.5,69.5 413.5,71.5C 356.167,71.5 298.833,71.5 241.5,71.5C 241.5,69.5 241.5,67.5 241.5,65.5 Z"/></g>
<g><path style="opacity:1" fill="#8c8d8c" d="M 241.5,79.5 C 268.167,79.5 294.833,79.5 321.5,79.5C 321.5,81.5 321.5,83.5 321.5,85.5C 294.833,85.5 268.167,85.5 241.5,85.5C 241.5,83.5 241.5,81.5 241.5,79.5 Z"/></g>
<g><path style="opacity:1" fill="#c6c6c6" d="M 251.5,115.5 C 266.819,114.377 273.985,121.377 273,136.5C 268.053,148.725 259.553,152.225 247.5,147C 238.06,138.937 237.06,129.937 244.5,120C 246.898,118.476 249.231,116.976 251.5,115.5 Z"/></g>
<g><path style="opacity:1" fill="#c6c6c6" d="M 337.5,115.5 C 352.819,114.377 359.985,121.377 359,136.5C 354.053,148.725 345.553,152.225 333.5,147C 324.06,138.937 323.06,129.937 330.5,120C 332.898,118.476 335.231,116.976 337.5,115.5 Z"/></g>
<g><path style="opacity:1" fill="#c6c6c6" d="M 423.5,115.5 C 438.819,114.377 445.985,121.377 445,136.5C 440.053,148.725 431.553,152.225 419.5,147C 410.06,138.937 409.06,129.937 416.5,120C 418.898,118.476 421.231,116.976 423.5,115.5 Z"/></g>
<g><path style="opacity:1" fill="#c6c6c6" d="M 251.5,181.5 C 266.819,180.377 273.985,187.377 273,202.5C 268.053,214.725 259.553,218.225 247.5,213C 238.06,204.937 237.06,195.937 244.5,186C 246.898,184.476 249.231,182.976 251.5,181.5 Z"/></g>
<g><path style="opacity:1" fill="#c6c6c6" d="M 337.5,181.5 C 352.819,180.377 359.985,187.377 359,202.5C 354.053,214.725 345.553,218.225 333.5,213C 324.06,204.937 323.06,195.937 330.5,186C 332.898,184.476 335.231,182.976 337.5,181.5 Z"/></g>
<g><path style="opacity:1" fill="#c6c6c6" d="M 423.5,181.5 C 438.819,180.377 445.985,187.377 445,202.5C 440.053,214.725 431.553,218.225 419.5,213C 410.06,204.937 409.06,195.937 416.5,186C 418.898,184.476 421.231,182.976 423.5,181.5 Z"/></g>
<g><path style="opacity:1" fill="#c6c6c6" d="M 251.5,247.5 C 266.819,246.377 273.985,253.377 273,268.5C 268.053,280.725 259.553,284.225 247.5,279C 238.06,270.937 237.06,261.937 244.5,252C 246.898,250.476 249.231,248.976 251.5,247.5 Z"/></g>
<g><path style="opacity:1" fill="#c6c6c6" d="M 337.5,247.5 C 352.819,246.377 359.985,253.377 359,268.5C 354.053,280.725 345.553,284.225 333.5,279C 324.06,270.937 323.06,261.937 330.5,252C 332.898,250.476 335.231,248.976 337.5,247.5 Z"/></g>
<g><path style="opacity:1" fill="#c6c6c6" d="M 423.5,247.5 C 438.819,246.377 445.985,253.377 445,268.5C 440.053,280.725 431.553,284.225 419.5,279C 410.06,270.937 409.06,261.937 416.5,252C 418.898,250.476 421.231,248.976 423.5,247.5 Z"/></g>
</svg>
