<svg width="320" height="320" viewBox="0 0 320 320" fill="none" xmlns="http://www.w3.org/2000/svg">
<path d="M56 147H264V159H56V147Z" fill="white" stroke="#A8A8A8"/>
<rect x="56" y="159" width="208" height="15" fill="white" stroke="#A8A8A8"/>
<rect x="59" y="173" width="28" height="1" fill="#0F62FE"/>
<rect x="242" y="151" width="5" height="5" fill="#C6C6C6"/>
<rect x="252" y="151" width="5" height="5" fill="#C6C6C6"/>
<rect x="225" y="159" width="39" height="15" fill="#0F62FE"/>
<rect x="87" y="152" width="20" height="2" fill="#A8A8A8"/>
<rect x="91" y="168" width="20" height="2" fill="#A8A8A8"/>
<rect x="63" y="168" width="20" height="2" fill="#8D8D8D"/>
<rect x="115" y="152" width="20" height="2" fill="#A8A8A8"/>
<rect x="119" y="168" width="20" height="2" fill="#A8A8A8"/>
<rect x="143" y="152" width="20" height="2" fill="#A8A8A8"/>
<rect x="147" y="168" width="20" height="2" fill="#A8A8A8"/>
<rect x="197" y="168" width="20" height="2" fill="#78A9FF"/>
<rect x="171" y="152" width="20" height="2" fill="#A8A8A8"/>
<rect x="63" y="152" width="16" height="3" fill="#8D8D8D"/>
</svg>
