<?xml version="1.0" encoding="UTF-8"?>
<svg width="320px" height="320px" viewBox="0 0 320 320" version="1.1" xmlns="http://www.w3.org/2000/svg" xmlns:xlink="http://www.w3.org/1999/xlink">
    <title>pictogram_item</title>
    <g id="pictogram_item" stroke="none" stroke-width="1" fill="none" fill-rule="evenodd">
        <g id="Group" transform="translate(63.000000, 129.000000)">
            <g transform="translate(0.000000, 3.000000)" fill="#000000" id="pictograms/networking/networking-02-copy">
                <path d="M2.72991875,3.02225625 L23.8549188,3.02225625 C24.5894188,3.02225625 25.1874187,3.62025625 25.1874187,4.35475625 L25.1874187,15.4372562 L1.39741875,15.4372562 L1.39741875,4.35475625 C1.39741875,3.62025625 1.99541875,3.02225625 2.72991875,3.02225625 M23.8549188,19.4997563 L2.72991875,19.4997563 C1.99541875,19.4997563 1.39741875,18.9017563 1.39741875,18.1672563 L1.39741875,16.0222563 L25.1874187,16.0222563 L25.1874187,18.1672563 C25.1874187,18.9017563 24.5894188,19.4997563 23.8549188,19.4997563 M2.72991875,20.0847563 L12.9999188,20.0847563 L12.9999188,23.5622563 L7.60491875,23.5622563 C7.44323125,23.5622563 7.31241875,23.6930687 7.31241875,23.8547563 C7.31241875,24.0164438 7.44323125,24.1472563 7.60491875,24.1472563 L18.9799187,24.1472563 C19.1416062,24.1472563 19.2724187,24.0164438 19.2724187,23.8547563 C19.2724187,23.6930687 19.1416062,23.5622563 18.9799187,23.5622563 L13.5849188,23.5622563 L13.5849188,20.0847563 L23.8549187,20.0847563 C24.9119813,20.0847563 25.7724187,19.2243188 25.7724187,18.1672563 L25.7724187,4.35475625 C25.7724187,3.29769375 24.9119813,2.43725625 23.8549187,2.43725625 L2.72991875,2.43725625 C1.67285625,2.43725625 0.81241875,3.29769375 0.81241875,4.35475625 L0.81241875,18.1672563 C0.81241875,19.2243188 1.67285625,20.0847563 2.72991875,20.0847563" id="Fill-1"></path>
            </g>
            <rect id="Rectangle-Copy" fill="#A8A8A8" x="57" y="0" width="58" height="8"></rect>
            <rect id="Rectangle-Copy-12" fill="#C6C6C6" x="57" y="16" width="137" height="6"></rect>
            <rect id="Rectangle-Copy-13" fill="#C6C6C6" x="57" y="36" width="137" height="6"></rect>
            <rect id="Rectangle-Copy-14" fill="#78A9FF" x="57" y="59" width="31" height="4"></rect>
            <rect id="Rectangle-Copy-15" fill="#C6C6C6" x="57" y="26" width="112" height="6"></rect>
        </g>
    </g>
</svg>