<?xml version="1.0" encoding="UTF-8"?>
<!DOCTYPE svg PUBLIC "-//W3C//DTD SVG 1.1//EN" "http://www.w3.org/Graphics/SVG/1.1/DTD/svg11.dtd">
<svg xmlns="http://www.w3.org/2000/svg" version="1.1" width="640px" height="360px" style="shape-rendering:geometricPrecision; text-rendering:geometricPrecision; image-rendering:optimizeQuality; fill-rule:evenodd; clip-rule:evenodd" xmlns:xlink="http://www.w3.org/1999/xlink">
<g><path style="opacity:1" fill="#8c8d8c" d="M 231.5,131.5 C 279.5,131.5 327.5,131.5 375.5,131.5C 375.5,133.5 375.5,135.5 375.5,137.5C 327.5,137.5 279.5,137.5 231.5,137.5C 231.5,135.5 231.5,133.5 231.5,131.5 Z"/></g>
<g><path style="opacity:0.737" fill="#000000" d="M 125.5,135.5 C 145.076,135.174 164.576,135.507 184,136.5C 185.629,149.739 185.962,163.072 185,176.5C 184.167,177.333 183.333,178.167 182.5,179C 173.506,179.5 164.506,179.666 155.5,179.5C 155.5,182.167 155.5,184.833 155.5,187.5C 160.214,187.173 164.88,187.507 169.5,188.5C 159.5,189.833 149.5,189.833 139.5,188.5C 144.12,187.507 148.786,187.173 153.5,187.5C 153.5,184.833 153.5,182.167 153.5,179.5C 144.494,179.666 135.494,179.5 126.5,179C 125.584,178.626 124.75,178.126 124,177.5C 123.333,164.167 123.333,150.833 124,137.5C 124.717,136.956 125.217,136.289 125.5,135.5 Z M 126.5,137.5 C 144.836,137.333 163.17,137.5 181.5,138C 182,138.5 182.5,139 183,139.5C 183.5,148.827 183.666,158.161 183.5,167.5C 164.167,167.5 144.833,167.5 125.5,167.5C 125.193,157.418 125.526,147.418 126.5,137.5 Z M 125.5,169.5 C 144.833,169.5 164.167,169.5 183.5,169.5C 184.039,172.695 183.039,175.195 180.5,177C 162.833,177.667 145.167,177.667 127.5,177C 125.722,174.865 125.055,172.365 125.5,169.5 Z"/></g>
<g><path style="opacity:1" fill="#a7a8a7" d="M 231.5,145.5 C 326.833,145.5 422.167,145.5 517.5,145.5C 517.5,147.5 517.5,149.5 517.5,151.5C 422.167,151.5 326.833,151.5 231.5,151.5C 231.5,149.5 231.5,147.5 231.5,145.5 Z"/></g>
<g><path style="opacity:1" fill="#a7a8a7" d="M 231.5,159.5 C 326.833,159.5 422.167,159.5 517.5,159.5C 517.5,161.5 517.5,163.5 517.5,165.5C 422.167,165.5 326.833,165.5 231.5,165.5C 231.5,163.5 231.5,161.5 231.5,159.5 Z"/></g>
<g><path style="opacity:1" fill="#a7a8a7" d="M 231.5,173.5 C 326.833,173.5 422.167,173.5 517.5,173.5C 517.5,175.5 517.5,177.5 517.5,179.5C 422.167,179.5 326.833,179.5 231.5,179.5C 231.5,177.5 231.5,175.5 231.5,173.5 Z"/></g>
<g><path style="opacity:1" fill="#a7a8a7" d="M 231.5,187.5 C 279.5,187.5 327.5,187.5 375.5,187.5C 375.5,189.5 375.5,191.5 375.5,193.5C 327.5,193.5 279.5,193.5 231.5,193.5C 231.5,191.5 231.5,189.5 231.5,187.5 Z"/></g>
<g><path style="opacity:1" fill="#78a9ff" d="M 231.5,223.5 C 252.833,223.5 274.167,223.5 295.5,223.5C 295.5,225.5 295.5,227.5 295.5,229.5C 274.167,229.5 252.833,229.5 231.5,229.5C 231.5,227.5 231.5,225.5 231.5,223.5 Z"/></g>
</svg>
