<svg width="320" height="320" viewBox="0 0 320 320" fill="none" xmlns="http://www.w3.org/2000/svg">
  <path d="M63 205H254.9" stroke="#8D8D8D" stroke-width="0.5" />
  <path
    d="M59.048 117.568C59.744 117.568 60.224 117.064 60.224 116.416V116.32C60.224 115.696 59.816 115.192 59.12 115.192H59.048C59.216 114.184 59.864 113.104 60.992 112.048H60.104C58.832 113.056 57.872 114.784 57.872 116.2V116.368C57.872 117.04 58.328 117.568 59.048 117.568ZM63.392 117.568C64.088 117.568 64.568 117.064 64.568 116.416V116.32C64.568 115.696 64.16 115.192 63.464 115.192H63.392C63.56 114.184 64.208 113.104 65.336 112.048H64.448C63.176 113.056 62.216 114.784 62.216 116.2V116.368C62.216 117.04 62.672 117.568 63.392 117.568Z"
    fill="black" />
  <path
    d="M202.104 167.568H202.992C204.264 166.56 205.224 164.832 205.224 163.416V163.248C205.224 162.576 204.768 162.048 204.048 162.048C203.352 162.048 202.872 162.552 202.872 163.2V163.296C202.872 163.92 203.28 164.424 203.976 164.424H204.048C203.88 165.432 203.232 166.512 202.104 167.568ZM206.448 167.568H207.336C208.608 166.56 209.568 164.832 209.568 163.416V163.248C209.568 162.576 209.112 162.048 208.392 162.048C207.696 162.048 207.216 162.552 207.216 163.2V163.296C207.216 163.92 207.624 164.424 208.32 164.424H208.392C208.224 165.432 207.576 166.512 206.448 167.568Z"
    fill="black" />
  <rect x="68" y="119" width="184" height="6" fill="#8D8D8D" />
  <rect x="68" y="133" width="184" height="6" fill="#8D8D8D" />
  <rect x="68" y="147" width="184" height="6" fill="#8D8D8D" />
  <rect x="68" y="161" width="129" height="6" fill="#8D8D8D" />
  <rect x="68" y="194" width="32" height="3" fill="#A8A8A8" />
  <rect x="68" y="213" width="32" height="3" fill="#78A9FF" />
  <rect x="68" y="187" width="48" height="3" fill="#8D8D8D" />
</svg>