<?xml version="1.0" encoding="UTF-8"?>
<!DOCTYPE svg PUBLIC "-//W3C//DTD SVG 1.1//EN" "http://www.w3.org/Graphics/SVG/1.1/DTD/svg11.dtd">
<svg xmlns="http://www.w3.org/2000/svg" version="1.1" width="640px" height="360px" style="shape-rendering:geometricPrecision; text-rendering:geometricPrecision; image-rendering:optimizeQuality; fill-rule:evenodd; clip-rule:evenodd" xmlns:xlink="http://www.w3.org/1999/xlink">
<g><path style="opacity:1" fill="#a7a8a7" d="M 142.5,68.5 C 260.5,68.5 378.5,68.5 496.5,68.5C 496.5,142.5 496.5,216.5 496.5,290.5C 378.5,290.5 260.5,290.5 142.5,290.5C 142.5,216.5 142.5,142.5 142.5,68.5 Z"/></g>
<g><path style="opacity:1" fill="#fefefe" d="M 144.5,70.5 C 261.167,70.5 377.833,70.5 494.5,70.5C 494.5,143.167 494.5,215.833 494.5,288.5C 377.833,288.5 261.167,288.5 144.5,288.5C 144.5,215.833 144.5,143.167 144.5,70.5 Z"/></g>
<g><path style="opacity:1" fill="#8c8d8c" d="M 157.5,83.5 C 173.5,83.5 189.5,83.5 205.5,83.5C 205.5,84.8333 205.5,86.1667 205.5,87.5C 189.5,87.5 173.5,87.5 157.5,87.5C 157.5,86.1667 157.5,84.8333 157.5,83.5 Z"/></g>
<g><path style="opacity:1" fill="#c5c5c5" d="M 235.5,83.5 C 260.833,83.5 286.167,83.5 311.5,83.5C 311.5,108.833 311.5,134.167 311.5,159.5C 286.167,159.5 260.833,159.5 235.5,159.5C 235.5,134.167 235.5,108.833 235.5,83.5 Z"/></g>
<g><path style="opacity:1" fill="#c5c5c5" d="M 319.5,83.5 C 344.833,83.5 370.167,83.5 395.5,83.5C 395.5,108.833 395.5,134.167 395.5,159.5C 370.167,159.5 344.833,159.5 319.5,159.5C 319.5,134.167 319.5,108.833 319.5,83.5 Z"/></g>
<g><path style="opacity:1" fill="#c5c5c5" d="M 403.5,83.5 C 428.833,83.5 454.167,83.5 479.5,83.5C 479.5,108.833 479.5,134.167 479.5,159.5C 454.167,159.5 428.833,159.5 403.5,159.5C 403.5,134.167 403.5,108.833 403.5,83.5 Z"/></g>
<g><path style="opacity:1" fill="#8c8d8c" d="M 157.5,93.5 C 168.167,93.5 178.833,93.5 189.5,93.5C 189.5,94.8333 189.5,96.1667 189.5,97.5C 178.833,97.5 168.167,97.5 157.5,97.5C 157.5,96.1667 157.5,94.8333 157.5,93.5 Z"/></g>
<g><path style="opacity:1" fill="#656565" d="M 263.5,110.5 C 269.758,110.19 275.924,110.524 282,111.5C 282.809,117.749 282.642,123.916 281.5,130C 275.251,130.809 269.084,130.642 263,129.5C 262.21,123.085 262.376,116.752 263.5,110.5 Z"/></g>
<g><path style="opacity:1" fill="#656565" d="M 347.5,110.5 C 353.758,110.19 359.924,110.524 366,111.5C 366.809,117.749 366.642,123.916 365.5,130C 359.251,130.809 353.084,130.642 347,129.5C 346.21,123.085 346.376,116.752 347.5,110.5 Z"/></g>
<g><path style="opacity:1" fill="#656565" d="M 431.5,110.5 C 437.758,110.19 443.924,110.524 450,111.5C 450.809,117.749 450.642,123.916 449.5,130C 443.251,130.809 437.084,130.642 431,129.5C 430.21,123.085 430.376,116.752 431.5,110.5 Z"/></g>
<g><path style="opacity:1" fill="#c0c0c0" d="M 264.5,112.5 C 269.833,112.5 275.167,112.5 280.5,112.5C 280.666,116.514 280.499,120.514 280,124.5C 278.684,121.953 276.851,121.287 274.5,122.5C 272.772,120.774 270.772,119.441 268.5,118.5C 267.5,119.167 266.5,119.833 265.5,120.5C 264.52,117.914 264.187,115.247 264.5,112.5 Z"/></g>
<g><path style="opacity:1" fill="#c0c0c0" d="M 348.5,112.5 C 353.833,112.5 359.167,112.5 364.5,112.5C 364.666,116.514 364.499,120.514 364,124.5C 362.684,121.953 360.851,121.287 358.5,122.5C 356.772,120.774 354.772,119.441 352.5,118.5C 351.5,119.167 350.5,119.833 349.5,120.5C 348.52,117.914 348.187,115.247 348.5,112.5 Z"/></g>
<g><path style="opacity:1" fill="#c0c0c0" d="M 432.5,112.5 C 437.833,112.5 443.167,112.5 448.5,112.5C 448.666,116.514 448.499,120.514 448,124.5C 446.684,121.953 444.851,121.287 442.5,122.5C 440.772,120.774 438.772,119.441 436.5,118.5C 435.5,119.167 434.5,119.833 433.5,120.5C 432.52,117.914 432.187,115.247 432.5,112.5 Z"/></g>
<g><path style="opacity:1" fill="#636363" d="M 272.5,114.5 C 274.665,114.116 276.332,114.783 277.5,116.5C 276.332,118.217 274.665,118.884 272.5,118.5C 272.5,117.167 272.5,115.833 272.5,114.5 Z"/></g>
<g><path style="opacity:1" fill="#636363" d="M 356.5,114.5 C 358.665,114.116 360.332,114.783 361.5,116.5C 360.332,118.217 358.665,118.884 356.5,118.5C 356.5,117.167 356.5,115.833 356.5,114.5 Z"/></g>
<g><path style="opacity:1" fill="#636363" d="M 440.5,114.5 C 442.665,114.116 444.332,114.783 445.5,116.5C 444.332,118.217 442.665,118.884 440.5,118.5C 440.5,117.167 440.5,115.833 440.5,114.5 Z"/></g>
<g><path style="opacity:1" fill="#c5c5c5" d="M 267.5,120.5 C 269.544,121.031 271.211,122.198 272.5,124C 276.135,122.645 278.802,123.812 280.5,127.5C 275.208,128.495 269.875,128.828 264.5,128.5C 264.016,125.212 265.016,122.545 267.5,120.5 Z"/></g>
<g><path style="opacity:1" fill="#c5c5c5" d="M 351.5,120.5 C 353.544,121.031 355.211,122.198 356.5,124C 360.135,122.645 362.802,123.812 364.5,127.5C 359.208,128.495 353.875,128.828 348.5,128.5C 348.016,125.212 349.016,122.545 351.5,120.5 Z"/></g>
<g><path style="opacity:1" fill="#c5c5c5" d="M 435.5,120.5 C 437.544,121.031 439.211,122.198 440.5,124C 444.135,122.645 446.802,123.812 448.5,127.5C 443.208,128.495 437.875,128.828 432.5,128.5C 432.016,125.212 433.016,122.545 435.5,120.5 Z"/></g>
<g><path style="opacity:1" fill="#c6c6c6" d="M 311.5,224.5 C 286.167,224.5 260.833,224.5 235.5,224.5C 235.5,218.167 235.5,211.833 235.5,205.5C 260.833,205.5 286.167,205.5 311.5,205.5C 311.5,211.833 311.5,218.167 311.5,224.5 Z"/></g>
<g><path style="opacity:1" fill="#c6c6c6" d="M 395.5,224.5 C 370.167,224.5 344.833,224.5 319.5,224.5C 319.5,218.167 319.5,211.833 319.5,205.5C 344.833,205.5 370.167,205.5 395.5,205.5C 395.5,211.833 395.5,218.167 395.5,224.5 Z"/></g>
<g><path style="opacity:1" fill="#d1d1d1" d="M 235.5,224.5 C 260.833,224.5 286.167,224.5 311.5,224.5C 311.5,225.833 311.5,227.167 311.5,228.5C 286.167,228.5 260.833,228.5 235.5,228.5C 235.5,227.167 235.5,225.833 235.5,224.5 Z"/></g>
<g><path style="opacity:1" fill="#d1d1d1" d="M 319.5,224.5 C 344.833,224.5 370.167,224.5 395.5,224.5C 395.5,225.833 395.5,227.167 395.5,228.5C 370.167,228.5 344.833,228.5 319.5,228.5C 319.5,227.167 319.5,225.833 319.5,224.5 Z"/></g>
<g><path style="opacity:1" fill="#d9d9d9" d="M 235.5,228.5 C 260.833,228.5 286.167,228.5 311.5,228.5C 311.5,230.833 311.5,233.167 311.5,235.5C 301.833,235.5 292.167,235.5 282.5,235.5C 282.586,234.504 282.252,233.671 281.5,233C 275.5,232.333 269.5,232.333 263.5,233C 262.748,233.671 262.414,234.504 262.5,235.5C 253.5,235.5 244.5,235.5 235.5,235.5C 235.5,233.167 235.5,230.833 235.5,228.5 Z"/></g>
<g><path style="opacity:1" fill="#d9d9d9" d="M 319.5,228.5 C 344.833,228.5 370.167,228.5 395.5,228.5C 395.5,230.833 395.5,233.167 395.5,235.5C 385.833,235.5 376.167,235.5 366.5,235.5C 366.586,234.504 366.252,233.671 365.5,233C 359.5,232.333 353.5,232.333 347.5,233C 346.748,233.671 346.414,234.504 346.5,235.5C 337.5,235.5 328.5,235.5 319.5,235.5C 319.5,233.167 319.5,230.833 319.5,228.5 Z"/></g>
<g><path style="opacity:1" fill="#a7a7a7" d="M 282.5,235.5 C 282.5,235.833 282.5,236.167 282.5,236.5C 281.833,237.167 281.167,237.833 280.5,238.5C 280.5,237.167 280.5,235.833 280.5,234.5C 275.167,234.5 269.833,234.5 264.5,234.5C 264.5,236.5 264.5,238.5 264.5,240.5C 263.833,239.833 263.167,239.167 262.5,238.5C 262.5,237.5 262.5,236.5 262.5,235.5C 262.414,234.504 262.748,233.671 263.5,233C 269.5,232.333 275.5,232.333 281.5,233C 282.252,233.671 282.586,234.504 282.5,235.5 Z"/></g>
<g><path style="opacity:1" fill="#a6a6a6" d="M 366.5,235.5 C 366.5,235.833 366.5,236.167 366.5,236.5C 365.833,236.5 365.167,236.5 364.5,236.5C 359.604,234.554 354.271,233.887 348.5,234.5C 348.5,236.5 348.5,238.5 348.5,240.5C 347.833,239.833 347.167,239.167 346.5,238.5C 346.5,237.5 346.5,236.5 346.5,235.5C 346.414,234.504 346.748,233.671 347.5,233C 353.5,232.333 359.5,232.333 365.5,233C 366.252,233.671 366.586,234.504 366.5,235.5 Z"/></g>
<g><path style="opacity:1" fill="#e4e4e4" d="M 235.5,235.5 C 244.5,235.5 253.5,235.5 262.5,235.5C 262.5,236.5 262.5,237.5 262.5,238.5C 262.5,239.167 262.5,239.833 262.5,240.5C 253.5,240.5 244.5,240.5 235.5,240.5C 235.5,238.833 235.5,237.167 235.5,235.5 Z"/></g>
<g><path style="opacity:1" fill="#e3e3e3" d="M 280.5,238.5 C 280.664,241.187 280.497,243.854 280,246.5C 278.684,243.953 276.851,243.287 274.5,244.5C 272.772,242.774 270.772,241.441 268.5,240.5C 267.252,241.04 266.085,241.707 265,242.5C 264.536,241.906 264.369,241.239 264.5,240.5C 264.5,238.5 264.5,236.5 264.5,234.5C 269.833,234.5 275.167,234.5 280.5,234.5C 280.5,235.833 280.5,237.167 280.5,238.5 Z"/></g>
<g><path style="opacity:1" fill="#e4e4e4" d="M 282.5,235.5 C 292.167,235.5 301.833,235.5 311.5,235.5C 311.5,237.167 311.5,238.833 311.5,240.5C 301.833,240.5 292.167,240.5 282.5,240.5C 282.5,239.167 282.5,237.833 282.5,236.5C 282.5,236.167 282.5,235.833 282.5,235.5 Z"/></g>
<g><path style="opacity:1" fill="#e4e4e4" d="M 319.5,235.5 C 328.5,235.5 337.5,235.5 346.5,235.5C 346.5,236.5 346.5,237.5 346.5,238.5C 346.5,239.167 346.5,239.833 346.5,240.5C 337.5,240.5 328.5,240.5 319.5,240.5C 319.5,238.833 319.5,237.167 319.5,235.5 Z"/></g>
<g><path style="opacity:1" fill="#e3e3e3" d="M 364.5,236.5 C 364.665,239.85 364.498,243.183 364,246.5C 362.54,243.79 360.54,243.124 358,244.5C 355.485,240.704 352.485,240.038 349,242.5C 348.536,241.906 348.369,241.239 348.5,240.5C 348.5,238.5 348.5,236.5 348.5,234.5C 354.271,233.887 359.604,234.554 364.5,236.5 Z"/></g>
<g><path style="opacity:1" fill="#e4e4e4" d="M 366.5,235.5 C 376.167,235.5 385.833,235.5 395.5,235.5C 395.5,237.167 395.5,238.833 395.5,240.5C 385.833,240.5 376.167,240.5 366.5,240.5C 366.5,239.167 366.5,237.833 366.5,236.5C 366.5,236.167 366.5,235.833 366.5,235.5 Z"/></g>
<g><path style="opacity:1" fill="#b8b8b8" d="M 272.5,236.5 C 274.167,236.5 275.833,236.5 277.5,236.5C 277.65,240.161 276.15,241.161 273,239.5C 272.517,238.552 272.351,237.552 272.5,236.5 Z"/></g>
<g><path style="opacity:1" fill="#bbbbbb" d="M 356.5,236.5 C 358.167,236.5 359.833,236.5 361.5,236.5C 361.65,240.161 360.15,241.161 357,239.5C 356.517,238.552 356.351,237.552 356.5,236.5 Z"/></g>
<g><path style="opacity:1" fill="#d0d0d0" d="M 282.5,236.5 C 282.5,237.833 282.5,239.167 282.5,240.5C 282.5,242.833 282.5,245.167 282.5,247.5C 280.173,247.753 278.173,247.086 276.5,245.5C 275.232,246.428 273.899,246.595 272.5,246C 271.315,244.647 269.981,243.48 268.5,242.5C 264.698,246.929 262.698,246.262 262.5,240.5C 262.5,239.833 262.5,239.167 262.5,238.5C 263.167,239.167 263.833,239.833 264.5,240.5C 264.369,241.239 264.536,241.906 265,242.5C 266.085,241.707 267.252,241.04 268.5,240.5C 270.772,241.441 272.772,242.774 274.5,244.5C 276.851,243.287 278.684,243.953 280,246.5C 280.497,243.854 280.664,241.187 280.5,238.5C 281.167,237.833 281.833,237.167 282.5,236.5 Z"/></g>
<g><path style="opacity:1" fill="#d1d1d1" d="M 364.5,236.5 C 365.167,236.5 365.833,236.5 366.5,236.5C 366.5,237.833 366.5,239.167 366.5,240.5C 366.892,243.722 366.392,246.722 365,249.5C 363.833,248.333 362.667,247.167 361.5,246C 359.874,246.195 358.207,246.195 356.5,246C 355.315,244.647 353.981,243.48 352.5,242.5C 348.698,246.929 346.698,246.262 346.5,240.5C 346.5,239.833 346.5,239.167 346.5,238.5C 347.167,239.167 347.833,239.833 348.5,240.5C 348.369,241.239 348.536,241.906 349,242.5C 352.485,240.038 355.485,240.704 358,244.5C 360.54,243.124 362.54,243.79 364,246.5C 364.498,243.183 364.665,239.85 364.5,236.5 Z"/></g>
<g><path style="opacity:1" fill="#f2f2f2" d="M 235.5,240.5 C 244.5,240.5 253.5,240.5 262.5,240.5C 262.698,246.262 264.698,246.929 268.5,242.5C 269.981,243.48 271.315,244.647 272.5,246C 273.899,246.595 275.232,246.428 276.5,245.5C 278.173,247.086 280.173,247.753 282.5,247.5C 282.5,245.167 282.5,242.833 282.5,240.5C 292.167,240.5 301.833,240.5 311.5,240.5C 311.5,244.167 311.5,247.833 311.5,251.5C 298.655,251.385 285.822,251.719 273,252.5C 269.833,252.167 266.667,251.833 263.5,251.5C 262.754,250.264 262.421,248.93 262.5,247.5C 253.5,247.5 244.5,247.5 235.5,247.5C 235.5,245.167 235.5,242.833 235.5,240.5 Z"/></g>
<g><path style="opacity:1" fill="#f1f1f1" d="M 319.5,240.5 C 328.5,240.5 337.5,240.5 346.5,240.5C 346.698,246.262 348.698,246.929 352.5,242.5C 353.981,243.48 355.315,244.647 356.5,246C 358.207,246.195 359.874,246.195 361.5,246C 362.667,247.167 363.833,248.333 365,249.5C 366.392,246.722 366.892,243.722 366.5,240.5C 376.167,240.5 385.833,240.5 395.5,240.5C 395.5,244.167 395.5,247.833 395.5,251.5C 370.165,252.759 344.832,252.759 319.5,251.5C 319.5,247.833 319.5,244.167 319.5,240.5 Z"/></g>
</svg>
