<svg width="320" height="320" viewBox="0 0 320 320" fill="none" xmlns="http://www.w3.org/2000/svg">
<rect x="72" y="105" width="176" height="110" fill="white" stroke="#A8A8A8"/>
<rect x="118" y="112" width="38" height="38" fill="#C6C6C6"/>
<rect x="118" y="173" width="38" height="38" fill="#C6C6C6"/>
<rect x="160" y="112" width="38" height="38" fill="#C6C6C6"/>
<rect x="160" y="173" width="38" height="38" fill="#C6C6C6"/>
<rect x="202" y="112" width="38" height="38" fill="#C6C6C6"/>
<rect x="79" y="112" width="24" height="2" fill="#8D8D8D"/>
<rect x="79" y="117" width="16" height="2" fill="#8D8D8D"/>
<path fill-rule="evenodd" clip-rule="evenodd" d="M137.719 129.688C137.046 129.688 136.5 129.142 136.5 128.469C136.5 127.796 137.046 127.25 137.719 127.25C138.392 127.25 138.938 127.796 138.938 128.469C138.938 128.792 138.809 129.102 138.581 129.331C138.352 129.559 138.042 129.688 137.719 129.688V129.688ZM137.719 128.062C137.494 128.062 137.312 128.244 137.312 128.469C137.312 128.693 137.494 128.875 137.719 128.875C137.943 128.875 138.125 128.693 138.125 128.469C138.125 128.244 137.943 128.062 137.719 128.062ZM140.623 125.625H132.377C131.961 125.625 131.625 125.961 131.625 126.377V134.623C131.625 134.823 131.704 135.014 131.845 135.155C131.986 135.296 132.177 135.375 132.377 135.375H140.623C140.823 135.375 141.014 135.296 141.155 135.155C141.296 135.014 141.375 134.823 141.375 134.623V126.377C141.375 125.961 141.039 125.625 140.623 125.625ZM140.562 126.438V132.665L139.043 131.146C138.891 130.993 138.684 130.908 138.468 130.908C138.253 130.908 138.046 130.993 137.893 131.146L137.312 131.739L135.078 129.521C134.926 129.368 134.719 129.283 134.503 129.283C134.288 129.283 134.081 129.368 133.928 129.521L132.438 131.012V126.438H140.562ZM132.438 134.562V132.157L134.501 130.094V130.094L136.723 132.316C136.876 132.469 137.083 132.554 137.298 132.554C137.514 132.554 137.721 132.469 137.873 132.316L138.466 131.719V131.719L140.562 133.815V134.562H132.438Z" fill="#525252"/>
<mask id="mask0_1399_5003" style="mask-type:luminance" maskUnits="userSpaceOnUse" x="131" y="125" width="11" height="11">
<path fill-rule="evenodd" clip-rule="evenodd" d="M137.719 129.688C137.046 129.688 136.5 129.142 136.5 128.469C136.5 127.796 137.046 127.25 137.719 127.25C138.392 127.25 138.938 127.796 138.938 128.469C138.938 128.792 138.809 129.102 138.581 129.331C138.352 129.559 138.042 129.688 137.719 129.688V129.688ZM137.719 128.062C137.494 128.062 137.312 128.244 137.312 128.469C137.312 128.693 137.494 128.875 137.719 128.875C137.943 128.875 138.125 128.693 138.125 128.469C138.125 128.244 137.943 128.062 137.719 128.062ZM140.623 125.625H132.377C131.961 125.625 131.625 125.961 131.625 126.377V134.623C131.625 134.823 131.704 135.014 131.845 135.155C131.986 135.296 132.177 135.375 132.377 135.375H140.623C140.823 135.375 141.014 135.296 141.155 135.155C141.296 135.014 141.375 134.823 141.375 134.623V126.377C141.375 125.961 141.039 125.625 140.623 125.625ZM140.562 126.438V132.665L139.043 131.146C138.891 130.993 138.684 130.908 138.468 130.908C138.253 130.908 138.046 130.993 137.893 131.146L137.312 131.739L135.078 129.521C134.926 129.368 134.719 129.283 134.503 129.283C134.288 129.283 134.081 129.368 133.928 129.521L132.438 131.012V126.438H140.562ZM132.438 134.562V132.157L134.501 130.094V130.094L136.723 132.316C136.876 132.469 137.083 132.554 137.298 132.554C137.514 132.554 137.721 132.469 137.873 132.316L138.466 131.719V131.719L140.562 133.815V134.562H132.438Z" fill="white"/>
</mask>
<g mask="url(#mask0_1399_5003)">
</g>
<path fill-rule="evenodd" clip-rule="evenodd" d="M137.719 190.688C137.046 190.688 136.5 190.142 136.5 189.469C136.5 188.796 137.046 188.25 137.719 188.25C138.392 188.25 138.938 188.796 138.938 189.469C138.938 189.792 138.809 190.102 138.581 190.331C138.352 190.559 138.042 190.688 137.719 190.688V190.688ZM137.719 189.062C137.494 189.062 137.312 189.244 137.312 189.469C137.312 189.693 137.494 189.875 137.719 189.875C137.943 189.875 138.125 189.693 138.125 189.469C138.125 189.244 137.943 189.062 137.719 189.062ZM140.623 186.625H132.377C131.961 186.625 131.625 186.961 131.625 187.377V195.623C131.625 195.823 131.704 196.014 131.845 196.155C131.986 196.296 132.177 196.375 132.377 196.375H140.623C140.823 196.375 141.014 196.296 141.155 196.155C141.296 196.014 141.375 195.823 141.375 195.623V187.377C141.375 186.961 141.039 186.625 140.623 186.625ZM140.562 187.438V193.665L139.043 192.146C138.891 191.993 138.684 191.908 138.468 191.908C138.253 191.908 138.046 191.993 137.893 192.146L137.312 192.739L135.078 190.521C134.926 190.368 134.719 190.283 134.503 190.283C134.288 190.283 134.081 190.368 133.928 190.521L132.438 192.012V187.438H140.562ZM132.438 195.562V193.157L134.501 191.094V191.094L136.723 193.316C136.876 193.469 137.083 193.554 137.298 193.554C137.514 193.554 137.721 193.469 137.873 193.316L138.466 192.719V192.719L140.562 194.815V195.562H132.438Z" fill="#525252"/>
<mask id="mask1_1399_5003" style="mask-type:luminance" maskUnits="userSpaceOnUse" x="131" y="186" width="11" height="11">
<path fill-rule="evenodd" clip-rule="evenodd" d="M137.719 190.688C137.046 190.688 136.5 190.142 136.5 189.469C136.5 188.796 137.046 188.25 137.719 188.25C138.392 188.25 138.938 188.796 138.938 189.469C138.938 189.792 138.809 190.102 138.581 190.331C138.352 190.559 138.042 190.688 137.719 190.688V190.688ZM137.719 189.062C137.494 189.062 137.312 189.244 137.312 189.469C137.312 189.693 137.494 189.875 137.719 189.875C137.943 189.875 138.125 189.693 138.125 189.469C138.125 189.244 137.943 189.062 137.719 189.062ZM140.623 186.625H132.377C131.961 186.625 131.625 186.961 131.625 187.377V195.623C131.625 195.823 131.704 196.014 131.845 196.155C131.986 196.296 132.177 196.375 132.377 196.375H140.623C140.823 196.375 141.014 196.296 141.155 196.155C141.296 196.014 141.375 195.823 141.375 195.623V187.377C141.375 186.961 141.039 186.625 140.623 186.625ZM140.562 187.438V193.665L139.043 192.146C138.891 191.993 138.684 191.908 138.468 191.908C138.253 191.908 138.046 191.993 137.893 192.146L137.312 192.739L135.078 190.521C134.926 190.368 134.719 190.283 134.503 190.283C134.288 190.283 134.081 190.368 133.928 190.521L132.438 192.012V187.438H140.562ZM132.438 195.562V193.157L134.501 191.094V191.094L136.723 193.316C136.876 193.469 137.083 193.554 137.298 193.554C137.514 193.554 137.721 193.469 137.873 193.316L138.466 192.719V192.719L140.562 194.815V195.562H132.438Z" fill="white"/>
</mask>
<g mask="url(#mask1_1399_5003)">
</g>
<path fill-rule="evenodd" clip-rule="evenodd" d="M179.719 129.688C179.046 129.688 178.5 129.142 178.5 128.469C178.5 127.796 179.046 127.25 179.719 127.25C180.392 127.25 180.938 127.796 180.938 128.469C180.938 128.792 180.809 129.102 180.581 129.331C180.352 129.559 180.042 129.688 179.719 129.688V129.688ZM179.719 128.062C179.494 128.062 179.312 128.244 179.312 128.469C179.312 128.693 179.494 128.875 179.719 128.875C179.943 128.875 180.125 128.693 180.125 128.469C180.125 128.244 179.943 128.062 179.719 128.062ZM182.623 125.625H174.377C173.961 125.625 173.625 125.961 173.625 126.377V134.623C173.625 134.823 173.704 135.014 173.845 135.155C173.986 135.296 174.177 135.375 174.377 135.375H182.623C182.823 135.375 183.014 135.296 183.155 135.155C183.296 135.014 183.375 134.823 183.375 134.623V126.377C183.375 125.961 183.039 125.625 182.623 125.625ZM182.562 126.438V132.665L181.043 131.146C180.891 130.993 180.684 130.908 180.468 130.908C180.253 130.908 180.046 130.993 179.893 131.146L179.312 131.739L177.078 129.521C176.926 129.368 176.719 129.283 176.503 129.283C176.288 129.283 176.081 129.368 175.928 129.521L174.438 131.012V126.438H182.562ZM174.438 134.562V132.157L176.501 130.094V130.094L178.723 132.316C178.876 132.469 179.083 132.554 179.298 132.554C179.514 132.554 179.721 132.469 179.873 132.316L180.466 131.719V131.719L182.562 133.815V134.562H174.438Z" fill="#525252"/>
<mask id="mask2_1399_5003" style="mask-type:luminance" maskUnits="userSpaceOnUse" x="173" y="125" width="11" height="11">
<path fill-rule="evenodd" clip-rule="evenodd" d="M179.719 129.688C179.046 129.688 178.5 129.142 178.5 128.469C178.5 127.796 179.046 127.25 179.719 127.25C180.392 127.25 180.938 127.796 180.938 128.469C180.938 128.792 180.809 129.102 180.581 129.331C180.352 129.559 180.042 129.688 179.719 129.688V129.688ZM179.719 128.062C179.494 128.062 179.312 128.244 179.312 128.469C179.312 128.693 179.494 128.875 179.719 128.875C179.943 128.875 180.125 128.693 180.125 128.469C180.125 128.244 179.943 128.062 179.719 128.062ZM182.623 125.625H174.377C173.961 125.625 173.625 125.961 173.625 126.377V134.623C173.625 134.823 173.704 135.014 173.845 135.155C173.986 135.296 174.177 135.375 174.377 135.375H182.623C182.823 135.375 183.014 135.296 183.155 135.155C183.296 135.014 183.375 134.823 183.375 134.623V126.377C183.375 125.961 183.039 125.625 182.623 125.625ZM182.562 126.438V132.665L181.043 131.146C180.891 130.993 180.684 130.908 180.468 130.908C180.253 130.908 180.046 130.993 179.893 131.146L179.312 131.739L177.078 129.521C176.926 129.368 176.719 129.283 176.503 129.283C176.288 129.283 176.081 129.368 175.928 129.521L174.438 131.012V126.438H182.562ZM174.438 134.562V132.157L176.501 130.094V130.094L178.723 132.316C178.876 132.469 179.083 132.554 179.298 132.554C179.514 132.554 179.721 132.469 179.873 132.316L180.466 131.719V131.719L182.562 133.815V134.562H174.438Z" fill="white"/>
</mask>
<g mask="url(#mask2_1399_5003)">
</g>
<path fill-rule="evenodd" clip-rule="evenodd" d="M179.719 190.688C179.046 190.688 178.5 190.142 178.5 189.469C178.5 188.796 179.046 188.25 179.719 188.25C180.392 188.25 180.938 188.796 180.938 189.469C180.938 189.792 180.809 190.102 180.581 190.331C180.352 190.559 180.042 190.688 179.719 190.688V190.688ZM179.719 189.062C179.494 189.062 179.312 189.244 179.312 189.469C179.312 189.693 179.494 189.875 179.719 189.875C179.943 189.875 180.125 189.693 180.125 189.469C180.125 189.244 179.943 189.062 179.719 189.062ZM182.623 186.625H174.377C173.961 186.625 173.625 186.961 173.625 187.377V195.623C173.625 195.823 173.704 196.014 173.845 196.155C173.986 196.296 174.177 196.375 174.377 196.375H182.623C182.823 196.375 183.014 196.296 183.155 196.155C183.296 196.014 183.375 195.823 183.375 195.623V187.377C183.375 186.961 183.039 186.625 182.623 186.625ZM182.562 187.438V193.665L181.043 192.146C180.891 191.993 180.684 191.908 180.468 191.908C180.253 191.908 180.046 191.993 179.893 192.146L179.312 192.739L177.078 190.521C176.926 190.368 176.719 190.283 176.503 190.283C176.288 190.283 176.081 190.368 175.928 190.521L174.438 192.012V187.438H182.562ZM174.438 195.562V193.157L176.501 191.094V191.094L178.723 193.316C178.876 193.469 179.083 193.554 179.298 193.554C179.514 193.554 179.721 193.469 179.873 193.316L180.466 192.719V192.719L182.562 194.815V195.562H174.438Z" fill="#525252"/>
<mask id="mask3_1399_5003" style="mask-type:luminance" maskUnits="userSpaceOnUse" x="173" y="186" width="11" height="11">
<path fill-rule="evenodd" clip-rule="evenodd" d="M179.719 190.688C179.046 190.688 178.5 190.142 178.5 189.469C178.5 188.796 179.046 188.25 179.719 188.25C180.392 188.25 180.938 188.796 180.938 189.469C180.938 189.792 180.809 190.102 180.581 190.331C180.352 190.559 180.042 190.688 179.719 190.688V190.688ZM179.719 189.062C179.494 189.062 179.312 189.244 179.312 189.469C179.312 189.693 179.494 189.875 179.719 189.875C179.943 189.875 180.125 189.693 180.125 189.469C180.125 189.244 179.943 189.062 179.719 189.062ZM182.623 186.625H174.377C173.961 186.625 173.625 186.961 173.625 187.377V195.623C173.625 195.823 173.704 196.014 173.845 196.155C173.986 196.296 174.177 196.375 174.377 196.375H182.623C182.823 196.375 183.014 196.296 183.155 196.155C183.296 196.014 183.375 195.823 183.375 195.623V187.377C183.375 186.961 183.039 186.625 182.623 186.625ZM182.562 187.438V193.665L181.043 192.146C180.891 191.993 180.684 191.908 180.468 191.908C180.253 191.908 180.046 191.993 179.893 192.146L179.312 192.739L177.078 190.521C176.926 190.368 176.719 190.283 176.503 190.283C176.288 190.283 176.081 190.368 175.928 190.521L174.438 192.012V187.438H182.562ZM174.438 195.562V193.157L176.501 191.094V191.094L178.723 193.316C178.876 193.469 179.083 193.554 179.298 193.554C179.514 193.554 179.721 193.469 179.873 193.316L180.466 192.719V192.719L182.562 194.815V195.562H174.438Z" fill="white"/>
</mask>
<g mask="url(#mask3_1399_5003)">
</g>
<path fill-rule="evenodd" clip-rule="evenodd" d="M221.719 129.688C221.046 129.688 220.5 129.142 220.5 128.469C220.5 127.796 221.046 127.25 221.719 127.25C222.392 127.25 222.938 127.796 222.938 128.469C222.938 128.792 222.809 129.102 222.581 129.331C222.352 129.559 222.042 129.688 221.719 129.688V129.688ZM221.719 128.062C221.494 128.062 221.312 128.244 221.312 128.469C221.312 128.693 221.494 128.875 221.719 128.875C221.943 128.875 222.125 128.693 222.125 128.469C222.125 128.244 221.943 128.062 221.719 128.062ZM224.623 125.625H216.377C215.961 125.625 215.625 125.961 215.625 126.377V134.623C215.625 134.823 215.704 135.014 215.845 135.155C215.986 135.296 216.177 135.375 216.377 135.375H224.623C224.823 135.375 225.014 135.296 225.155 135.155C225.296 135.014 225.375 134.823 225.375 134.623V126.377C225.375 125.961 225.039 125.625 224.623 125.625ZM224.562 126.438V132.665L223.043 131.146C222.891 130.993 222.684 130.908 222.468 130.908C222.253 130.908 222.046 130.993 221.893 131.146L221.312 131.739L219.078 129.521C218.926 129.368 218.719 129.283 218.503 129.283C218.288 129.283 218.081 129.368 217.928 129.521L216.438 131.012V126.438H224.562ZM216.438 134.562V132.157L218.501 130.094V130.094L220.723 132.316C220.876 132.469 221.083 132.554 221.298 132.554C221.514 132.554 221.721 132.469 221.873 132.316L222.466 131.719V131.719L224.562 133.815V134.562H216.438Z" fill="#525252"/>
<mask id="mask4_1399_5003" style="mask-type:luminance" maskUnits="userSpaceOnUse" x="215" y="125" width="11" height="11">
<path fill-rule="evenodd" clip-rule="evenodd" d="M221.719 129.688C221.046 129.688 220.5 129.142 220.5 128.469C220.5 127.796 221.046 127.25 221.719 127.25C222.392 127.25 222.938 127.796 222.938 128.469C222.938 128.792 222.809 129.102 222.581 129.331C222.352 129.559 222.042 129.688 221.719 129.688V129.688ZM221.719 128.062C221.494 128.062 221.312 128.244 221.312 128.469C221.312 128.693 221.494 128.875 221.719 128.875C221.943 128.875 222.125 128.693 222.125 128.469C222.125 128.244 221.943 128.062 221.719 128.062ZM224.623 125.625H216.377C215.961 125.625 215.625 125.961 215.625 126.377V134.623C215.625 134.823 215.704 135.014 215.845 135.155C215.986 135.296 216.177 135.375 216.377 135.375H224.623C224.823 135.375 225.014 135.296 225.155 135.155C225.296 135.014 225.375 134.823 225.375 134.623V126.377C225.375 125.961 225.039 125.625 224.623 125.625ZM224.562 126.438V132.665L223.043 131.146C222.891 130.993 222.684 130.908 222.468 130.908C222.253 130.908 222.046 130.993 221.893 131.146L221.312 131.739L219.078 129.521C218.926 129.368 218.719 129.283 218.503 129.283C218.288 129.283 218.081 129.368 217.928 129.521L216.438 131.012V126.438H224.562ZM216.438 134.562V132.157L218.501 130.094V130.094L220.723 132.316C220.876 132.469 221.083 132.554 221.298 132.554C221.514 132.554 221.721 132.469 221.873 132.316L222.466 131.719V131.719L224.562 133.815V134.562H216.438Z" fill="white"/>
</mask>
<g mask="url(#mask4_1399_5003)">
</g>
<rect x="110" y="180" width="100" height="34" fill="url(#paint0_linear_1399_5003)"/>
<defs>
<linearGradient id="paint0_linear_1399_5003" x1="160.847" y1="197.515" x2="160.847" y2="180" gradientUnits="userSpaceOnUse">
<stop stop-color="white"/>
<stop offset="1" stop-color="white" stop-opacity="0"/>
</linearGradient>
</defs>
</svg>
