<svg width="320" height="320" viewBox="0 0 320 320" fill="none" xmlns="http://www.w3.org/2000/svg">
  <rect x="64" y="104" width="191" height="17.84" fill="#F4F4F4" />
  <rect x="64.5" y="123.5" width="190" height="92" fill="white" stroke="#C6C6C6" />
  <mask id="path-3-inside-1_1307_4880" fill="white">
    <path fill-rule="evenodd" clip-rule="evenodd" d="M64 122.843H255H64Z" />
  </mask>
  <path d="M64 123.843H255V121.843H64V123.843Z" fill="#0F62FE"
    mask="url(#path-3-inside-1_1307_4880)" />
  <path d="M64 141.5H255" stroke="#C6C6C6" />
  <path d="M64 159.976H255" stroke="#C6C6C6" />
  <path d="M64 178.451H255" stroke="#C6C6C6" />
  <path d="M64 196.927H255" stroke="#C6C6C6" />
  <rect x="72" y="112" width="16" height="3" fill="#8D8D8D" />
  <rect x="72" y="131" width="64" height="3" fill="#8D8D8D" />
  <rect x="72" y="167" width="64" height="3" fill="#8D8D8D" />
  <rect x="72" y="149" width="64" height="3" fill="#8D8D8D" />
  <rect x="72" y="186" width="64" height="3" fill="#8D8D8D" />
  <rect x="72" y="205" width="64" height="3" fill="#8D8D8D" />
  <rect x="89" y="108" width="1" height="11" fill="#8D8D8D" />
  <path fill-rule="evenodd" clip-rule="evenodd"
    d="M244.442 114L246.5 111.942L246.058 111.5L244 113.558L241.942 111.5L241.5 111.942L243.558 114L241.5 116.058L241.942 116.5L244 114.442L246.058 116.5L246.5 116.058L244.442 114V114Z"
    fill="black" />
  <mask id="mask0_1307_4880" style="mask-type:luminance" maskUnits="userSpaceOnUse" x="241" y="111"
    width="6" height="6">
    <path fill-rule="evenodd" clip-rule="evenodd"
      d="M244.442 114L246.5 111.942L246.058 111.5L244 113.558L241.942 111.5L241.5 111.942L243.558 114L241.5 116.058L241.942 116.5L244 114.442L246.058 116.5L246.5 116.058L244.442 114V114Z"
      fill="white" />
  </mask>
  <g mask="url(#mask0_1307_4880)">
</g>
  <path fill-rule="evenodd" clip-rule="evenodd"
    d="M231.314 114.906L233.438 117.041L233.041 117.438L230.906 115.314C229.634 116.369 227.758 116.237 226.645 115.015C225.532 113.794 225.576 111.913 226.745 110.745C227.913 109.576 229.794 109.532 231.015 110.645C232.237 111.758 232.369 113.634 231.314 114.906ZM228.938 110.406C227.54 110.406 226.406 111.54 226.406 112.938C226.406 114.336 227.54 115.469 228.938 115.469C230.336 115.469 231.469 114.336 231.469 112.938C231.469 111.54 230.336 110.406 228.938 110.406Z"
    fill="black" />
  <mask id="mask1_1307_4880" style="mask-type:luminance" maskUnits="userSpaceOnUse" x="225" y="109"
    width="9" height="9">
    <path fill-rule="evenodd" clip-rule="evenodd"
      d="M231.314 114.906L233.438 117.041L233.041 117.438L230.906 115.314C229.634 116.369 227.758 116.237 226.645 115.015C225.532 113.794 225.576 111.913 226.745 110.745C227.913 109.576 229.794 109.532 231.015 110.645C232.237 111.758 232.369 113.634 231.314 114.906ZM228.938 110.406C227.54 110.406 226.406 111.54 226.406 112.938C226.406 114.336 227.54 115.469 228.938 115.469C230.336 115.469 231.469 114.336 231.469 112.938C231.469 111.54 230.336 110.406 228.938 110.406Z"
      fill="white" />
  </mask>
  <g mask="url(#mask1_1307_4880)">
    <rect width="18" height="18" transform="translate(225 109)" fill="#161616" />
  </g>
</svg>