<?xml version="1.0" encoding="UTF-8"?>
<!DOCTYPE svg PUBLIC "-//W3C//DTD SVG 1.1//EN" "http://www.w3.org/Graphics/SVG/1.1/DTD/svg11.dtd">
<svg xmlns="http://www.w3.org/2000/svg" version="1.1" width="640px" height="360px" style="shape-rendering:geometricPrecision; text-rendering:geometricPrecision; image-rendering:optimizeQuality; fill-rule:evenodd; clip-rule:evenodd" xmlns:xlink="http://www.w3.org/1999/xlink">
<g><path style="opacity:1" fill="#f1f2f4" d="M 509.5,103.5 C 382.167,103.5 254.833,103.5 127.5,103.5C 127.5,91.5 127.5,79.5 127.5,67.5C 254.833,67.5 382.167,67.5 509.5,67.5C 509.5,79.5 509.5,91.5 509.5,103.5 Z"/></g>
<g><path style="opacity:1" fill="#8c8d8c" d="M 177.5,75.5 C 178.822,78.7681 179.489,82.4348 179.5,86.5C 179.167,90.1667 178.833,93.8333 178.5,97.5C 177.503,90.1968 177.169,82.8635 177.5,75.5 Z"/></g>
<g><path style="opacity:1" fill="#3e3e3e" d="M 461.5,81.5 C 458.833,80.1667 456.167,80.1667 453.5,81.5C 454.312,80.0069 455.645,79.3402 457.5,79.5C 459.355,79.3402 460.688,80.0069 461.5,81.5 Z"/></g>
<g><path style="opacity:1" fill="#ececec" d="M 461.5,81.5 C 462.15,83.4352 462.483,85.4352 462.5,87.5C 461.167,88.1667 460.167,89.1667 459.5,90.5C 457.435,90.4828 455.435,90.1495 453.5,89.5C 452.167,86.8333 452.167,84.1667 453.5,81.5C 456.167,80.1667 458.833,80.1667 461.5,81.5 Z"/></g>
<g><path style="opacity:1" fill="#8c8d8c" d="M 143.5,83.5 C 154.167,83.5 164.833,83.5 175.5,83.5C 175.5,85.5 175.5,87.5 175.5,89.5C 164.833,89.5 154.167,89.5 143.5,89.5C 143.5,87.5 143.5,85.5 143.5,83.5 Z"/></g>
<g><path style="opacity:1" fill="#393939" d="M 453.5,81.5 C 452.167,84.1667 452.167,86.8333 453.5,89.5C 452.007,88.6879 451.34,87.3545 451.5,85.5C 451.34,83.6455 452.007,82.3121 453.5,81.5 Z"/></g>
<g><path style="opacity:1" fill="#313131" d="M 461.5,81.5 C 462.947,82.1342 463.613,83.3009 463.5,85C 463.472,86.0698 463.139,86.9032 462.5,87.5C 462.483,85.4352 462.15,83.4352 461.5,81.5 Z"/></g>
<g><path style="opacity:1" fill="#585858" d="M 482.5,82.5 C 484.436,83.259 486.269,84.259 488,85.5C 492.969,81.6384 493.469,82.3051 489.5,87.5C 493.5,92.8333 492.833,93.5 487.5,89.5C 482.305,93.4687 481.638,92.9687 485.5,88C 484.259,86.2691 483.259,84.4358 482.5,82.5 Z"/></g>
<g><path style="opacity:1" fill="#323232" d="M 462.5,87.5 C 462.5,88.5 462.5,89.5 462.5,90.5C 461.5,90.5 460.5,90.5 459.5,90.5C 460.167,89.1667 461.167,88.1667 462.5,87.5 Z"/></g>
<g><path style="opacity:1" fill="#313131" d="M 453.5,89.5 C 455.435,90.1495 457.435,90.4828 459.5,90.5C 458.903,91.1386 458.07,91.472 457,91.5C 455.301,91.6134 454.134,90.9468 453.5,89.5 Z"/></g>
<g><path style="opacity:1" fill="#717171" d="M 462.5,90.5 C 464.384,90.7118 465.717,91.7118 466.5,93.5C 464.219,94.2617 462.886,93.2617 462.5,90.5 Z"/></g>
<g><path style="opacity:1" fill="#2a69f9" d="M 127.5,103.5 C 254.833,103.5 382.167,103.5 509.5,103.5C 509.5,104.833 509.5,106.167 509.5,107.5C 508.833,107.5 508.167,107.5 507.5,107.5C 381.5,107.5 255.5,107.5 129.5,107.5C 128.833,107.5 128.167,107.5 127.5,107.5C 127.5,106.167 127.5,104.833 127.5,103.5 Z"/></g>
<g><path style="opacity:1" fill="#c7c7c7" d="M 127.5,107.5 C 128.167,107.5 128.833,107.5 129.5,107.5C 129.5,118.833 129.5,130.167 129.5,141.5C 255.5,141.5 381.5,141.5 507.5,141.5C 507.5,130.167 507.5,118.833 507.5,107.5C 508.167,107.5 508.833,107.5 509.5,107.5C 509.5,168.833 509.5,230.167 509.5,291.5C 382.167,291.5 254.833,291.5 127.5,291.5C 127.5,230.167 127.5,168.833 127.5,107.5 Z"/></g>
<g><path style="opacity:1" fill="#fefffe" d="M 129.5,107.5 C 255.5,107.5 381.5,107.5 507.5,107.5C 507.5,118.833 507.5,130.167 507.5,141.5C 381.5,141.5 255.5,141.5 129.5,141.5C 129.5,130.167 129.5,118.833 129.5,107.5 Z"/></g>
<g><path style="opacity:1" fill="#8c8d8c" d="M 143.5,121.5 C 186.167,121.5 228.833,121.5 271.5,121.5C 271.5,123.5 271.5,125.5 271.5,127.5C 228.833,127.5 186.167,127.5 143.5,127.5C 143.5,125.5 143.5,123.5 143.5,121.5 Z"/></g>
<g><path style="opacity:1" fill="#fefffe" d="M 129.5,143.5 C 255.5,143.5 381.5,143.5 507.5,143.5C 507.5,155.167 507.5,166.833 507.5,178.5C 381.5,178.5 255.5,178.5 129.5,178.5C 129.5,166.833 129.5,155.167 129.5,143.5 Z"/></g>
<g><path style="opacity:1" fill="#8c8d8c" d="M 143.5,157.5 C 186.167,157.5 228.833,157.5 271.5,157.5C 271.5,159.5 271.5,161.5 271.5,163.5C 228.833,163.5 186.167,163.5 143.5,163.5C 143.5,161.5 143.5,159.5 143.5,157.5 Z"/></g>
<g><path style="opacity:1" fill="#fefefe" d="M 129.5,180.5 C 255.5,180.5 381.5,180.5 507.5,180.5C 507.5,192.167 507.5,203.833 507.5,215.5C 381.5,215.5 255.5,215.5 129.5,215.5C 129.5,203.833 129.5,192.167 129.5,180.5 Z"/></g>
<g><path style="opacity:1" fill="#8c8d8c" d="M 143.5,193.5 C 186.167,193.5 228.833,193.5 271.5,193.5C 271.5,195.5 271.5,197.5 271.5,199.5C 228.833,199.5 186.167,199.5 143.5,199.5C 143.5,197.5 143.5,195.5 143.5,193.5 Z"/></g>
<g><path style="opacity:1" fill="#fefefe" d="M 129.5,217.5 C 255.5,217.5 381.5,217.5 507.5,217.5C 507.5,229.167 507.5,240.833 507.5,252.5C 381.5,252.5 255.5,252.5 129.5,252.5C 129.5,240.833 129.5,229.167 129.5,217.5 Z"/></g>
<g><path style="opacity:1" fill="#8c8d8c" d="M 143.5,231.5 C 186.167,231.5 228.833,231.5 271.5,231.5C 271.5,233.5 271.5,235.5 271.5,237.5C 228.833,237.5 186.167,237.5 143.5,237.5C 143.5,235.5 143.5,233.5 143.5,231.5 Z"/></g>
<g><path style="opacity:1" fill="#fefffe" d="M 129.5,254.5 C 255.5,254.5 381.5,254.5 507.5,254.5C 507.5,266.167 507.5,277.833 507.5,289.5C 381.5,289.5 255.5,289.5 129.5,289.5C 129.5,277.833 129.5,266.167 129.5,254.5 Z"/></g>
<g><path style="opacity:1" fill="#8c8d8c" d="M 143.5,269.5 C 186.167,269.5 228.833,269.5 271.5,269.5C 271.5,271.5 271.5,273.5 271.5,275.5C 228.833,275.5 186.167,275.5 143.5,275.5C 143.5,273.5 143.5,271.5 143.5,269.5 Z"/></g>
</svg>
