<?xml version="1.0" encoding="UTF-8"?>
<!DOCTYPE svg PUBLIC "-//W3C//DTD SVG 1.1//EN" "http://www.w3.org/Graphics/SVG/1.1/DTD/svg11.dtd">
<svg xmlns="http://www.w3.org/2000/svg" version="1.1" width="640px" height="360px" style="shape-rendering:geometricPrecision; text-rendering:geometricPrecision; image-rendering:optimizeQuality; fill-rule:evenodd; clip-rule:evenodd" xmlns:xlink="http://www.w3.org/1999/xlink">
<g><path style="opacity:0.827" fill="#fefffe" d="M 381.5,93.5 C 382.5,93.5 383.5,93.5 384.5,93.5C 384.5,97.1667 384.5,100.833 384.5,104.5C 388.5,104.5 392.5,104.5 396.5,104.5C 396.5,105.5 396.5,106.5 396.5,107.5C 392.5,107.5 388.5,107.5 384.5,107.5C 384.5,111.167 384.5,114.833 384.5,118.5C 383.5,118.5 382.5,118.5 381.5,118.5C 381.5,114.833 381.5,111.167 381.5,107.5C 377.833,107.5 374.167,107.5 370.5,107.5C 370.5,106.5 370.5,105.5 370.5,104.5C 374.167,104.5 377.833,104.5 381.5,104.5C 381.5,100.833 381.5,97.1667 381.5,93.5 Z"/></g>
<g><path style="opacity:1" fill="#8c8d8c" d="M 139.5,95.5 C 155.5,95.5 171.5,95.5 187.5,95.5C 187.5,97.5 187.5,99.5 187.5,101.5C 171.5,101.5 155.5,101.5 139.5,101.5C 139.5,99.5 139.5,97.5 139.5,95.5 Z"/></g>
<g><path style="opacity:1" fill="#8c8d8c" d="M 215.5,95.5 C 231.5,95.5 247.5,95.5 263.5,95.5C 263.5,97.5 263.5,99.5 263.5,101.5C 247.5,101.5 231.5,101.5 215.5,101.5C 215.5,99.5 215.5,97.5 215.5,95.5 Z"/></g>
<g><path style="opacity:1" fill="#8c8d8c" d="M 291.5,95.5 C 307.5,95.5 323.5,95.5 339.5,95.5C 339.5,97.5 339.5,99.5 339.5,101.5C 323.5,101.5 307.5,101.5 291.5,101.5C 291.5,99.5 291.5,97.5 291.5,95.5 Z"/></g>
<g><path style="opacity:1" fill="#c5c6c5" d="M 123.5,119.5 C 254.168,119.167 384.835,119.5 515.5,120.5C 450.167,120.833 384.833,121.167 319.5,121.5C 253.83,121.5 188.497,120.833 123.5,119.5 Z"/></g>
<g><path style="opacity:1" fill="#a7a8a7" d="M 139.5,143.5 C 155.5,143.5 171.5,143.5 187.5,143.5C 187.5,145.5 187.5,147.5 187.5,149.5C 171.5,149.5 155.5,149.5 139.5,149.5C 139.5,147.5 139.5,145.5 139.5,143.5 Z"/></g>
<g><path style="opacity:1" fill="#a7a8a7" d="M 215.5,143.5 C 231.5,143.5 247.5,143.5 263.5,143.5C 263.5,145.5 263.5,147.5 263.5,149.5C 247.5,149.5 231.5,149.5 215.5,149.5C 215.5,147.5 215.5,145.5 215.5,143.5 Z"/></g>
<g><path style="opacity:1" fill="#a7a8a7" d="M 291.5,143.5 C 358.833,143.5 426.167,143.5 493.5,143.5C 493.5,145.5 493.5,147.5 493.5,149.5C 426.167,149.5 358.833,149.5 291.5,149.5C 291.5,147.5 291.5,145.5 291.5,143.5 Z"/></g>
<g><path style="opacity:1" fill="#c5c6c5" d="M 123.5,167.5 C 254.168,167.167 384.835,167.5 515.5,168.5C 450.167,168.833 384.833,169.167 319.5,169.5C 253.83,169.5 188.497,168.833 123.5,167.5 Z"/></g>
<g><path style="opacity:1" fill="#a7a8a7" d="M 139.5,189.5 C 155.5,189.5 171.5,189.5 187.5,189.5C 187.5,191.5 187.5,193.5 187.5,195.5C 171.5,195.5 155.5,195.5 139.5,195.5C 139.5,193.5 139.5,191.5 139.5,189.5 Z"/></g>
<g><path style="opacity:1" fill="#a7a8a7" d="M 215.5,189.5 C 231.5,189.5 247.5,189.5 263.5,189.5C 263.5,191.5 263.5,193.5 263.5,195.5C 247.5,195.5 231.5,195.5 215.5,195.5C 215.5,193.5 215.5,191.5 215.5,189.5 Z"/></g>
<g><path style="opacity:1" fill="#a7a8a7" d="M 291.5,189.5 C 358.833,189.5 426.167,189.5 493.5,189.5C 493.5,191.5 493.5,193.5 493.5,195.5C 426.167,195.5 358.833,195.5 291.5,195.5C 291.5,193.5 291.5,191.5 291.5,189.5 Z"/></g>
<g><path style="opacity:1" fill="#c5c6c5" d="M 123.5,215.5 C 254.168,215.167 384.835,215.5 515.5,216.5C 450.167,216.833 384.833,217.167 319.5,217.5C 253.83,217.5 188.497,216.833 123.5,215.5 Z"/></g>
<g><path style="opacity:1" fill="#a7a8a7" d="M 139.5,237.5 C 155.5,237.5 171.5,237.5 187.5,237.5C 187.5,239.5 187.5,241.5 187.5,243.5C 171.5,243.5 155.5,243.5 139.5,243.5C 139.5,241.5 139.5,239.5 139.5,237.5 Z"/></g>
<g><path style="opacity:1" fill="#a7a8a7" d="M 215.5,237.5 C 231.5,237.5 247.5,237.5 263.5,237.5C 263.5,239.5 263.5,241.5 263.5,243.5C 247.5,243.5 231.5,243.5 215.5,243.5C 215.5,241.5 215.5,239.5 215.5,237.5 Z"/></g>
<g><path style="opacity:1" fill="#a7a8a7" d="M 291.5,237.5 C 358.833,237.5 426.167,237.5 493.5,237.5C 493.5,239.5 493.5,241.5 493.5,243.5C 426.167,243.5 358.833,243.5 291.5,243.5C 291.5,241.5 291.5,239.5 291.5,237.5 Z"/></g>
<g><path style="opacity:1" fill="#c5c6c5" d="M 123.5,263.5 C 254.168,263.167 384.835,263.5 515.5,264.5C 450.167,264.833 384.833,265.167 319.5,265.5C 253.83,265.5 188.497,264.833 123.5,263.5 Z"/></g>
</svg>
