<svg width="320" height="320" viewBox="0 0 320 320" fill="none" xmlns="http://www.w3.org/2000/svg">
  <rect x="62" y="130" width="196" height="1" fill="#C6C6C6" />
  <rect x="62" y="154" width="196" height="1" fill="#C6C6C6" />
  <rect x="62" y="178" width="196" height="1" fill="#C6C6C6" />
  <rect x="62" y="202" width="196" height="1" fill="#C6C6C6" />
  <rect x="70" y="118" width="24" height="3" fill="#8D8D8D" />
  <rect x="108" y="118" width="24" height="3" fill="#8D8D8D" />
  <rect x="146" y="118" width="24" height="3" fill="#8D8D8D" />
  <rect x="70" y="142" width="24" height="3" fill="#A8A8A8" />
  <rect x="70" y="165" width="24" height="3" fill="#A8A8A8" />
  <rect x="70" y="189" width="24" height="3" fill="#A8A8A8" />
  <rect x="108" y="142" width="24" height="3" fill="#A8A8A8" />
  <rect x="108" y="165" width="24" height="3" fill="#A8A8A8" />
  <rect x="108" y="189" width="24" height="3" fill="#A8A8A8" />
  <rect x="146" y="142" width="101" height="3" fill="#A8A8A8" />
  <rect x="146" y="165" width="101" height="3" fill="#A8A8A8" />
  <rect x="146" y="189" width="101" height="3" fill="#A8A8A8" />
</svg>