<?xml version="1.0" encoding="UTF-8"?>
<svg width="320px" height="320px" viewBox="0 0 320 320" version="1.1" xmlns="http://www.w3.org/2000/svg" xmlns:xlink="http://www.w3.org/1999/xlink">
    <title>tab_extended</title>
    <g id="tab_extended" stroke="none" stroke-width="1" fill="none" fill-rule="evenodd">
        <g id="Group-4" transform="translate(55.000000, 136.000000)">
            <g id="Group" transform="translate(0.000000, 9.000000)">
                <g id="Tab-2" fill="#E0E0E0">
                    <rect id="bar" x="0" y="0" width="209.6" height="3"></rect>
                </g>
                <g id="Tab-1-Copy" transform="translate(0.210000, 0.000000)" fill="#0F62FE">
                    <rect id="bar" x="0" y="0" width="41.6" height="3"></rect>
                </g>
            </g>
            <g id="Group-3" transform="translate(7.000000, -0.000000)">
                <rect id="Rectangle-Copy-7" fill="#A8A8A8" x="0" y="-3.35287353e-14" width="20" height="3.28571429"></rect>
                <rect id="Rectangle-Copy-8" fill="#C6C6C6" x="44" y="-3.35287353e-14" width="20" height="3.28571429"></rect>
                <rect id="Rectangle-Copy-9" fill="#C6C6C6" x="88" y="-3.35287353e-14" width="20" height="3.28571429"></rect>
                <rect id="Rectangle-Copy-10" fill="#C6C6C6" x="132" y="-3.35287353e-14" width="20" height="3.28571429"></rect>
                <rect id="Rectangle-Copy-11" fill="#C6C6C6" x="176" y="-3.35287353e-14" width="20" height="3.28571429"></rect>
            </g>
        </g>
        <g id="Group-2" transform="translate(62.000000, 156.285714)" fill="#C6C6C6">
            <rect id="Rectangle-Copy-4" x="-1.84741111e-13" y="-3.24185123e-14" width="134.714286" height="3.28571429"></rect>
            <rect id="Rectangle-Copy-5" x="-1.84741111e-13" y="6.57142857" width="134.714286" height="3.28571429"></rect>
            <rect id="Rectangle-Copy-6" x="-1.84741111e-13" y="13.1428571" width="134.714286" height="3.28571429"></rect>
            <rect id="Rectangle-Copy-7" x="1.3500312e-13" y="19.7142857" width="67.3571429" height="3.28571429"></rect>
        </g>
    </g>
</svg>
