<?xml version="1.0" encoding="UTF-8"?>
<!DOCTYPE svg PUBLIC "-//W3C//DTD SVG 1.1//EN" "http://www.w3.org/Graphics/SVG/1.1/DTD/svg11.dtd">
<svg xmlns="http://www.w3.org/2000/svg" version="1.1" width="640px" height="360px" style="shape-rendering:geometricPrecision; text-rendering:geometricPrecision; image-rendering:optimizeQuality; fill-rule:evenodd; clip-rule:evenodd" xmlns:xlink="http://www.w3.org/1999/xlink">
<g><path style="opacity:1" fill="#8c8d8c" d="M 123.5,137.5 C 136.833,137.5 150.167,137.5 163.5,137.5C 163.5,139.5 163.5,141.5 163.5,143.5C 150.167,143.5 136.833,143.5 123.5,143.5C 123.5,141.5 123.5,139.5 123.5,137.5 Z"/></g>
<g><path style="opacity:1" fill="#a7a8a7" d="M 211.5,137.5 C 224.833,137.5 238.167,137.5 251.5,137.5C 251.5,139.5 251.5,141.5 251.5,143.5C 238.167,143.5 224.833,143.5 211.5,143.5C 211.5,141.5 211.5,139.5 211.5,137.5 Z"/></g>
<g><path style="opacity:1" fill="#a7a8a7" d="M 299.5,137.5 C 312.833,137.5 326.167,137.5 339.5,137.5C 339.5,139.5 339.5,141.5 339.5,143.5C 326.167,143.5 312.833,143.5 299.5,143.5C 299.5,141.5 299.5,139.5 299.5,137.5 Z"/></g>
<g><path style="opacity:1" fill="#a7a8a7" d="M 387.5,137.5 C 400.833,137.5 414.167,137.5 427.5,137.5C 427.5,139.5 427.5,141.5 427.5,143.5C 414.167,143.5 400.833,143.5 387.5,143.5C 387.5,141.5 387.5,139.5 387.5,137.5 Z"/></g>
<g><path style="opacity:1" fill="#a7a8a7" d="M 475.5,137.5 C 488.833,137.5 502.167,137.5 515.5,137.5C 515.5,139.5 515.5,141.5 515.5,143.5C 502.167,143.5 488.833,143.5 475.5,143.5C 475.5,141.5 475.5,139.5 475.5,137.5 Z"/></g>
<g><path style="opacity:1" fill="#1563fd" d="M 193.5,155.5 C 193.5,157.5 193.5,159.5 193.5,161.5C 165.5,161.5 137.5,161.5 109.5,161.5C 109.5,159.5 109.5,157.5 109.5,155.5C 137.5,155.5 165.5,155.5 193.5,155.5 Z"/></g>
<g><path style="opacity:1" fill="#f3f3f3" d="M 193.5,155.5 C 305.5,155.5 417.5,155.5 529.5,155.5C 529.5,157.5 529.5,159.5 529.5,161.5C 417.5,161.5 305.5,161.5 193.5,161.5C 193.5,159.5 193.5,157.5 193.5,155.5 Z"/></g>
<g><path style="opacity:1" fill="#a7a8a7" d="M 123.5,185.5 C 213.5,185.5 303.5,185.5 393.5,185.5C 393.5,187.5 393.5,189.5 393.5,191.5C 303.5,191.5 213.5,191.5 123.5,191.5C 123.5,189.5 123.5,187.5 123.5,185.5 Z"/></g>
<g><path style="opacity:1" fill="#a7a8a7" d="M 123.5,199.5 C 213.5,199.5 303.5,199.5 393.5,199.5C 393.5,201.5 393.5,203.5 393.5,205.5C 303.5,205.5 213.5,205.5 123.5,205.5C 123.5,203.5 123.5,201.5 123.5,199.5 Z"/></g>
<g><path style="opacity:1" fill="#a7a8a7" d="M 123.5,213.5 C 213.5,213.5 303.5,213.5 393.5,213.5C 393.5,215.5 393.5,217.5 393.5,219.5C 303.5,219.5 213.5,219.5 123.5,219.5C 123.5,217.5 123.5,215.5 123.5,213.5 Z"/></g>
<g><path style="opacity:1" fill="#a7a8a7" d="M 123.5,227.5 C 171.5,227.5 219.5,227.5 267.5,227.5C 267.5,229.5 267.5,231.5 267.5,233.5C 219.5,233.5 171.5,233.5 123.5,233.5C 123.5,231.5 123.5,229.5 123.5,227.5 Z"/></g>
</svg>
