<?xml version="1.0" encoding="UTF-8"?>
<!DOCTYPE svg PUBLIC "-//W3C//DTD SVG 1.1//EN" "http://www.w3.org/Graphics/SVG/1.1/DTD/svg11.dtd">
<svg xmlns="http://www.w3.org/2000/svg" version="1.1" width="640px" height="360px" style="shape-rendering:geometricPrecision; text-rendering:geometricPrecision; image-rendering:optimizeQuality; fill-rule:evenodd; clip-rule:evenodd" xmlns:xlink="http://www.w3.org/1999/xlink">
<g><path style="opacity:0.983" fill="#ffeff0" d="M 124.5,113.5 C 145.567,113.034 166.567,113.534 187.5,115C 197.319,121.46 200.152,130.293 196,141.5C 193.359,146.144 189.525,149.311 184.5,151C 163.436,151.966 142.436,151.632 121.5,150C 110.794,142.146 108.628,132.313 115,120.5C 117.825,117.524 120.992,115.191 124.5,113.5 Z"/></g>
<g><path style="opacity:0.989" fill="#ffeff6" d="M 218.5,113.5 C 251.835,113.333 285.168,113.5 318.5,114C 329.61,118.483 333.777,126.65 331,138.5C 328.833,144.667 324.667,148.833 318.5,151C 285.167,151.667 251.833,151.667 218.5,151C 207.39,146.517 203.223,138.35 206,126.5C 208.353,120.315 212.52,115.982 218.5,113.5 Z"/></g>
<g><path style="opacity:0.988" fill="#f7f0ff" d="M 352.5,113.5 C 380.502,113.333 408.502,113.5 436.5,114C 447.61,118.483 451.777,126.65 449,138.5C 446.833,144.667 442.667,148.833 436.5,151C 408.5,151.667 380.5,151.667 352.5,151C 341.39,146.517 337.223,138.35 340,126.5C 342.353,120.315 346.52,115.982 352.5,113.5 Z"/></g>
<g><path style="opacity:1" fill="#d91e27" d="M 127.5,129.5 C 145.5,129.5 163.5,129.5 181.5,129.5C 181.5,131.5 181.5,133.5 181.5,135.5C 163.5,135.5 145.5,135.5 127.5,135.5C 127.5,133.5 127.5,131.5 127.5,129.5 Z"/></g>
<g><path style="opacity:1" fill="#d02764" d="M 221.5,129.5 C 252.833,129.5 284.167,129.5 315.5,129.5C 315.5,131.5 315.5,133.5 315.5,135.5C 284.167,135.5 252.833,135.5 221.5,135.5C 221.5,133.5 221.5,131.5 221.5,129.5 Z"/></g>
<g><path style="opacity:1" fill="#8a3ffc" d="M 353.5,129.5 C 380.167,129.5 406.833,129.5 433.5,129.5C 433.5,131.5 433.5,133.5 433.5,135.5C 406.833,135.5 380.167,135.5 353.5,135.5C 353.5,133.5 353.5,131.5 353.5,129.5 Z"/></g>
<g><path style="opacity:0.995" fill="#edf4ff" d="M 124.5,161.5 C 146.899,161.032 169.233,161.532 191.5,163C 201.319,169.46 204.152,178.293 200,189.5C 197.359,194.144 193.525,197.311 188.5,199C 166.103,199.968 143.77,199.634 121.5,198C 110.794,190.146 108.628,180.313 115,168.5C 117.825,165.524 120.992,163.191 124.5,161.5 Z"/></g>
<g><path style="opacity:0.987" fill="#e3f6ff" d="M 222.5,161.5 C 244.899,161.032 267.233,161.532 289.5,163C 299.319,169.46 302.152,178.293 298,189.5C 295.359,194.144 291.525,197.311 286.5,199C 264.103,199.968 241.77,199.634 219.5,198C 208.794,190.146 206.628,180.313 213,168.5C 215.825,165.524 218.992,163.191 222.5,161.5 Z"/></g>
<g><path style="opacity:0.989" fill="#dbfafa" d="M 320.5,161.5 C 342.899,161.032 365.233,161.532 387.5,163C 397.319,169.46 400.152,178.293 396,189.5C 393.359,194.144 389.525,197.311 384.5,199C 362.103,199.968 339.77,199.634 317.5,198C 306.794,190.146 304.628,180.313 311,168.5C 313.825,165.524 316.992,163.191 320.5,161.5 Z"/></g>
<g><path style="opacity:0.994" fill="#dafae4" d="M 418.5,161.5 C 450.502,161.333 482.502,161.5 514.5,162C 525.61,166.483 529.777,174.65 527,186.5C 524.833,192.667 520.667,196.833 514.5,199C 482.5,199.667 450.5,199.667 418.5,199C 407.39,194.517 403.223,186.35 406,174.5C 408.353,168.315 412.52,163.982 418.5,161.5 Z"/></g>
<g><path style="opacity:1" fill="#0061ff" d="M 127.5,177.5 C 146.833,177.5 166.167,177.5 185.5,177.5C 185.5,179.5 185.5,181.5 185.5,183.5C 166.167,183.5 146.833,183.5 127.5,183.5C 127.5,181.5 127.5,179.5 127.5,177.5 Z"/></g>
<g><path style="opacity:1" fill="#0071c3" d="M 225.5,177.5 C 244.833,177.5 264.167,177.5 283.5,177.5C 283.5,179.5 283.5,181.5 283.5,183.5C 264.167,183.5 244.833,183.5 225.5,183.5C 225.5,181.5 225.5,179.5 225.5,177.5 Z"/></g>
<g><path style="opacity:1" fill="#007d78" d="M 323.5,177.5 C 342.167,177.5 360.833,177.5 379.5,177.5C 379.5,179.5 379.5,181.5 379.5,183.5C 360.833,183.5 342.167,183.5 323.5,183.5C 323.5,181.5 323.5,179.5 323.5,177.5 Z"/></g>
<g><path style="opacity:1" fill="#198037" d="M 421.5,177.5 C 450.833,177.5 480.167,177.5 509.5,177.5C 509.5,179.5 509.5,181.5 509.5,183.5C 480.167,183.5 450.833,183.5 421.5,183.5C 421.5,181.5 421.5,179.5 421.5,177.5 Z"/></g>
<g><path style="opacity:0.995" fill="#f1f4f8" d="M 124.5,209.5 C 163.835,209.333 203.168,209.5 242.5,210C 253.61,214.483 257.777,222.65 255,234.5C 252.833,240.667 248.667,244.833 242.5,247C 203.167,247.667 163.833,247.667 124.5,247C 113.39,242.517 109.223,234.35 112,222.5C 114.353,216.315 118.52,211.982 124.5,209.5 Z"/></g>
<g><path style="opacity:0.994" fill="#f7f3f0" d="M 276.5,209.5 C 320.501,209.333 364.501,209.5 408.5,210C 419.61,214.483 423.777,222.65 421,234.5C 418.833,240.667 414.667,244.833 408.5,247C 364.5,247.667 320.5,247.667 276.5,247C 265.39,242.517 261.223,234.35 264,222.5C 266.353,216.315 270.52,211.982 276.5,209.5 Z"/></g>
<g><path style="opacity:1" fill="#121719" d="M 127.5,225.5 C 164.833,225.5 202.167,225.5 239.5,225.5C 239.5,227.5 239.5,229.5 239.5,231.5C 202.167,231.5 164.833,231.5 127.5,231.5C 127.5,229.5 127.5,227.5 127.5,225.5 Z"/></g>
<g><path style="opacity:1" fill="#191716" d="M 279.5,225.5 C 321.5,225.5 363.5,225.5 405.5,225.5C 405.5,227.5 405.5,229.5 405.5,231.5C 363.5,231.5 321.5,231.5 279.5,231.5C 279.5,229.5 279.5,227.5 279.5,225.5 Z"/></g>
</svg>
