<svg width="320" height="320" viewBox="0 0 320 320" fill="none" xmlns="http://www.w3.org/2000/svg">
  <rect x="60" y="101" width="200" height="109" fill="#C6C6C6" />
  <rect width="39" height="4" transform="matrix(1 0 0 -1 60 220)" fill="#A8A8A8" />
  <circle cx="160" cy="156" r="12" fill="#525252" />
  <path fill-rule="evenodd" clip-rule="evenodd"
    d="M157.332 160.186C157.137 160.186 156.979 160.027 156.979 159.832V152.054C156.979 151.927 157.046 151.811 157.156 151.747C157.265 151.684 157.4 151.684 157.509 151.748L164.227 155.637C164.336 155.7 164.403 155.817 164.403 155.943C164.403 156.069 164.336 156.185 164.227 156.249L157.509 160.138C157.455 160.169 157.394 160.186 157.332 160.186Z"
    fill="white" />
</svg>