<?xml version="1.0" encoding="UTF-8"?>
<svg width="32px" height="32px" viewBox="0 0 32 32" version="1.1" xmlns="http://www.w3.org/2000/svg" xmlns:xlink="http://www.w3.org/1999/xlink">
    <title>devtool_icon</title>
    <g id="devtool_icon" stroke="none" stroke-width="1" fill="none" fill-rule="evenodd">
        <g id="Group-5-Copy" fill="#171717">
            <path d="M14.5574365,19.9349501 L15.2207088,20.5913793 L20.7706728,26.0840831 C21.812801,27.1154595 21.9028479,27.8479649 20.8695048,28.8717336 C19.95476,29.8226865 19.0114638,29.8465962 18.0725601,28.9184661 C18.0462049,28.8912961 18.0165553,28.864126 17.9902001,28.8358691 L12.439138,23.3431652 L11.7769638,22.686736 C11.7769638,22.686736 7.45690871,24.2734688 4.42386545,21.2717181 C1.7510098,18.6264389 2.43624477,16.4789156 2.59876845,15.8920418 L5.71526982,19.0111673 C6.99679099,20.3914075 9.84534791,20.6076813 11.2399768,19.3393819 C11.2542525,19.3263402 11.2685282,19.3143854 11.282804,19.300257 C12.5862878,17.9417528 12.5665214,14.9617382 11.1927571,13.6706159 C11.1784813,13.6575742 11.1642056,13.6445326 11.1499299,13.6314909 L8.01805465,10.5297543 C8.55394354,10.3612998 10.4723818,9.9580958 13.0398167,12.4990419 C15.9619485,15.3910255 14.5574365,19.9349501 14.5574365,19.9349501 M8.66762255,8.00004914 C7.02079584,7.99443271 5.41036309,8.47041323 4.03307915,9.36797648 L9.52515524,14.8394858 C10.2826045,15.4843261 10.3724521,16.617613 9.72532202,17.3723821 C9.71736084,17.3825817 9.70712504,17.3939146 9.69688924,17.4052475 C8.95649961,18.067087 7.81691372,18.0058895 7.15272395,17.2681197 L7.12201654,17.2352544 L1.45934377,11.7614785 C0.48011877,13.1984863 -0.0293966756,14.9006833 0.00131072844,16.6357456 C0.0195077086,21.3966841 3.88750331,25.2521262 8.66762255,25.2702588 C9.41824798,25.274792 10.1665988,25.1886622 10.8978899,25.0152693 L16.6458611,30.7429015 C18.3290817,32.4190328 21.0563541,32.4190328 22.7384375,30.7429015 C24.4205208,29.0667701 24.4205208,26.349148 22.7384375,24.6730166 L16.9893291,18.9442511 C17.164475,18.2166809 17.252048,17.4698448 17.2474987,16.7207422 C17.3418955,11.9994688 13.5773953,8.09642854 8.84049386,8.00236572 C8.78249098,8.00123243 8.72448811,8.00004914 8.66762255,8.00004914" id="Fill-1"></path>
            <path d="M20.0523103,1.19769191 C19.6544933,0.934102698 19.1236713,0.934102698 18.7258543,1.19769191 L12,4.99045568 L15.5863439,5.89402049 L19.3884832,3.63054905 L29.597521,9.48412919 L29.597521,21.0594949 L25.92552,23.1679363 L27.7756085,25 L31.3361729,23.0328519 C31.7339899,22.77045 32,22.3762536 32,21.8490752 L32,8.69454891 C32,8.16974517 31.7339899,7.77436136 31.3361729,7.51077215 L20.0523103,1.19769191 Z" id="Fill-3"></path>
        </g>
    </g>
</svg>