<?xml version="1.0" encoding="UTF-8"?>
<svg width="33px" height="29px" viewBox="0 0 33 29" version="1.1" xmlns="http://www.w3.org/2000/svg" xmlns:xlink="http://www.w3.org/1999/xlink">
    <!-- Generator: Sketch 58 (84663) - https://sketch.com -->
    <title>sketch-symbol copy 2</title>
    <desc>Created with Sketch.</desc>
    <g id="Resources" stroke="none" stroke-width="1" fill="none" fill-rule="evenodd">
        <g id="Resources---v2" transform="translate(-671.000000, -1840.000000)" fill-rule="nonzero">
            <g id="sketch-symbol-copy-2" transform="translate(671.000000, 1840.000000)">
                <polygon id="Shape" fill="#FDB300" points="7.074938 0.954324416 16.2133995 0 25.3518611 0.954324416 32.426799 10.3358186 16.2133995 28.9855822 0 10.3358186"></polygon>
                <g id="Group" transform="translate(0.000000, 10.335819)">
                    <polygon id="Shape" fill="#EA6C00" points="6.56723967 0 16.2134141 18.6497697 0 0"></polygon>
                    <polygon id="Shape" fill="#EA6C00" transform="translate(24.320077, 9.324885) scale(-1, 1) translate(-24.320077, -9.324885) " points="22.7806099 0 32.4267844 18.6497697 16.2133703 0"></polygon>
                    <polygon id="Shape" fill="#FDAD00" points="6.56723967 0 25.8595886 0 16.2134141 18.6497697"></polygon>
                </g>
                <g id="Group">
                    <polygon id="Shape" fill="#FDD231" points="16.2134141 0 7.07491136 0.954311798 6.56723967 10.3358118"></polygon>
                    <polygon id="Shape" fill="#FDD231" transform="translate(21.036452, 5.167906) scale(-1, 1) translate(-21.036452, -5.167906) " points="25.8595388 0 16.721036 0.954311798 16.2133643 10.3358118"></polygon>
                    <polygon id="Shape" fill="#FDAD00" transform="translate(28.889329, 5.645062) scale(-1, 1) translate(-28.889329, -5.645062) " points="25.3518318 10.3358118 32.4268256 0.954311798 31.9190715 10.3358118"></polygon>
                    <polygon id="Shape" fill="#FDAD00" points="0 10.3358118 7.07491136 0.954311798 6.56723967 10.3358118"></polygon>
                    <polygon id="Shape" fill="#FEEEB7" points="16.2134141 0 6.56723967 10.3358118 25.8595886 10.3358118"></polygon>
                </g>
            </g>
        </g>
    </g>
</svg>