<?xml version="1.0" encoding="UTF-8"?>
<svg width="32px" height="28px" viewBox="0 0 32 28" version="1.1" xmlns="http://www.w3.org/2000/svg" xmlns:xlink="http://www.w3.org/1999/xlink">
    <!-- Generator: Sketch 58 (84663) - https://sketch.com -->
    <title>Wake_mark</title>
    <desc>Created with Sketch.</desc>
    <g id="Resources" stroke="none" stroke-width="1" fill="none" fill-rule="evenodd">
        <g id="Resources---v2" transform="translate(-351.000000, -3110.000000)">
            <g id="Group-19" transform="translate(335.000000, 2993.000000)">
                <g id="Wake_mark" transform="translate(16.000000, 115.000000)">
                    <rect id="Rectangle-21-Copy" opacity="0" x="0" y="0" width="32" height="32"></rect>
                    <g id="wake" transform="translate(0.000000, 2.000000)" fill="#0C77F8" fill-rule="nonzero">
                        <path d="M16,13.8101622 L23.1031351,20.7152432 L28.416,15.552 L32,19.0322162 L23.1031351,27.6756757 L16,20.7705946 L8.89686486,27.6756757 L0,19.0313514 L3.584,15.5528649 L8.89686486,20.7152432 L16,13.8101622 Z M16,-5.15143483e-14 L23.1031351,6.90508108 L28.416,1.7427027 L32,5.22118919 L23.1031351,13.8655135 L16,6.96043243 L8.89686486,13.8655135 L0,5.22118919 L3.584,1.7427027 L8.89686486,6.90508108 L16,-5.15143483e-14 Z" id="Combined-Shape"></path>
                    </g>
                </g>
            </g>
        </g>
    </g>
</svg>